<?xml version="1.0" encoding="UTF-8"?>
<svg width="24px" height="24px" viewBox="0 0 24 24" version="1.1" xmlns="http://www.w3.org/2000/svg" xmlns:xlink="http://www.w3.org/1999/xlink">
    <!-- Generator: Sketch 55.1 (78136) - https://sketchapp.com -->
    <title>Flags/cyprus</title>
    <desc>Created with Sketch.</desc>
    <g id="Icons" stroke="none" stroke-width="1" fill="none" fill-rule="evenodd">
        <g id="Flags/cyprus">
            <g id="cyprus">
                <circle id="Oval" fill="#EEEEEE" fill-rule="nonzero" cx="12" cy="12" r="12"></circle>
                <path d="M18.7828125,10.434375 L17.2171875,10.434375 C17.2171875,13.3157481 14.8813731,15.6515625 12,15.6515625 C9.11862691,15.6515625 6.7828125,13.3157481 6.7828125,10.434375 L5.2171875,10.434375 C5.2171875,13.5375 7.303125,16.153125 10.1484375,16.959375 C9.82473824,17.5719027 9.89661446,18.3183096 10.33125,18.8578125 L12.0328125,17.4890625 L13.7390625,18.8578125 C14.1767309,18.3134056 14.2450933,17.5595716 13.9125,16.9453125 C16.8000885,16.0950659 18.7828125,13.4445388 18.7828125,10.434375 L18.7828125,10.434375 Z" id="Path" fill="#6DA544" fill-rule="nonzero"></path>
                <path d="M7.828125,9.9140625 C7.828125,9.9140625 7.828125,12.5203125 10.434375,12.5203125 L10.9546875,13.0453125 L12,13.0453125 C12,13.0453125 12.5203125,11.4796875 13.565625,11.4796875 C13.565625,11.4796875 13.565625,10.434375 14.6109375,10.434375 L16.171875,10.434375 C16.171875,10.434375 15.65625,8.3484375 18.2625,6.7828125 L17.2171875,6.2625 C17.2171875,6.2625 13.5609375,8.86875 10.9546875,8.3484375 L10.9546875,9.3890625 L9.9140625,9.3890625 L9.3890625,8.8734375 L7.828125,9.9140625 L7.828125,9.9140625 Z" id="Path" fill="#FFDA44" fill-rule="nonzero"></path>
                <circle id="Oval" stroke="#FFFFFF" cx="12" cy="12" r="11.5"></circle>
            </g>
        </g>
    </g>
</svg>