<svg xmlns="http://www.w3.org/2000/svg" width="24" height="24"><g fill="none" fill-rule="evenodd"><g fill-rule="nonzero"><path fill="#F5F5F5" d="M23.5 12H.5a11.5 11.5 0 0 1 23 0Z"/><path fill="#73AF00" d="M23.5 12a11.5 11.5 0 0 1-23 0h23Z"/></g><g fill="#FF4B55" fill-rule="nonzero"><path d="m18.26 8.74.3.82.04-.06.2-1.02.5-.95-.14.02L18 8.1l-.7.78c0 .02.96-.14.96-.14Z"/><path d="M18.66 16.24a17.9 17.9 0 0 0-.6.02l-.19-.62-.1-1.17.2-.05.25.11.09-.47s-.22-.23-.26-.25l-.53-.13-.66-.87.78-.43.62-.85.14-.76-.12-.63-.28-.46v-.03h-.02l-.05-.1v.06a7.6 7.6 0 0 0-.43-.24c-.08-.04-.52-.12-.6-.05-.1.07-.51.26-.59.4-.07.14-.12.64-.12.64s.12.28.28.34c.15.07.45.14.5.12.05-.01.53-.15.66-.21l.05.12-.02.33-.27.19-.5.2s-.76-.22-.79-.21l-.97-.28-.89-.2.3-.15.8-.06s.15-.9.18-.92l.55-.43.43-.1-.26-1.12.4-1.2-1.03.29-1.63.4-1.03-.07-.92.3-.59.53-.33.46-.12.73-.08.97-.28.53-.32.26-.2-.46.4-.1-.1-.27-.3-.21.1-.33.32.18.1.07.05-.34-.36-.5.06-.26.43.23-.05-.59-.38-.24.02-.32.42.12-.04-.3-.46-.34.45-.72-.55.03-.04-.24-.14-.05s-.76.32-.81.3c-.06 0-.66-.08-.73-.07l-.33.08-.07.28-.46-.07L6.95 7l-.2.25.32.13S7 7.96 7.02 8c.02.05.22.33.22.33l-.45.61.46.07.63-.1-.02.15.84-.09-.19.1-.24.72-.7 1.42-.24 1.26-.4-.41-.25-1.08-.4-1.06s-.08-.33-.13-.34l-.26-.05-.27.22-.34-.05-.2.27.22.35s-.36.14-.36.19c0 .04.02.27.05.28h.58l.33.59-.26.69.13.26.23.03.21-.25.74 2.2s-.06.29-.1.31c-.04.03-.24.25-.19.25.05 0 .35.04.38.02.04-.01.46-.34.46-.34s.67-.52.71-.47c.04.04.68.43.68.43l-.3 1.01-.69 1.02-.43-.27-.31-.44-.23.08-.08.14.03.29s-.24.19-.24.23l.03.33s.15.08.16.12l.1.33.16.06.3-.19h.52l.32.05.68-.21.99.05-.1-.19s-.4-.2-.53-.24l-.28-.08-.06-.29.97-1.15.36-.07.13.3s.4-.1.4-.13v-.41c0-.04-.09-.3-.09-.3v-.03l.3-.06 1.08-.5.37.44.47.23-.58 1.04-.5.34-.36-.16-.5-.37-.2.12.04.37-.3-.02-.12.26.22.31-.08.25s.05.23.1.23c.06 0 .39-.12.39-.12l.96-.07.7-.23.73.05s.14-.49.1-.49H13v-.1l.23-.44.93-.78.27.06.1.14.27-.2-.01-.36-.24-.25-.24-.28.08-.42.41.2s.65.45.7.47l1.33.35.26.62-.13.98-.4-.12-.39-.49s-.1-.05-.16-.04c-.06 0-.19.23-.19.23l.13.3-.17.06-.16.1-.04.23.16.15v.3c0 .02.08.14.12.15a2 2 0 0 0 .34.04c.06 0 .5-.19.5-.19l.87.01.74-.16.41.06s.28-.2.26-.23a1.81 1.81 0 0 0-.32-.29Zm-1.56-5.9c-.22.03-.34.1-.36-.03-.01-.12-.01-.37.01-.38.03 0 .28-.15.29-.13 0 .03.26.15.26.15l.16.31c-.08.04-.21.06-.36.08Zm-11.14-2s.09-.47.11-.47l.36-.12-1-.65.2.86c0 .07.33.38.33.38Z"/></g><g fill="#464655" fill-rule="nonzero"><path d="m8.5 7.6.05.02-.01.06c-.01.11.02.22.07.25a.05.05 0 0 0 .03 0c.04 0 .08-.06.1-.15v-.1c.07.02.15.03.23.03.06 0 .12 0 .17-.03.06-.03.09-.14.08-.25-.02-.1-.07-.18-.12-.15-.16.07-.46-.04-.56-.09-.05-.02-.1.04-.12.16-.01.1.02.22.07.24Z"/><path d="m18.2 8.96.25.76a.1.1 0 0 0 .1.06.1.1 0 0 0 .09-.07c.18-.78.54-2 .8-2.2a.1.1 0 0 0-.08-.18 3.6 3.6 0 0 0-2.16 1.55.1.1 0 0 0 0 .11.1.1 0 0 0 .1.04l.72-.15c-.1.24-.16.46-.18.54-.33-.2-.7-.24-.96-.17a1.07 1.07 0 0 0-.67.51.74.74 0 0 0-.07.57c.06.2.23.46.53.55.2.07.5.08.92-.17 0 .17-.09.3-.25.4-.32.2-.9.21-1.26.03a6.4 6.4 0 0 0-1.65-.44c.25-.08.56-.1.94-.02h.03a.1.1 0 0 0 .06-.02.1.1 0 0 0 .02-.07v-.02s-.1-.57.2-.95c.17-.23.47-.36.87-.37h.02l.02-.02.02-.01.01-.02.01-.01a.1.1 0 0 0 .01-.05.1.1 0 0 0 0-.03c-.02-.02-.79-1.56.47-2.59a.1.1 0 0 0-.12-.15 6.72 6.72 0 0 1-3.63.96c-1.2 0-1.97.45-2.33 1.39a1.88 1.88 0 0 0-.1.34.74.74 0 0 0-.09-.46.69.69 0 0 0-.36-.28V8.2c.13-.02.3.08.34.13a.1.1 0 0 0 .11 0 .1.1 0 0 0 .05-.09.84.84 0 0 0-.55-.75c.19-.15.39-.4.5-.79a.1.1 0 0 0-.13-.11s-.2.1-.5.2l.02-.36a.1.1 0 0 0-.14-.1c0 .01-.51.3-1.02.44-.39-.1-.9-.17-1.08.03a.3.3 0 0 0-.08.24c-.33-.07-1.09-.18-1.54.12a.1.1 0 0 0 .05.18c.14 0 .37.04.46.1a1 1 0 0 0-.05.57.81.81 0 0 1-.66-.07l.22-.05a.1.1 0 0 0 .02-.18s-.56-.3-1.03-.78a.1.1 0 0 0-.17.05c0 .04-.08.97.62 1.52a.1.1 0 0 0 .1.01.1.1 0 0 0 .06-.08l.03-.35c.35.21.64.19.89.11a.6.6 0 0 0 .15.16.84.84 0 0 1-.5.48.1.1 0 0 0 0 .18c.02.01.53.23 1.1.03v.06a.1.1 0 0 0 .02.08.1.1 0 0 0 .07.04h.02c.07 0 .29-.01.54-.07-.04.35-.25.77-.48 1.21-.31.6-.65 1.28-.65 1.96a1.82 1.82 0 0 1-.33-.7 5.01 5.01 0 0 1-.06-.3c-.04-.22-.07-.4-.2-.58-.14-.2-.35-.65-.34-.9a.36.36 0 0 0-.29-.38h-.03a.4.4 0 0 0-.35-.22c-.05-.01-.1.03-.1.09 0 .05.03.1.09.1a.23.23 0 0 1 .15.07.4.4 0 0 0-.17.17.52.52 0 0 0-.37-.07l-.06.03a.44.44 0 0 0-.46.04.1.1 0 1 0 .1.16.28.28 0 0 1 .2-.04.4.4 0 0 0-.06.2.3.3 0 0 0 .2.28.52.52 0 0 0-.32.18l-.02.04c-.1.01-.23.07-.31.26a.1.1 0 1 0 .17.08c.04-.08.09-.12.12-.13.1.3.4.24.58.2l.07-.02c.1-.02.29.28.33.47.04.14-.02.3-.2.59-.11.17-.08.3-.03.38a.26.26 0 0 1-.11.01.1.1 0 0 0-.11.08.1.1 0 0 0 .08.11.5.5 0 0 0 .07 0 .4.4 0 0 0 .24-.06.4.4 0 0 0 .17.03c.14 0 .23-.13.3-.27.17.99.59 1.91.66 2.07-.02.35-.4.44-.41.44a.1.1 0 0 0-.02.19c.17.06.3.09.44.09a.78.78 0 0 0 .65-.35c.29-.1.63-.34.76-.43.22.16.4.25.46.28a3.38 3.38 0 0 1-.9 1.93c-.12-.07-.38-.24-.47-.45-.08-.19-.24-.24-.37-.23-.04-.06-.13-.16-.27-.17a.32.32 0 0 0-.26.1.1.1 0 0 0 .14.14c.05-.05.09-.05.1-.05.04 0 .08.03.1.06a.29.29 0 0 0-.1.24.42.42 0 0 0 .06.18.53.53 0 0 0-.21.2l-.01.01a.39.39 0 0 0-.36.36.1.1 0 1 0 .2.03c0-.1.05-.15.1-.17a.36.36 0 0 0 .01.13.46.46 0 0 0 .24.25.47.47 0 0 0-.02.13.44.44 0 0 0-.2.19.3.3 0 0 0-.01.24.1.1 0 1 0 .18-.07c-.02-.04 0-.07 0-.09a.2.2 0 0 1 .07-.08.3.3 0 0 0 .17.14.33.33 0 0 0 .1.02.4.4 0 0 0 .31-.16c.1-.13.27-.05.28-.05.37.14.87.03 1.18-.14.17-.1.76-.04 1.1.01a.1.1 0 0 0 .07-.02.1.1 0 0 0 .04-.06c.03-.34-.4-.43-.76-.5-.1-.02-.19-.04-.27-.08-.04-.2.48-.92.97-1.28.12-.1.22-.13.27-.1.07.04.09.21.08.32v.01a.1.1 0 0 0 .01.03v.02a.1.1 0 0 0 .03.02.1.1 0 0 0 .04.03h.05l.03-.02c.05-.03.14 0 .2.03a.29.29 0 0 0-.01.12c0 .05.02.1.04.15-.1-.01-.19 0-.25.05l-.06.06a.39.39 0 0 0-.35.3.1.1 0 1 0 .19.05.17.17 0 0 1 .06-.1c0 .03 0 .07.02.1.01.06.07.15.2.2a.5.5 0 0 0-.03.06.35.35 0 0 0-.25.35.1.1 0 0 0 .2 0c0-.03 0-.06.02-.09v.05c.03.06.1.18.3.18a.79.79 0 0 0 .25-.05c.23-.07.4-.08.56-.09a1.48 1.48 0 0 0 .62-.14 1.8 1.8 0 0 1 1.06-.06.27.27 0 0 0 .31-.15l.04-.12c.11.02.14.13.14.15a.1.1 0 0 0 .2-.02c-.02-.1-.1-.29-.3-.32a.25.25 0 0 0-.04-.17c-.04-.04-.11-.1-.26-.06-.15.03-.22.03-.25.03a.7.7 0 0 1 .04-.1c.1-.2.67-.73 1.05-1.04.1-.02.21-.02.24.01l-.01.1a.1.1 0 0 0 .15.12c.01-.01.37-.26.36-.57 0-.16-.1-.3-.27-.4-.15-.1-.23-.2-.25-.33a.45.45 0 0 1 .06-.3 2 2 0 0 1 .43.28 3 3 0 0 0 1.9.8c.09.17.32.77.12 1.39a.67.67 0 0 1-.46-.33c-.14-.23-.3-.29-.42-.3-.18-.01-.37.1-.52.28a.1.1 0 0 0 .14.13c.03-.02.07-.05.1-.03l.01.05.04.1a.34.34 0 0 0-.21.1.42.42 0 0 0-.08.15.47.47 0 0 0-.28.18.1.1 0 0 0 .02.13.1.1 0 0 0 .14-.02s.04-.06.1-.08a.34.34 0 0 0 .04.1.26.26 0 0 0 .14.11.7.7 0 0 0-.02.1c-.24.1-.2.39-.13.53a.1.1 0 0 0 .18-.08s-.06-.14-.02-.22c.04.1.12.16.23.2a.53.53 0 0 0 .15.01c.16 0 .3-.07.4-.13.1-.05.18-.1.25-.1l.16.03c.23.04.55.09.86-.02l.16-.05c.25-.09.35-.12.5-.03.19.1.43.04.56-.1a.3.3 0 0 0 .07-.13c.06.03.12.05.12.07a.1.1 0 1 0 .19.06.18.18 0 0 0-.01-.15c-.07-.12-.26-.18-.35-.2-.16-.22-.4-.28-.8-.22a.05.05 0 0 1-.04-.01c-.14-.12-.17-.73-.2-1.09a1.63 1.63 0 0 0-.06-.54c.02-.02.14-.02.22.04.04.03.04.05.03.08a1.04 1.04 0 0 0 0 .01.1.1 0 0 0 .18.07.27.27 0 0 0 .01-.02c.03-.1.18-.55.01-.83a.48.48 0 0 0-.37-.23c-.43-.06-.75-.33-.97-.8a2.23 2.23 0 0 0 1.5-1.8c.11-.8-.18-1.26-.44-1.5L18 9.53l.02-.03s.06-.25.18-.54Zm-.69-.17a3.55 3.55 0 0 1 1.62-1.18 8.9 8.9 0 0 0-.6 1.72l-.2-.62c.05-.13.12-.24.2-.34a.1.1 0 0 0-.16-.12c-.1.12-.18.27-.25.41l-.6.13ZM5.9 8.2a1.6 1.6 0 0 1-.4-1c.26.25.52.43.7.54l-.16.03-.1-.07a.1.1 0 0 0-.12.15l.1.08-.02.27Zm7.4 3.23a5.92 5.92 0 0 0-2.1-2.64l.07-.14a10.2 10.2 0 0 1 3.8 1.78 1.85 1.85 0 0 0-1.77 1Zm2.22-1.94c-.22.28-.26.62-.25.85-.45-.38-1.72-1.3-3.92-1.87l.1-.13h.02c2.7-.11 4.22.47 4.77.74-.31.06-.56.2-.72.41Zm-2.16-1.98c.6 0 1.98-.07 3.17-.66-.51.77-.33 1.64-.18 2.06-.55-.28-2.04-.86-4.75-.77.4-.42.97-.63 1.76-.63Zm-2.3 2.1c.02-.23.05-.44.09-.62a5.77 5.77 0 0 1 1.98 2.56 1.25 1.25 0 0 0-.86.08 1.23 1.23 0 0 0-.44.4c-.05-.5-.21-1.37-.8-2.06l-.01-.01.04-.36Zm-.12 2.99c-.46-.1-.65-.57-.66-.59a.1.1 0 0 0-.16-.04c-.32.3-.72.38-.92.4.15-.5.6-.76 1.2-1.1l.02-.02a.92.92 0 0 0 .34-.37c0 .24.02.52.06.75a.1.1 0 0 0 .2-.04c-.1-.5-.04-1.25-.03-1.35.57.77.64 1.74.65 2.06-.33-.06-.52-.32-.52-.32a.1.1 0 0 0-.16 0c-.15.2-.09.45-.02.62Zm-.35-2.69a.87.87 0 0 0-.28-.24l.06-.29c.1.09.27.27.22.54Zm-.44.35c.03.01.2.04.28.27a.43.43 0 0 0-.28.05 1.02 1.02 0 0 1 0-.32Zm.35.5a.1.1 0 0 0 .1.02.77.77 0 0 1-.22.26.84.84 0 0 1-.17-.26.25.25 0 0 1 .29-.01Zm.34-1.44a.1.1 0 0 0 .07-.07 14.09 14.09 0 0 0-.04.33 4.2 4.2 0 0 1-.22 1.09c-.03-.42-.3-.57-.46-.6l.03-.08a2.75 2.75 0 0 0 .04-.13c.09.06.21.21.28.32a.1.1 0 0 0 .08.04h.01a.1.1 0 0 0 .08-.05c.24-.5-.08-.87-.3-1l.02-.11c.13.06.26.18.31.23a.1.1 0 0 0 .1.03Zm-.17-.62c.06.09.08.2.07.33a1.01 1.01 0 0 0-.29-.18l.03-.33c.06.03.14.08.2.18Zm.07-.67a.55.55 0 0 0-.27-.05 2.12 2.12 0 0 0-.05-.3.62.62 0 0 1 .32.35Zm-.63-1.46-.02.25c-.15.03-.32.06-.5.06a5.39 5.39 0 0 0-.1-.03c.25-.1.48-.2.62-.28ZM7.25 8.17a.42.42 0 0 1-.06-.06l.06-.02c.14-.05.27-.1.39-.11.28-.02.36.1.38.12v.08c-.05.07-.12.1-.22.12a.97.97 0 0 1-.55-.13Zm.69.62a.1.1 0 0 0-.1 0 1.37 1.37 0 0 1-.89.1 1.07 1.07 0 0 0 .38-.47c.11.05.25.08.4.08a.83.83 0 0 0 .1 0 .5.5 0 0 0 .35-.2.27.27 0 0 0 0-.29c-.03-.07-.17-.25-.55-.23-.16.01-.3.07-.45.13l-.07.03c-.06-.24.06-.5.06-.5a.1.1 0 0 0 0-.09c-.06-.08-.17-.13-.28-.17.53-.1 1.2.08 1.22.08a.1.1 0 0 0 .11-.13c-.04-.1-.04-.17 0-.2.15-.17.87 0 1.33.15h.03c.46 0 .85-.13 1.09-.23-.27.58-.72.66-.74.66a.1.1 0 0 0-.08.12.1.1 0 0 0 .11.08.93.93 0 0 0 .24-.08c.2.53.04 1.73-.17 2.3-.23.64.03 1.05.19 1.22-.62.36-1.1.67-1.24 1.3l-.08.32a1.5 1.5 0 0 1-.45-1.58l.22-.62c.22-.58.43-1.14.28-1.66a.93.93 0 0 0 .16-.15c.17-.2.23-.45.18-.76a.1.1 0 0 0-.11-.08.1.1 0 0 0-.08.12c.04.24 0 .44-.14.6-.25.3-.77.35-1 .37l.02-.13a.1.1 0 0 0-.04-.09Zm.88 4.47c-.17.2-.52.48-.65.59a2.48 2.48 0 0 1-.35-.42c.5-.09.8-.4.91-.54a.62.62 0 0 0 .1.07h.04l-.04.3h-.01Zm-1.2-1.79c.08.03.29.08.48.08l.1-.01v.35c-.15.1-.51.1-.7.1.02-.17.06-.35.12-.52Zm.25-.58c.07.02.21.04.36.04a.87.87 0 0 0 .1 0l-.06.2a1.72 1.72 0 0 0-.05.21 1.3 1.3 0 0 1-.53-.05c.05-.14.11-.27.18-.4Zm.22-.45.08-.14c.08.02.25.06.37.07l-.05.14-.08.2a.1.1 0 0 0-.04.01.96.96 0 0 1-.41-.01l.13-.27Zm.31-.64c.07.03.19.07.3.07h.01l-.1.31a2.4 2.4 0 0 1-.35-.06l.14-.32Zm.14-.37h.15a.86.86 0 0 0 .1 0 1.95 1.95 0 0 1-.03.23c-.07.02-.2 0-.28-.04l.06-.2Zm-.92 2.76c.18 0 .45-.02.63-.1l.1.25a1.82 1.82 0 0 1-.85.3 1.78 1.78 0 0 1-.03-.46h.15Zm.81.33c.06.08.1.16.16.22-.08.11-.37.45-.88.5a2.06 2.06 0 0 1-.17-.4c.17-.02.55-.09.9-.32Zm.34-3.5c.02.06.03.14.03.21a1.03 1.03 0 0 1-.22 0l.02-.14.17-.08Zm-1.32 5.45a.1.1 0 0 0-.06.05c0 .02-.17.34-.61.28a.63.63 0 0 0 .3-.54.1.1 0 0 0-.01-.04c-.01-.02-.65-1.38-.74-2.6a.1.1 0 0 0-.1-.08.1.1 0 0 0-.1.09c-.02.3-.12.65-.22.66-.04 0-.13-.03-.17-.08-.02-.05-.01-.1.03-.18.18-.28.3-.51.23-.74-.04-.18-.26-.67-.56-.61l-.08.01c-.25.06-.31.05-.35-.06a.08.08 0 0 1 .02-.08c.04-.06.15-.1.27-.11.23-.01.32.08.32.09a.1.1 0 0 0 .17-.1s-.1-.3-.49-.35c-.09-.01-.1-.07-.11-.11 0-.08.04-.17.13-.19.15-.03.44.1.57.6a.1.1 0 0 0 .12.07.1.1 0 0 0 .07-.12 1.18 1.18 0 0 0-.29-.55h.01c.05-.13.15-.15.22-.14.06.02.13.07.13.2-.02.32.24.82.37 1 .1.14.13.29.17.5l.06.3a2 2 0 0 0 .55.99c.1.68.49 1.15.84 1.46-.15.1-.45.3-.7.38Zm.87-.49c.11-.09.31-.25.48-.42a9.05 9.05 0 0 0-.02.64v.09a2.82 2.82 0 0 1-.46-.31Zm6.06-.65.17-.51c.17.06.32.13.47.2l-.32.46a2.02 2.02 0 0 0-.32-.15Zm-.19-.06a1.82 1.82 0 0 0-.28-.05l.07-.56.07.02.31.08-.17.5Zm-.47-.06-.3.03-.05-.62a3.3 3.3 0 0 1 .41.02l-.06.57Zm-.55-.59.06.65-.3.1-.18-.7.42-.05Zm-.3 1.89a1.24 1.24 0 0 1-.22-.11l.35-.66.02.02c.04.06.04.14.02.23a5.51 5.51 0 0 1-.17.52Zm-.43-.65c.12-.08.25-.16.4-.23l-.35.66a2.15 2.15 0 0 1-.3-.28l.25-.15Zm.12-1.16.18.76a3.31 3.31 0 0 0-.28.15l-.29-.82.39-.09Zm-.58.14.3.87c-.11.09-.23.16-.35.22l-.29-.98.34-.11Zm-.52.17.3 1.01-.37.18-.33-1.01.02-.03.38-.15Zm-.52.43.27.83a5.6 5.6 0 0 1-.45.16c-.05-.32.06-.7.18-1Zm-.06 1.8c.07-.17.05-.36-.06-.6v-.02a6.26 6.26 0 0 0 1.2-.51c.1.12.39.44.78.58-.22.54-.56 1.16-.9 1.2-.27.05-.42-.11-.57-.28-.13-.14-.27-.3-.48-.2l-.04.04a.77.77 0 0 0-.07-.03.5.5 0 0 0 .14-.19Zm3.32-1.34c.03.18.15.34.35.46.11.08.17.16.17.24 0 .1-.05.19-.12.27a.2.2 0 0 0-.03-.05c-.13-.14-.4-.08-.45-.06a.1.1 0 0 0-.04.02c-.1.08-.99.8-1.12 1.11-.06.12-.1.24-.03.32.07.1.2.08.45.03a.23.23 0 0 1 .05 0h.02s.01.09-.07.27a.08.08 0 0 1-.09.04 1.98 1.98 0 0 0-1.18.08c-.22.1-.37.1-.55.12a2.12 2.12 0 0 0-.61.1c-.06.02-.26.07-.3-.02-.03-.08.03-.22.1-.26l.54.01a.1.1 0 0 0 0-.2h-.57c-.07-.01-.2-.03-.22-.11-.02-.06.02-.15.08-.2.05-.04.23 0 .4.08a.79.79 0 0 0 .18.09.1.1 0 0 0 .08-.18 2.08 2.08 0 0 0-.16-.08c-.12-.08-.2-.2-.21-.28 0-.03 0-.07.07-.1.06-.04.1 0 .24.15.16.17.37.4.76.34.75-.12 1.28-2.03 1.29-2.05a.48.48 0 0 0-.04-.38.4.4 0 0 0-.12-.13 1.8 1.8 0 0 1 1.21-.03.64.64 0 0 0-.08.4Zm.66-.32.34-.46c.12.06.23.14.34.21l-.43.44-.1-.07a2.5 2.5 0 0 0-.15-.12Zm.84.58.43-.35.23.24-.35.24a2.95 2.95 0 0 1-.3-.13Zm-.19-.1a3.78 3.78 0 0 1-.24-.16l.43-.45.29.23-.48.38Zm.73.3.25-.16.19.24a2.2 2.2 0 0 1-.44-.07Zm2.04-3.32a2 2 0 0 1-1.38 1.64 2.48 2.48 0 0 0-.88-1.1.1.1 0 0 0-.09.17c.2.1.6.52.82 1.08.25.6.65.95 1.18 1.02.1.02.18.06.22.14.07.1.06.27.04.42-.13-.08-.33-.1-.44-.02-.07.05-.09.13-.05.22.02.06.03.27.04.48.03.6.07 1.07.27 1.23a.24.24 0 0 0 .2.05c.38-.06.53.02.62.17 0 0 .02.03-.03.08-.07.07-.21.12-.31.06-.23-.13-.4-.08-.66.02l-.16.05c-.27.08-.54.04-.77 0a3.42 3.42 0 0 0-.17-.02c-.13-.01-.24.05-.35.11-.14.08-.27.15-.42.1-.07-.02-.09-.05-.1-.08-.03-.07 0-.18.01-.25a.84.84 0 0 1 .25 0c.12.01.25.03.43-.04a.1.1 0 1 0-.07-.18.68.68 0 0 1-.34.02.94.94 0 0 0-.36.02c-.02 0-.06 0-.08-.03-.03-.05-.03-.15.04-.22.05-.06.15-.06.24-.04a.67.67 0 0 0 .2.07.1.1 0 0 0 .06-.19s-.08-.04-.19-.06c-.05-.04-.07-.1-.1-.18l-.02-.06a.25.25 0 0 0-.05-.08.3.3 0 0 1 .14-.03c.1 0 .19.07.27.2a.86.86 0 0 0 .7.43.1.1 0 0 0 .08-.06 2.2 2.2 0 0 0-.12-1.68 4.6 4.6 0 0 0-2.86-2.01c-1.38-.3-3.05.47-3.12.5a.1.1 0 0 0-.04.04c-.2.31-.53 1.12-.29 1.68.09.2.1.34.06.45-.03.07-.09.13-.18.18-.02-.12-.06-.28-.19-.35-.12-.07-.28-.03-.47.11-.46.34-1.11 1.13-1.05 1.48a.2.2 0 0 0 .14.17l.28.06c.2.04.44.09.55.18-.29-.04-.84-.09-1.06.03-.26.15-.7.24-1 .13-.12-.05-.37-.09-.52.11-.05.08-.14.1-.2.08-.05-.02-.07-.09-.07-.14 0-.23.22-.25.29-.25a.1.1 0 0 0 0-.2.5.5 0 0 0-.36.14c-.08-.04-.13-.1-.15-.15-.02-.07.01-.15.04-.2a.35.35 0 0 1 .17-.13c.11.1.24.18.3.2a.1.1 0 0 0 .14-.04.1.1 0 0 0-.05-.13c-.14-.06-.38-.24-.39-.39 0-.05.05-.1.1-.1.04-.01.13-.02.19.11.14.33.6.57.63.58a.1.1 0 0 0 .1-.02 3.47 3.47 0 0 0 1.03-2.42c0-.89.13-1.44.18-1.62a1.86 1.86 0 0 0 1.01-.37c.12.2.4.6.95.61a.1.1 0 0 0 .08-.15s-.15-.24-.12-.45c.13.12.35.28.67.3a.1.1 0 0 0 .05-.02l.02-.01a.1.1 0 0 0 .03-.04s.14-.44.52-.64c.25-.12.55-.13.9-.02h.05a.1.1 0 0 0 .04-.02.1.1 0 0 0 0-.01.1.1 0 0 0 .02-.02c.02-.04.22-.57.73-.89.01 0 1.22.14 1.89.47.2.1.45.15.7.15.28 0 .55-.07.75-.2a.66.66 0 0 0 .35-.55c0-.48-.29-.84-.57-.94-.17-.07-.34-.03-.45.1-.13.16-.12.37.02.5.15.13.43.15.7-.1a.9.9 0 0 1 .08.21c-.31.22-.6.29-.84.2a.67.67 0 0 1-.4-.42.54.54 0 0 1 .05-.42.88.88 0 0 1 .56-.41c.25-.07.66-.01.97.27.23.2.48.6.37 1.33Zm-.9-.92c-.2.19-.37.19-.46.11-.06-.05-.06-.14 0-.22a.17.17 0 0 1 .14-.07l.1.02a.57.57 0 0 1 .22.16Z"/></g><circle cx="12" cy="12" r="11.5" stroke="#FFF"/></g></svg>