<svg xmlns="http://www.w3.org/2000/svg" width="24" height="24"><g fill="none" fill-rule="evenodd"><path fill="#D80027" fill-rule="nonzero" d="M.1 11.92C.1 5.4 5.4.1 11.95.1 18.49.1 23.8 5.4 23.8 11.92c-.51 0-11.85 1.55-11.85 1.55L.1 11.92Z"/><path fill="#333" fill-rule="nonzero" d="M23.9 11.9c0 6.63-5.33 12-11.9 12S.1 18.53.1 11.9"/><circle cx="12" cy="12" r="11.5" stroke="#FFF"/><g fill="#FFDA44" fill-rule="nonzero"><path d="m10.35 9.54 1.02.74-.39 1.2 1.02-.75 1.01.74-.39-1.19 1.02-.74h-1.26L12 8.34l-.39 1.2z"/><path d="M15 6.8a5.96 5.96 0 0 0-3-.8v1.57c.78 0 1.54.2 2.22.6a4.44 4.44 0 0 1-4.44 7.67 4.4 4.4 0 0 1-1.48-1.4L7 15.3a6 6 0 1 0 8-8.5Z"/><path d="M8.54 10.95a1.57 1.57 0 0 0 .62 2.13l5.09 2.78c-.35.63-.16 1.4.46 1.75l1.38.75a1.3 1.3 0 0 0 1.77-.52l.75-1.37-10.07-5.52Z"/></g></g></svg>