<?xml version="1.0" encoding="UTF-8"?>
<svg width="24px" height="24px" viewBox="0 0 24 24" version="1.1" xmlns="http://www.w3.org/2000/svg" xmlns:xlink="http://www.w3.org/1999/xlink">
    <!-- Generator: Sketch 55.1 (78136) - https://sketchapp.com -->
    <title>Flags/kuwait</title>
    <desc>Created with Sketch.</desc>
    <g id="Icons" stroke="none" stroke-width="1" fill="none" fill-rule="evenodd">
        <g id="Flags/kuwait">
            <g id="kuwait">
                <g id="Group" transform="translate(0.500000, 0.500000)" fill-rule="nonzero">
                    <path d="M22.1946459,15.4377432 C23.1493749,12.8685792 23.1493749,10.0419266 22.1946459,7.47276265 L11.4553463,6.47490272 L0.716046726,7.47276265 C-0.238682242,10.0419266 -0.238682242,12.8685792 0.716046726,15.4377432 L11.4553463,16.4356031 L22.1946459,15.4377432 Z" id="Path" fill="#EEEEEE"></path>
                    <path d="M11.4553463,22.9105058 C16.2454095,22.9099211 20.5293506,19.9290121 22.1946459,15.4377432 L0.716046726,15.4377432 C2.38134209,19.9290121 6.6652832,22.9099211 11.4553463,22.9105058 Z" id="Path" fill="#D80027"></path>
                    <path d="M11.4553463,-5.32907052e-15 C6.6652832,0.000584699676 2.38134209,2.98149373 0.716046726,7.47276265 L22.1946459,7.47276265 C20.5293506,2.98149373 16.2454095,0.000584699676 11.4553463,-5.32907052e-15 Z" id="Path" fill="#6DA544"></path>
                    <path d="M3.35612455,3.35603113 C-1.11627647,7.82938766 -1.11627647,15.0811182 3.35612455,19.5544747 L7.47285606,15.4377432 L7.47285606,7.47276265 L3.35612455,3.35603113 Z" id="Path" fill="#333333"></path>
                </g>
                <circle id="Oval" stroke="#FFFFFF" cx="12" cy="12" r="11.5"></circle>
            </g>
        </g>
    </g>
</svg>