<?xml version="1.0" encoding="UTF-8"?>
<svg width="24px" height="24px" viewBox="0 0 24 24" version="1.1" xmlns="http://www.w3.org/2000/svg" xmlns:xlink="http://www.w3.org/1999/xlink">
    <!-- Generator: Sketch 55.1 (78136) - https://sketchapp.com -->
    <title>Flags/india</title>
    <desc>Created with Sketch.</desc>
    <g id="Icons" stroke="none" stroke-width="1" fill="none" fill-rule="evenodd">
        <g id="Flags/india">
            <g id="india">
                <path d="M11.439736,0.313078 L12.560264,0.313078 C17.4961913,0.538223102 21.6462764,3.72282011 23.218706,8.104328 L0.781294,8.104328 C2.3537236,3.72282011 6.50380875,0.538223102 11.439736,0.313078 Z" id="Combined-Shape" fill="#FAB446" fill-rule="nonzero"></path>
                <path d="M0.781294,15.9956719 L23.218706,15.9956719 C21.6462764,20.3209435 17.4961913,23.4646665 12.560264,23.6869219 L11.439736,23.6869219 C6.50380875,23.4646665 2.3537236,20.3209435 0.781294,15.9956719 Z" id="Combined-Shape" fill="#73AF00" fill-rule="nonzero"></path>
                <path d="M0.681260902,8.00442187 L23.3187391,8.00442187 C23.7599497,9.25428779 24,10.5991105 24,12 C24,13.4009245 23.7599377,14.7457795 23.318706,15.9956719 L0.681293997,15.9956719 C0.240062324,14.7457795 0,13.4009245 0,12 C0,10.5991105 0.24005032,9.25428779 0.681260902,8.00442187 Z" id="Combined-Shape" fill="#F5F5F5" fill-rule="nonzero"></path>
                <path d="M11.0927591,14.0372575 L11.5812656,12.6810469 L11.689146,12.480415 L11.6607,12.488943 L11.5311562,12.6475781 L10.4658229,13.6172383 C10.648341,13.790482 10.8600677,13.9332363 11.0927591,14.0372575 Z M11.2009937,14.0822484 C11.4491507,14.1777847 11.7185655,14.2301719 12,14.2301719 C12.0249685,14.2301719 12.0498424,14.2297595 12.0746152,14.2289413 L11.8737188,12.7894688 L11.9814145,12.430238 C11.9617894,12.4258043 11.9427478,12.4198317 11.9244231,12.4124536 L11.8146094,12.7777031 L11.2009937,14.0822484 Z M12.9072409,9.96302373 L12.5773812,10.8787928 L12.6237188,11.2108125 L12.6233377,11.2120837 L13.5341771,10.3830429 C13.351659,10.2097993 13.1399323,10.067045 12.9072409,9.96302373 Z M12.7990063,9.91803281 C12.6800223,9.87222602 12.5561514,9.83633883 12.4284118,9.81138955 L12.524688,10.5012327 L12.7990063,9.91803281 Z M14.0371169,12.9073815 L13.1213478,12.5775219 L12.7893281,12.6238594 L12.788057,12.6234783 L13.6170977,13.5343177 C13.7903413,13.3517996 13.9330957,13.140073 14.0371169,12.9073815 Z M14.0821078,12.7991469 C14.1279146,12.680163 14.1638018,12.556292 14.1887511,12.4285524 L13.4989079,12.5248286 L14.0821086,12.7991472 Z M9.9628831,11.0928997 L11.3190937,11.5814063 L11.596746,11.7307007 L11.3525625,11.5312969 L10.3829023,10.4659635 C10.2096587,10.6484816 10.0669043,10.8602083 9.9628831,11.0928997 Z M9.91789219,11.2011344 C9.82235596,11.4492913 9.76996875,11.7187061 9.76996875,12.0001406 C9.76996875,12.0251091 9.77038109,12.049983 9.77119932,12.0747558 L11.2106719,11.8738594 L11.6922271,12.0182274 C11.6946946,11.998155 11.6987482,11.9785732 11.7042587,11.9596115 L11.2224375,11.81475 L9.91789219,11.2011344 Z M12.9072409,14.0372575 C13.1399323,13.9332363 13.351659,13.790482 13.5341771,13.6172383 L12.6233377,12.7881976 L12.6237188,12.7894688 L12.5773812,13.1214884 L12.9072409,14.0372575 Z M12.7990066,14.0822492 L12.524688,13.4990485 L12.4284118,14.1888917 C12.5561514,14.1639424 12.6800223,14.1280552 12.7990063,14.0822484 Z M11.0927591,9.96302373 C10.8600677,10.067045 10.648341,10.2097993 10.4658229,10.3830429 L11.5311562,11.3527031 L11.7305601,11.5968867 L11.5812656,11.3192344 L11.0927591,9.96302373 Z M11.2009937,9.91803281 L11.8146094,11.2225781 L11.9594525,11.7043381 C11.9784121,11.6988218 11.9979921,11.6947622 12.018063,11.6922885 L11.8737188,11.2108125 L12.0746152,9.77133994 C12.0498424,9.77052171 12.0249685,9.77010937 12,9.77010937 C11.7185655,9.77010937 11.4491507,9.82249659 11.2009937,9.91803281 Z M14.0371169,11.0928997 C13.9330957,10.8602083 13.7903413,10.6484816 13.6170977,10.4659635 L12.6474375,11.5312969 L12.4888024,11.6608406 L12.4802744,11.6892866 L12.6809062,11.5814063 L14.0371169,11.0928997 Z M14.0821078,11.2011344 L12.7775625,11.81475 L12.4124303,11.9245285 C12.4198052,11.9428543 12.4257746,11.9618969 12.4302051,11.9815228 L12.7893281,11.8738594 L14.2288007,12.0747558 C14.2296189,12.049983 14.2300312,12.0251091 14.2300312,12.0001406 C14.2300312,11.7187061 14.177644,11.4492913 14.0821078,11.2011344 Z M9.9628831,12.9073815 C10.0669043,13.140073 10.2096587,13.3517996 10.3829023,13.5343177 L11.211943,12.6234783 L11.2106719,12.6238594 L10.8786522,12.5775219 L9.9628831,12.9073815 Z M9.9178914,12.7991472 L10.5010921,12.5248286 L9.81124892,12.4285524 C9.83619821,12.556292 9.87208539,12.680163 9.91789219,12.7991469 Z M12,14.7398906 C10.4892656,14.7398906 9.26025,13.510875 9.26025,12.0001406 C9.26025,10.4894062 10.4892656,9.26039062 12,9.26039062 C13.5107344,9.26039062 14.73975,10.4894062 14.73975,12.0001406 C14.73975,13.510875 13.5107344,14.7398906 12,14.7398906 Z" id="Shape" fill="#41479B" fill-rule="nonzero"></path>
                <circle id="Oval" fill="#F5F5F5" fill-rule="nonzero" cx="12.4098281" cy="12.409875" r="1"></circle>
                <circle id="Oval" fill="#41479B" fill-rule="nonzero" cx="12.4987969" cy="12.4988438" r="1"></circle>
                <circle id="Oval" stroke="#FFFFFF" cx="12" cy="12" r="11.5"></circle>
            </g>
        </g>
    </g>
</svg>