<svg xmlns="http://www.w3.org/2000/svg" width="24" height="24"><g fill="none" fill-rule="evenodd"><path fill="#F3F4F1" d="M24 12c0 .87-.1 1.71-.27 2.53a12.01 12.01 0 0 1-9.28 9.22 12.02 12.02 0 0 1-5-.02 12.02 12.02 0 0 1-9.18-9.2 12.06 12.06 0 0 1-.01-5A12.02 12.02 0 0 1 9.45.26 12 12 0 0 1 12 0c.84 0 1.66.09 2.45.25a12.02 12.02 0 0 1 9.3 9.27c.16.8.25 1.63.25 2.48"/><path fill="#B0252A" d="M14.46 14.53v9.22a12.01 12.01 0 0 1-5-.02v-9.2H.25A12.05 12.05 0 0 1 0 12c0-.85.09-1.68.26-2.48h9.2V.27A11.97 11.97 0 0 1 12 0c.84 0 1.66.09 2.46.25v9.27h9.28a12.05 12.05 0 0 1 0 5h-9.28Z"/><path fill="#FFFFFE" d="m17.15 9.09-3.65.24-1.52-3.2-1.53 3.2-3.65-.24 2.04 2.98-2.04 2.96 3.65-.21L12 18.07l1.5-3.25 3.65.22-2.04-2.97 2.04-2.98"/><path fill="#1B1A19" d="M10.48 14.77 12 17.95l1.48-3.18 3.58.21-2.01-2.9 2-2.94-3.57.24-1.5-3.14-1.5 3.14-3.58-.24 2 2.93-2 2.91 3.58-.21ZM12 18.18l-1.58-3.31-3.72.22 2.08-3.02L6.7 9.03l3.72.25L11.98 6l1.55 3.27 3.72-.25-2.08 3.04 2.08 3.02-3.71-.22L12 18.18Z"/><path fill="#B0252A" d="M12.96 14.43a.14.14 0 0 1-.15.12 16.29 16.29 0 0 0-.9-.06 7 7 0 0 0-.7.06.1.1 0 0 1-.11-.1c0-.26.01-.85-.06-1.07-.05-.16-.26-.43-.31-.6-.08-.26-.08-.8-.06-1.06.04-.48.23-1.92.23-1.92s0-.28.1-.38c.17-.16.3.13.3.13s.03-.6.13-.7c.2-.18.37.1.37.1s.06-.46.3-.46c.3 0 .31.48.31.48s.07-.12.16-.13c.19-.02.23.2.23.2l.26 2.8v.02h.02c.07-.16.34-.76.54-.87.08-.05.24-.1.26-.01.05.25-.23.8-.3 1.08-.05.2-.08.63-.15.8-.08.2-.36.43-.43.64-.07.22-.04.93-.04.93"/><path fill="#1B1A19" d="m13.01 11.85-.26-2.8c0-.02-.04-.18-.18-.16-.04 0-.1.07-.11.1v1.81h-.1V8.97s0-.43-.25-.43c-.2 0-.26.41-.26.42l-.01.08.03 1.8h-.1l-.03-1.89c-.03-.03-.09-.1-.16-.1-.04-.01-.08 0-.12.04-.05.05-.1.38-.1.67l-.01.17.03 1.2h-.1l-.03-1.37c-.02-.05-.07-.13-.13-.14-.01 0-.04 0-.08.04-.07.07-.08.27-.09.34 0 .02-.19 1.45-.23 1.92-.02.28-.02.8.06 1.05.02.08.09.19.15.3.07.1.13.21.16.3.07.22.06.77.06 1.08a.05.05 0 0 0 .05.05c.2-.02.53-.06.7-.06.19 0 .68.04.91.06a.09.09 0 0 0 .1-.07c0-.06-.03-.72.05-.94.03-.12.13-.24.22-.36.09-.1.17-.2.2-.3.04-.08.07-.26.1-.44.01-.13.03-.26.06-.35a3.9 3.9 0 0 1 .1-.32c.1-.26.22-.57.19-.73-.04-.02-.13 0-.19.04-.14.08-.36.49-.51.84a.07.07 0 0 1-.04.04 2.33 2.33 0 0 0-.23.27c-.07.11-.14.28-.14.28l-.1-.04a1.73 1.73 0 0 1 .4-.57Zm-.19 2.75a6.87 6.87 0 0 0-1.6 0 .15.15 0 0 1-.17-.15c0-.25.01-.84-.05-1.05a1.6 1.6 0 0 0-.15-.28 1.66 1.66 0 0 1-.17-.33c-.08-.26-.08-.8-.05-1.08.03-.46.22-1.84.22-1.91 0-.05.02-.3.12-.41.06-.07.13-.07.17-.06a.24.24 0 0 1 .13.08c.01-.2.05-.52.12-.59a.24.24 0 0 1 .2-.07c.08 0 .14.05.18.1.04-.16.13-.41.34-.41.24 0 .32.25.34.4a.2.2 0 0 1 .11-.05c.19-.02.27.15.29.24l.25 2.67c.12-.26.33-.66.5-.76.04-.02.18-.09.26-.05a.1.1 0 0 1 .06.08c.04.18-.08.5-.18.78l-.11.32-.06.34c-.03.18-.06.36-.1.46-.03.1-.12.22-.21.32-.09.11-.18.23-.21.33-.07.2-.05.9-.05.91a.18.18 0 0 1-.18.17Z"/><path fill="#96232F" d="M14.29 4.12c-.12-.05-.53 0-.53 0s-.08-.24-.32-.27c-.31-.05-1.18.41-1.18.41l-.11-.16v-.26l-.11.13-.14-.17v.34l-.12.16s-.88-.46-1.2-.42c-.24.04-.32.28-.32.28s-.4-.05-.52 0c-.1.05-.3.35-.3.35l.33.49.1.6.27.55 2-.13v-.03l1.77.12.3-.47.05-.68.34-.49s-.2-.3-.31-.35"/><path fill="#1B1A19" d="m9.9 5.59.24.54 1.96-.14v-.02l1.79.12.29-.45.06-.7.33-.47a1.3 1.3 0 0 0-.3-.32c-.09-.04-.4-.02-.5 0h-.02v-.03s-.09-.22-.31-.25c-.3-.04-1.17.41-1.18.41l-.02.01-.14-.18v-.2l-.09.1-.1-.14v.28l-.14.18h-.02c0-.01-.86-.46-1.17-.42-.22.03-.3.25-.3.25v.02h-.02a1.62 1.62 0 0 0-.5 0c-.09.04-.24.24-.3.33l.33.48.1.6Zm.2.59-.25-.58-.1-.6-.35-.49V4.5c.02-.02.21-.3.33-.36.11-.05.43-.02.51 0a.43.43 0 0 1 .34-.28c.3-.04 1.04.34 1.18.41l.1-.14v-.4l.15.2.14-.15v.31l.1.14c.14-.07.9-.45 1.2-.4.21.02.3.2.33.26.08 0 .4-.04.52.01.11.05.3.34.32.36v.01l-.34.5-.05.68-.32.49-1.76-.12v.02l-2.04.14Z"/><path fill="#F3CC2E" d="M14.31 4.96c.03-.02.56-.51.39-1.22-.11-.45-.42-.75-.82-.78-.28-.03-.47.08-.66.18l-.2.1c-.3.13-.7.2-.71.2l.04.24a4.03 4.03 0 0 0 .99-.33c.17-.09.31-.17.51-.15.43.04.57.43.6.6.15.56-.31 1.01-.33 1.03l.2.13"/><path fill="#1B1A19" d="m14.16 4.83.15.1c.09-.08.52-.54.36-1.19-.1-.44-.4-.72-.8-.76-.26-.02-.45.08-.64.18l-.2.1a3.72 3.72 0 0 1-.7.2l.04.19a3.85 3.85 0 0 0 .96-.32c.17-.1.32-.17.53-.15.44.04.58.44.62.6.13.53-.23.95-.32 1.05Zm.16.16-.24-.16.02-.02s.47-.45.34-1c-.04-.17-.18-.54-.59-.58-.2-.02-.34.06-.5.15a2.64 2.64 0 0 1-1 .32h-.02l-.05-.28h.02s.41-.08.7-.2l.2-.1c.2-.1.4-.21.68-.19.42.04.73.34.84.8.18.73-.36 1.23-.39 1.25l-.01.01Z"/><path fill="#F3F4F1" d="M14.13 2.9a.18.18 0 1 0 .36 0 .18.18 0 0 0-.36 0"/><path fill="#1B1A19" d="M14.6 2.8a.38.38 0 1 0 0 .77.38.38 0 0 0 0-.77Zm0 .89a.5.5 0 1 1 0-1 .5.5 0 0 1 0 1Z"/><path fill="#F3F4F1" d="M13.59 2.75a.18.18 0 1 0 .36 0 .18.18 0 0 0-.36 0"/><path fill="#1B1A19" d="M14.06 2.66a.38.38 0 0 0 0 .76.38.38 0 0 0 0-.76Zm0 .88a.5.5 0 1 1 0-1 .5.5 0 0 1 0 1Z"/><path fill="#F3F4F1" d="M13.14 2.85a.18.18 0 1 0 .37 0 .18.18 0 0 0-.37 0"/><path fill="#1B1A19" d="M13.62 2.75a.38.38 0 1 0 0 .77.38.38 0 0 0 0-.77Zm0 .89a.5.5 0 1 1 0-1 .5.5 0 0 1 0 1Z"/><path fill="#F3F4F1" d="M12.75 3.04a.18.18 0 1 0 .37 0 .18.18 0 0 0-.37 0"/><path fill="#1B1A19" d="M13.23 2.95a.38.38 0 1 0 0 .77.38.38 0 0 0 0-.77Zm0 .88a.5.5 0 1 1 0-1 .5.5 0 0 1 0 1Z"/><path fill="#F3F4F1" d="M12.36 3.19a.18.18 0 1 0 .37 0 .18.18 0 0 0-.37 0"/><path fill="#1B1A19" d="M12.83 3.1a.38.38 0 1 0 0 .76.38.38 0 0 0 0-.76Zm0 .88a.5.5 0 1 1 0-1 .5.5 0 0 1 0 1Z"/><path fill="#F3F4F1" d="M14.57 3.29a.18.18 0 1 0 .36 0 .18.18 0 0 0-.36 0"/><path fill="#1B1A19" d="M15.04 3.2a.38.38 0 1 0 0 .76.38.38 0 0 0 0-.76Zm0 .88a.5.5 0 1 1 0-1 .5.5 0 0 1 0 1Z"/><path fill="#F3F4F1" d="M14.71 3.78a.18.18 0 1 0 .37 0 .18.18 0 0 0-.37 0"/><path fill="#1B1A19" d="M15.19 3.69a.38.38 0 1 0 0 .76.38.38 0 0 0 0-.76Zm0 .88a.5.5 0 0 1-.5-.5.5.5 0 1 1 .5.5Z"/><path fill="#F3F4F1" d="M14.71 4.37a.18.18 0 1 0 .37 0 .18.18 0 0 0-.37 0"/><path fill="#1B1A19" d="M15.19 4.28a.38.38 0 1 0 0 .76.38.38 0 0 0 0-.76Zm0 .88a.5.5 0 1 1 0-1 .5.5 0 0 1 0 1Z"/><path fill="#F3F4F1" d="M14.52 4.81a.18.18 0 1 0 .36 0 .18.18 0 0 0-.36 0"/><path fill="#1B1A19" d="M15 4.72a.38.38 0 1 0 0 .76.38.38 0 0 0 0-.76Zm0 .88a.5.5 0 1 1 0-1 .5.5 0 0 1 0 1Z"/><path fill="#F3F4F1" d="M12.02 6.21H12l-1.94.5.05.25a.23.23 0 0 0 .23.19L12 7.07h.01l1.67.08a.22.22 0 0 0 .23-.19l.05-.26-1.94-.49"/><path fill="#1B1A19" d="m10.08 6.73.04.23a.2.2 0 0 0 .2.16l1.7-.1 1.66.1a.2.2 0 0 0 .21-.16l.04-.24L12 6.23l-1.93.5Zm.24.44a.24.24 0 0 1-.25-.2l-.04-.28 1.93-.5v-.02l.05.01h.04v.02l1.94.49-.05.28a.24.24 0 0 1-.26.2l-1.67-.1H12l-1.67.1h-.01Z"/><path fill="#F3CC2E" d="M13.17 5.83 12 5.71h-.05l-1.14.12-.9.33.14.54s.75-.18.98-.22c.33-.05.77-.05.92-.04H12c.15 0 .62-.01.95.05.23.03 1 .21 1 .21l.14-.54-.92-.33"/><path fill="#1B1A19" d="M12.18 6.41c.21 0 .54 0 .79.05l.97.21.13-.5-.9-.31L12 5.73h-.02l-1.15.12-.89.33.13.5c.13-.04.76-.18.97-.22.3-.05.72-.04.94-.04h.2Zm-2.14.32-.16-.59.94-.33 1.13-.12H12l.05-.01 1.14.13.94.33-.16.6-.02-.01a29.88 29.88 0 0 0-.99-.22 5.75 5.75 0 0 0-.91-.05h-.1a5.56 5.56 0 0 0-.9.05 28.9 28.9 0 0 0-.99.22h-.02Z"/><path fill="#0A0B09" d="M11.8 4.44h.4V3.16h-.4z"/><path fill="#F3CC2E" d="M9.7 4.96c-.02-.02-.56-.51-.38-1.22.1-.45.41-.75.82-.78.27-.03.47.08.65.18l.21.1c.3.13.7.2.7.2l-.03.24a3.98 3.98 0 0 1-.76-.21 2.6 2.6 0 0 1-.23-.12c-.17-.09-.32-.17-.52-.15-.43.04-.57.43-.6.6-.14.56.32 1.01.34 1.03l-.2.13"/><path fill="#1B1A19" d="M10.22 2.98a.87.87 0 0 0-.08 0c-.4.04-.7.32-.8.76-.16.65.28 1.1.36 1.19l.16-.1c-.1-.1-.46-.52-.33-1.04.04-.17.19-.57.63-.61.2-.02.36.06.53.15l.23.12c.27.11.63.18.73.2l.03-.2a3.72 3.72 0 0 1-.69-.19l-.2-.1a1.13 1.13 0 0 0-.57-.18ZM9.7 4.99l-.02-.01c-.02-.02-.56-.52-.39-1.25.11-.46.43-.76.85-.8.28-.02.47.08.66.19l.21.1c.3.12.7.2.7.2h.03l-.05.29h-.03a4.02 4.02 0 0 1-.76-.22 2.62 2.62 0 0 1-.23-.11c-.17-.1-.31-.17-.5-.15-.42.04-.55.41-.6.57-.13.56.34 1 .34 1.01l.03.02L9.7 5Z"/><path fill="#F3F4F1" d="M9.87 2.9a.18.18 0 1 1-.37 0 .18.18 0 0 1 .36 0"/><path fill="#1B1A19" d="M9.97 2.8a.38.38 0 1 0 0 .77.38.38 0 0 0 0-.77Zm0 .89a.5.5 0 1 1 0-1 .5.5 0 0 1 0 1Z"/><path fill="#F3F4F1" d="M10.4 2.75a.18.18 0 1 1-.36 0 .18.18 0 0 1 .36 0"/><path fill="#1B1A19" d="M10.51 2.66a.38.38 0 0 0 0 .76.38.38 0 0 0 0-.76Zm0 .88a.5.5 0 1 1 0-1 .5.5 0 0 1 0 1Z"/><path fill="#F3F4F1" d="M10.85 2.85a.18.18 0 1 1-.37 0 .18.18 0 0 1 .37 0"/><path fill="#1B1A19" d="M10.95 2.75a.38.38 0 1 0 0 .77.38.38 0 0 0 0-.77Zm0 .89a.5.5 0 1 1 0-1 .5.5 0 0 1 0 1Z"/><path fill="#F3F4F1" d="M11.24 3.04a.18.18 0 1 1-.37 0 .18.18 0 0 1 .37 0"/><path fill="#1B1A19" d="M11.35 2.95a.38.38 0 1 0 0 .77.38.38 0 0 0 0-.77Zm0 .88a.5.5 0 1 1 0-1 .5.5 0 0 1 0 1Z"/><path fill="#F3F4F1" d="M11.63 3.19a.18.18 0 1 1-.37 0 .18.18 0 0 1 .37 0"/><path fill="#1B1A19" d="M11.74 3.1a.38.38 0 1 0 0 .76.38.38 0 0 0 0-.76Zm0 .88a.5.5 0 1 1 0-1 .5.5 0 0 1 0 1Z"/><path fill="#F3F4F1" d="M12.16 4.23a.17.17 0 1 1-.35 0 .17.17 0 0 1 .35 0"/><path fill="#1B1A19" d="M12.29 4.16a.38.38 0 1 0 0 .75.38.38 0 0 0 0-.75Zm0 .87a.5.5 0 1 1 0-1 .5.5 0 0 1 0 1Z"/><path fill="#F3F4F1" d="M12.12 3.3a.13.13 0 1 1-.26 0 .13.13 0 0 1 .26 0"/><path fill="#1B1A19" d="M12.34 3.31a.34.34 0 0 0 0 .68.34.34 0 0 0 0-.68Zm0 .84a.5.5 0 1 1 0-1 .5.5 0 0 1 0 1Z"/><path fill="#F3F4F1" d="M12.12 3.6a.13.13 0 1 1-.26 0 .13.13 0 0 1 .26 0"/><path fill="#1B1A19" d="M12.34 3.6a.34.34 0 0 0 0 .68.34.34 0 0 0 0-.67Zm0 .85a.5.5 0 1 1 0-1 .5.5 0 0 1 0 1Z"/><path fill="#F3F4F1" d="M12.12 3.9a.13.13 0 1 1-.26 0 .13.13 0 0 1 .26 0"/><path fill="#1B1A19" d="M12.34 3.9a.34.34 0 1 0 0 .68.34.34 0 0 0 0-.68Zm0 .84a.5.5 0 1 1 0-1 .5.5 0 0 1 0 1Z"/><path fill="#F3F4F1" d="M9.42 3.29a.18.18 0 1 1-.36 0 .18.18 0 0 1 .36 0"/><path fill="#1B1A19" d="M9.53 3.2a.38.38 0 1 0 0 .76.38.38 0 0 0 0-.76Zm0 .88a.5.5 0 1 1 0-1 .5.5 0 0 1 0 1Z"/><path fill="#F3F4F1" d="M9.28 3.78a.18.18 0 1 1-.37 0 .18.18 0 0 1 .37 0"/><path fill="#1B1A19" d="M9.38 3.69a.38.38 0 1 0 0 .76.38.38 0 0 0 0-.76Zm0 .88a.5.5 0 1 1 0-1 .5.5 0 0 1 0 1Z"/><path fill="#F3F4F1" d="M9.28 4.37a.18.18 0 1 1-.37 0 .18.18 0 0 1 .37 0"/><path fill="#1B1A19" d="M9.38 4.28a.38.38 0 1 0 0 .76.38.38 0 0 0 0-.76Zm0 .88a.5.5 0 1 1 0-1 .5.5 0 0 1 0 1Z"/><path fill="#F3F4F1" d="M9.47 4.81a.18.18 0 1 1-.37 0 .18.18 0 0 1 .37 0"/><path fill="#1B1A19" d="M9.58 4.72a.38.38 0 1 0 0 .76.38.38 0 0 0 0-.76Zm0 .88a.5.5 0 1 1 0-1 .5.5 0 0 1 0 1Z"/><path fill="#F3CC2E" d="M11.66 4.43h.16v-1.3h-.16z"/><path fill="#1B1A19" d="M11.87 4.4h.53V3.17h-.53v1.25Zm-.23.06h1V3.1h-1v1.35Z"/><path fill="#F3CC2E" d="M12.2 4.45h.16v-1.3h-.16z"/><path fill="#1B1A19" d="M12.4 4.42h.54V3.18h-.53v1.24Zm-.23.05h1V3.13h-1v1.34Z"/><path fill="#F3CC2E" d="M12.32 1.76h-.27v-.25l.22-.14h-.56l.14.14v.25h-.19l-.2-.2v.56l.2-.16h.2v.2l-.15.2h.56l-.22-.2v-.2h.27l.12.16v-.56l-.12.2"/><path fill="#1B1A19" d="M11.77 2.3h.43l-.15-.13v-.26h.28l.1.14v-.42l-.1.13h-.28V1.5l.15-.13h-.43l.13.13v.26h-.25l-.14-.14v.44l.14-.15h.25v.26l-.13.14Zm.57.06h-.69l.2-.2v-.2h-.18l-.2.21V1.5l.2.23h.18v-.2l-.2-.2h.69l-.24.2v.2h.2l.19-.23v.7l-.18-.23h-.21v.2l.24.2Z"/><path fill="#F3CC2E" d="M12.45 2.69a.47.47 0 1 1-.94 0 .47.47 0 0 1 .94 0"/><path fill="#1B1A19" d="M11.99 2.24a.45.45 0 1 0 0 .9.45.45 0 0 0 0-.9Zm0 .95a.5.5 0 1 1 0-1 .5.5 0 0 1 0 1Z"/><path fill="#F3CC2E" d="M12.34 4.96h-.2V4.6l.25-.13h-.8l.16.13v.36h-.1l-.24-.3v.88l.23-.24h.11v.3l-.16.2h.8l-.24-.2v-.3h.2l.14.24v-.88l-.15.3"/><path fill="#1B1A19" d="M11.66 5.74h.66l-.17-.13v-.36h.2l.14.2v-.7l-.13.2h-.21V4.6l.16-.12h-.65l.14.12v.37h-.17l-.17-.22v.73l.17-.22h.17v.36l-.14.13Zm.8.05h-.93l.22-.2V5.3h-.1l-.24.31V4.6l.24.32h.1v-.3l-.22-.2h.93l-.26.2v.3h.13l.2-.33v1.04l-.2-.32h-.13v.29l.26.2Z"/><path fill="#F3CC2E" d="m9.91 5.56.42.03-.23-.6-.25.44c-.03-.22.18-.7.18-.7l-.52.35.3.47.12.47.52-.22s-.35.02-.54-.24"/><path fill="#1B1A19" d="m9.54 5.09.3.45.1.44.4-.17a.65.65 0 0 1-.45-.23l-.03-.05.43.03-.2-.51-.26.46v-.08c-.03-.17.09-.49.14-.63l-.43.29Zm.38.96-.13-.5-.32-.48.61-.4-.03.07s-.16.37-.18.6l.23-.4.26.67-.4-.02c.2.2.48.18.49.18h.14l-.67.28Z"/><path fill="#F3CC2E" d="M13.06 5.77s-.86-.06-1.14-.05c-.26.02-.98.15-.98.15v-.08s.42-.03.7-.17c.17-.1.28-.45.35-.45.12 0 .14.27.34.37.25.12.74.15.74.15v.08"/><path fill="#1B1A19" d="M10.97 6.03v.03c.14-.03.72-.16.95-.18.26-.02.98.04 1.12.06v-.05a1.8 1.8 0 0 1-.72-.2c-.1-.07-.17-.2-.21-.31-.05-.1-.08-.17-.12-.17a.72.72 0 0 0-.09.17c-.06.16-.14.35-.26.42a1.7 1.7 0 0 1-.67.23Zm-.06.11.01-.17h.02s.41-.05.68-.22c.1-.07.18-.26.24-.4s.09-.2.13-.2c.07-.01.11.08.16.2.05.1.1.22.19.29.24.16.73.19.73.19h.03L13.1 6h-.03s-.86-.08-1.14-.06c-.25.02-.97.2-.98.2h-.03Z"/><path fill="#F3CC2E" d="M10.75 5.24c0 .07-.2-.2-.29-.07-.06.1.1.42.03.42-.06 0-.11-.12-.14-.17a.75.75 0 0 1-.1-.3c0-.13.09-.23.24-.2a.31.31 0 0 1 .26.32"/><path fill="#1B1A19" d="M10.63 4.95a.38.38 0 0 0-.22.06.2.2 0 0 0-.1.2c.01.08.05.25.17.4l.03.03c.04.05.13.17.19.18l-.05-.2c-.05-.14-.1-.29-.03-.36a.2.2 0 0 1 .13-.06c.1-.02.24.05.33.1l.05.04c-.01-.2-.19-.35-.44-.38a.56.56 0 0 0-.06 0Zm.07.94c-.1 0-.18-.1-.27-.22l-.02-.03a.88.88 0 0 1-.18-.43.27.27 0 0 1 .12-.25.53.53 0 0 1 .36-.07c.3.03.51.23.51.47a.05.05 0 0 1-.03.05c-.04.02-.09 0-.17-.05-.08-.05-.18-.1-.26-.1a.1.1 0 0 0-.07.04c-.04.05 0 .2.05.31.04.13.07.21.03.25a.09.09 0 0 1-.07.03Z"/><path fill="#F3CC2E" d="M10.96 5.22c.04.06.07-.27.22-.2.1.04.12.41.2.37.04-.02.03-.16.03-.21a.75.75 0 0 0-.07-.31c-.06-.12-.2-.16-.31-.06a.31.31 0 0 0-.07.4"/><path fill="#1B1A19" d="m11.36 5.1.08.01c.12.04.17.2.23.35.02.07.06.17.09.2.04-.03.04-.18.04-.24v-.05a.85.85 0 0 0-.12-.43.31.31 0 0 0-.22-.14.41.41 0 0 0-.29.07c-.2.12-.24.33-.12.52l.02-.05c.05-.08.11-.2.22-.23a.21.21 0 0 1 .07-.01Zm.4.63a.1.1 0 0 1-.03 0c-.07-.03-.1-.1-.15-.25-.04-.12-.1-.28-.18-.3a.12.12 0 0 0-.08 0c-.07.01-.12.11-.16.19-.04.07-.06.1-.11.11a.07.07 0 0 1-.07-.03c-.16-.22-.1-.48.14-.64a.52.52 0 0 1 .36-.08.4.4 0 0 1 .28.18.92.92 0 0 1 .13.5c0 .14 0 .27-.1.3a.1.1 0 0 1-.03.02Z"/><path fill="#F3CC2E" d="M10.94 4.74c.01.08 0 .18-.01.25-.02.15 0 .27-.06.28-.06 0-.08-.08-.16-.22a.83.83 0 0 1-.09-.26c-.04-.28-.01-.52.07-.53.1-.02.2.2.25.48"/><path fill="#1B1A19" d="M10.9 4.28h-.01c-.06 0-.14.05-.17.15a.5.5 0 0 0 .04.36.64.64 0 0 0 .22.24l.14.1c.09.08.13.12.2.11.06 0 .06-.07.07-.14a.7.7 0 0 1 .03-.17c.02-.06.05-.13.02-.19a.9.9 0 0 0-.27-.34.49.49 0 0 0-.27-.12Zm.4 1.01c-.13 0-.2-.05-.3-.13a2.9 2.9 0 0 0-.13-.1.68.68 0 0 1-.23-.27.53.53 0 0 1-.04-.37c.03-.11.13-.18.27-.19a.62.62 0 0 1 .41.15c.12.09.22.22.28.35.03.07.01.14-.01.21l-.02.06a.88.88 0 0 0-.01.1c-.01.1-.02.18-.19.2a.5.5 0 0 1-.03 0Z"/><path fill="#F3CC2E" d="M11.1 5.3c0 .03-.1.08-.23.1-.13.02-.24 0-.24-.03 0-.04.1-.08.22-.1.13-.02.24-.01.25.03"/><path fill="#1B1A19" d="M11.31 5.48a.57.57 0 0 0-.22.05c-.26.11-.38.32-.4.38.02.04.17.14.43.03.24-.1.37-.3.39-.38-.02-.03-.09-.08-.2-.08Zm-.42.75a.4.4 0 0 1-.1-.01c-.11-.03-.18-.13-.18-.28-.03-.35.28-.58.47-.66.18-.07.5-.11.52.24.03.36-.28.58-.47.66a.65.65 0 0 1-.24.05Z"/><path fill="#F3CC2E" d="m14.13 5.56-.42.03.23-.6.25.44c.03-.22-.18-.7-.18-.7l.52.35-.3.47-.12.47-.52-.22s.35.02.54-.24"/><path fill="#1B1A19" d="m13.7 5.82.4.17.11-.46.3-.44-.44-.3c.05.15.17.47.14.64v.08l-.26-.46-.2.5.43-.02-.03.05a.65.65 0 0 1-.45.24Zm.42.23-.67-.29.14.01s.3.02.48-.18l-.4.02.27-.67.23.4c-.02-.23-.18-.6-.18-.6l-.03-.07.6.4-.3.49-.14.5Z"/><path fill="#F3CC2E" d="M13.29 5.24c0 .07.2-.2.29-.07.06.1-.1.42-.03.42.06 0 .12-.12.15-.17a.75.75 0 0 0 .09-.3c.01-.13-.09-.23-.24-.2a.31.31 0 0 0-.26.32"/><path fill="#1B1A19" d="M13.72 5.2h.02a.2.2 0 0 1 .13.05c.07.08.02.23-.03.38-.02.06-.06.16-.05.19.06 0 .15-.13.19-.18L14 5.6a.81.81 0 0 0 .16-.4.2.2 0 0 0-.09-.19.42.42 0 0 0-.29-.05c-.24.02-.42.18-.44.38l.06-.03c.09-.05.2-.12.3-.12Zm.07.69a.09.09 0 0 1-.07-.03c-.04-.04-.01-.12.03-.25.04-.11.1-.26.05-.32a.1.1 0 0 0-.07-.03c-.08 0-.19.05-.27.1-.07.04-.12.07-.16.05a.05.05 0 0 1-.04-.05c0-.24.22-.44.52-.47a.53.53 0 0 1 .36.07c.09.06.13.15.12.25a.87.87 0 0 1-.2.46c-.09.11-.17.22-.27.22Z"/><path fill="#F3CC2E" d="M13.08 5.22c-.04.06-.07-.27-.22-.2-.1.04-.12.41-.19.37-.05-.02-.04-.16-.04-.21a.75.75 0 0 1 .07-.31c.06-.12.2-.16.31-.06a.31.31 0 0 1 .07.4"/><path fill="#1B1A19" d="M13.1 4.8a.31.31 0 0 0-.28.14.86.86 0 0 0-.12.43v.05c0 .06 0 .2.04.23.03-.02.06-.12.09-.19.05-.15.1-.3.23-.35a.23.23 0 0 1 .15 0c.1.03.17.14.21.23l.03.05c.12-.19.07-.4-.13-.52a.43.43 0 0 0-.22-.07Zm-.36.93a.1.1 0 0 1-.04-.01c-.09-.04-.1-.17-.1-.3v-.05a.92.92 0 0 1 .14-.46.4.4 0 0 1 .28-.18.52.52 0 0 1 .36.08c.24.16.3.42.13.64a.07.07 0 0 1-.06.03c-.05 0-.07-.04-.11-.11-.04-.08-.1-.18-.17-.2a.12.12 0 0 0-.08 0c-.07.03-.13.2-.17.31-.05.14-.09.22-.15.24a.1.1 0 0 1-.03 0Z"/><path fill="#F3CC2E" d="M13.1 4.74c-.01.08 0 .18.01.25.02.15 0 .27.06.28.06 0 .08-.08.16-.22a.83.83 0 0 0 .09-.26c.04-.28.01-.52-.07-.53-.1-.02-.2.2-.25.48"/><path fill="#1B1A19" d="M13.21 4.74c-.03.06 0 .13.01.2a.9.9 0 0 1 .04.16c0 .07.01.14.08.14.05 0 .1-.03.2-.1l.13-.1a.65.65 0 0 0 .22-.25c.13-.3.01-.5-.13-.5-.14-.02-.42.15-.55.45Zm.14.55a.5.5 0 0 1-.03 0c-.17 0-.18-.08-.19-.19l-.01-.1-.02-.06c-.02-.07-.04-.14-.01-.2.1-.26.4-.52.7-.5.3.02.34.3.22.56a.68.68 0 0 1-.23.26 2.9 2.9 0 0 0-.13.1c-.1.08-.17.13-.3.13Z"/><path fill="#F3CC2E" d="M13.16 5.82c-.26-.04-1.06-.08-1.16-.09-.1 0-.9.05-1.16.1-.25.04-.95.25-.95.25v.08s.72-.22.97-.26c.27-.04 1.09-.06 1.15-.06.06 0 .87.02 1.14.06.25.04.96.26.96.26v-.08s-.7-.21-.95-.26"/><path fill="#1B1A19" d="M12.02 5.93h.08c.23.02.84.05 1.07.13.22.08.8.42.94.51v-.06c-.11-.07-.7-.43-.93-.51a7.72 7.72 0 0 0-1.16-.19c-.18.02-.9.1-1.15.19-.22.08-.82.44-.93.5v.07c.14-.09.71-.43.93-.51.23-.08.84-.11 1.07-.12h.08Zm-2.13.78v-.28h.02c.03-.03.7-.44.95-.53.26-.1 1-.17 1.14-.19h.05c.2.02.9.1 1.14.19.25.09.92.5.95.52l.02.01v.28l-.03-.02s-.72-.44-.97-.53c-.22-.08-.83-.1-1.06-.12h-.16a5.4 5.4 0 0 0-1.06.12c-.25.09-.95.52-.96.53l-.03.02Z"/><path fill="#F3CC2E" d="M13.46 5.76c-.16-.11-.22-.48-.29-.5-.12-.01-.18.25-.38.33-.27.1-.77.05-.77.05s-.52.05-.79-.05c-.2-.08-.25-.35-.37-.33-.07.01-.14.38-.3.5-.26.16-.67.24-.67.24v.08s.7-.21.95-.25c.28-.05 1.18-.08 1.18-.08s.86.03 1.14.08c.25.04.95.25.95.25V6s-.39-.07-.64-.24"/><path fill="#1B1A19" d="M12.02 5.8c.04 0 .88.03 1.16.08.22.05.79.24.93.29v-.04c-.09-.02-.42-.1-.65-.28-.1-.08-.17-.25-.22-.4-.02-.06-.05-.14-.07-.15-.04 0-.08.04-.13.13-.06.09-.13.2-.24.24-.27.11-.76.08-.78.08-.02 0-.53.03-.8-.08-.1-.05-.18-.16-.23-.24-.05-.09-.09-.14-.13-.13a.6.6 0 0 0-.07.15c-.04.14-.1.32-.21.4-.23.18-.56.26-.64.28v.04c.14-.05.69-.24.91-.29.28-.05 1.14-.08 1.17-.08Zm-2.13.44V6.1h.02s.4-.1.64-.28c.1-.07.15-.25.2-.38.04-.1.06-.18.1-.19.07-.01.12.07.18.15.05.09.11.19.21.23.26.1.78.07.78.07.01 0 .5.04.76-.07.1-.04.16-.14.22-.22.06-.1.1-.17.18-.16.04.01.07.08.1.2.06.12.12.3.21.37.25.19.64.27.65.27h.02v.16h-.03c0-.01-.71-.25-.96-.3-.28-.06-1.14-.09-1.15-.09 0 0-.89.03-1.16.09-.25.05-.93.29-.94.3H9.9Z"/><path fill="#F3CC2E" d="M12.94 5.3c0 .03.1.08.23.1.13.02.24 0 .24-.03 0-.04-.1-.08-.22-.1-.13-.02-.24-.01-.25.03"/><path fill="#1B1A19" d="M13.02 5.56a.7.7 0 0 0 .39.38c.26.1.4.01.42-.05a.73.73 0 0 0-.4-.36c-.25-.1-.39-.02-.41.03Zm.6.67a.65.65 0 0 1-.23-.05.88.88 0 0 1-.33-.24.58.58 0 0 1-.14-.42c0-.15.07-.24.19-.27a.52.52 0 0 1 .34.04c.12.05.24.13.32.23a.58.58 0 0 1 .15.42c-.01.15-.08.25-.2.28a.4.4 0 0 1-.1.01Z"/><path fill="#1B1A19" d="M13.48 5.92a.7.7 0 0 1-.28-.22.8.8 0 0 1-.06-.14.98.98 0 0 1-.12.12 1.1 1.1 0 0 1-.4.12v-.05s.27-.04.37-.11a1 1 0 0 0 .12-.13.04.04 0 0 1 .04-.01.04.04 0 0 1 .02.02.7.7 0 0 0 .07.15.66.66 0 0 0 .25.2l-.01.04m-2.89 0-.02-.04a.66.66 0 0 0 .25-.2.83.83 0 0 0 .07-.15.04.04 0 0 1 .06-.01.86.86 0 0 0 .12.13c.1.07.37.11.37.11v.05c-.02 0-.29-.04-.4-.12a.97.97 0 0 1-.11-.12.81.81 0 0 1-.07.14.7.7 0 0 1-.27.21"/><path fill="#F3F4F1" d="M13.7 7.13c0 .04-.8.2-1.75.2s-1.7-.18-1.7-.2c0-.09.77-.16 1.72-.16s1.72.07 1.72.16"/><path fill="#1B1A19" d="M10.3 7.37c.14.1.83.46 1.65.46.86 0 1.58-.34 1.71-.46-.1-.13-.7-.3-1.69-.3-.96 0-1.56.16-1.68.3Zm1.65.58a3.38 3.38 0 0 1-1.57-.41c-.15-.09-.15-.1-.15-.15 0-.44 1.67-.44 1.74-.44.07 0 1.75 0 1.75.44v.02l-.01.03c-.05.12-.84.5-1.76.5Zm-1.53-3.6a.18.18 0 0 1-.15-.07c-.04-.05-.04-.13-.04-.14l.03-.02c.01 0 .02.01.02.03 0 .02 0 .07.03.1 0 .01.06.06.15.04a.1.1 0 0 0 .06-.05.09.09 0 0 0 0-.07c0-.03-.06-.06-.08-.06a.02.02 0 0 1-.02-.03.02.02 0 0 1 .03-.02c.01 0 .1.03.12.09a.14.14 0 0 1 0 .12.14.14 0 0 1-.1.07.26.26 0 0 1-.05 0m3.17-.04a.26.26 0 0 1-.06-.01.14.14 0 0 1-.09-.07.14.14 0 0 1 0-.12c.02-.06.1-.08.11-.09a.02.02 0 0 1 .03.02.02.02 0 0 1-.01.03c-.02 0-.08.03-.1.06a.09.09 0 0 0 .02.07.1.1 0 0 0 .06.05c.09.02.14-.03.15-.04.02-.03.02-.08.02-.1 0-.02.01-.03.03-.03l.02.02c0 .01 0 .1-.03.14a.18.18 0 0 1-.15.07m-3.85.37-.02-.02s0-.08.03-.12c.02-.04.07-.11.16-.11.06 0 .13 0 .17.08.03.07.14.04.15.04a.03.03 0 0 1 .01.04s-.15.05-.2-.06c-.03-.04-.06-.05-.13-.05-.06 0-.1.06-.12.08a.2.2 0 0 0-.02.1l-.03.01m1.48-.14a.11.11 0 0 1-.09-.04.17.17 0 0 1-.04-.15.16.16 0 0 1 .1-.1c.07-.03.15.01.2.05a.34.34 0 0 0 .24.06.02.02 0 1 1 .01.05s-.1.01-.2-.03a.61.61 0 0 1-.07-.04c-.05-.03-.12-.07-.16-.05a.1.1 0 0 0-.07.08.11.11 0 0 0 .03.1c.02.02.04.03.07.02a.06.06 0 0 0 .03-.05v-.03h-.04a.03.03 0 0 1-.02-.04s.04-.02.08 0c.01.01.03.03.03.06a.1.1 0 0 1-.1.11m3.07.1c-.02 0-.03-.01-.03-.02 0 0 0-.06-.02-.1-.01-.02-.06-.08-.12-.08-.07 0-.1.01-.12.06-.05.1-.2.06-.2.06a.03.03 0 0 1 0-.05s.12.03.15-.04c.04-.07.1-.08.17-.08.09 0 .15.07.17.1.03.06.02.12.02.13 0 0 0 .02-.02.02m-1.52-.1a.1.1 0 0 1-.1-.1c0-.04.01-.06.02-.07.04-.02.08 0 .09 0v.03a.03.03 0 0 1-.02.02h-.04v.01a.06.06 0 0 0 .03.06c.02 0 .05 0 .07-.02a.11.11 0 0 0 .02-.1.1.1 0 0 0-.07-.08c-.04-.02-.1.02-.16.05a.61.61 0 0 1-.07.03c-.1.05-.2.03-.2.03a.02.02 0 0 1-.02-.02.02.02 0 0 1 .03-.02s.08.01.18-.03l.06-.03c.06-.04.14-.08.2-.06.05.02.09.06.1.11.01.05 0 .1-.04.15a.11.11 0 0 1-.08.04m-1.54 2.24a.08.08 0 0 1-.05-.02.21.21 0 0 1-.02-.01c-.02-.02-.03-.03-.04-.02-.04 0-.05.02-.05.03l-.05-.01s.01-.06.09-.07c.04 0 .07.02.09.03v.01h.03V6.7a.1.1 0 0 1 .08-.08.12.12 0 0 1 .11.02l-.03.03a.07.07 0 0 0-.07 0 .06.06 0 0 0-.03.03c0 .04-.03.06-.04.06a.06.06 0 0 1-.02 0m.74-.04a.07.07 0 0 1-.06-.03v-.02c-.02-.02-.03-.03-.05-.03-.03 0-.04.02-.05.02l-.04-.02s.02-.05.1-.05c.04 0 .06.03.07.06l.01.01.02.01.02-.02a.1.1 0 0 1 .08-.06.12.12 0 0 1 .1.04l-.03.03.02-.01-.02.01a.07.07 0 0 0-.07-.02.06.06 0 0 0-.04.03c-.01.04-.04.05-.05.05m.74.11c-.03 0-.05-.02-.06-.04l-.01-.03c-.01-.02-.02-.03-.04-.03h-.05l-.04-.02s.03-.05.1-.03c.05 0 .06.04.07.06l.01.02.02.03.01-.03a.1.1 0 0 1 .1-.05c.07 0 .1.06.1.06l-.05.02s-.01-.04-.06-.04c-.01 0-.04.02-.04.04-.02.03-.05.04-.06.04m.9.13a.07.07 0 0 0-.05-.04.06.06 0 0 0-.05.01c-.03.03-.05.03-.07.03a.07.07 0 0 1-.05-.05.3.3 0 0 1 0-.02l-.03-.04c-.04-.02-.05 0-.05 0l-.04-.03s.04-.05.11-.01c.04.01.05.05.05.07v.02l.02.02.02-.02a.1.1 0 0 1 .1-.03c.07.02.09.08.09.08l-.05.01m-3.14-.04a.08.08 0 0 1-.05-.02.28.28 0 0 1-.02-.02l-.04-.02c-.04 0-.05.03-.05.03l-.05-.01s.02-.06.1-.07c.03 0 .06.02.08.04a.23.23 0 0 0 0 .01h.03l.01-.01a.1.1 0 0 1 .07-.08c.07-.03.11.02.11.02l-.03.03a.07.07 0 0 0-.07 0 .06.06 0 0 0-.03.03c0 .04-.03.06-.04.06a.06.06 0 0 1-.02 0"/><path fill="#FFFFFE" d="m11.3 7.56.26-.57"/><path fill="#1B1A19" d="m11.34 7.58-.09-.04.27-.57h.11l-.3.6"/><path fill="#FFFFFE" d="m12.7 7.65-.3-.67"/><path fill="#1B1A19" d="m12.66 7.67-.32-.7h.1l.3.66-.08.04"/><path fill="#FFFFFE" d="m12.62 7.59-1.28-.01.28-.58h.73l.27.59"/></g></svg>