<svg xmlns="http://www.w3.org/2000/svg" width="24" height="24"><g fill="none" fill-rule="evenodd"><path fill="#0089E9" fill-rule="nonzero" d="M12 23.8A11.8 11.8 0 1 0 12 .2a11.8 11.8 0 0 0 0 23.6Z"/><path fill="#A8EF84" d="M16.2 6.95c-.06.06.19 1.03.25 1.1.12.36.12.11 0 .48 0 .12.24.24.24.48 0 .25-.12.61.12.73.12.12 0 .61.12.61 0-.12 0 0 .25.12.12.12 0 .12.12.24 0 0 .12 0 .12.13 0 .12.12.12.12.24s-.12.12-.12.12c.12.12.12.36.36.36.25-.12.37 0 .49 0 .24 0 .36.13.48 0 .13 0 .37-.12.25.13v.12c-.12 0-.12.12-.12.24-.25.24-.37.49-.61.73-.49.49-1.34.6-1.7 1.1-.12.11-.12 0-.12.11-.13 0-.13 0-.25.13-.12 0-.12.12-.12.12-.12.12-.12.12-.24.36 0 .12.12.12 0 .37 0 .12-.12.24 0 .36v.12l.12.12v.12c0 .13-.12.25 0 .37v.24c.12.24-.24.61-.6.61-.13 0-.25.12-.37.12 0 .12-.24.12-.24.12-.13 0-.25.25-.25.12.12.13 0 .13 0 .25.12 0 0 .36.12.36 0 .12-.12.37-.12.37-.12.24-.48 0-.6.24-.13 0 .12.12 0 .12-.13.12-.13.36-.37.49-.36.24-.73.6-1.21.85-.13.12-.25 0-.37 0 0 0-.12-.13-.12 0-.24 0-.49-.25-.6-.12-.13-.13-.25 0-.37 0s-.12-.13-.24-.13c0-.24-.13 0-.13-.12v-.24c0-.12 0 0 .13-.12.12-.12 0-.25 0-.49s0-.48-.25-.6c-.12-.37 0-.86 0-1.22-.12-.36-.36-.85-.24-1.22 0-.24.24-.48.36-.72.13-.13.25-.13.37-.25.12-.24-.12-.48.12-.73 0-.12-.24-.48 0-.48h-.12c-.12 0 0-.24-.12-.24-.12-.13-.25-.5-.37-.61l-.12-.24c.12 0 .12-.13.12-.13h.12s-.12-.12 0-.12v-.12c.13 0-.12 0 0-.12.13 0 .25-.37.13-.37 0 0 .12-.12 0-.12 0 .13-.13 0-.13-.12 0 .12-.12 0-.24 0 0 .12-.12.12-.24 0v-.24c.12 0 0 0 0-.12-.12-.25-.24-.12-.49-.25-.12 0-.24 0-.36-.24 0 .12.12.37 0 .24 0 .13-.24.13-.37.13-.12 0-.12.12-.24 0 0 0-.24-.13-.12-.13 0-.12 0 0-.12 0h-.73c-.37-.12-.49-.48-.73-.72l-.12-.13v-.12c-.12 0-.12-.24-.12-.12-.12 0 0 0 0-.12s0-.12-.12-.24c0-.12-.13 0-.13-.25 0 0-.12-.12 0-.12-.12 0-.12.12-.12 0 0 0-.12-.12 0-.12h-.12v-.12c-.12 0-.12-.12 0-.12-.12 0-.12-.12 0-.24 0 .12.12 0 .24 0h-.24c0-.13-.12-.13 0-.13v-.12s0-.12-.12-.12c.12 0 .12-.12.24-.12.12-.24.25-.37.25-.6 0-.13 0-.13.12-.25C6.12 6.83 6 6.83 6 6.7s.12-.13.12-.25l.37-.36c.24-.12.24-.24.36-.49.24 0 .24-.24.49-.24h.12c.24 0 .48-.12.6-.36-.12-.13 0-.25.13-.49.12-.12.24-.12.36-.12.24 0 .37-.24.37-.37.12-.12.12.13.24.13.36.12.12-.13.36.12.25.12.37 0 .49-.12.12 0 .24-.13.36-.13h.61c.12 0 .24.13.36.13.13 0 .25-.13.25 0h.6c.25 0 .13.24.25.12.12.12 0 .36-.12.36-.13.12 0 .12 0 .24 0 .25-.49.25-.25.37 0 0 0 .12.12 0v.12c.25.12.61.24.86.36.12.13 0 .25.12.37.24 0 .36.24.48.36.37 0 .12-.48.49-.48.24 0 .36 0 .36.24.12 0 .25.12.37.12 0 .12 0 .12.12.12.24 0 .48.25.6.37.13 0 .25 0 .37-.12h.24c.12 0 0 .12 0 .12v.12Z"/><path fill="#FFF" fill-rule="nonzero" d="M12 0a12 12 0 1 0 0 24 12 12 0 0 0 0-24Zm0 .96a11.04 11.04 0 1 1 0 22.08A11.04 11.04 0 0 1 12 .96Z"/></g></svg>