<svg xmlns="http://www.w3.org/2000/svg" width="24" height="24"><g fill="none" fill-rule="evenodd"><path fill="#F5F5F5" fill-rule="nonzero" d="M23.317 8H.683C2.33 3.34 6.775 0 12 0c5.225 0 9.67 3.34 11.317 8Z"/><path fill="#73AF00" fill-rule="nonzero" d="M.683 16h22.634C21.67 20.66 17.225 24 12 24 6.775 24 2.33 20.66.683 16Z"/><g fill="#FF4B55" fill-rule="nonzero"><path d="M.683 8h22.634A11.98 11.98 0 0 1 24 12c0 1.403-.24 2.75-.683 4H.683A11.98 11.98 0 0 1 0 12c0-1.402.24-2.749.683-4Z"/><path d="M9.473.266v23.468C4.06 22.574 0 17.76 0 12 0 6.24 4.06 1.427 9.473.266Z"/></g><g fill="#F5F5F5" fill-rule="nonzero"><path d="m3.227 5.235-.75.02v.691l.75.039v-.75ZM4.136 6.092a10.519 10.519 0 0 1-.41-.043l-1.08.96c.14.021.308.05.378.072.277-.243.649-.573 1.112-.989ZM5.758 4.977v-.503H3.845v.75h1.913zM5.178 2.126c-.088.061-.175.123-.261.187a.445.445 0 0 0 .261-.187Z"/><path d="M3.927 5.174c-.432-.002-.863.014-1.216.047v.531c.414.089.897.157 1.216.19v-.768ZM1.701 7.862c.17-.004.546-.078.8-.296.079-.068.213-.192.402-.372a7.997 7.997 0 0 0-.458-.082l-.744.75ZM4.53 4.702v-.464l-.19-.286-.56.411.196.34h.554ZM1.913 5.581c-.002.008-.006.025.02.061.094.133.367.26.729.375v-.75c-.435.08-.72.184-.75.314ZM5.274 5.244v-.501h-.97v1.224h.247a.724.724 0 0 0 .723-.723ZM3.445 3.585c.075-.076.151-.151.228-.225l.043.064-.266.168a58.908 58.908 0 0 1-.005-.007ZM3.515 3.784l.307.499.443-.302-.325-.449-.425.252Z"/><path d="M4.808 5.964v-.787l-.75-.002v.78c.29.005.541.008.75.01ZM4.306 3.667h.968v.75h-.968zM6.621 4.358v.011h.05c.036 0 .065.04.065.09v.368c0 .05-.029.09-.065.09h-.05v.011c0 .05.03.09.066.09h1.11c.035 0 .065-.04.065-.09v-.57c0-.05-.03-.09-.066-.09H6.687c-.036 0-.066.04-.066.09ZM7.862 7.862l-.74-.75c-.114.018-.33.053-.458.082.193.184.327.31.402.375.25.215.618.29.796.293Z"/><path d="M6.343 4.72v.504h.75v-.75h-.75zM6.543 7.08c.07-.022.238-.05.378-.071L5.33 5.59a.857.857 0 0 1-.177.258l.042.038c.576.515 1.026.914 1.347 1.195ZM2.239 5.018c.185-.257.38-.508.583-.75h.095c.036 0 .065.04.065.09v.011h-.05c-.035 0-.065.04-.065.09v.368c0 .05.03.09.066.09h.05v.011c0 .05-.03.09-.066.09h-.678ZM3.748 4.977v-.503h-.75v.75h.75zM6.156 4.363l-.577-.41c-.06.085-.117.17-.173.252v.497h.548a81.8 81.8 0 0 0 .202-.339ZM4.393 3.82h.794l-.176-.75h-.444z"/><path d="M4.306 3.402h.968v.75h-.968zM5.062 2.208c.102-.003.2-.01.293-.02v.75h-.75v-.389c.15-.117.302-.231.457-.341Z"/><path d="M4.305 4.686h.965c0-.045.001-.089.004-.132v-.618h-.97v.75ZM5.567 3.981l.444.302.306-.499-.425-.252-.325.45Z"/><path d="M4.306 4.205h.968v.75h-.968zM6.118 3.592c.283-.499.625-1.118.766-1.441.11-.251.157-.385.176-.456-.133.156-.689.962-1.209 1.729l.267.168Z"/></g><path fill="#D23741" fill-rule="nonzero" d="M5.102 2.18v.793l.27.3c.019.012.031.03.033.052v.523c.423-.628 1.49-2.203 1.6-2.283.028-.02.104-.076.164-.028.056.046.076.117-.164.666-.224.512-.92 1.714-1.141 2.094a.289.289 0 0 1 .417.045h.209v-.008c0-.109.088-.197.197-.197h1.11c.108 0 .196.088.196.197v.417a.197.197 0 0 1-.197.197H6.687a.197.197 0 0 1-.197-.197v-.008h-.209a.29.29 0 0 1-.461 0h-.414v.5a.85.85 0 0 1-.028.213L7.086 6.98l.003.004.046-.006a.064.064 0 0 1 .053.016l.857.786a.066.066 0 0 1 .006.09c-.028.035-.1.052-.197.052a1.59 1.59 0 0 1-.868-.294c-.205-.16-.837-.713-1.878-1.644l-.055-.05a.849.849 0 0 1-.502.164h-.225l-.077.069c-.904.812-1.465 1.303-1.667 1.462a1.592 1.592 0 0 1-.869.293c-.096 0-.169-.017-.197-.051a.066.066 0 0 1 .006-.09l.857-.787a.064.064 0 0 1 .053-.016c.008 0 .024.003.046.006l.003-.004 1.072-.953c-.617-.083-1.453-.235-1.695-.443.023-.038.047-.075.072-.113.06.068.213.132.416.19v-.394a1.532 1.532 0 0 0-.338.086c.037-.057.076-.113.114-.17.546-.151 1.597-.147 2.051-.138v-.302h-.39a.29.29 0 0 1-.46 0h-.21v.008a.197.197 0 0 1-.196.197H2.29l.097-.131h.53c.036 0 .065-.03.065-.066v-.008h-.05a.066.066 0 0 1-.065-.066v-.27c0-.035.03-.065.066-.065h.05v-.008a.066.066 0 0 0-.066-.066h-.095l.112-.13c.1.009.18.093.18.196v.008h.209a.29.29 0 0 1 .358-.084c-.077-.133-.197-.34-.331-.575l.095-.098.005.007.266-.168-.043-.064.096-.092c.16.234.302.446.404.597V3.33c0-.025.014-.045.034-.057l.266-.295v-.324l.132-.105v.382h.365v-.657l.132-.094Zm-.797 3.787h.246a.724.724 0 0 0 .723-.723v-.501h-.97v1.224Zm-.231-2.015-.294.214.103.176h.29v-.241l-.1-.149Zm-.36.1L4 3.843l-.21-.31-.275.174.198.345Zm.494 1.125-.15-.002v.78c.058.005.108.008.15.01v-.788Zm-1.497.044v.531c.414.089.897.157 1.216.19v-.768c-.432-.002-.863.014-1.216.047Zm-.234.027v.45l.15.025v-.488a11.81 11.81 0 0 0-.15.013Zm1.249.801-1.08.96c.14.021.308.05.378.072.277-.243.649-.573 1.112-.989a10.417 10.417 0 0 1-.41-.043Zm-.823 1.137a8.773 8.773 0 0 0-.458-.074l-.744.683c.17-.004.546-.072.8-.27.079-.062.213-.175.402-.339Zm.942-2.562h1.914V4.473H3.845V4.625Zm.46-.807h.97v-.15h-.97v.15Zm.97.119h-.97v.15h.965c0-.01.001-.018.004-.027v-.123Zm-.97-.384h.97v-.15h-.97v.15Zm.707-.482h-.444l-.175.194h.794l-.175-.194Zm-.707 1.135v.15h.97v-.15h-.97Zm2.58-2.054c.109-.251.156-.385.175-.456-.133.156-.689.962-1.209 1.729l.267.168c.283-.499.625-1.118.766-1.441ZM6.21 4.519a.16.16 0 0 0-.32 0v.047a.16.16 0 0 0 .32 0V4.52Zm-.357-.467.198-.345-.275-.174c-.071.105-.141.21-.21.31l.287.209Zm-.448.032v.258h.279l.103-.176-.294-.214-.088.132ZM5.33 5.59a.857.857 0 0 1-.177.258l.042.038c.576.515 1.026.914 1.347 1.195.07-.023.238-.051.378-.072L5.33 5.59Zm1.791 1.522a8.73 8.73 0 0 0-.458.074c.193.167.327.28.402.34.25.194.618.263.796.265l-.74-.679Zm.74-2.778a.066.066 0 0 0-.066-.066H6.687a.066.066 0 0 0-.066.066v.008h.05c.036 0 .065.03.065.066v.269c0 .036-.029.066-.065.066h-.05v.008c0 .036.03.066.066.066h1.11c.035 0 .065-.03.065-.066v-.417Zm-1.257.29v-.15h-.263V4.624h.263Zm-3.606-.15v.15h.263V4.473h-.263Zm.714.092V4.52a.16.16 0 0 0-.32 0v.047a.16.16 0 0 0 .32 0Z"/><circle cx="12" cy="12" r="11.5" stroke="#FFF"/></g></svg>