<?xml version="1.0" encoding="UTF-8"?>
<svg width="24px" height="24px" viewBox="0 0 24 24" version="1.1" xmlns="http://www.w3.org/2000/svg" xmlns:xlink="http://www.w3.org/1999/xlink">
    <!-- Generator: Sketch 63.1 (92452) - https://sketch.com -->
    <title>ebasketball</title>
    <desc>Created with Sketch.</desc>
    <g id="Classifier" stroke="none" stroke-width="1" fill="none" fill-rule="evenodd">
        <g id="efootball">
            <g id="ebasketball">
                <circle id="Oval" fill="#503F32" cx="12" cy="12" r="11.8"></circle>
                <path d="M12.1094,3.9996 C15.8804,3.9996 19.0544,6.5756 19.9864,10.0576 L19.9864,10.0576 L20.4634,10.0576 C20.8784,10.0576 21.2144,10.3936 21.2144,10.8086 L21.2144,10.8086 L21.2144,13.7246 C21.2144,14.1396 20.8784,14.4756 20.4634,14.4756 L20.4634,14.4756 L19.9344,14.4756 C19.0194,17.5696 16.3194,19.9016 13.0314,20.2736 C12.9224,20.5046 12.6354,20.6726 12.2874,20.6726 C11.8484,20.6726 11.4914,20.4076 11.4914,20.0786 C11.4914,19.7506 11.8484,19.4856 12.2874,19.4856 C12.5774,19.4856 12.8194,19.6066 12.9594,19.7796 C16.7824,19.3546 19.7684,16.1076 19.7724,12.1736 L19.7724,12.1736 L19.7724,12.1566 C19.7674,7.9336 16.3314,4.4996 12.1094,4.4996 C7.8824,4.4996 4.4434,7.9386 4.4434,12.1646 C4.4434,12.8416 4.5314,13.5116 4.7054,14.1556 C4.7414,14.2886 4.6624,14.4256 4.5294,14.4616 C4.4984,14.4696 4.4724,14.4536 4.4424,14.4506 L4.4424,14.4506 L4.4424,14.4756 L3.7504,14.4756 C3.3364,14.4756 2.9994,14.1396 2.9994,13.7246 L2.9994,13.7246 L2.9994,10.8086 C2.9994,10.3936 3.3364,10.0576 3.7504,10.0576 L3.7504,10.0576 L4.2294,10.0576 C5.1614,6.5756 8.3364,3.9996 12.1094,3.9996 Z M14.4276222,12.5108262 C14.5602655,14.3408549 15.5726603,16.0065242 17.1478648,16.9667162 C17.1182303,16.9974189 17.0886231,17.0281489 17.058386,17.0584134 C15.9034735,18.2133517 14.4165216,18.9153811 12.8128332,19.0762021 L12.5108262,19.0999922 L12.5108262,12.5108262 L14.4276222,12.5108262 Z M11.6891661,12.5108262 L11.6891661,19.0999922 C9.97063662,19.0013656 8.36870074,18.2855354 7.14160619,17.0584134 C7.1113691,17.0281489 7.08176195,16.9974189 7.05212741,16.9667162 C8.55573174,16.0501954 9.54655296,14.4908241 9.74888631,12.7593061 L9.77239744,12.5108262 L11.6891661,12.5108262 Z M8.94769721,12.5108262 C8.8130819,14.097753 7.90547618,15.5333849 6.50865404,16.3330519 C5.73351256,15.3135614 5.25748258,14.1102212 5.12573752,12.8319044 L5.1,12.5108262 L8.94769721,12.5108262 Z M19.100047,12.5108262 C19.0198256,13.9083878 18.5311296,15.2286038 17.6913656,16.3330519 C16.3643845,15.5733683 15.4789213,14.2397263 15.2782767,12.7476699 L15.2523224,12.5108262 L19.100047,12.5108262 Z M17.6913382,7.86694032 C18.4665049,8.88643087 18.9425369,10.089771 19.0742821,11.3680879 L19.1000196,11.6891661 L15.2523224,11.6891661 C15.3869377,10.1022118 16.294516,8.66657991 17.6913382,7.86694032 Z M12.5108262,5.1 C14.2293556,5.1986266 15.8312915,5.91445686 17.0584134,7.1415788 C17.0886505,7.17184328 17.1182577,7.20257337 17.1478922,7.23327607 C15.6442879,8.1497968 14.6534667,9.70916809 14.4511333,11.4406861 L14.4276222,11.6891661 L12.5108262,11.6891661 L12.5108262,5.1 Z M6.50865404,7.86694032 C7.83563507,8.62659793 8.72109829,9.96023858 8.92174296,11.4523184 L8.94769721,11.6891661 L5.1,11.6891661 C5.18022141,10.2915771 5.66891744,8.97138841 6.50865404,7.86694032 Z M11.6891661,5.1 L11.6891661,11.6891661 L9.77239744,11.6891661 C9.63975411,9.85910996 8.62733195,8.19344065 7.05212741,7.23327607 L7.14160619,7.1415788 L7.14160619,7.1415788 C8.36872813,5.91445686 9.97066401,5.1986266 11.6891661,5.1 Z" id="Fill-1" fill="#DEBB69"></path>
                <circle id="Oval" stroke="#FFFFFF" cx="12" cy="12" r="11.5"></circle>
            </g>
        </g>
    </g>
</svg>