<svg xmlns="http://www.w3.org/2000/svg" width="24" height="24"><g fill="none" fill-rule="evenodd"><g fill-rule="nonzero"><path fill="#C8414B" d="M12 23.5a11.5 11.5 0 1 1 0-23 11.5 11.5 0 0 1 0 23Z"/><path fill="#FFD250" d="M1.54 7.2h20.92a11.46 11.46 0 0 1 0 9.6H1.54a11.46 11.46 0 0 1 0-9.6Z"/></g><path fill="#C8414B" fill-rule="nonzero" d="m10.46 12.07.39-1.58c.03-.14-.09-.28-.25-.28h-.27c-.17 0-.29.14-.25.28l.38 1.58Z"/><path fill="#F5F5F5" fill-rule="nonzero" d="M10.01 11.24h.91v3.5h-.91z"/><path fill="#FAB446" fill-rule="nonzero" d="M9.78 10.83h1.37v.75H9.78z"/><path fill="#C8414B" fill-rule="nonzero" d="M8.87 12.07h2.27v.75H8.87zM11.15 13.71l-1.37-.41v-.41l1.37.41zM3.64 12.07l.39-1.58c.03-.14-.09-.28-.25-.28h-.27c-.17 0-.29.14-.25.28l.38 1.58Z"/><path fill="#F5F5F5" fill-rule="nonzero" d="M5.24 10.83c-.26 0-.46.18-.46.41v2.68c0 .5.52 1.44 2.27 1.44 1.76 0 2.28-.94 2.28-1.44v-2.68c0-.23-.2-.41-.46-.41H5.24Z"/><path fill="#C8414B" fill-rule="nonzero" d="M7.05 12.89H4.78v-1.63c0-.24.2-.43.43-.43h1.84v2.06ZM7.05 12.89h2.28v.98c0 .6-.49 1.08-1.09 1.08h-.1c-.6 0-1.09-.48-1.09-1.08v-.98Z"/><path fill="#FAB446" fill-rule="nonzero" d="M4.78 12.89h2.27v.98c0 .6-.48 1.08-1.08 1.08h-.1c-.6 0-1.09-.48-1.09-1.08v-.98Z"/><path fill="#C8414B" fill-rule="nonzero" d="M6.9 14.74v-1.85h-.76v2.04c.28-.03.54-.1.75-.19ZM5.99 14.93v-2.04h-.75v1.85c.21.1.47.16.75.19Z"/><path fill="#FFB441" fill-rule="nonzero" d="M5.23 12.07H6.6v.75H5.23z"/><path fill="#FAB446" fill-rule="nonzero" d="M5.23 11.24H6.6v.75H5.23z"/><path fill="#FAB446" fill-rule="nonzero" d="M5.46 11.49h.91v.75h-.91z"/><path fill="#F5F5F5" fill-rule="nonzero" d="M3.19 11.24h.91v3.5h-.91z"/><path fill="#FAB446" fill-rule="nonzero" d="M2.96 14.54h1.37v.75H2.96zM2.96 10.83h1.37v.75H2.96z"/><path fill="#5064AA" fill-rule="nonzero" d="M2.73 14.95h1.82v.75H2.73z"/><path fill="#FAB446" fill-rule="nonzero" d="M10.01 14.54h1.36v.75h-1.36z"/><path fill="#5064AA" fill-rule="nonzero" d="M9.55 14.95h1.82v.75H9.55z"/><path fill="#FAB446" fill-rule="nonzero" d="M5.69 10.42h2.73v.75H5.69z"/><path fill="#FFB441" fill-rule="nonzero" d="M6.83 9.18h.75v1.24h-.75z"/><path fill="#F5F5F5" fill-rule="nonzero" d="M6.6 9.8c-.38 0-.68-.28-.68-.62 0-.34.3-.62.68-.62.38 0 .68.28.68.62 0 .34-.3.62-.68.62Zm0-.82c-.13 0-.23.09-.23.2 0 .12.1.2.23.2.12 0 .23-.08.23-.2 0-.11-.1-.2-.23-.2Z"/><path fill="#F5F5F5" fill-rule="nonzero" d="M7.5 9.8c-.37 0-.67-.28-.67-.62 0-.34.3-.62.68-.62.37 0 .68.28.68.62 0 .34-.3.62-.68.62Zm0-.82c-.12 0-.22.09-.22.2 0 .12.1.2.23.2.12 0 .23-.08.23-.2 0-.11-.1-.2-.23-.2Z"/><path fill="#F5F5F5" fill-rule="nonzero" d="M8.42 10.21c-.38 0-.68-.27-.68-.62 0-.34.3-.61.68-.61.37 0 .68.27.68.61 0 .35-.3.62-.68.62Zm0-.82c-.13 0-.23.1-.23.2 0 .12.1.21.23.21.12 0 .22-.1.22-.2 0-.12-.1-.21-.22-.21ZM5.69 10.21c-.38 0-.68-.27-.68-.62 0-.34.3-.61.68-.61.38 0 .68.27.68.61 0 .35-.3.62-.68.62Zm0-.82c-.13 0-.23.1-.23.2 0 .12.1.21.23.21s.23-.1.23-.2c0-.12-.1-.21-.23-.21Z"/><path fill="#FAB446" fill-rule="nonzero" d="M8.42 13.71v.21c0 .11-.1.2-.23.2s-.23-.09-.23-.2v-.2h.46Z"/><path fill="#FAB446" fill-rule="nonzero" d="M8.87 13.3H7.51v.62c0 .34.3.62.68.62.38 0 .68-.28.68-.62v-.62Z"/><path fill="#FFA0D2" fill-rule="nonzero" d="M8.21 12.48h-.04a.43.43 0 0 1-.43-.43v-.37c0-.24.19-.44.43-.44h.04c.24 0 .43.2.43.44v.37c0 .23-.19.43-.43.43Z"/><circle cx="7.12" cy="13.02" r="1" fill="#5064AA" fill-rule="nonzero"/><path fill="#FAB446" fill-rule="nonzero" d="M6.83 8.36h.75v1.23h-.75z"/><path fill="#C8414B" fill-rule="nonzero" d="M5.69 10.42 5.24 10l.26-.25c.41-.37.97-.58 1.55-.58.59 0 1.14.21 1.56.58l.26.25-.45.4H5.69Z"/><circle cx="7.58" cy="10.56" r="1" fill="#FFD250" fill-rule="nonzero"/><circle cx="6.67" cy="10.56" r="1" fill="#FFD250" fill-rule="nonzero"/><circle cx="8.49" cy="10.56" r="1" fill="#FFD250" fill-rule="nonzero"/><path fill="#C8414B" fill-rule="nonzero" d="M2.96 12.07h2.27v.75H2.96zM2.96 13.71l1.37-.41v-.41l-1.37.41z"/><circle cx="12" cy="12" r="11.5" stroke="#FFF"/></g></svg>