<?xml version="1.0" encoding="UTF-8"?>
<svg width="24px" height="24px" viewBox="0 0 24 24" version="1.1" xmlns="http://www.w3.org/2000/svg" xmlns:xlink="http://www.w3.org/1999/xlink">
    <!-- Generator: Sketch 55.1 (78136) - https://sketchapp.com -->
    <title>Flags/uruguay</title>
    <desc>Created with Sketch.</desc>
    <g id="Icons" stroke="none" stroke-width="1" fill="none" fill-rule="evenodd">
        <g id="Flags/uruguay">
            <g id="uruguay">
                <g id="Group" transform="translate(0.500000, 0.500000)" fill-rule="nonzero">
                    <circle id="Oval" fill="#EEEEEE" cx="11.4775828" cy="11.4776057" r="11.4775828"></circle>
                    <path d="M11.4775828,8.48267391 L22.5606238,8.48267391 C22.2757863,7.42770462 21.8409394,6.41910158 21.2693957,5.48774214 L11.4775828,5.48774214 L11.4775828,8.48267391 Z M4.33099415,20.4579176 L18.6241715,20.4579176 C19.6730182,19.6224201 20.568163,18.6104513 21.2693957,17.4674692 L1.68576998,17.4674692 C2.38700267,18.6104513 3.28214748,19.6224201 4.33099415,20.4579176 Z M11.4775828,1.13853085e-05 L11.4775828,2.4972938 L18.6241715,2.4972938 C16.5948725,0.877120416 14.0743121,-0.00365257373 11.4775828,1.13853085e-05 Z" id="Shape" fill="#338AF3"></path>
                    <path d="M11.4775828,8.48267391 L22.5606238,8.48267391 C22.2757863,7.42770462 21.8409394,6.41910158 21.2693957,5.48774214 L11.4775828,5.48774214 L11.4775828,8.48267391 Z M0,11.4776057 C0,12.5132782 0.134502924,13.5175667 0.39454191,14.4725375 L22.5606238,14.4725375 C22.8161793,13.5175667 22.9551657,12.5132782 22.9551657,11.4776057 L0,11.4776057 Z" id="Shape" fill="#338AF3"></path>
                </g>
                <polygon id="Path" fill="#FFDA44" fill-rule="nonzero" points="10.4140351 7.05497076 8.9497076 7.74269006 9.73099415 9.16023392 8.14035088 8.85614035 7.93918129 10.4608187 6.83508772 9.28187135 5.72631579 10.4608187 5.5251462 8.85614035 3.93918129 9.16023392 4.71578947 7.74269006 3.25614035 7.05497076 4.71578947 6.36725146 3.93918129 4.9497076 5.52982456 5.25380117 5.72631579 3.64912281 6.83508772 4.83274854 7.93918129 3.64912281 8.14035088 5.25380117 9.73099415 4.9497076 8.9497076 6.36725146"></polygon>
                <circle id="Oval" stroke="#FFFFFF" cx="12" cy="12" r="11.5"></circle>
            </g>
        </g>
    </g>
</svg>