<?xml version="1.0" encoding="UTF-8"?>
<svg width="24px" height="24px" viewBox="0 0 24 24" version="1.1" xmlns="http://www.w3.org/2000/svg" xmlns:xlink="http://www.w3.org/1999/xlink">
    <!-- Generator: Sketch 55.1 (78136) - https://sketchapp.com -->
    <title>Flags/iceland</title>
    <desc>Created with Sketch.</desc>
    <g id="Icons" stroke="none" stroke-width="1" fill="none" fill-rule="evenodd">
        <g id="Flags/iceland">
            <g id="iceland">
                <circle id="Oval" fill="#EEEEEE" fill-rule="nonzero" cx="12" cy="12" r="12"></circle>
                <path d="M0.5125,15.0790661 C1.19643456,17.5768638 2.68874797,19.7826113 4.75990089,21.3570327 L4.75990089,15.0790661 L0.5125,15.0790661 Z M10.9683556,23.7539068 C11.311415,23.7838873 11.6556125,23.799266 12,23.800001 C17.3758866,23.8014365 22.0847297,20.2266367 23.4875,15.0790661 L10.9637085,15.0790661 L10.9637085,23.7539068 L10.9683556,23.7539068 Z M23.4875,8.92094324 C21.9829591,3.40172366 16.7057991,-0.253600891 10.9637085,0.246102513 L10.9637085,8.92094324 L23.4875,8.92094324 Z M4.75990089,2.64297668 C2.68874797,4.21739806 1.19643456,6.42314551 0.5125,8.92094324 L4.75990089,8.92094324 L4.75990089,2.64297668 Z" id="Shape" fill="#41479B" fill-rule="nonzero"></path>
                <path d="M23.6985665,10.4477408 L9.43258166,10.4477408 L9.43258166,0.385938 C8.35877858,0.625877569 7.3238124,1.01700397 6.35813517,1.547809 L6.35813517,10.4477408 L0.301429497,10.4477408 C0.168103501,11.478215 0.168103501,12.521786 0.301429497,13.5522602 L6.35813517,13.5522602 L6.35813517,22.452192 C7.3238124,22.982997 8.35877858,23.3741234 9.43258166,23.614063 L9.43258166,13.5522602 L23.6985665,13.5522602 C23.8316845,12.5217724 23.8316845,11.4782286 23.6985665,10.4477408 Z" id="Path" fill="#FF4B55" fill-rule="nonzero"></path>
                <circle id="Oval" stroke="#FFFFFF" cx="12" cy="12" r="11.5"></circle>
            </g>
        </g>
    </g>
</svg>