<?xml version="1.0" encoding="UTF-8"?>
<svg width="24px" height="24px" viewBox="0 0 24 24" version="1.1" xmlns="http://www.w3.org/2000/svg" xmlns:xlink="http://www.w3.org/1999/xlink">
    <!-- Generator: Sketch 55.1 (78136) - https://sketchapp.com -->
    <title>Flags/georgia</title>
    <desc>Created with Sketch.</desc>
    <g id="Icons" stroke="none" stroke-width="1" fill="none" fill-rule="evenodd">
        <g id="Flags/georgia">
            <g id="georgia">
                <circle id="Oval" fill="#F5F5F5" fill-rule="nonzero" cx="12" cy="12" r="12"></circle>
                <g id="Group" fill="#FF4B55" fill-rule="nonzero">
                    <path d="M23.896875,10.434375 L13.565625,10.434375 L13.565625,0.103125 C12.5262645,-0.0322495559 11.4737355,-0.0322495559 10.434375,0.103125 L10.434375,10.434375 L0.103125,10.434375 C0.0349756943,10.9534754 0.000528553689,11.4764456 2.87103674e-14,12 C2.87103674e-14,12.5296875 0.0328125,13.0546875 0.103125,13.565625 L10.434375,13.565625 L10.434375,23.896875 C11.4737286,24.0323552 12.5262714,24.0323552 13.565625,23.896875 L13.565625,13.565625 L23.896875,13.565625 C23.9650374,13.0465259 23.9994846,12.5235549 24,12 C24,11.4703125 23.9671875,10.9453125 23.896875,10.434375 Z" id="Path"></path>
                    <path d="M7.303125,5.7375 L7.303125,4.171875 L5.7375,4.171875 L5.7375,5.7375 L4.171875,5.7375 L4.171875,7.303125 L5.7375,7.303125 L5.7375,8.86875 L7.303125,8.86875 L7.303125,7.303125 L8.86875,7.303125 L8.86875,5.7375 L7.303125,5.7375 Z M18.2625,5.7375 L18.2625,4.171875 L16.696875,4.171875 L16.696875,5.7375 L15.13125,5.7375 L15.13125,7.303125 L16.696875,7.303125 L16.696875,8.86875 L18.2625,8.86875 L18.2625,7.303125 L19.828125,7.303125 L19.828125,5.7375 L18.2625,5.7375 Z M7.303125,16.696875 L7.303125,15.13125 L5.7375,15.13125 L5.7375,16.696875 L4.171875,16.696875 L4.171875,18.2625 L5.7375,18.2625 L5.7375,19.828125 L7.303125,19.828125 L7.303125,18.2625 L8.86875,18.2625 L8.86875,16.696875 L7.303125,16.696875 Z M18.2625,16.696875 L18.2625,15.13125 L16.696875,15.13125 L16.696875,16.696875 L15.13125,16.696875 L15.13125,18.2625 L16.696875,18.2625 L16.696875,19.828125 L18.2625,19.828125 L18.2625,18.2625 L19.828125,18.2625 L19.828125,16.696875 L18.2625,16.696875 Z" id="Shape"></path>
                </g>
                <circle id="Oval" stroke="#FFFFFF" cx="12" cy="12" r="11.5"></circle>
            </g>
        </g>
    </g>
</svg>