<?xml version="1.0" encoding="UTF-8"?>
<svg width="24px" height="24px" viewBox="0 0 24 24" version="1.1" xmlns="http://www.w3.org/2000/svg" xmlns:xlink="http://www.w3.org/1999/xlink">
    <!-- Generator: Sketch 55.1 (78136) - https://sketchapp.com -->
    <title>Flags/honduras</title>
    <desc>Created with Sketch.</desc>
    <g id="Icons" stroke="none" stroke-width="1" fill="none" fill-rule="evenodd">
        <g id="Flags/guatemala">
            <g id="honduras">
                <circle id="Oval" fill="#EEEEEE" fill-rule="nonzero" cx="12" cy="12" r="12"></circle>
                <path d="M11.95,23.900001 C16.5350018,23.901086 20.7159739,21.2873256 22.709375,17.1737115 L1.190625,17.1737115 C3.18402609,21.2873256 7.36499822,23.901086 11.95,23.900001 Z M11.95,0.1 C7.36499822,0.0989150255 3.18402609,2.71267535 1.190625,6.82628949 L22.709375,6.82628949 C20.7159739,2.71267535 16.5350018,0.0989150255 11.95,0.1 Z M7.35416983,7.86289107 L7.74143268,9.04824265 L8.99653757,9.04824265 L7.98405518,9.77804734 L8.36665221,10.9633989 L7.35416983,10.2335942 L6.34168745,10.9633989 L6.72895029,9.77804734 L5.71646791,9.04824265 L6.9715728,9.04824265 L7.35416983,7.86289107 Z M7.35416983,13.0366021 L7.74143268,14.2219537 L8.99653757,14.2219537 L7.98405518,14.9517584 L8.36665221,16.1371099 L7.35416983,15.4073052 L6.34168745,16.1371099 L6.72895029,14.9517584 L5.71646791,14.2219537 L6.9715728,14.2219537 L7.35416983,13.0366021 Z M16.5458302,7.86289107 L16.9284272,9.04824265 L18.1835321,9.04824265 L17.1710497,9.77804734 L17.5583126,10.9633989 L16.5458302,10.2335942 L15.5333478,10.9633989 L15.9159448,9.77804734 L14.9034624,9.04824265 L16.1585673,9.04824265 L16.5458302,7.86289107 Z M16.5458302,13.0366021 L16.9284272,14.2219537 L18.1835321,14.2219537 L17.1710497,14.9517584 L17.5583126,16.1371099 L16.5458302,15.4073052 L15.5333478,16.1371099 L15.9159448,14.9517584 L14.9034624,14.2219537 L16.1585673,14.2219537 L16.5458302,13.0366021 Z M11.95,10.4474224 L12.3372628,11.6327739 L13.5830361,11.6327739 L12.5752195,12.3718755 L12.9624824,13.5572271 L11.95,12.8227739 L10.9375176,13.5572271 L11.3247805,12.3718755 L10.3122981,11.6374224 L11.5627372,11.6374224 L11.95,10.4474224 Z" id="Shape" fill="#338AF3" fill-rule="nonzero"></path>
                <circle id="Oval" stroke="#FFFFFF" cx="12" cy="12" r="11.5"></circle>
            </g>
        </g>
    </g>
</svg>