<svg xmlns="http://www.w3.org/2000/svg" width="24" height="24"><g fill="none" fill-rule="evenodd"><g fill-rule="nonzero"><path fill="#82AFFF" d="M8.17 1.15v21.7a11.5 11.5 0 0 1 0-21.7Z"/><path fill="#F5F5F5" d="M15.83 1.15v21.7a11.51 11.51 0 0 1-7.66 0V1.15A11.48 11.48 0 0 1 12 .5c1.34 0 2.63.23 3.83.65Z"/><path fill="#82AFFF" d="M15.83 22.85V1.15a11.5 11.5 0 0 1 0 21.7Z"/></g><path fill="#FFC855" fill-rule="nonzero" d="m12.36 9.64-.75.43.69.32z"/><path fill="#73AF00" fill-rule="nonzero" d="M12 14.65a2.74 2.74 0 0 1-2.73-2.73c0-.94.47-1.8 1.26-2.3l.07.1a2.6 2.6 0 0 0-1.2 2.2 2.6 2.6 0 0 0 2.6 2.6v.13Z"/><path fill="#73AF00" fill-rule="nonzero" d="M10.44 15.2c.1.04.26-.02.43-.17a1.25 1.25 0 0 0 .34-.56c-.1-.04-.27.01-.43.17a1.25 1.25 0 0 0-.34.55Zm1.14-.74c.04-.1-.02-.26-.17-.43a1.25 1.25 0 0 0-.56-.34c-.04.1.02.27.17.43.16.17.37.3.56.34Zm-1.69.45c.1.1.26.09.44-.05.17-.13.31-.35.38-.57-.1-.1-.27-.09-.44.05a1.16 1.16 0 0 0-.38.57Z"/><path fill="#73AF00" fill-rule="nonzero" d="M11.13 14.25c.1-.1.08-.27-.05-.44a1.16 1.16 0 0 0-.58-.38c-.1.1-.08.27.05.44.14.17.36.31.58.38Zm-1.74.15c.09.18.25.27.43.2.18-.06.33-.26.41-.5-.09-.18-.25-.27-.43-.2-.18.06-.33.26-.41.5Z"/><path fill="#73AF00" fill-rule="nonzero" d="M10.6 13.94c.18-.09.27-.25.2-.43s-.26-.33-.5-.41c-.18.09-.27.25-.2.43.06.18.26.33.5.41Zm-1.63-.34c.08.24.24.42.42.46.18.05.34-.06.43-.26-.08-.24-.24-.42-.42-.47-.18-.04-.34.07-.43.27Z"/><path fill="#73AF00" fill-rule="nonzero" d="M10.01 13.46c.24-.08.43-.23.47-.41.04-.19-.07-.35-.26-.43-.24.08-.43.23-.47.41-.04.18.07.34.26.43Zm-1.28-.7c.06.21.2.43.38.57.17.13.33.14.43.04a1.15 1.15 0 0 0-.37-.58c-.18-.13-.34-.14-.44-.04Z"/><path fill="#73AF00" fill-rule="nonzero" d="M9.58 12.95a1.15 1.15 0 0 0 .58-.38c.13-.18.14-.34.04-.44a1.15 1.15 0 0 0-.57.38c-.14.17-.14.34-.05.44Zm-.96-1.05c.05.17.16.37.32.53.16.16.33.23.43.22a1.21 1.21 0 0 0-.31-.53c-.16-.16-.33-.23-.44-.22Zm.73.46c.17-.04.37-.16.53-.32.16-.16.23-.32.22-.43a1.21 1.21 0 0 0-.53.32c-.16.16-.23.32-.22.43Zm-.63-1.22c.02.13.13.31.29.47a.9.9 0 0 0 .46.28.98.98 0 0 0-.29-.48.9.9 0 0 0-.46-.27Z"/><path fill="#73AF00" fill-rule="nonzero" d="M9.34 11.85a.99.99 0 0 0 .48-.29.9.9 0 0 0 .27-.46.98.98 0 0 0-.47.29.89.89 0 0 0-.28.46Zm-.23-1.54c-.04.1.01.27.17.43.15.17.36.29.55.34.05-.1 0-.26-.16-.43a1.25 1.25 0 0 0-.56-.34Z"/><path fill="#73AF00" fill-rule="nonzero" d="M9.46 11.46c.1.04.27-.01.43-.17a1.25 1.25 0 0 0 .34-.55c-.1-.05-.26 0-.43.16a1.25 1.25 0 0 0-.34.56Zm.22-1.76c-.16.1-.21.25-.12.43s.3.33.54.4c.15-.09.21-.25.12-.43-.1-.18-.3-.33-.54-.4Z"/><path fill="#73AF00" fill-rule="nonzero" d="M9.7 10.94c.1.15.26.2.43.12a.9.9 0 0 0 .4-.55c-.09-.15-.25-.2-.43-.12-.18.1-.33.3-.4.55Zm.57-1.67c-.22.09-.36.25-.36.43.01.18.17.34.4.42.21-.09.36-.24.35-.42 0-.19-.16-.34-.39-.43Z"/><path fill="#73AF00" fill-rule="nonzero" d="M10.02 10.4c.09.22.25.37.43.36.18 0 .34-.16.42-.39-.08-.22-.24-.37-.42-.36-.19 0-.34.16-.43.39Z"/><path fill="#73AF00" fill-rule="nonzero" d="M10.24 10.2c.11.01.28-.07.44-.23.16-.16.27-.36.31-.52-.1-.02-.27.06-.43.22a1.2 1.2 0 0 0-.32.53ZM12 14.65v-.13a2.6 2.6 0 0 0 2.6-2.6c0-.9-.45-1.71-1.2-2.2l.07-.1a2.72 2.72 0 0 1 1.26 2.3A2.74 2.74 0 0 1 12 14.65Z"/><path fill="#73AF00" fill-rule="nonzero" d="M13.56 15.2c-.1.04-.26-.02-.43-.17a1.25 1.25 0 0 1-.34-.56c.1-.04.27.01.43.17.17.15.3.37.34.55ZM12.8 14.46c-.04-.1.01-.26.17-.43a1.25 1.25 0 0 1 .55-.34c.05.1 0 .27-.16.43a1.25 1.25 0 0 1-.56.34Zm1.3.45c-.1.1-.25.09-.43-.05a1.16 1.16 0 0 1-.38-.57c.1-.1.27-.09.44.05s.31.35.38.57Z"/><path fill="#73AF00" fill-rule="nonzero" d="M13.33 14.25c-.1-.1-.08-.27.05-.44a1.16 1.16 0 0 1 .58-.38c.1.1.08.27-.05.44a1.16 1.16 0 0 1-.58.38Zm1.28.15c-.09.18-.25.27-.43.2-.18-.06-.33-.26-.41-.5.09-.18.25-.27.43-.2.18.06.33.26.41.5Z"/><path fill="#73AF00" fill-rule="nonzero" d="M13.92 13.94c-.18-.09-.26-.25-.2-.43.07-.18.27-.33.51-.41.18.09.27.25.2.43s-.27.33-.5.41Z"/><path fill="#73AF00" fill-rule="nonzero" d="M15.03 13.6c-.08.24-.24.42-.42.46-.18.05-.34-.06-.43-.26.08-.24.24-.42.42-.47.18-.04.34.07.43.27Z"/><path fill="#73AF00" fill-rule="nonzero" d="M14.52 13.46c-.24-.08-.42-.23-.47-.41-.04-.19.07-.35.27-.43.23.08.42.23.46.41.05.18-.06.34-.26.43Z"/><path fill="#73AF00" fill-rule="nonzero" d="M15.27 12.75a1.15 1.15 0 0 1-.38.58c-.17.13-.33.14-.43.04a1.15 1.15 0 0 1 .37-.58c.18-.13.34-.14.44-.04Z"/><path fill="#73AF00" fill-rule="nonzero" d="M14.88 12.95a1.15 1.15 0 0 1-.58-.38c-.13-.18-.14-.34-.04-.44.22.06.45.2.58.38.13.17.14.34.04.44Z"/><path fill="#73AF00" fill-rule="nonzero" d="M15.4 11.9a1.21 1.21 0 0 1-.32.53c-.16.16-.32.23-.43.22.04-.17.16-.37.32-.53.16-.16.32-.23.43-.22Z"/><path fill="#73AF00" fill-rule="nonzero" d="M14.96 12.36a1.21 1.21 0 0 1-.53-.32c-.16-.16-.24-.32-.22-.43.17.04.37.16.53.32.16.16.23.32.22.43Z"/><path fill="#73AF00" fill-rule="nonzero" d="M15.4 11.14a.99.99 0 0 1-.28.47.9.9 0 0 1-.46.28.99.99 0 0 1 .28-.48.9.9 0 0 1 .47-.27Z"/><path fill="#73AF00" fill-rule="nonzero" d="M14.83 11.85a.99.99 0 0 1-.48-.29.9.9 0 0 1-.27-.46c.13.02.31.12.47.29.16.16.26.33.28.46Zm.44-1.54c.04.1-.01.27-.17.43a1.25 1.25 0 0 1-.55.34c-.05-.1 0-.26.16-.43a1.25 1.25 0 0 1 .56-.34Z"/><path fill="#73AF00" fill-rule="nonzero" d="M14.54 11.46c-.1.04-.27-.01-.43-.17a1.25 1.25 0 0 1-.34-.55c.1-.05.26 0 .43.16.16.15.29.37.34.56Zm.3-1.76c.15.1.2.25.12.43a.9.9 0 0 1-.55.4c-.15-.09-.2-.25-.12-.43s.3-.33.55-.4Z"/><path fill="#73AF00" fill-rule="nonzero" d="M14.3 10.94c-.1.15-.26.2-.43.12a.9.9 0 0 1-.4-.55c.09-.15.25-.2.43-.12.18.1.33.3.4.55Zm-.04-1.67c.22.09.37.25.36.43 0 .18-.16.34-.39.42-.22-.09-.36-.24-.36-.42.01-.19.17-.34.4-.43Z"/><path fill="#73AF00" fill-rule="nonzero" d="M13.98 10.4c-.09.22-.25.37-.43.36-.18 0-.34-.16-.42-.39.08-.22.24-.37.42-.36.19 0 .34.16.43.39Z"/><path fill="#73AF00" fill-rule="nonzero" d="M13.79 10.2c-.11.01-.28-.07-.44-.23a1.2 1.2 0 0 1-.31-.52c.1-.02.27.06.43.22.16.16.28.36.32.53Z"/><path fill="#966446" fill-rule="nonzero" d="m10.5 14.05-.47.47-.23-.47.7-.7.23.24-.06.2a.66.66 0 0 1-.16.26Z"/><path fill="#B9B9B9" fill-rule="nonzero" d="m13.07 10.55-2.57 2.57a.17.17 0 0 0 0 .23l.12.12.47-.47 1.87-2.1.23-.23-.12-.12Z"/><path fill="#966446" fill-rule="nonzero" d="M11.13 12.72a.17.17 0 0 0-.05.12V13l1.88-2.1-1.83 1.82Z"/><path fill="#A0A0A0" fill-rule="nonzero" d="m13.19 10.67-.12-.12-.12.12.12.11.12.12 1.28-1.52z"/><path fill="#966446" fill-rule="nonzero" d="m13.62 14.05.48.47.23-.47-.7-.7-.24.24.07.2a.66.66 0 0 0 .16.26Z"/><path fill="#B9B9B9" fill-rule="nonzero" d="m11.06 10.55 2.57 2.57a.17.17 0 0 1 0 .23l-.12.12-.47-.47-1.87-2.1-.23-.23.12-.12Z"/><path fill="#966446" fill-rule="nonzero" d="M13 12.72a.17.17 0 0 1 .05.12V13l-1.88-2.1L13 12.72Z"/><path fill="#A0A0A0" fill-rule="nonzero" d="m10.94 10.67.12-.12.12.12-.12.11-.12.12-1.28-1.52z"/><path fill="#B9B9B9" fill-rule="nonzero" d="m11.1 13.95.12.1a30.96 30.96 0 0 1 2.34-2.33s-.97.6-2.45 2.23Z"/><path fill="#FFE15A" fill-rule="nonzero" d="M10.8 14.68a.15.15 0 0 1-.01-.22l.41-.43a.17.17 0 0 1 .24-.01c.07.06.07.16.01.22l-.41.43a.17.17 0 0 1-.24.01Z"/><path fill="#FFC855" fill-rule="nonzero" d="m11.06 13.86-.07.05c-.07.05-.26.2-.29.41-.01.1 0 .2.06.3a.2.2 0 0 1 .02-.06l.04-.06a.26.26 0 0 1-.03-.15c.02-.13.14-.25.22-.3l.35.45.09-.14-.38-.5Z"/><path fill="#B9B9B9" fill-rule="nonzero" d="m13.02 14.08-.11.1a30.96 30.96 0 0 0-2.34-2.33s.97.6 2.45 2.23Z"/><path fill="#FFE15A" fill-rule="nonzero" d="M13.63 14.81a.15.15 0 0 0 0-.22l-.4-.43a.17.17 0 0 0-.24-.01.15.15 0 0 0-.01.22l.4.43c.07.07.18.07.25.01Z"/><path fill="#FFC855" fill-rule="nonzero" d="m13.17 14 .08.04c.07.05.25.2.29.41a.43.43 0 0 1-.06.3.2.2 0 0 0-.03-.06l-.03-.06a.26.26 0 0 0 .03-.15c-.02-.13-.15-.25-.23-.3l-.34.44-.09-.13.38-.5Z"/><path fill="#69B469" fill-rule="nonzero" d="M12.12 9.78a.2.2 0 0 0-.18-.27.2.2 0 0 0-.12.35c-.07.57.49.61.7.7.32.11.73.36.7 1.04-.02.66-.44 1.3-.44 1.3l.35-.48A4.8 4.8 0 0 1 12 14.46s.48-.47.88-1.08c-.3.7-.62 1.34-.62 1.34s.58-.76 1.05-2.06c.57-1.58-.63-2.53-1.2-2.88Z"/><path fill="#F4E08F" fill-rule="nonzero" d="M11.09 12.11h.75v.75h-.75z"/><circle cx="11.58" cy="12.87" r="1" fill="#ECD077" fill-rule="nonzero"/><circle cx="11.58" cy="11.17" r="1" fill="#ECD077" fill-rule="nonzero"/><path fill="#FCF0A8" fill-rule="nonzero" d="M12.65 10.94a.26.26 0 0 0 0-.52h-1.56a.26.26 0 1 1-.26.26c0 .44.36.97.48 1.44 0 0 .04.11.04.26a.26.26 0 0 1-.26.25h1.56a.26.26 0 0 0 .26-.26c0-.43-.36-.96-.48-1.43h.22Z"/><path fill="#F4E08F" fill-rule="nonzero" d="M11.35 10.68c0 .42-.12.75-.26.75h1.56c.14 0 .26-.33.26-.75h-1.56Zm0 1.7c0 .4-.12.74-.26.74h1.56c.14 0 .26-.33.26-.74h-1.56Z"/><circle cx="12" cy="12" r="11.5" stroke="#FFF"/></g></svg>