<svg xmlns="http://www.w3.org/2000/svg" width="24" height="24"><g fill="none" fill-rule="evenodd"><circle cx="12" cy="12" r="12" fill="#A8EF84"/><path fill="#0089E9" d="M7.378 6.8c0 .098-.1.196-.1.294v-.098l-.098.098c.198-.098.198-.49 0-.294 0 0-.099.098-.099 0-.297 0-.297.392-.494.49-.198.097.099-.294.197-.49l.1-.097h.296s.198 0 .198-.098c.197 0 .395 0 .197.293-.098-.098-.098-.098-.197-.098Zm-.297.587c-.099-.097.198-.195.297-.097.099-.098.099-.098.197-.098.1 0-.098.098-.197.098-.1 0-.198.097-.297.097Zm.396-.293c.098-.196.494 0 .494-.196 0 .294-.198.196-.494.196Zm-.396-.88c.099 0 .099.097.099.097 0 .098.099.196 0 .196 0 0-.593.098-.396-.098 0 0-.098 0-.098.098-.1 0-.198.098-.297.098v-.098c.198-.098.198-.098.494-.293h.198Zm3.955 12.618c0-.098 0-.098.099 0 0 0 0 .097-.099.195v-.195Zm-3.46-6.26c-.198 0-.1-.098-.1-.196-.098-.196.1.195.1.195Zm-5.637-3.13c-.296.195.297.293.1.586.098-.097.296.587.296.098-.198-.195-.099-.587-.297-.88.297-.587.198.098.297.293.494.88.692 2.446 2.076 2.054.1 0 .396.294.791.294.297.489.594.782 1.088.978.099 0 .099-.391.396-.196.593.685-.791 1.37-.198 1.859-.89.391.494 1.174.593 1.858.396.391 1.384.587 1.187 1.37.098.88.197 2.445.692 3.032-.198-.391.099-.098.099.098-.1 0 .098.097.098.097.1.294 0 0-.098-.097 0 .195 0 0 .098.195.1.098-.098 0 0 .098-.098.196.198.098.198.294 0 0 .099.097 0 .097-.296-.293.099.294.099.294v-.098c0 .098.099.098 0 .098-.099.098.099 0 .198.195.099.098.099 0 .198.098-.297-.098.197.196.296.196.198 0-.099-.098-.099-.098.198 0 0-.098.198-.196.099 0-.099-.097-.099-.195s0-.294.099-.391c0-.196-.395-.196-.297-.392.198 0 .1-.293.1-.391.395 0 0-.098-.1-.196.198-.097.396.098.198-.293.593.098.692-.391.297-.685.593.392 1.087-.88.989-1.467.988-.587 1.186-.782 1.087-1.956 1.187-.978.1-1.76-.89-1.76-.099-.49-.593-.196-.79-.099.296-.293 0-.293-.1-.293.1-.587-.494-.978-1.087-.978-.1-.196-.495-.392-.495-.392.1-.195-.197-.097-.296-.293-.396.098-.692.098-1.088-.196 0-.097-.494.392-.198 0 .198-.293-.197 0-.197 0-.297 0-.396.196-.594.49-.296-.294-.494 0-.89-.098-.395-.49.396-1.37-.79-1.076-.1-.196.098-.49.197-.685.297-1.076-1.384 1.272-1.483-.293.198-.979.692-1.565 1.681-1.272-.099-.098 0-.098-.099-.098-.099-.098.495 0 .495-.098.098.196.296 0 .395.098.099.196 0 .391.099.587.494.783.099-.489.395-.685.297-.39 1.088-.489.89-.88.1 0 .1-.098 0-.196v-.195c0 .098 0 .195-.099.293.1.196.198-.293.198-.293.099 0 .297-.294.495-.294-.396 0 .197 0 .296-.097 0-.392 1.681-.783.791-.392-.296.294 1.187-.293.791-.391-.296.391-.395 0-.494-.196-.198 0 .494-.097.099-.195-1.385.684-.396-.196.395-.098.198.098 1.187-.293.89-.49 0-.195-.297-.195-.395-.293h-.1c.198-.097 0-.293 0-.489-.098-.293-.296.392-.691.098.395-.489-.791-.685-.791-.195-.198.097 0 .586-.594.586-.099.294-.395.979-.494.294.395-.196-.396-.391-.593-.49-.396-.782 1.186-.782 1.582-1.27.197.097.099.097.197 0l.1.097c.197-.098.296-.293.395-.391-.198-.294-.495 0-.791.195-.198 0 .099-.293-.1-.195-.197.098-.098.098-.098 0-.099-.098 0-.196.099-.196-.198-.293.198-.391.395-.391-.098-.294-.988.293-.79.587 0 0-.297.098-.297.195.099-.293-.297-.097-.495-.097-.197 0-.296-.196-.494-.098s.198 0 0 .098c-.099 0-.099.195-.198.097.1-.293-.692 0-.296-.195-.396-.196-1.088-.098-.99-.294 0-.097-.197.098-.296 0 .1 0 .1.098 0 .098C8.96.051 16.573.345 19.045 3.573c-.099-.098-.198 0-.297.097 0 .098.396-.097.297 0-.099 0-.396.294-.297.392-.099 0-.099.195-.296.097 0 .098-.198.098-.1.098-.098 0-.098.098-.197.098 0 .098 0 .196.099.391 0-.097-.099 0-.099 0 .099 0 .099.294.396.098.197-.293.593.196.494.391-.198-.097 0 .196 0 .098-.099.098.198.098.099-.098.099-.097.494.098.494-.195-.099-.196.396-.294 0-.49-.296-.195.297-.88.396-.488-.297.097 0 .587.099.489.098.195.395-.098.494.098-.593-.098.099.195-.099.39-.494-.293-.198.196-.297.392-.296-.098-.395 0-.692.098-.099-.098-.197-.098-.296 0-.198 0-.495-.196-.1-.098-.098-.196-.197 0-.098-.196-.198-.293-.396.098-.198.196.297.294-.198.196-.296.196-.396.098-.594.684-.89.587-.1 0 0 .195-.198.097-.593 0 .297.196.297.49.098.684-.693.097-.99.39-.197.979.199 1.37 1.088.881 0-.489.495-.587.495-.88.296 0 .692-.196.89-.098.197.391.988.391.89.978 0 0 .197-.196.098-.293-.296-.196.297 0 .198-.098-.296-.294-1.087-.391-.89-.88.1 0 .1.293.198.097.198.294.791.49.89.88.297.196.395.392.692.49-.198-.294.198-.196.099-.294.297.196-.494-.391-.198-.293h.1c-.199-.196.395 0 .395 0-.1.195.098.195.098.391-.296-.196.1 0 0 .098.693.195.99 0 1.187 1.174-.297-.098-.593.097-.89 0-.395 0-1.088-.587-.989.097-.395.196-.988-.39-1.483-.489.1-.195.1-.293 0-.39.1-.099-.099 0-.099-.099-.692-.098-1.285.196-1.878.294-.297-.196-.297-.098-.396.195 0 0-.593.392-.395.587-.198.392-1.088 1.076-1.088 1.565.297.294-.198.88.099 1.272-.198.098.198.293.198.391.494 1.37 1.68.783 2.768.783.198.097.1.39.396.293.494-.098.395.587.197.783-.197.293.396.586.396.88.099.489.198.978-.198 1.37-.296 1.075.297 2.249.198 3.13-3.524 3.621-8.996 4.082-12.953 2.053-4.592-2.354-7.312-7.921-5.24-13.596.395.098.099.685.296.978Zm.89-3.326v.391c0-.196 0-.196-.197-.293.098-.098.197-.294.197-.098Zm18.984 1.37s0 .097-.197 0h.197Zm-.098-.686c0-.097.098-.195.197-.195.1.195.297.489.396.782-.198.294-.692 0-.692-.293 0-.098 0-.294.099-.294Zm1.087 2.641c.198.098.198.196.198.196-.099 0-.198-.098-.198-.196Z"/><path fill="#FFF" fill-rule="nonzero" d="M12 0C5.373 0 0 5.373 0 12s5.373 12 12 12 12-5.373 12-12S18.627 0 12 0Zm0 .96C18.097.96 23.04 5.903 23.04 12c0 6.097-4.943 11.04-11.04 11.04C5.903 23.04.96 18.097.96 12 .96 5.903 5.903.96 12 .96Z"/></g></svg>