<?xml version="1.0" encoding="UTF-8"?>
<svg width="24px" height="24px" viewBox="0 0 24 24" version="1.1" xmlns="http://www.w3.org/2000/svg" xmlns:xlink="http://www.w3.org/1999/xlink">
    <!-- Generator: Sketch 55.1 (78136) - https://sketchapp.com -->
    <title>Flags/belarus</title>
    <desc>Created with Sketch.</desc>
    <g id="Icons" stroke="none" stroke-width="1" fill="none" fill-rule="evenodd">
        <g id="Flags/belarus">
            <g id="belarus">
                <circle id="Oval" fill="#EEEEEE" fill-rule="nonzero" cx="11.9533074" cy="12" r="11.9533074"></circle>
                <path d="M4.93540856,11.1315175 L3.64202335,8.77821012 L4.94007782,6.45758755 L6.24280156,8.77821012 L4.93540856,11.1315175 Z M2.33929961,11.1315175 L1.04124514,8.77821012 L2.33463035,6.45758755 L3.63735409,8.77821012 L2.33929961,11.1315175 Z M4.93540856,17.5424125 L3.64202335,15.1844358 L4.94007782,12.8684825 L6.24280156,15.1844358 L4.93540856,17.5424125 Z M2.33929961,17.5424125 L1.04124514,15.1844358 L2.33463035,12.8684825 L3.63268482,15.1844358 L2.33929961,17.5424125 Z M6.2381323,2.36731518 L5.86459144,1.71361868 C5.20842711,2.10217566 4.59084149,2.55246593 4.02023346,3.05836576 L4.93540856,4.72529183 L6.2381323,2.36731518 L6.2381323,2.36731518 Z M4.93540856,19.2747082 L4.0155642,20.9322957 C4.58724063,21.4416817 5.20641272,21.8951158 5.86459144,22.2863813 L6.2381323,21.5953307 L4.94007782,19.2747082 L4.93540856,19.2747082 Z" id="Shape" fill="#A2001D" fill-rule="nonzero"></path>
                <path d="M7.27470817,15.1190661 L7.27470817,23.0007782 C10.2823509,24.28083 13.6829913,24.2733631 16.6849838,22.9801157 C19.6869763,21.6868683 22.0284053,19.2206726 23.1642023,16.155642 L7.27470817,15.1190661 Z" id="Path" fill="#6DA544" fill-rule="nonzero"></path>
                <path d="M23.1595331,16.155642 C24.8219778,11.6795973 23.6611767,6.64358745 20.2071154,3.34689821 C16.7530542,0.0502089767 11.6684236,-0.874662049 7.27470817,0.994552529 L7.27470817,16.155642 L23.1688716,16.155642 L23.1595331,16.155642 Z" id="Path" fill="#A2001D" fill-rule="nonzero"></path>
                <circle id="Oval" stroke="#FFFFFF" cx="12" cy="12" r="11.5"></circle>
            </g>
        </g>
    </g>
</svg>