<svg xmlns="http://www.w3.org/2000/svg" width="24" height="24"><g fill="none" fill-rule="evenodd"><circle cx="12" cy="12" r="11.8" fill="#415B73"/><path fill="#00F4BD" d="M15.95 15.165c-.17.062-.137.335-.643.305-.16-.01.103.534-.087.663s-.354-.073-.193-.288c.039-.058-.04-.346-.125-.36-.478 0-.608.308-.58.488.018.12-.057.178-.224.172.04.11.115.166.224.166.163 0 .083.12.102.207.043.202.274.153.49.324.214.17.068.174.068.265 0 .056.253.453-.028.558-.282.104-.454.109-.448.273-.069.07-.164.007-.219.093-.036.054-.011.202-.129.182-.115-.019 0-.122-.158-.261-.158-.14-.894-.67-.947-.636-.01.007-.352.504-.193.942.204.221.355.378.452.472.102.014.364.256.504.365.14.109.194.504.246.554.054.054.394.196.462.192.103-.115.181-.186.234-.213.17-.086.224-.11.395-.11.172 0 .222.072.304-.104.082-.176.297-.223.322-.224.096-.008.17-.149.215-.183.05-.036.399-.256.425-.256.137 0 .034.093.093.164.028.035.363 0 .41.17.048.17-.383.18-.41.225-.026.039.098.174.267.174.17 0-.029.248-.13.378-.103.13-.21.074-.216.189-.005.116-.123.095-.222.167-.084.062-.008.143-.057.211-.037.05-.275.068-.341.11-.17.112-.217.046-.394-.02-.114-.042-.44-.019-.618.078-.349.158-.286-.077-.525-.146-.24-.07-.417-.203-.503-.25-.08-.04-.392-.499-.714-.568-.321-.068-.659-.448-.71-.5-.232-.422-.182-.556.151-.403.333.27.556.438.667.505.09-.034-.013-.195-.307-.484-.225-.162-.36-.465-.356-.66.005-.195.344-.72.17-.775-.174-.055-.345-.696-.532-.76-.188-.064-.191.41-.417.115-.225-.295-.367-.923-.51-1.171-.476-.223-.882-.305-1.215-.246-.5.088-.755 1.057-1.51 1.432-.49.394-.177 1.029-.564 1.088-.387.058-.431-.998-.679-1.463-.247-.466.079-1.483.052-1.565C7 14.5 6.64 15 6.64 14.48s-.139-.277-.393-.815c-.254-.54-1.331-.166-1.425-1.172-.643.006-.64-1.28-.863-1.28-.223 0-.458.517-.295.706.163.189-.163.918.247 1 .41.08.59-.035.903.758.312.793-1.15 1.576-2.364.526-.949-.996-.449-2.416-.224-3.194.226-.778-.09-.827.093-1.168.182-.342.964-.757.967-.866C3.5 8.5 3 8.5 2.804 8.27c-.086-.031-.304-.657 0-.765.573-.003 1.005.088 1.297.274.438.28 0 .221.077.57.69.151.37.686.737.669.368-.018-.047.306-.085.644-.039.338-.05.838.67.689.175-.192.278-.351.31-.479.046-.191-.028-1.372.352-1.354.253.013.257-.13.012-.426-.174-.222.354-.81.68-.688.326.123.287.517.631.492.345-.026.523-.316.515-.46-.531-.282-.264-.417-.032-.615.231-.197.683-1.321 1.277-1.499.593-.177.899.083 1.077-.37.178-.452.622-.728.714-.706.061.015-.65 1.067-.632 1.145.327-.104.597-.3.812-.587.284-.306.569-.434.994-.604.425-.17.89-.164.868-.378-.022-.215-.306-.164-.352-.358-.007-.035-.095-.204-.025-.225.044-.013 1.072.756.816.966-.04.032-.414.436-.216.365.199-.07 1.246-.324 1.457-.266.196 0 .08.246.55.225.47-.022-.069-.33.23-.5.3-.17.338-.029.6.037.26.065.101-.328.617-.228.212.041.234.212.353.157.113-.051.336-.26.394-.34.073-.101-.335-.155.003-.458.109-.097.32-.693.557-.697.331-.006.716.682.693.74-.037.09-.556-.02-.471.198.085.218.265.441.754.4.489-.04.099.191-.095.292-.194.1.28.326.018.7-.024.076-.063.238.314.67.377.432.457.672.59.973.135.3-.202.3-.263.151-.072-.171-.847-1.124-.847-1.612-.006-.096-.176-.4-.326-.258-.15.142.163.258.101.39-.051.053-.333-.144-.333.09 0 .236.172.589-.222.766-.994.447-.98 1.372-.696 1.436.188.043.504.008.945-.105.996.174.854.982.736.899-.116-.083-.565-.346-.676-.23-.326.604-.311 1.463-.241 2.135.07.671-.03 1.653-.138 1.77-.106.117-.31-.47-.592-.58a2.478 2.478 0 0 1-.558-.314c-.51-.011-.805.203-.593.476.213.272.35.013.787.073.043.08.098.522.168 1.325-.096 1.115-.708 2.28-1.167 2.28Zm2.945 4.573c-.203.033-.075-.265-.07-.294.027-.134-.02-.183-.045-.345-.025-.162.006-.337.113-.337s.145.245.032.545c-.027.074.04.247-.002.331.013-.001.266.05.297.016.053-.058.072-.03.218-.069.256-.066.43-.048.458-.02.068.066-.23.184-.357.188-.026 0-.199 0-.317.058-.094.047-.184-.057-.327-.073ZM14.941 3.73c.01.026-.04.2-.394.15-.105.039-.152.114-.278.136a.251.251 0 0 1-.312-.208c.33-.168.857-.081.984-.078Zm4.646 5.715c.313.218-.149.69-.45.74-.154.026.729.816.763 1.289.012.152-.121.287-.399.405-.226.122-.145.453-.364.453s-.285.31-.529.318c-.087.002-.165.214-.17.276-.008.101-.013.23-.174.23-.12-.011-.152-.218-.202-.303-.14-.083-.169-.154-.087-.21.278-.35.446-.537.505-.559.21-.079.396-.092.417-.295.026-.231.066-.34.334-.35.027-.15.042-.259.044-.324 0-.33-.42-.702-.457-.763-.067-.113-.115-.803.034-.577.099.15.344.04.735-.33ZM8.313 17.82c.074 0 .263.281.338.35.071.066.197.093.265.163.206.216-.031.434-.369.417-.284-.014-.239-.142-.348-.281-.072-.094-.203-.102-.199-.232.006-.092.252-.417.313-.417Zm7.852 3.627c.52-.165.77-.151.748.042-.006.055-.99.155-1.05.156-.15 0-.306.001-.453-.01-.1-.01-.418.052-.484.062-.138.02-.277-.058-.41-.077-.089-.012-.928.082-1.016.077-.101-.006-.553-.134-.535-.255.154-.017.414-.021.535.058.054.036.219.05.316.045.684-.045.942-.098 1.167.04.1.018.497-.032.597-.023.109.009.475-.034.585-.115Zm2.616-.822a.095.095 0 0 1 .044-.013c.057 0 .088.071.093.143.008.11-.028.141-.1.191-.049.035-.128.048-.17.095-.047.054-.03.1-.07.159-.089.14-.24.068-.33.181-.078.098-.11.198-.236.15-.077-.032-.12-.068-.051-.165.067-.096.199-.048.277-.12.057-.053.024-.08.057-.145.049-.098.174-.112.254-.181.044-.036.106-.085.143-.132.031-.037.054-.142.089-.163Zm-.86-1.77c-.047.097-.214.206-.5.33-.056.023-.233.299-.052.24.023-.007.25-.19.278-.06.03.144-.21.2-.233.43.006.097.148.097.187.296.046.11.046.331-.04.331-.117 0-.239-.5-.316-.5-.076 0 .073.578-.057.672-.051.054-.101-.022-.106-.104-.005-.093.01-.192-.01-.278-.136-.01-.142-.269-.123-.33.078-.3.131-.472.16-.517.035-.058.055-.153.26-.365a.516.516 0 0 1 .552-.144Zm-.525-3.493c.041.326-.15.523.02.735.271.017.44.164.51.44.002.1-.07.087-.214-.038-.216-.188-.275.001-.4-.123.056.206.071.378.044.513-.143.01-.121-.144-.142-.269-.01-.07.037-.356-.076-.356-.28 0-.359-.264-.117-.576.09-.064.075-.089.012-.172-.043-.058-.063-.186-.02-.262.305-.315.486-.133.383.108Zm-.753 1.827c.039-.092-.097-.252.04-.3.137-.047.209.1.192.191-.012.083.012.188-.055.261-.068.076-.17.064-.265.103-.187.076-.192.322-.368.37-.12.035-.293-.09-.234-.175.038-.056.231-.027.292-.079.203-.173.31-.244.398-.371Zm2.012.661c.15-.076.1.15.246.348.081.135-.076.27-.177.38-.07.173-.194.278-.295-.01-.072-.203-.182-.07-.317-.07-.036.022-.07.158-.181.091-.02-.152.037-.125.131-.186.064-.04.097-.271.307-.271s.136-.205.286-.282Zm-.73-.77c.04.045.005.075-.102.091-.044.051.036.167.027.235-.022.169-.22.1-.35.12-.104.016-.147.105-.182.189-.03.068-.13.223-.151.097-.037-.215-.202-.21-.222-.281-.049-.174.07-.28.25-.27l.235.08c.088-.017.11-.064.069-.141 0-.358.213-.358.426-.12Z"/><circle cx="12" cy="12" r="11.5" stroke="#FFF"/></g></svg>