<svg xmlns="http://www.w3.org/2000/svg" width="24" height="24"><g fill="none" fill-rule="evenodd"><path fill="#FFDA44" fill-rule="nonzero" d="M24 11.98c0-1.47-.26-2.87-.75-4.17L12.02 7.3.8 7.8a11.95 11.95 0 0 0 0 8.33l11.22.52 11.23-.52c.49-1.3.75-2.7.75-4.16Z"/><path fill="#6DA544" fill-rule="nonzero" d="M12.02 23.95c5.01 0 9.49-3.11 11.23-7.81H.8a11.98 11.98 0 0 0 11.22 7.81Z"/><path fill="#D80027" fill-rule="nonzero" d="M.9 7.81h22.25A11.86 11.86 0 0 0 12.02.21C7.06.2 2.62 3.23.9 7.8Z"/><circle cx="12" cy="12" r="11.5" stroke="#FFF"/><path fill="#73AF00" fill-rule="nonzero" d="m11.18 8.42-.04.06a1.3 1.3 0 0 0-.28.79 1.22 1.22 0 0 0 .3.8 1.11 1.11 0 0 0 .6.35c.04 0 .08 0 .12.02h.25l.1-.02a1.11 1.11 0 0 0 .61-.36 1.2 1.2 0 0 0 .3-.8 1.3 1.3 0 0 0-.28-.78 152.44 152.44 0 0 1-.04-.06.08.08 0 0 1 .1-.12l.07.04.17.15c.14.14.32.38.38.73a1.5 1.5 0 0 1-.28 1.18 1.55 1.55 0 0 1-.89.6l-.2.03h-.36l-.18-.04a1.55 1.55 0 0 1-1.17-1.19 1.46 1.46 0 0 1 0-.58c.06-.35.24-.6.38-.73l.18-.15.06-.04a.08.08 0 0 1 .1.12Z"/><path fill="#FF4B55" fill-rule="nonzero" d="M12.27 14.71v1c0 .1-.28.15-.45.08l-.13-.06c-.1-.04-.17-.1-.17-.17v-.85h.75Z"/><path fill="#FFE15A" fill-rule="nonzero" d="M11.37 14.55v.73c0 .04.08.08.22.11l.53.11v-.95h-.75Z"/><path fill="#73AF00" fill-rule="nonzero" d="M11.2 14.55v.46c0 .07.11.13.3.18l.46.11v-.75h-.75Z"/><path fill="#FF4B55" fill-rule="nonzero" d="M12.16 14.71v1c0 .1.28.15.45.08l.13-.06c.1-.04.17-.1.17-.17v-.85h-.75Z"/><path fill="#FFE15A" fill-rule="nonzero" d="M13.23 14.55v.73c0 .04-.09.08-.23.11l-.52.11v-.95h.75Z"/><path fill="#73AF00" fill-rule="nonzero" d="M13.38 14.55v.46c0 .07-.1.13-.29.18l-.45.11v-.75h.74Z"/><path fill="#FF4B55" fill-rule="nonzero" d="m12.8 11.7 1.74-1.28v2.62a1.36 1.36 0 0 1-2.08 1.15l-.94-.6v-1.92l1.27.02Z"/><path fill="#FFE15A" fill-rule="nonzero" d="M13.9 10.88v1.84a1.36 1.36 0 0 1-1.69 1.31l-.69-.43v-1.93l1.27.02 1.11-.8Z"/><path fill="#73AF00" fill-rule="nonzero" d="M13.43 11.23v1.18a1.36 1.36 0 0 1-1.7 1.32l-.2-.14v-1.92l1.26.02.64-.46Z"/><path fill="#F5F5F5" fill-rule="nonzero" d="m14.63 10.2.7-.41-.5.75h-.29z"/><path fill="#FF4B55" fill-rule="nonzero" d="m13.75 12.49 1.74-1.27v2.6a1.36 1.36 0 0 1-2.07 1.16l-.94-.59v-1.92l1.27.02Z"/><path fill="#73AF00" fill-rule="nonzero" d="M14.38 12.03v1.18a1.36 1.36 0 0 1-1.69 1.31l-.21-.13v-1.92l1.27.02.63-.46Z"/><path fill="#F5F5F5" fill-rule="nonzero" d="m15.59 11 .7-.42-.51.75h-.29z"/><path fill="#FF4B55" fill-rule="nonzero" d="m13.27 12.17 1.75-1.27v2.61a1.36 1.36 0 0 1-2.08 1.15l-.94-.59v-1.92l1.27.02Z"/><path fill="#FFE15A" fill-rule="nonzero" d="M14.38 11.36v1.83a1.36 1.36 0 0 1-1.69 1.32l-.69-.44v-1.92l1.27.02 1.11-.8Z"/><path fill="#73AF00" fill-rule="nonzero" d="M13.9 11.7v1.2a1.36 1.36 0 0 1-1.69 1.3l-.21-.13v-1.92l1.27.02.64-.46Z"/><path fill="#F5F5F5" fill-rule="nonzero" d="m15.11 10.68.7-.42-.5.75H15z"/><path fill="#FF4B55" fill-rule="nonzero" d="m11.2 11.7-1.74-1.28v2.62a1.36 1.36 0 0 0 2.08 1.15l.94-.6v-1.92l-1.27.02Z"/><path fill="#FFE15A" fill-rule="nonzero" d="M10.1 10.88v1.84a1.36 1.36 0 0 0 1.69 1.31l.69-.43v-1.93l-1.27.02-1.11-.8Z"/><path fill="#73AF00" fill-rule="nonzero" d="M10.57 11.23v1.18a1.36 1.36 0 0 0 1.7 1.32l.2-.14v-1.92l-1.26.02-.64-.46Z"/><path fill="#F5F5F5" fill-rule="nonzero" d="m9.37 10.2-.7-.41.5.75h.29z"/><path fill="#FF4B55" fill-rule="nonzero" d="m10.25 12.49-1.74-1.27v2.6a1.36 1.36 0 0 0 2.07 1.16l.94-.59v-1.92l-1.27.02Z"/><path fill="#73AF00" fill-rule="nonzero" d="M9.62 12.03v1.18a1.36 1.36 0 0 0 1.69 1.31l.21-.13v-1.92l-1.27.02-.63-.46Z"/><path fill="#F5F5F5" fill-rule="nonzero" d="m8.41 11-.7-.42.51.75h.29z"/><path fill="#FF4B55" fill-rule="nonzero" d="M10.73 12.17 8.98 10.9v2.61a1.36 1.36 0 0 0 2.08 1.15l.94-.59v-1.92l-1.27.02Z"/><path fill="#FFE15A" fill-rule="nonzero" d="M9.62 11.36v1.83a1.36 1.36 0 0 0 1.69 1.32l.69-.44v-1.92l-1.27.02-1.11-.8Z"/><path fill="#73AF00" fill-rule="nonzero" d="M10.1 11.7v1.2a1.36 1.36 0 0 0 1.69 1.3l.21-.13v-1.92l-1.27.02-.64-.46Z"/><g fill="#FFBE5A" fill-rule="nonzero"><path d="m9.92 14.53-.2-.21a.32.32 0 0 1 0-.46l3.46-3.25.45.45-3.25 3.46a.32.32 0 0 1-.46 0Z"/><path d="M10.4 14.69c-.1.44-.65.44-.74 0a.23.23 0 0 1 0-.1c.1-.43.64-.43.74 0a.23.23 0 0 1 0 .1Z"/></g><circle cx="13.52" cy="10.64" r="1" fill="#F5F5F5" fill-rule="nonzero" transform="rotate(-135 13.52 10.64)"/><g fill="#FFBE5A" fill-rule="nonzero"><path d="m14.08 14.53.2-.21a.32.32 0 0 0 0-.46l-3.46-3.25-.45.45 3.25 3.46c.13.13.33.14.46 0Z"/><path d="M14.03 14.69c.09.44.64.44.74 0a.23.23 0 0 0 0-.1c-.1-.43-.65-.43-.74 0a.23.23 0 0 0 0 .1Z"/></g><circle cx="10.79" cy="10.95" r="1" fill="#F5F5F5" fill-rule="nonzero" transform="rotate(-45 10.79 10.95)"/><ellipse cx="12" cy="12.72" fill="#FFBE5A" fill-rule="nonzero" rx="1.4" ry="1.67"/><path fill="#FF4B55" fill-rule="nonzero" d="m12 11.22.07.32.17-.28-.02.33.25-.22-.13.3.3-.13-.22.25.33-.02-.28.17.32.07-.32.07.28.18-.33-.03.22.25-.3-.13.13.3-.25-.22.02.34-.17-.29-.07.32-.07-.32-.17.29.02-.34-.25.22.13-.3-.3.13.22-.25-.33.03.28-.18-.32-.07.32-.07-.28-.17.33.02-.22-.25.3.13-.13-.3.25.22-.02-.33.17.28z"/><path fill="#73AF00" fill-rule="nonzero" d="M13.76 12.7s-.53.14-.87-.15a3.7 3.7 0 0 0-.79-.53.15.15 0 0 0-.13 0c-.09.04-.25.12-.4.25-.2.18-.84.54-.97.54v.8l1 .87 1.2-.04.96-1.75Z"/><path fill="#3CC8FF" fill-rule="nonzero" d="M12 14.79c-1 0-1.82-.93-1.82-2.06s.81-2.07 1.82-2.07c1 0 1.82.93 1.82 2.06 0 1.14-.81 2.07-1.82 2.07Zm0-3.65c-.74 0-1.35.71-1.35 1.58s.6 1.6 1.35 1.6c.74 0 1.35-.72 1.35-1.6s-.6-1.58-1.35-1.58Z"/><g fill="#FFBE5A" fill-rule="nonzero"><path d="m11.94 14.37.08.24h.24c.03 0 .04.04.01.06l-.19.15.07.23c.01.03-.02.06-.04.04l-.2-.14-.19.14c-.03.02-.06 0-.05-.04l.07-.23-.19-.15c-.02-.02-.01-.06.02-.06h.24l.07-.24c.01-.03.05-.03.06 0Z"/><path d="m11.45 14.16.07.23h.24c.03 0 .04.05.02.06l-.2.15.08.24c0 .03-.03.06-.05.04l-.2-.15-.19.15c-.02.02-.06 0-.05-.04l.08-.24-.2-.14c-.02-.03 0-.07.02-.07h.24l.08-.23a.03.03 0 0 1 .06 0Z"/><path d="m11.05 13.8.07.23h.24c.03 0 .04.04.02.06l-.2.15.08.24c.01.03-.02.05-.05.03l-.2-.14-.19.15c-.02.01-.05-.01-.05-.04l.08-.24-.2-.15c-.02-.02 0-.06.02-.06h.24l.08-.24c0-.03.05-.03.06 0Z"/><path d="m10.78 13.31.07.24h.24c.03 0 .04.04.02.06l-.2.15.08.24c0 .03-.03.05-.05.03l-.2-.14-.19.14c-.02.02-.06 0-.05-.03l.08-.24-.2-.15c-.02-.02 0-.06.02-.06h.24l.08-.24a.03.03 0 0 1 .06 0Z"/><path d="m10.66 12.75.07.24h.24c.03 0 .04.04.02.06l-.2.15.08.24a.03.03 0 0 1-.05.03l-.2-.14-.19.14c-.02.02-.06 0-.05-.03l.08-.24-.2-.15c-.02-.02 0-.06.02-.06h.24l.08-.24a.03.03 0 0 1 .06 0Zm1.8 1.62-.08.24h-.24c-.03 0-.04.04-.01.06l.19.15-.07.23c-.01.03.02.06.05.04l.19-.14.2.14c.02.02.05 0 .04-.04l-.07-.23.19-.15c.02-.02.01-.06-.02-.06h-.24l-.07-.24a.03.03 0 0 0-.06 0Z"/><path d="m12.95 14.16-.07.23h-.24c-.03 0-.04.05-.02.06l.2.15-.08.24c0 .03.02.06.05.04l.2-.15.19.15c.02.02.05 0 .05-.04l-.08-.24.2-.14c.02-.03 0-.07-.02-.07h-.24l-.08-.23a.03.03 0 0 0-.06 0Z"/><path d="m13.35 13.8-.07.23h-.24c-.03 0-.04.04-.02.06l.2.15-.08.24c-.01.03.02.05.05.03l.2-.14.18.15c.03.01.06-.01.05-.04l-.07-.24.2-.15c.02-.02 0-.06-.02-.06h-.24l-.08-.24a.03.03 0 0 0-.06 0Z"/><path d="m13.62 13.31-.07.24h-.24c-.03 0-.04.04-.02.06l.2.15-.08.24c0 .03.03.05.05.03l.2-.14.19.14c.02.02.06 0 .05-.03l-.07-.24.19-.15c.02-.02 0-.06-.02-.06h-.24l-.08-.24a.03.03 0 0 0-.06 0Z"/><path d="m13.74 12.75-.07.24h-.24c-.03 0-.04.04-.02.06l.2.15-.08.24c0 .03.03.05.05.03l.2-.14.19.14c.02.02.06 0 .05-.03l-.07-.24.19-.15c.02-.02 0-.06-.02-.06h-.24l-.08-.24a.03.03 0 0 0-.06 0Z"/></g><path fill="#F5F5F5" fill-rule="nonzero" d="m11.31 13.74.06.26h.03v-.18s.04.12.1.18h.06c-.03-.03-.07-.09-.07-.14 0-.08.07-.1.07-.17h.06v.3h.04l.07-.27s.05.17.16.28h.04a.45.45 0 0 1-.09-.32s.1-.04.1-.16v-.16c0-.03.03-.06.07-.06h.04s-.06-.1-.14-.12v-.07l-.05.07a.1.1 0 0 0-.08.09v.1c0 .03-.03.05-.07.05h-.23c-.07 0-.18.06-.18.14 0 .07.07.12.07.12l-.06.06Z"/><path fill="#FFBE5A" fill-rule="nonzero" d="M12.35 13.5h-.03a.56.56 0 0 0-.36.14l.23.2v.4h.28v-.4l.24-.2s-.13-.14-.36-.15Z"/><g fill="#F5F5F5" fill-rule="nonzero"><path d="M12.51 13.04h.75v.98h-.75z"/><path d="m12.54 13.03-.29.35s-.03-.17.13-.33l-.37.06s.12-.2.4-.18l-.3-.25s.27-.02.4.18c0 0 .07-.23.28-.24l-.17.27s.17-.1.4-.02l-.35.1s.2.02.28.3l-.3-.2s.1.1.06.33l-.17-.37Zm-3.65-2.35-.7-.41.5.75H9z"/></g><path fill="#825546" fill-rule="nonzero" d="m12.5 10.21 1.88-.58-1-.38a1.59 1.59 0 0 0-.56-.1h-.18a.16.16 0 0 0-.16.16v.16h-.96v-.16a.16.16 0 0 0-.16-.16h-.18c-.2 0-.38.04-.56.1l-1 .38 1.88.58c.1.03.14.14.1.22l-.24.47h1.27l-.23-.47a.16.16 0 0 1 .1-.22Z"/><path fill="#F5F5F5" fill-rule="nonzero" d="M12.36 9.45c.25.38-.16.79-.54.54a.2.2 0 0 1-.06-.06c-.25-.38.16-.8.54-.54a.2.2 0 0 1 .06.06Z"/><path fill="#FFBE5A" fill-rule="nonzero" d="M12.16 9.85c0 .2-.07.37-.16.37h-.64l.28-.64c.03-.07.07-.1.1-.1H12c.09 0 .16.16.16.37Z"/></g></svg>