<?xml version="1.0" encoding="UTF-8"?>
<svg width="24px" height="24px" viewBox="0 0 24 24" version="1.1" xmlns="http://www.w3.org/2000/svg" xmlns:xlink="http://www.w3.org/1999/xlink">
    <!-- Generator: Sketch 55.1 (78136) - https://sketchapp.com -->
    <title>Flags/united_states</title>
    <desc>Created with Sketch.</desc>
    <g id="Icons" stroke="none" stroke-width="1" fill="none" fill-rule="evenodd">
        <g id="Flags/united_states">
            <g id="united_states">
                <g id="Group" transform="translate(0.500000, 0.500000)" fill-rule="nonzero">
                    <circle id="Oval" fill="#EEEEEE" cx="11.5" cy="11.5" r="11.5"></circle>
                    <path d="M11.0013672,11.5 L23,11.5 C23,10.4623047 22.8652344,9.45605469 22.6046875,8.49921875 L11.0013672,8.49921875 L11.0013672,11.5 Z M11.0013672,5.4984375 L21.3109375,5.4984375 C20.6082612,4.3532778 19.7113787,3.33934448 18.6605469,2.50214844 L11.0013672,2.50214844 L11.0013672,5.4984375 Z M11.5,23.0000115 C14.2042969,23.0000115 16.6929688,22.065625 18.6605469,20.4978516 L4.33945313,20.4978516 C6.37271563,22.1211893 8.89819901,23.0036826 11.5,23.0000115 L11.5,23.0000115 Z M1.6890625,17.5015625 L21.3109375,17.5015625 C21.8836528,16.5684127 22.3193524,15.5578315 22.6046875,14.5007813 L0.3953125,14.5007813 C0.680647565,15.5578315 1.11634722,16.5684127 1.6890625,17.5015625 Z" id="Shape" fill="#D80027"></path>
                    <path d="M5.32773437,1.796875 L6.37441406,1.796875 L5.39960937,2.50214844 L5.77246094,3.65214844 L4.79765625,2.94238281 L3.82285156,3.65214844 L4.14628906,2.66386719 C3.28577968,3.37951234 2.53373002,4.21629998 1.91367188,5.14804688 L2.25058594,5.14804688 L1.63066406,5.59726563 C1.53377054,5.75966052 1.44090367,5.92442432 1.35214844,6.09140625 L1.64863281,6.99882813 L1.09609375,6.59453125 C0.957555809,6.88849135 0.831659416,7.18824467 0.71875,7.49296875 L1.04667969,8.49472656 L2.24609375,8.49472656 L1.27578125,9.20898438 L1.64863281,10.3544922 L0.673828125,9.64023438 L0.08984375,10.0669922 C0.0303651525,10.5423509 0.00035989401,11.0209348 0,11.5 L11.5,11.5 L11.5,0 C9.22695312,0 7.11113281,0.660351563 5.32773437,1.796875 Z M5.77246094,10.35 L4.79765625,9.64023438 L3.82285156,10.35 L4.19570312,9.20449219 L3.22089844,8.49023438 L4.42480469,8.49023438 L4.79765625,7.34472656 L5.17050781,8.49023438 L6.37441406,8.49023438 L5.39960937,9.20898438 L5.77246094,10.3544922 L5.77246094,10.35 Z M5.39960937,5.8578125 L5.77246094,6.99882813 L4.79765625,6.29355469 L3.82285156,6.99882813 L4.19570312,5.85332031 L3.22089844,5.14804688 L4.42480469,5.14804688 L4.79765625,3.99804688 L5.17050781,5.14804688 L6.37441406,5.14804688 L5.39960937,5.85332031 L5.39960937,5.8578125 Z M9.89628906,10.35 L8.92148438,9.64023437 L7.94667969,10.35 L8.31953125,9.20449219 L7.34472656,8.49472656 L8.54863281,8.49472656 L8.92148438,7.34921875 L9.29433594,8.49472656 L10.4982422,8.49472656 L9.5234375,9.20898438 L9.89628906,10.3544922 L9.89628906,10.35 Z M9.5234375,5.8578125 L9.89628906,6.99882813 L8.92148438,6.29355469 L7.94667969,6.99882813 L8.31953125,5.85332031 L7.34472656,5.14804688 L8.54863281,5.14804688 L8.92148438,3.99804688 L9.29433594,5.14804688 L10.4982422,5.14804688 L9.5234375,5.85332031 L9.5234375,5.8578125 Z M9.5234375,2.50214844 L9.89628906,3.65214844 L8.92148438,2.94238281 L7.95117188,3.65214844 L8.32402344,2.50214844 L7.34472656,1.796875 L8.54863281,1.796875 L8.92148438,0.651367188 L9.29882813,1.796875 L10.5027344,1.796875 L9.5234375,2.50214844 Z" id="Shape" fill="#0052B4"></path>
                </g>
                <circle id="Oval" stroke="#FFFFFF" cx="12" cy="12" r="11.5"></circle>
            </g>
        </g>
    </g>
</svg>