<svg xmlns="http://www.w3.org/2000/svg" width="24" height="24"><g fill="none" fill-rule="evenodd"><path fill="#F5F5F5" fill-rule="nonzero" d="M23.32 8H.68a12 12 0 0 1 22.64 0Z"/><path fill="#FF4B55" fill-rule="nonzero" d="M.68 16h22.64A12 12 0 0 1 .68 16Z"/><g fill="#41479B" fill-rule="nonzero"><path d="M.68 8h22.64a11.98 11.98 0 0 1 0 8H.68a11.98 11.98 0 0 1 0-8Z"/><path d="M9.93 4.94s-.13 4.05-.7 5.2a3.78 3.78 0 0 1-2.46 2.18 3.78 3.78 0 0 1-2.46-2.19C3.74 9 3.6 4.94 3.6 4.94c2-.9 4.31-.9 6.32 0Z"/></g><g fill="#F5F5F5" fill-rule="nonzero"><path d="M7.68 10.56a.4.4 0 0 0-.25-.08.4.4 0 0 0-.26.08c-.1.06-.2.13-.4.13a.66.66 0 0 1-.4-.13.4.4 0 0 0-.26-.08.4.4 0 0 0-.26.08.67.67 0 0 1-.37.13c.38.46.79.68 1.29.88.5-.2.9-.42 1.29-.88a.68.68 0 0 1-.38-.13ZM5.2 9.81c.07.05.13.09.25.09a.4.4 0 0 0 .26-.09c.09-.05.2-.12.4-.12s.31.07.4.12a.4.4 0 0 0 .26.09.4.4 0 0 0 .26-.09c.08-.05.2-.12.4-.12s.3.07.4.12a.4.4 0 0 0 .25.09.4.4 0 0 0 .26-.09.7.7 0 0 1 .31-.12c.04-.1.08-.2.11-.35l-.94-1.57-.35.7-.7-1.4-.7 1.4-.35-.7-.95 1.57.11.35c.15.02.24.08.31.12Z"/><path d="M8.48 10.08c-.08.1-.2.2-.4.2s-.3-.1-.4-.2c-.07-.07-.13-.13-.25-.13-.13 0-.19.06-.26.13-.1.1-.2.2-.4.2s-.32-.1-.4-.2c-.08-.07-.14-.13-.26-.13-.13 0-.18.06-.26.13-.09.1-.2.2-.4.2s-.31-.1-.4-.2l.2.55c.06.04.11.07.2.07.13 0 .18-.06.26-.13.09-.1.2-.2.4-.2s.31.1.4.2c.08.07.13.13.26.13.12 0 .18-.06.25-.13.1-.1.2-.2.4-.2s.32.1.4.2c.08.07.14.13.26.13.1 0 .15-.03.2-.07.07-.17.14-.35.2-.55Z"/></g><g fill="#FFE15A" fill-rule="nonzero"><path d="m6.86 5.86.08.22.26-.05c.02 0 .03.02.02.03l-.18.17.18.17s0 .03-.02.02l-.26-.05-.08.22c0 .02-.03.02-.03 0l-.08-.22-.26.05c-.01 0-.03-.01-.01-.02l.18-.17-.18-.17c-.02-.01 0-.03.01-.03l.26.05.08-.22h.03ZM5.85 4.9l.08.22.26-.05c.02 0 .03.01.02.02l-.18.17.18.17c0 .01 0 .03-.02.03l-.26-.06-.08.22c0 .02-.03.02-.03 0l-.08-.22-.26.06c-.01 0-.03-.02-.01-.03l.18-.17-.18-.17c-.02-.01 0-.03.01-.02l.26.05.08-.22c0-.02.03-.02.03 0ZM7.88 4.9l.08.22.25-.05c.02 0 .03.01.02.02l-.18.17.18.17c.01.01 0 .03-.02.03l-.25-.06-.08.22c0 .02-.03.02-.04 0l-.07-.22-.26.06c-.02 0-.03-.02-.02-.03l.18-.17-.18-.17c-.01-.01 0-.03.02-.02l.26.05.07-.22c.01-.02.03-.02.04 0Z"/></g><path fill="#FF1722" fill-rule="nonzero" d="M9.57 4.8v.34c-.05 1.26-.24 4.02-.65 4.85-.6 1.22-1.17 1.62-2.15 2-.99-.38-1.55-.78-2.15-2-.41-.83-.6-3.63-.65-4.85v-.35l-.36.15c0 .25.07 1.86.25 3.28.1.8.25 1.52.45 1.91.7 1.4 1.4 1.8 2.46 2.19a3.78 3.78 0 0 0 2.46-2.19c.2-.39.34-1.12.44-1.9.19-1.43.25-3.04.26-3.29l-.36-.15Z"/><circle cx="12" cy="12" r="11.5" stroke="#FFF"/></g></svg>