<?xml version="1.0" encoding="UTF-8"?>
<svg width="24px" height="24px" viewBox="0 0 24 24" version="1.1" xmlns="http://www.w3.org/2000/svg" xmlns:xlink="http://www.w3.org/1999/xlink">
    <!-- Generator: Sketch 55.1 (78136) - https://sketchapp.com -->
    <title>Flags/europe</title>
    <desc>Created with Sketch.</desc>
    <g id="Icons" stroke="none" stroke-width="1" fill="none" fill-rule="evenodd">
        <g id="Flags/europe">
            <g id="europe">
                <path d="M12,23.5 C5.64872538,23.5 0.5,18.3512746 0.5,12 C0.5,5.64872538 5.64872538,0.5 12,0.5 C18.3512746,0.5 23.5,5.64872538 23.5,12 C23.5,18.3512746 18.3512746,23.5 12,23.5 Z" id="Combined-Shape" fill="#0052B4"></path>
                <polygon id="Shape" fill="#FFDA44" fill-rule="nonzero" points="12.0000641 2.01115385 12.5314103 3.64634615 14.250641 3.64634615 12.8596795 4.65692308 13.3910256 6.29211538 12.0000641 5.28147436 10.6090385 6.29211538 11.1403846 4.65692308 9.74942308 3.64634615 11.4687179 3.64634615"></polygon>
                <polygon id="Shape" fill="#FFDA44" fill-rule="nonzero" points="4.93679487 4.93679487 6.46884615 5.71730769 7.68455128 4.50166667 7.41551282 6.19974359 8.9475 6.98032051 7.24935897 7.24929487 6.98038462 8.9475 6.19980769 7.41551282 4.50173077 7.68455128 5.7174359 6.46884615"></polygon>
                <polygon id="Shape" fill="#FFDA44" fill-rule="nonzero" points="2.01121795 12 3.64641026 11.4686538 3.64641026 9.74935897 4.65692308 11.1403846 6.29217949 10.6090385 5.28147436 12 6.29217949 13.3909615 4.65692308 12.8596795 3.64641026 14.250641 3.64641026 12.5313462"></polygon>
                <polygon id="Shape" fill="#FFDA44" fill-rule="nonzero" points="4.93679487 19.0632051 5.71737179 17.5311538 4.50173077 16.3154487 6.19987179 16.5845513 6.98032051 15.0525641 7.24935897 16.7507051 8.9474359 17.0196795 7.41564103 17.8002564 7.68455128 19.4983333 6.46884615 18.2826282"></polygon>
                <polygon id="Shape" fill="#FFDA44" fill-rule="nonzero" points="12.0000641 21.9888462 11.4686538 20.3536538 9.74942308 20.3536538 11.1404487 19.3430769 10.6090385 17.7080128 12.0000641 18.7185256 13.3910256 17.7080128 12.8596795 19.3430769 14.250641 20.3536538 12.5313462 20.3536538"></polygon>
                <polygon id="Shape" fill="#FFDA44" fill-rule="nonzero" points="19.0632692 19.0632051 17.5312821 18.2826923 16.3155128 19.4983974 16.5845513 17.8001923 15.0526923 17.0196795 16.7507692 16.7507051 17.0197436 15.0525641 17.8002564 16.5845513 19.4983333 16.3154487 18.2826282 17.5312821"></polygon>
                <polygon id="Shape" fill="#FFDA44" fill-rule="nonzero" points="21.9888462 12 20.3536538 12.5313462 20.3536538 14.250641 19.3430769 12.8596154 17.7080128 13.3909615 18.7185897 12 17.7080128 10.6090385 19.343141 11.1403846 20.3536538 9.74935897 20.3536538 11.4687179"></polygon>
                <polygon id="Shape" fill="#FFDA44" fill-rule="nonzero" points="19.0632692 4.93679487 18.2826923 6.46884615 19.4983974 7.68455128 17.8001923 7.41544872 17.0197436 8.9474359 16.7507692 7.24929487 15.0526923 6.98025641 16.5845513 6.19974359 16.3155128 4.50173077 17.5313462 5.71737179"></polygon>
                <circle id="Oval" stroke="#FFFFFF" cx="12" cy="12" r="11.5"></circle>
            </g>
        </g>
    </g>
</svg>