<?xml version="1.0" encoding="UTF-8"?>
<svg width="24px" height="24px" viewBox="0 0 24 24" version="1.1" xmlns="http://www.w3.org/2000/svg" xmlns:xlink="http://www.w3.org/1999/xlink">
    <!-- Generator: Sketch 55.1 (78136) - https://sketchapp.com -->
    <title>Flags/norway</title>
    <desc>Created with Sketch.</desc>
    <g id="Icons" stroke="none" stroke-width="1" fill="none" fill-rule="evenodd">
        <g id="Flags/norway">
            <g id="norway">
                <g id="Group" transform="translate(0.500000, 0.500000)" fill-rule="nonzero">
                    <circle id="Oval" fill="#EEEEEE" cx="11.5" cy="11.5" r="11.5"></circle>
                    <path d="M0.3953125,14.5007812 C1.05645544,16.9350765 2.4990386,19.0847464 4.50117187,20.6191406 L4.50117187,14.5007812 L0.3953125,14.5007812 Z M10.5027344,22.9550781 C10.8343616,22.9842963 11.1670889,22.9992841 11.5,23.0000004 C16.6967391,23.0013994 21.2486635,19.5174832 22.6046875,14.5007812 L10.4982422,14.5007812 L10.4982422,22.9550781 L10.5027344,22.9550781 Z M22.6046875,8.49921875 C21.1502843,3.12031643 16.0489818,-0.442077374 10.4982422,0.044921875 L10.4982422,8.49921875 L22.6046875,8.49921875 Z M4.50117188,2.38085937 C2.4990386,3.91525363 1.05645544,6.0649235 0.3953125,8.49921875 L4.50117188,8.49921875 L4.50117188,2.38085937 Z" id="Shape" fill="#D80027"></path>
                </g>
                <path d="M23.896875,10.434375 L9.3890625,10.434375 L9.3890625,0.2859375 C8.29705701,0.527943009 7.24454676,0.922437104 6.2625,1.4578125 L6.2625,10.434375 L0.103125,10.434375 C-0.032461052,11.4737217 -0.032461052,12.5262783 0.103125,13.565625 L6.2625,13.565625 L6.2625,22.5421875 C7.24454676,23.0775629 8.29705701,23.472057 9.3890625,23.7140625 L9.3890625,13.565625 L23.896875,13.565625 C24.0322496,12.5262645 24.0322496,11.4737355 23.896875,10.434375 Z" id="Path" fill="#0052B4" fill-rule="nonzero"></path>
                <circle id="Oval" stroke="#FFFFFF" cx="12" cy="12" r="11.5"></circle>
            </g>
        </g>
    </g>
</svg>