<svg xmlns="http://www.w3.org/2000/svg" width="24" height="24"><g fill="none" fill-rule="evenodd"><g fill-rule="nonzero"><path fill="#73AF00" d="M22.85 8.17H1.15a11.5 11.5 0 0 1 21.7 0Z"/><path fill="#FF4B55" d="M1.15 15.83h21.7a11.5 11.5 0 0 1-21.7 0Z"/><path fill="#F5F5F5" d="M1.62 16.96a12.9 12.9 0 0 1-.11-.24h.01a.35.35 0 0 1-.02-.1v-.03c0-.1.04-.17.1-.24h-.25A11.47 11.47 0 0 1 .5 12c0-1.42.26-2.78.73-4.04H2c.05 0 .09.08.09.17v.03h.2v-.03c0-.09.04-.17.1-.17h.29a.35.35 0 0 1 0-.03v-.02a.35.35 0 0 1 .35-.35h.04v-.04a.14.14 0 0 0 0-.04h-.58a.14.14 0 0 0 0 .04v.24c0 .07-.05.12-.1.12-.06 0-.1-.05-.1-.12v-.52a1.17 1.17 0 0 1 0-.1V7.1c0-.19.04-.34.1-.34h2.35c.06 0 .1.15.1.34v.06h.1a.1.1 0 0 0 .1-.1v-.2c0-.06.03-.1.09-.1s.1.04.1.1v.6c0 .06.04.1.1.1a.1.1 0 0 0 .1-.1v-.6c0-.06.04-.1.1-.1.05 0 .1.04.1.1v.6c0 .06.04.1.09.1a.1.1 0 0 0 .1-.1v-.6c0-.06.04-.1.1-.1.05 0 .1.04.1.1v.8a.1.1 0 0 1-.1.1h-.8a.1.1 0 0 1-.09-.1v-.2a.1.1 0 0 0-.1-.1h-.12c-.01.07-.04.12-.07.12h-.3a.1.1 0 0 0 .1.08h.2c.06 0 .1.05.1.1a.1.1 0 0 1-.1.1h-.4a.1.1 0 0 1-.1-.1v-.18h-.19v.28c0 .07-.04.12-.1.12H3.4v.08h.56c.05 0 .1.08.1.17v.03h.19v-.03c0-.09.04-.17.1-.17h1.57c.05 0 .1.08.1.17v.03h.2v-.03c0-.09.03-.17.09-.17h.3a.35.35 0 0 1 0-.03v-.02a.35.35 0 0 1 .34-.35H7v-.04a.14.14 0 0 0 0-.04H6.4a.14.14 0 0 0 0 .04v.24c0 .07-.05.12-.1.12-.06 0-.1-.05-.1-.12v-.52a1.17 1.17 0 0 1 0-.1V7.1c0-.19.04-.34.1-.34h2.36c.05 0 .09.15.09.34v.06h.1a.1.1 0 0 0 .1-.1v-.2c0-.06.04-.1.1-.1.05 0 .1.04.1.1v.6c0 .06.04.1.09.1a.1.1 0 0 0 .1-.1v-.6c0-.06.04-.1.1-.1.05 0 .1.04.1.1v.6c0 .06.04.1.1.1a.1.1 0 0 0 .1-.1v-.6c0-.06.04-.1.09-.1.06 0 .1.04.1.1v.8a.1.1 0 0 1-.1.1h-.79a.1.1 0 0 1-.1-.1v-.2a.1.1 0 0 0-.09-.1h-.12c-.02.07-.05.12-.07.12h-.3a.1.1 0 0 0 .1.08h.2c.05 0 .1.05.1.1a.1.1 0 0 1-.1.1h-.4a.1.1 0 0 1-.1-.1v-.18h-.2v.28c0 .07-.03.12-.09.12h-.56v.08h.56c.05 0 .1.08.1.17v.03h.19v-.03c0-.09.04-.17.1-.17h1.57c.06 0 .1.08.1.17v.03h.2v-.03c0-.09.04-.17.09-.17h.3a.35.35 0 0 1 0-.03v-.02c0-.2.16-.35.35-.35h.04v-.04a.14.14 0 0 0 0-.04h-.58a.14.14 0 0 0 0 .04v.24c0 .07-.05.12-.1.12h-.01c-.05 0-.1-.05-.1-.12v-.52a1.17 1.17 0 0 1 0-.1V7.1c0-.19.05-.34.1-.34h2.36c.05 0 .1.15.1.34v.06h.1a.1.1 0 0 0 .1-.1v-.2c0-.06.04-.1.09-.1.06 0 .1.04.1.1v.6c0 .06.04.1.1.1a.1.1 0 0 0 .1-.1v-.6c0-.06.04-.1.09-.1.06 0 .1.04.1.1v.6c0 .06.04.1.1.1a.1.1 0 0 0 .1-.1v-.6c0-.06.04-.1.1-.1.05 0 .1.04.1.1v.8a.1.1 0 0 1-.1.1h-.8a.1.1 0 0 1-.09-.1v-.2a.1.1 0 0 0-.1-.1h-.12c-.01.07-.04.12-.07.12h-.3a.1.1 0 0 0 .1.08h.2c.05 0 .1.05.1.1a.1.1 0 0 1-.1.1h-.4a.1.1 0 0 1-.1-.1v-.18h-.19v.28c0 .07-.04.12-.1.12h-.56v.08h.57c.05 0 .09.08.09.17v.03h.2v-.03c0-.09.04-.17.1-.17h1.57c.05 0 .1.08.1.17v.03h.19v-.03c0-.09.04-.17.1-.17h.3a.35.35 0 0 1 0-.03v-.02c0-.2.15-.35.35-.35h.03v-.04a.14.14 0 0 0 0-.04h-.58a.14.14 0 0 0 0 .04v.24c0 .07-.05.12-.1.12-.06 0-.1-.05-.1-.12v-.52a1.17 1.17 0 0 1 0-.1V7.1c0-.19.04-.34.1-.34h2.36c.05 0 .1.15.1.34v.06h.1a.1.1 0 0 0 .09-.1v-.2c0-.06.04-.1.1-.1.05 0 .1.04.1.1v.6c0 .06.04.1.09.1a.1.1 0 0 0 .1-.1v-.6c0-.06.04-.1.1-.1.05 0 .1.04.1.1v.6c0 .06.04.1.09.1a.1.1 0 0 0 .1-.1v-.6c0-.06.04-.1.1-.1.05 0 .1.04.1.1v.8a.1.1 0 0 1-.1.1h-.79a.1.1 0 0 1-.1-.1v-.2a.1.1 0 0 0-.09-.1h-.12c-.02.07-.05.12-.07.12h-.3a.1.1 0 0 0 .1.08h.2c.05 0 .1.05.1.1a.1.1 0 0 1-.1.1h-.4a.1.1 0 0 1-.1-.1v-.18h-.2v.28c0 .07-.04.12-.09.12h-.56v.08h.56c.05 0 .1.08.1.17v.03h.2v-.03c0-.09.04-.17.09-.17h1.57c.05 0 .1.08.1.17v.03h.2v-.03c0-.09.04-.17.09-.17h.3a.36.36 0 0 1 0-.03v-.02c0-.2.15-.35.34-.35h.05v-.04a.14.14 0 0 0 0-.04h-.59a.14.14 0 0 0 0 .04v.24c0 .07-.04.12-.1.12-.05 0-.1-.05-.1-.12v-.52a1.17 1.17 0 0 1 0-.1V7.1c0-.19.05-.34.1-.34h2.36c.05 0 .1.15.1.34v.06h.1a.1.1 0 0 0 .1-.1v-.2c0-.06.03-.1.09-.1.05 0 .1.04.1.1v.6c0 .06.04.1.1.1a.1.1 0 0 0 .1-.1v-.6c0-.06.04-.1.09-.1.06 0 .1.04.1.1v.6c0 .06.04.1.1.1a.1.1 0 0 0 .1-.1v-.6c0-.06.04-.1.1-.1.05 0 .1.04.1.1v.8a.1.1 0 0 1-.1.1h-.8a.1.1 0 0 1-.09-.1v-.2a.1.1 0 0 0-.1-.1h-.12c-.02.07-.04.12-.07.12h-.3a.1.1 0 0 0 .1.08h.2c.05 0 .1.05.1.1a.1.1 0 0 1-.1.1h-.4a.1.1 0 0 1-.1-.1v-.18h-.2v.28c0 .07-.03.12-.09.12h-.56v.08h.56c.06 0 .1.08.1.17v.03h.2v-.03c0-.09.04-.17.1-.17h1.57c.05 0 .1.08.1.17v.03h.19v-.03c0-.09.04-.17.1-.17h.3a.35.35 0 0 1 0-.03v-.02a.35.35 0 0 1 .3-.35 11.47 11.47 0 0 1 0 8.88h-.02a.1.1 0 0 0-.1.1v.16c-.05.14-.12.28-.19.41v-.58a.1.1 0 0 0-.1-.1.1.1 0 0 0-.1.1v.62a.1.1 0 0 1-.1.1.1.1 0 0 1-.1-.1v-.81l.03-.06a.27.27 0 0 1-.02-.1v-.34h-.2v.34c0 .04 0 .08-.02.1 0 .02.01.02.02.03a.35.35 0 0 1 .13.28v.02a.35.35 0 0 1-.13.28c-.02.04-.05.07-.1.07h-.78c-.05 0-.1-.05-.1-.11v-.26c0-.06-.04-.11-.1-.11h-.4c-.04 0-.09.05-.09.11v.02c0 .06.05.11.1.11h.2c.05 0 .1.05.1.12 0 .07-.05.12-.1.12h-.4c-.05 0-.1-.05-.1-.11v-.5a.13.13 0 0 1 .03-.06.27.27 0 0 1-.02-.1v-.35h-.2v.34a.27.27 0 0 1-.02.1.1.1 0 0 1 .02.06v.4a.1.1 0 0 1-.1.1h-.59a.1.1 0 0 0-.1.1v.2a.1.1 0 0 1-.09.1.1.1 0 0 1-.1-.1v-.6a.1.1 0 0 0-.1-.1.1.1 0 0 0-.1.1v.6a.1.1 0 0 1-.1.1.1.1 0 0 1-.1-.1v-.6a.1.1 0 0 0-.1-.1.1.1 0 0 0-.09.1v.6a.1.1 0 0 1-.1.1.1.1 0 0 1-.1-.1v-.8l.02-.06a.27.27 0 0 1-.01-.1v-.34h-.2v.34c0 .04 0 .08-.02.1l.01.03a.35.35 0 0 1 .14.28v.02a.35.35 0 0 1-.14.28c-.01.04-.05.07-.09.07h-.79c-.05 0-.1-.05-.1-.11v-.26c0-.06-.03-.11-.09-.11h-.4c-.05 0-.09.05-.09.11v.02c0 .06.04.11.1.11h.2c.05 0 .1.05.1.12 0 .07-.05.12-.1.12h-.4c-.05 0-.1-.05-.1-.11v-.5a.13.13 0 0 1 .02-.06.27.27 0 0 1-.02-.1v-.35h-.2v.34a.27.27 0 0 1 0 .1.1.1 0 0 1 0 .06v.4a.1.1 0 0 1-.09.1h-.6a.1.1 0 0 0-.09.1v.2a.1.1 0 0 1-.1.1.1.1 0 0 1-.1-.1v-.6a.1.1 0 0 0-.1-.1.1.1 0 0 0-.09.1v.6a.1.1 0 0 1-.1.1.1.1 0 0 1-.1-.1v-.6a.1.1 0 0 0-.1-.1.1.1 0 0 0-.1.1v.6a.1.1 0 0 1-.09.1.1.1 0 0 1-.1-.1v-.8c0-.02 0-.04.02-.06a.27.27 0 0 1-.02-.1v-.34h-.2v.34c0 .04 0 .08-.02.1l.02.04a.35.35 0 0 1 .14.27v.02a.35.35 0 0 1-.14.28c-.02.04-.05.07-.1.07h-.78c-.05 0-.1-.05-.1-.11v-.26c0-.06-.04-.11-.1-.11h-.39c-.05 0-.1.05-.1.11v.02c0 .06.05.11.1.11h.2c.06 0 .1.05.1.12 0 .07-.04.12-.1.12h-.4c-.05 0-.1-.05-.1-.11v-.5a.13.13 0 0 1 .03-.06.27.27 0 0 1-.02-.1v-.35h-.2v.34a.27.27 0 0 1-.02.1.1.1 0 0 1 .02.06v.4a.1.1 0 0 1-.1.1h-.59a.1.1 0 0 0-.1.1v.2a.1.1 0 0 1-.09.1.1.1 0 0 1-.1-.1v-.6a.1.1 0 0 0-.1-.1.1.1 0 0 0-.1.1v.6a.1.1 0 0 1-.1.1.1.1 0 0 1-.1-.1v-.6a.1.1 0 0 0-.09-.1.1.1 0 0 0-.1.1v.6a.1.1 0 0 1-.1.1.1.1 0 0 1-.1-.1v-.8l.02-.06a.27.27 0 0 1-.01-.1v-.34h-.2v.34c0 .04 0 .08-.02.1l.01.04a.35.35 0 0 1 .14.27v.02a.35.35 0 0 1-.14.28c-.01.04-.04.07-.09.07h-.79c-.05 0-.1-.05-.1-.11v-.26c0-.06-.03-.11-.09-.11h-.4c-.04 0-.09.05-.09.11v.02c0 .06.05.11.1.11h.2c.05 0 .1.05.1.12 0 .07-.05.12-.1.12h-.4c-.05 0-.1-.05-.1-.11v-.5a.13.13 0 0 1 .02-.06.27.27 0 0 1-.02-.1v-.35h-.2v.34a.27.27 0 0 1-.01.1.1.1 0 0 1 .02.06v.4a.1.1 0 0 1-.1.1h-.6a.1.1 0 0 0-.09.1v.2a.1.1 0 0 1-.1.1.1.1 0 0 1-.1-.1v-.6a.1.1 0 0 0-.09-.1.1.1 0 0 0-.1.1v.6a.1.1 0 0 1-.1.1.1.1 0 0 1-.1-.1v-.6a.1.1 0 0 0-.09-.1.1.1 0 0 0-.1.1v.6a.1.1 0 0 1-.1.1.1.1 0 0 1-.1-.1v-.8l.02-.06a.27.27 0 0 1-.02-.1v-.34h-.2v.34l-.01.1.01.04a.35.35 0 0 1 .14.27v.02a.35.35 0 0 1-.14.28c-.01.04-.05.07-.09.07h-.79c-.05 0-.1-.05-.1-.11v-.26c0-.06-.03-.11-.09-.11h-.4c-.05 0-.1.05-.1.11v.02c0 .06.05.11.1.11h.2c.06 0 .1.05.1.12 0 .07-.04.12-.1.12h-.4c-.05 0-.09-.05-.09-.11v-.5a.13.13 0 0 1 .02-.06.27.27 0 0 1-.02-.1v-.35h-.2v.34a.27.27 0 0 1-.01.1.1.1 0 0 1 .01.06v.4a.1.1 0 0 1-.1.1h-.59a.1.1 0 0 0-.1.1v.2a.1.1 0 0 1-.09.1.1.1 0 0 1-.1-.1v-.6a.1.1 0 0 0-.1-.1.1.1 0 0 0-.1.1v.6a.1.1 0 0 1-.09.1.1.1 0 0 1-.1-.1v-.6a.1.1 0 0 0-.1-.1.1.1 0 0 0-.1.1v.6a.1.1 0 0 1-.1.1.1.1 0 0 1-.1-.1v-.8l.03-.06a.27.27 0 0 1-.02-.1v-.34h-.2v.34c0 .04 0 .08-.02.1l.01.03a.35.35 0 0 1 .14.28v.02a.35.35 0 0 1-.14.28c-.01.04-.05.07-.09.07h-.37Zm20.96-9.48h-.47a.14.14 0 0 0 0 .04v.24c0 .07-.05.12-.1.12-.06 0-.1-.05-.1-.12v-.52a1.17 1.17 0 0 1 0-.1V7.1c0-.19.04-.34.1-.34h.23c.12.23.23.47.34.72ZM2.03 17.74a11.47 11.47 0 0 1-.37-.7H2c.05 0 .09.15.09.34v.04c0 .14-.02.27-.06.32Zm1.24-1.39v.2c0 .05.04.09.1.09h.39a.1.1 0 0 0 .1-.1.1.1 0 0 0-.1-.1h-.2a.1.1 0 0 1-.1-.09h-.19Zm2.25 0h-.29v.25c0 .07.04.12.1.12h.11a.35.35 0 0 1-.01-.1v-.03a.35.35 0 0 1 .09-.24Zm1.67 0v.2c0 .05.05.09.1.09h.4a.1.1 0 0 0 .1-.1.1.1 0 0 0-.1-.1h-.2a.1.1 0 0 1-.1-.09h-.2Zm2.26 0h-.3v.25c0 .07.05.12.1.12h.12a.34.34 0 0 1-.02-.1v-.03c0-.1.04-.17.1-.24Zm3.92 0h-.29v.25c0 .07.04.12.1.12h.12a.34.34 0 0 1-.02-.1v-.03c0-.1.03-.17.1-.24Zm-2.25 0v.2c0 .05.04.09.1.09h.4a.1.1 0 0 0 .09-.1.1.1 0 0 0-.1-.1h-.2a.1.1 0 0 1-.1-.09h-.2Zm3.92 0v.2c0 .05.04.09.1.09h.4a.1.1 0 0 0 .1-.1.1.1 0 0 0-.1-.1h-.2a.1.1 0 0 1-.1-.09h-.2Zm2.26 0H17v.25c0 .07.05.12.1.12h.12a.35.35 0 0 1-.02-.1v-.03c0-.1.04-.17.1-.24Zm3.92 0h-.29v.25c0 .07.04.12.1.12h.11a.35.35 0 0 1-.01-.1v-.03c0-.1.03-.17.09-.24Zm-2.25 0v.2c0 .05.04.09.1.09h.39a.1.1 0 0 0 .1-.1.1.1 0 0 0-.1-.1h-.2a.1.1 0 0 1-.1-.09h-.2Zm0-8.87v.05c0 .06.04.11.09.11h.4c.05 0 .1-.05.1-.11v-.01a.14.14 0 0 0-.01-.04h-.59Zm-3.35 0h-.58v.05c0 .06.04.11.1.11h.4c.04 0 .09-.05.09-.11v-.01a.14.14 0 0 0 0-.04Zm-4.5 0v.05c0 .06.04.11.1.11h.39c.05 0 .1-.05.1-.11v-.01a.14.14 0 0 0-.01-.04h-.58Zm-3.93 0v.05c0 .06.04.11.1.11h.4c.05 0 .09-.05.09-.11v-.01a.14.14 0 0 0 0-.04h-.59Zm-3.92 0v.05c0 .06.04.11.1.11h.4c.04 0 .09-.05.09-.11v-.01a.14.14 0 0 0 0-.04h-.6Zm18.35 9.56c.05 0 .1.15.1.34v.04c0 .19-.05.34-.1.34h-2.36c-.06 0-.1-.15-.1-.34v-.04c0-.19.04-.34.1-.34h2.36Zm-3.93 0c.06 0 .1.15.1.34v.04c0 .19-.04.34-.1.34h-2.36c-.05 0-.09-.15-.09-.34v-.04c0-.19.04-.34.1-.34h2.36Zm-3.92 0c.05 0 .1.15.1.34v.04c0 .19-.05.34-.1.34h-2.36c-.05 0-.1-.15-.1-.34v-.04c0-.19.05-.34.1-.34h2.36Zm-3.92 0c.05 0 .1.15.1.34v.04c0 .19-.05.34-.1.34H7.48c-.05 0-.1-.15-.1-.34v-.04c0-.19.05-.34.1-.34h2.37Zm-3.93 0c.05 0 .1.15.1.34v.04c0 .19-.05.34-.1.34H3.56c-.05 0-.1-.15-.1-.34v-.04c0-.19.05-.34.1-.34h2.36Z"/></g><circle cx="12" cy="12" r="11.5" stroke="#FFF"/><path fill="#FF4B55" fill-rule="nonzero" d="M11.59 9.87c-.22-.07-.36-.4-.3-.73l.02.06c.17.3.47.36.7.14l.03.03c.23.2.53.1.67-.23a.77.77 0 0 1-.11.58c-.17.23-.44.22-.6 0-.1.15-.26.2-.4.15Zm.91 4.36a2.97 2.97 0 0 0 1.05.17c.03 0 .04.05 0 .06a2.66 2.66 0 0 1-1.35.05l-.17.33a.03.03 0 0 1-.06 0l-.17-.33a2.65 2.65 0 0 1-1.35-.05c-.04 0-.03-.06 0-.06.36 0 .71-.05 1.05-.17a2.67 2.67 0 0 1-1.2-1.34 2.7 2.7 0 0 1 .62-2.94c.03-.03.07 0 .05.04a2.9 2.9 0 0 0 .73 3.83l-.05-3.67c0-.05.02-.1.06-.12l.19-.16a.16.16 0 0 1 .2 0l.2.16c.04.03.06.07.06.12l-.06 3.67a2.9 2.9 0 0 0 .73-3.83c-.02-.03.02-.07.05-.04a2.69 2.69 0 0 1 .63 2.94c-.24.6-.68 1.05-1.2 1.34Zm2.15-3.4a2.29 2.29 0 0 1-.93 3.1 2.9 2.9 0 0 0-.36-4.12c-.02-.02 0-.07.04-.06.53.2.98.57 1.24 1.08Zm-4.51 2.92.14.19a2.29 2.29 0 0 1-.92-3.11 2.28 2.28 0 0 1 1.24-1.07c.04-.02.06.03.04.05a2.9 2.9 0 0 0-.5 3.94Z"/></g></svg>