<svg xmlns="http://www.w3.org/2000/svg" width="24" height="24"><g fill="none" fill-rule="nonzero"><circle cx="12" cy="12" r="12" fill="#EEE"/><path fill="#F09146" d="M16 11.8h-2.88l.13-.12c.07-.07.13-.12.28-.18.15-.07.23-.07.33-.07.11 0 .25 0 .47-.1.22-.08.32-.18.4-.26.07-.07.13-.12.28-.18a.72.72 0 0 1 .32-.07c.12 0 .25 0 .47-.1l-.15-.36a.72.72 0 0 1-.32.06c-.12 0-.26 0-.48.1-.22.09-.31.18-.4.26-.07.07-.13.13-.27.19-.15.06-.23.06-.33.06-.12 0-.25 0-.47.1-.22.09-.32.18-.4.27a.74.74 0 0 1-.27.18l2.26-2.27-.28-.28-2.04 2.04.01-.18c0-.1 0-.18.07-.33.06-.15.11-.2.18-.27.08-.09.18-.18.27-.4.09-.23.1-.36.1-.48 0-.1 0-.17.06-.32s.11-.2.18-.28c.08-.08.18-.18.27-.4l-.37-.15c-.06.15-.12.2-.18.27-.09.09-.18.18-.27.4-.1.22-.1.36-.1.48 0 .1 0 .17-.06.32s-.12.2-.19.28c-.08.08-.17.18-.26.4-.1.22-.1.35-.1.47 0 .1 0 .18-.06.32V8h-.4v2.88l-.12-.13a.73.73 0 0 1-.18-.28.74.74 0 0 1-.07-.33c0-.11 0-.25-.1-.47-.08-.22-.18-.32-.26-.4-.07-.07-.12-.13-.18-.27-.07-.15-.07-.23-.07-.33 0-.12 0-.25-.1-.47l-.36.15c.06.15.06.23.06.32 0 .12 0 .26.1.48.09.22.18.31.26.4.07.07.13.12.19.27.06.15.06.23.06.33 0 .12 0 .25.1.47.09.22.18.32.27.4.06.07.12.13.18.27L9.3 9.03l-.28.28 2.26 2.26a.78.78 0 0 1-.25-.17c-.08-.08-.18-.18-.4-.27-.22-.09-.36-.09-.48-.1-.1 0-.17 0-.32-.06a.74.74 0 0 1-.28-.18c-.09-.09-.18-.18-.4-.27-.23-.1-.36-.1-.48-.1-.1 0-.18 0-.33-.06l-.15.37c.22.09.35.1.47.1.1 0 .18 0 .33.06.15.06.2.11.28.18.09.09.18.18.4.27.22.1.36.1.48.1.1 0 .18 0 .33.06.15.06.2.12.27.19l.13.11H8v.4h3.2a.77.77 0 0 1-.3.06c-.12 0-.25 0-.48.09-.22.1-.31.19-.4.27-.07.07-.13.12-.28.18a.75.75 0 0 1-.32.07c-.12 0-.26 0-.48.1-.22.09-.32.18-.4.26-.07.07-.13.13-.28.19l.15.37c.22-.1.32-.19.4-.27.08-.07.13-.12.28-.19a.75.75 0 0 1 .33-.06c.12 0 .26 0 .48-.1.22-.09.32-.18.4-.27.07-.06.13-.12.28-.18.15-.06.23-.06.32-.07h.17l-2.04 2.04.28.28 2.26-2.26a.77.77 0 0 1-.17.25c-.08.08-.18.18-.27.4-.09.22-.09.36-.1.48 0 .1 0 .17-.06.32s-.11.21-.18.28c-.09.09-.18.18-.27.4-.1.23-.1.36-.1.48 0 .1 0 .18-.06.33l.37.15c.09-.22.1-.35.1-.47 0-.1 0-.18.06-.33.06-.15.12-.2.18-.28.09-.08.18-.18.27-.4.1-.22.1-.36.1-.48 0-.1 0-.18.06-.33.06-.15.12-.2.19-.27l.11-.13V16h.4v-3.2c.05.13.05.21.06.3 0 .12 0 .25.09.48.1.22.19.31.27.4.07.07.12.13.18.28.07.15.07.22.07.32 0 .12 0 .26.1.48.09.22.18.32.26.4.07.07.13.13.19.28l.37-.15c-.1-.22-.19-.32-.27-.4-.07-.08-.12-.13-.19-.28-.06-.15-.06-.23-.06-.33 0-.12 0-.26-.1-.48-.09-.22-.18-.32-.26-.4a.74.74 0 0 1-.2-.28c-.05-.15-.05-.23-.06-.32v-.17l2.04 2.04.28-.28-2.04-2.04.18.01c.1 0 .18 0 .33.07.15.06.2.11.27.18.09.08.18.18.4.27.22.09.36.1.48.1.1 0 .17 0 .32.06s.2.11.28.18c.08.08.18.18.4.27l.15-.37c-.15-.06-.2-.12-.27-.18-.09-.09-.18-.18-.4-.27a1.1 1.1 0 0 0-.48-.1c-.1 0-.17 0-.32-.06a.73.73 0 0 1-.28-.19c-.08-.08-.18-.17-.4-.26a1.1 1.1 0 0 0-.47-.1c-.1 0-.18 0-.32-.06H16v-.4Z"/><circle cx="12" cy="12" r="2" fill="#FFE15A"/><path fill="#82AFFF" d="M12 .1C7.44.1 3.27 2.71 1.3 6.83h21.4A11.89 11.89 0 0 0 12 .1Zm0 23.8c4.56 0 8.73-2.61 10.7-6.73H1.3A11.89 11.89 0 0 0 12 23.9Z"/><path fill="#FFF" d="M12 23a11 11 0 1 0 0-22 11 11 0 0 0 0 22Zm0 1a12 12 0 1 1 0-24 12 12 0 0 1 0 24Z"/></g></svg>