<?xml version="1.0" encoding="UTF-8"?>
<svg width="24px" height="24px" viewBox="0 0 24 24" version="1.1" xmlns="http://www.w3.org/2000/svg" xmlns:xlink="http://www.w3.org/1999/xlink">
    <!-- Generator: Sketch 55.1 (78136) - https://sketchapp.com -->
    <title>Flags/macedonia</title>
    <desc>Created with Sketch.</desc>
    <g id="Icons" stroke="none" stroke-width="1" fill="none" fill-rule="evenodd">
        <g id="Flags/macedonia">
            <g id="macedonia">
                <path d="M12,23.5 C5.64872538,23.5 0.5,18.3512746 0.5,12 C0.5,5.64872538 5.64872538,0.5 12,0.5 C18.3512746,0.5 23.5,5.64872538 23.5,12 C23.5,18.3512746 18.3512746,23.5 12,23.5 Z" id="Combined-Shape" fill="#FF4B55" fill-rule="nonzero"></path>
                <g id="Group">
                    <path d="M1.96132734,5.42294371 C2.47299043,4.64356689 3.07297139,3.92735996 3.74704006,3.28855311 L9.83296875,9.71264063 C9.83339062,9.71226563 9.8338125,9.71203125 9.8341875,9.71165625 C9.65629687,9.88007813 9.49640625,10.0657031 9.36145312,10.2712969 L1.96132734,5.42294371 Z" id="Combined-Shape" fill="#FFE15A" fill-rule="nonzero"></path>
                    <path d="M0.0627664271,13.2348974 C0.0212639081,12.8289149 0,12.4169407 0,12 C0,11.5830593 0.0212639081,11.1710851 0.0627664271,10.7651026 L8.87470312,11.6767031 L8.87470312,11.6765156 C8.86354687,11.784375 8.84207813,11.8891875 8.84207813,12 C8.84207813,12.1108125 8.86354687,12.215625 8.87470312,12.3234844 L8.87470312,12.3232969 L0.0627664271,13.2348974 Z" id="Combined-Shape" fill="#FFE15A" fill-rule="nonzero"></path>
                    <polygon id="Shape" fill="#FFE15A" fill-rule="nonzero" points="11.510625 8.89157813 11.510625 8.89157813 11.509125 8.89157813"></polygon>
                    <path d="M10.1281807,0.145126645 C10.7381029,0.0495928334 11.3632599,0 12,0 C12.6367401,0 13.2618971,0.0495928334 13.8718193,0.145126645 L12.4907812,8.89157813 C12.3298125,8.86626562 12.1681406,8.842125 12,8.842125 C11.8318594,8.842125 11.6701875,8.86621875 11.5092187,8.89157813 L10.1281807,0.145126645 Z" id="Combined-Shape" fill="#FFE15A" fill-rule="nonzero"></path>
                    <polygon id="Shape" fill="#FFE15A" fill-rule="nonzero" points="12.4922812 8.89157813 12.4907812 8.89157813 12.4907812 8.89157813"></polygon>
                    <path d="M20.2529437,3.28853768 C20.9270202,3.92734966 21.5270078,4.64356337 22.0386756,5.42294821 L14.6385938,10.2712969 C14.5035938,10.06575 14.3437031,9.88007812 14.1658125,9.71165625 C14.1661875,9.71198437 14.1666094,9.71226562 14.1669844,9.71259375 L20.2529437,3.28853768 Z" id="Combined-Shape" fill="#FFE15A" fill-rule="nonzero"></path>
                    <path d="M22.0386727,18.5770563 C21.5270075,19.3564363 20.9270237,20.072646 20.2529516,20.7114548 L14.1669844,14.2873594 C14.1665625,14.2877344 14.1661406,14.2880156 14.1657656,14.2883437 C14.3437031,14.1199219 14.5035938,13.9342969 14.6385469,13.7287031 L22.0386727,18.5770563 Z" id="Combined-Shape" fill="#FFE15A" fill-rule="nonzero"></path>
                    <path d="M23.9372335,10.7651023 C23.9787361,11.1710849 24,11.5830592 24,12 C24,12.4169407 23.9787361,12.8289149 23.9372336,13.2348974 L15.1252969,12.3232969 L15.1252969,12.3234844 C15.1364531,12.215625 15.1579219,12.1108125 15.1579219,12 C15.1579219,11.8891875 15.1364531,11.784375 15.1252969,11.6765156 L15.1252969,11.6766563 L23.9372335,10.7651023 Z" id="Combined-Shape" fill="#FFE15A" fill-rule="nonzero"></path>
                    <polygon id="Shape" fill="#FFE15A" fill-rule="nonzero" points="11.509125 15.1084219 11.510625 15.1084219 11.510625 15.1084219"></polygon>
                    <path d="M13.8718193,23.8548734 C13.2618971,23.9504072 12.6367401,24 12,24 C11.3632599,24 10.7381029,23.9504072 10.1281807,23.8548734 L11.5092188,15.1084219 C11.6701875,15.1337344 11.8318594,15.157875 12,15.157875 C12.1681406,15.157875 12.3298125,15.1337812 12.4907813,15.1084219 L13.8718193,23.8548734 Z" id="Combined-Shape" fill="#FFE15A" fill-rule="nonzero"></path>
                    <polygon id="Shape" fill="#FFE15A" fill-rule="nonzero" points="12.4907812 15.1084219 12.4907812 15.1084219 12.4922812 15.1084219"></polygon>
                    <path d="M3.74705635,20.7114623 C3.07297975,20.0726503 2.47299224,19.3564366 1.96132439,18.5770518 L9.36140625,13.7287031 C9.49640625,13.9342969 9.65629687,14.1199219 9.8341875,14.2883437 C9.8338125,14.2880156 9.83339062,14.2877344 9.83301562,14.2874062 L3.74705635,20.7114623 Z" id="Combined-Shape" fill="#FFE15A" fill-rule="nonzero"></path>
                    <circle id="Oval" fill="#FFE15A" fill-rule="nonzero" cx="12" cy="12" r="1.65515625"></circle>
                    <circle id="Oval" stroke="#FFFFFF" cx="12" cy="12" r="11.5"></circle>
                </g>
            </g>
        </g>
    </g>
</svg>