<svg xmlns="http://www.w3.org/2000/svg" width="24" height="24" viewBox="0 0 24 24">
  <g fill="none" fill-rule="evenodd">
    <circle cx="12" cy="12" r="11.8" fill="#0089E9"/>
    <path fill="#A8EF84" d="M9.70889557,3 L9.74931017,3.00389915 C9.85343129,3.02406318 9.92001882,3.11730644 9.74929015,3.16239812 L9.74929015,3.16239812 L9.71031264,3.16364646 L9.71031264,3.16364646 L9.67514654,3.17919401 L9.67514654,3.17919401 L9.6445737,3.18550665 L9.6445737,3.18550665 L9.6205487,3.19530899 L9.64574645,3.18865588 L9.64574645,3.18865588 L9.67123739,3.18225812 L9.65243424,3.20318731 C9.62659341,3.24374534 9.63108169,3.31229389 9.70850465,3.40298792 L9.70850465,3.40298792 L9.69338979,3.46167749 C9.64393605,3.61665077 9.53706655,3.75803441 9.75111443,3.85386683 L9.75111443,3.85386683 L9.80557764,3.81820179 C10.0397583,3.62217564 9.4194879,3.33902201 10.1617059,3.25069003 L10.1617059,3.25069003 L10.163674,3.23339208 C10.1659382,3.21914553 10.1702539,3.23623195 10.2185189,3.2374122 L10.2185189,3.2374122 L10.2424719,3.21498404 C10.2600915,3.18398357 10.1133627,3.22595014 10.1149263,3.15785869 L10.1149263,3.15785869 L10.1246712,3.11576921 C10.1520673,3.03968987 10.2116127,3.11147138 10.2937049,3.18316601 L10.2937049,3.18316601 L10.3381265,3.21946239 C10.399914,3.26585173 10.4716757,3.30016982 10.5502757,3.27384113 L10.5502757,3.27384113 L10.6087372,3.33789386 C10.7389677,3.47518082 10.8358394,3.52613415 11.1071998,3.46665343 L11.1071998,3.46665343 L11.1965907,3.48769624 C11.4455153,3.54953586 11.7677454,3.64546915 11.8972397,3.49445744 L11.8972397,3.49445744 L11.8517951,3.48171854 C11.7291036,3.42893678 12.5243517,3.40871895 12.4000872,3.46404326 L12.4000872,3.46404326 L12.3192515,3.47768235 C12.0967401,3.52150269 12.3210157,3.54930201 12.3134343,3.57344352 L12.3134343,3.57344352 L12.3243316,3.57160253 C12.3308372,3.57261129 12.3355861,3.57851255 12.3371498,3.59182822 L12.3371498,3.59182822 L12.3621955,3.62621125 C12.404789,3.67359155 12.4475182,3.67140065 12.428624,3.62042663 L12.428624,3.62042663 L12.4705937,3.64247736 C12.5402329,3.66387805 12.6539215,3.65982888 12.6836311,3.70894552 L12.6836311,3.70894552 L12.7265348,3.74161744 C12.8063521,3.828235 12.747334,3.97699887 12.6167846,3.96667167 L12.6167846,3.96667167 L12.6036679,3.98758979 C12.5972002,4.03099147 12.8068853,3.98044127 12.9464565,3.95804675 L12.9464565,3.95804675 L13.0217455,3.98410381 C13.1858935,4.04268628 13.4182728,4.1428502 13.4814894,4.334479 L13.4814894,4.334479 L13.4804432,4.35702749 C13.5166669,4.41656563 13.8399008,4.47708016 13.847777,4.6755037 L13.847777,4.6755037 L13.8762524,4.64921858 C13.9216027,4.62386314 13.993823,4.63428567 14.0609562,4.64463557 L14.0609562,4.64463557 L14.110692,4.65196427 C14.1584326,4.6581191 14.1986236,4.65899152 14.217192,4.63873431 L14.217192,4.63873431 L14.2567614,4.63814587 C14.2858339,4.63714551 14.319829,4.63510277 14.355967,4.63306003 L14.355967,4.63306003 L14.4196024,4.62974 C14.6140402,4.62090003 14.8268115,4.62718146 14.6947603,4.78467699 L14.6947603,4.78467699 L14.7499147,4.74850159 C14.988431,4.64034124 15.4238876,4.95451279 15.4137839,5.10913277 L15.4137839,5.10913277 L15.4549266,5.06729567 C15.6268844,4.93269672 15.5361491,5.61413682 15.933962,5.72842454 L15.933962,5.72842454 L15.9137629,5.79875831 C15.8160552,5.99448559 15.3958742,6.24970244 15.331822,6.42341131 L15.331822,6.42341131 L15.2697574,6.44842434 C15.0343048,6.55322539 15.5301985,6.493084 15.6148447,6.35316363 L15.6148447,6.35316363 L15.6429795,6.43073735 C15.7173399,6.58731488 15.8484167,6.58067419 15.9464713,6.57412039 L15.9464713,6.57412039 L15.9915235,6.57161735 C16.0470356,6.57015747 16.0822492,6.57999895 16.072346,6.64663779 L16.072346,6.64663779 L16.0605367,6.67581126 C16.0490327,6.71858776 16.1885782,6.50109861 16.2667613,6.50069511 L16.2667613,6.50069511 L16.2995981,6.48336016 L16.2995981,6.48336016 L16.3316532,6.47709007 L16.3308714,6.47691984 L16.3300895,6.47674961 L16.3595061,6.39915307 C16.4478033,6.22149633 16.6110419,6.26861674 16.756057,6.31582681 L16.756057,6.31582681 L16.8205254,6.33649186 C16.8830719,6.35558938 16.9388751,6.36763306 16.9791393,6.35146134 L16.9791393,6.35146134 L16.9929313,6.38181346 C17.008458,6.40377827 17.0287856,6.40309736 17.0502859,6.40241644 L17.071487,6.40248915 C17.0928468,6.40409036 17.1142983,6.41260179 17.1323782,6.4489456 L17.1323782,6.4489456 L17.1619371,6.43239441 C17.1878718,6.42602148 17.2039482,6.44712983 17.2192917,6.46823818 L17.2192917,6.46823818 L17.2328642,6.48624247 C17.2513363,6.50834405 17.2725604,6.5190571 17.3115477,6.47311807 L17.3115477,6.47311807 L17.3390339,6.48782511 C17.3697452,6.50224135 17.404781,6.51803006 17.3959854,6.55539524 L17.3959854,6.55539524 L17.4313554,6.54950869 C17.4766153,6.55372763 17.4572505,6.62199247 17.4306466,6.66275277 L17.4306466,6.66275277 L17.4086365,6.6794497 C17.3987583,6.69303531 17.456864,6.67453259 17.4642653,6.65537619 L17.4642653,6.65537619 L17.4738068,6.69283466 C17.4694827,6.75694594 17.4063316,6.86970539 17.3966369,6.93489161 L17.3966369,6.93489161 L17.4464192,6.85890955 C17.5890477,6.68523556 17.8089513,6.7338579 18.064581,6.78248024 L18.064581,6.78248024 L18.1882344,6.80465075 C18.3142863,6.82505158 18.4470265,6.83752083 18.5818923,6.81845522 L18.5818923,6.81845522 L18.6904967,6.86583665 C19.2963715,7.11823747 20.2979877,7.37318695 20.222564,7.98349999 L20.222564,7.98349999 L20.2277762,8.02082262 L20.2277762,8.02082262 L20.2298611,8.05737922 L20.2298611,8.06872779 L20.2100247,8.19316376 C20.1122069,8.51276954 19.6817688,8.73649059 19.560614,8.9099977 L19.560614,8.9099977 L19.5321335,8.92040026 C19.4945598,8.94917299 19.4582203,9.03297087 19.4187118,9.11676875 L19.4187118,9.11676875 L19.3919213,9.17167567 C19.3371567,9.27912518 19.274706,9.36525392 19.1940657,9.30163705 L19.1940657,9.30163705 L19.1712822,9.2813005 C19.1267704,9.25576358 19.057962,9.27143092 19.0908641,9.31956779 L19.0908641,9.31956779 L19.0579897,9.5365689 C19.0282551,9.84291871 19.0460391,10.2102494 19.0048627,10.5536119 L19.0048627,10.5536119 L18.9572979,10.6102337 C18.8652926,10.7239008 18.7971936,10.841963 18.8458905,10.9977952 L18.8458905,10.9977952 L18.7994441,11.0767456 C18.6742481,11.2563654 18.4480526,11.4083441 18.4725663,11.628095 L18.4725663,11.628095 L18.4571432,11.6723106 C18.3893298,11.7624285 18.1238698,11.7720233 18.1886314,11.9287188 L18.1886314,11.9287188 L18.1235223,11.9372197 C18.0097225,11.942479 17.8790916,11.9046031 17.8755082,11.8447393 L17.8755082,11.8447393 L17.8657806,11.8870312 C17.8339916,11.9436611 17.7296751,11.9353388 17.6331407,11.9270165 L17.6331407,11.9270165 L17.5850528,11.9230604 C17.4917756,11.9164299 17.4206131,11.9212936 17.4565773,12.0061161 L17.4565773,12.0061161 L17.3533212,12.062462 C17.088278,12.185037 16.6733132,12.2553166 16.5045681,12.4832102 L16.5045681,12.4832102 L16.4940643,12.5070475 C16.4748178,12.5322148 16.4343336,12.5571745 16.4175243,12.5441521 L16.4175243,12.5441521 L16.3500489,12.5488992 C16.2212252,12.5685837 16.4667651,12.6413715 16.2581611,12.6928184 L16.2581611,12.6928184 L16.3011189,12.7067331 C16.3528451,12.7330248 16.2199817,12.7524795 16.2723644,12.8081199 L16.2723644,12.8081199 L16.2821141,12.8793973 C16.3053023,13.0372384 16.3422079,13.2743356 16.2413518,13.3663564 L16.2413518,13.3663564 L16.1842394,13.4247694 C15.9465052,13.69625 15.6018243,14.3885749 15.3111035,14.3102174 L15.3111035,14.3102174 L15.3876143,14.3082934 C15.5299417,14.2766279 15.6102468,14.0935731 15.6670971,14.038419 L15.6670971,14.038419 L15.7022831,13.9857166 C15.7762992,13.8678695 15.6953878,13.9195742 15.5453921,13.8530968 L15.5453921,13.8530968 L15.555676,13.8968368 C15.5650283,13.9845318 15.5046997,14.074621 15.3316917,14.1869719 L15.3316917,14.1869719 L15.3080281,14.268837 C15.2530933,14.4670973 15.1911251,14.7085949 14.9332187,14.8367913 L14.9332187,14.8367913 L14.8993152,14.9114653 C14.6309997,15.3522498 13.385878,15.1864466 13.5276174,14.6582782 L13.5276174,14.6582782 L13.5016919,14.7303707 C13.469126,14.8280302 13.4478185,14.9326187 13.4767984,15.0535491 L13.4767984,15.0535491 L13.5779412,15.0975294 C13.8146554,15.2156082 13.8017214,15.3435304 13.8836109,15.5643485 L13.8836109,15.5643485 L13.9346575,15.5966034 C14.1103492,15.7532357 13.7144191,16.1162459 13.5273568,16.1857965 L13.5273568,16.1857965 L13.4690069,16.2210082 C13.1553976,16.3627914 12.2997088,16.2051118 12.4249755,16.4230952 L12.4249755,16.4230952 L12.42029,16.5485483 C12.3798934,17.0884778 12.0875721,17.0059732 11.85893,16.9235674 L11.85893,16.9235674 L11.8028075,16.9031311 C11.6758798,16.85718 11.5801911,16.8293884 11.5800771,16.9462645 L11.5800771,16.9462645 L11.593363,17.0498216 C11.6516092,17.4265369 11.7690596,17.3652627 11.8727424,17.3040851 L11.8727424,17.3040851 L11.9097803,17.2825909 C11.9580245,17.256008 12.0010147,17.2419176 12.0304116,17.2905803 L12.0304116,17.2905803 L12.0048684,17.3541204 C11.9434329,17.4769824 11.8680677,17.4298273 11.755989,17.3758081 L11.755989,17.3758081 L11.7101142,17.3842845 C11.6261318,17.4197129 11.6980195,17.551782 11.8094141,17.5093808 L11.8094141,17.5093808 L11.7138562,17.5591715 C11.3297997,17.7959823 11.7652493,18.0897621 11.053905,18.2139004 L11.053905,18.2139004 L10.9687714,18.2966858 C10.570775,18.7364971 11.5579759,18.6957862 11.377192,19.0762787 L11.377192,19.0762787 L11.2460387,19.132877 C10.7772549,19.3652403 10.9476662,19.6614985 10.6500894,19.742894 L10.6500894,19.742894 L10.631977,19.7380283 L10.631977,19.7380283 L10.616601,19.731205 L10.6308022,19.7449404 C10.6452004,19.7630037 10.6384662,19.7798904 10.5747731,19.7935087 L10.5747731,19.7935087 L10.5140437,19.8199167 C10.4346118,19.8826517 10.4503751,20.0264949 10.3554696,20.0639452 L10.3554696,20.0639452 L10.3905967,20.0632815 C10.4337621,20.0715215 10.4611991,20.1134477 10.4603652,20.1553012 L10.4603652,20.1553012 L10.4533094,20.188624 C10.4440915,20.2099762 10.4255303,20.2286887 10.3957338,20.2392807 L10.3957338,20.2392807 L10.4545594,20.2619232 C10.4911317,20.2822161 10.5215652,20.3114198 10.5407634,20.3406235 L10.5407634,20.3406235 L10.5560845,20.3697898 C10.5745776,20.4172673 10.5562263,20.4562465 10.476523,20.444236 L10.476523,20.444236 L10.4976752,20.4527776 C10.5150526,20.4609751 10.5193283,20.4677843 10.4945051,20.4699972 L10.4945051,20.4699972 L10.3575072,20.4854952 C9.65278675,20.6010985 10.1234251,21.1649777 9.63436104,20.9526522 L9.63436104,20.9526522 L9.59322611,20.9437158 C9.5049253,20.9075132 9.47452552,20.7745505 9.58888455,20.7694861 L9.58888455,20.7694861 L9.5775655,20.8105386 C9.57178925,20.8651799 9.62345884,20.8517822 9.61260008,20.7832179 L9.61260008,20.7832179 L9.64618321,20.7863309 C9.69010991,20.805127 9.67469047,20.8829908 9.61312131,20.8853551 L9.61312131,20.8853551 L9.64741865,20.8938911 C9.68213611,20.8868168 9.67725748,20.814767 9.68622248,20.7838988 L9.68622248,20.7838988 L9.73469598,20.7643598 C9.78387802,20.7472358 9.8320339,20.7327451 9.85079784,20.6793785 L9.85079784,20.6793785 L9.84159685,20.6544657 C9.81651312,20.6263806 9.74564161,20.6612775 9.67332227,20.6961744 L9.67332227,20.6961744 L9.620346,20.7209983 C9.58577171,20.7362979 9.55357187,20.7478482 9.5290745,20.7481508 L9.5290745,20.7481508 L9.54950809,20.7667049 C9.55757941,20.7960418 9.39264505,20.7861199 9.48255558,20.8695806 L9.48255558,20.8695806 L9.45409409,20.8714708 C9.4177695,20.8661831 9.36189304,20.8415212 9.3228015,20.8169232 L9.3228015,20.8169232 L9.29822391,20.799594 C9.26370813,20.7715825 9.26555412,20.750099 9.36567189,20.7677839 L9.36567189,20.7677839 L9.35875124,20.7427203 C9.35414712,20.7222509 9.35046962,20.6957961 9.35316259,20.6725693 L9.35316259,20.6725693 L9.31956318,20.7129744 C9.2969287,20.7378236 9.27541387,20.7568892 9.26455511,20.7605208 L9.26455511,20.7605208 L9.23858791,20.7355893 C9.22065793,20.7051533 9.26252235,20.6855975 9.28045234,20.6727963 L9.28045234,20.6727963 L9.22941349,20.6678219 C9.13357756,20.6487849 9.3373812,20.5862193 9.30077994,20.5436495 L9.30077994,20.5436495 L9.26162376,20.5694092 C9.17143989,20.6186139 9.0956471,20.5914554 9.16291712,20.4867931 L9.16291712,20.4867931 L9.14417278,20.4407957 C9.10711192,20.3498353 9.11929748,20.3697326 9.2335425,20.4225602 L9.2335425,20.4225602 C9.23064736,20.4158107 9.22497882,20.4125596 9.2176442,20.4087237 L9.16175993,20.3808504 C9.1120563,20.3553752 9.07142845,20.3287831 9.16669597,20.3348357 L9.16669597,20.3348357 L9.17907496,20.3450973 C9.18686883,20.3474326 9.18190909,20.328367 9.17321123,20.3093014 L9.17321123,20.3093014 L9.16334182,20.2907276 C9.15640187,20.2794547 9.14919165,20.2715107 9.1444138,20.2735534 L9.1444138,20.2735534 L9.12475753,20.2912871 C9.09879658,20.2954017 9.07623816,20.2299068 9.0860371,20.1969505 L9.0860371,20.1969505 L9.1003948,20.1923859 C9.1114466,20.1926381 9.12473772,20.1985393 9.13594396,20.2044406 L9.13594396,20.2044406 L9.14989703,20.2121567 C9.16557535,20.2208869 9.16724325,20.2203059 9.12721352,20.173459 L9.12721352,20.173459 L9.12100761,20.1556496 C9.07867617,20.1031409 8.84671872,20.058078 9.06766408,19.9981235 L9.06766408,19.9981235 L9.08310993,20.0202795 C9.10161117,20.0354376 9.11230661,19.9974879 9.12200131,19.9595383 L9.12200131,19.9595383 L9.12977076,19.9297341 L9.12977076,19.9297341 L9.13802884,19.9063135 L9.13035961,19.8950294 C9.11848829,19.8828673 9.0997452,19.8871344 9.0706611,19.9738375 L9.0706611,19.9738375 L9.03688497,19.9977231 C8.99843558,20.0147151 8.98557186,19.9768562 8.9892204,19.9389974 L8.9892204,19.9389974 L8.99423975,19.9136374 C9.00414294,19.8815781 9.02630524,19.8600794 9.05372143,19.8916738 L9.05372143,19.8916738 L9.04412993,19.8679835 C9.01479148,19.8422757 8.92839397,19.8370645 8.89461888,19.8160923 L8.89461888,19.8160923 L8.87126502,19.7817104 C8.84257661,19.7265405 8.91565385,19.7486494 8.97618989,19.770925 L8.97618989,19.770925 L9.00561441,19.7819242 C9.03280746,19.7921326 9.0515714,19.7988141 9.04629404,19.7915794 L9.04629404,19.7915794 L9.00281387,19.7742932 C8.91806362,19.7308805 8.94889097,19.6723059 9.06701255,19.7326803 L9.06701255,19.7326803 L9.047479,19.7140633 C9.03248984,19.7005567 9.02508688,19.6992587 8.97084738,19.6820656 L8.97084738,19.6820656 L8.93948126,19.6661998 C8.89206979,19.6214589 9.01469505,19.533144 9.08903412,19.6211238 L9.08903412,19.6211238 L9.10631685,19.6165234 C9.11404863,19.5967456 8.91950716,19.519242 9.06636103,19.5011693 L9.06636103,19.5011693 L9.05189258,19.467875 C9.0235843,19.3979647 9.03016878,19.3871162 9.00303274,19.5324914 L9.00303274,19.5324914 L8.97039844,19.5492811 C8.90299302,19.5536317 8.89639429,19.3342034 8.94257117,19.3109672 L8.94257117,19.3109672 L8.93902687,19.2707996 C8.94486454,19.2293891 8.98864706,19.2328209 9.01866936,19.2361801 L9.01866936,19.2361801 L9.03320544,19.2377403 C9.06684525,19.2405262 9.05311334,19.2267734 8.83871799,19.0634548 L8.83871799,19.0634548 L8.87708086,19.0572076 C8.92929047,19.0680805 8.98343485,19.1449603 9.01189349,19.1582154 L9.01189349,19.1582154 L8.99589905,19.1215329 C8.98264813,19.0523952 9.1254544,19.092649 9.16330804,19.1206516 L9.16330804,19.1206516 L9.20430172,19.1285036 C9.27421195,19.1415631 9.17534497,19.1181407 9.14741081,19.065611 L9.14741081,19.065611 C9.16391613,19.059735 9.17842343,19.060542 9.19275699,19.0622064 L9.19275699,19.0622064 L9.15828315,19.0269833 C9.1267656,19.0020661 9.10177145,19.0049812 9.06219127,19.0079602 L9.06219127,19.0079602 L9.0224289,19.0098685 C8.99259385,19.0101795 8.9553845,19.007582 8.90647665,18.9961577 L8.90647665,18.9961577 L8.87345652,19.0009525 C8.84827913,19.0009738 8.84549385,18.9881002 8.85487582,18.9751629 L8.85487582,18.9751629 L8.86981087,18.961393 C8.89506713,18.9448077 8.9388705,18.9388701 8.96732914,18.986171 L8.96732914,18.986171 L8.98793484,18.9633667 C8.99980407,18.9339234 8.9111242,18.9408902 8.89917956,18.8881193 L8.89917956,18.8881193 L8.95471635,18.857487 C9.08765546,18.7827863 9.09515846,18.7591364 8.8772883,18.6705671 L8.8772883,18.6705671 L8.88248241,18.7033923 C8.88150512,18.7427472 8.83483055,18.7101358 8.77955946,18.6776032 L8.77955946,18.6776032 L8.74033559,18.655931 C8.70065157,18.6360249 8.66094923,18.6240663 8.63348743,18.6438979 L8.63348743,18.6438979 L8.60725206,18.6515073 C8.58811953,18.664256 8.67520678,18.6804593 8.61732959,18.746943 L8.61732959,18.746943 L8.56945274,18.713746 C8.48595308,18.6289963 8.73139001,18.5736377 8.71922819,18.5281425 L8.71922819,18.5281425 L8.75164521,18.5280542 C8.77255194,18.5220521 8.79154753,18.5058614 8.80562049,18.4896708 L8.80562049,18.4896708 L8.82097877,18.4692851 C8.83687808,18.4443945 8.83306275,18.4332457 8.79272028,18.4908057 L8.79272028,18.4908057 L8.74689163,18.4803855 C8.67876978,18.4573019 8.74272035,18.4226169 8.77421695,18.4097768 L8.77421695,18.4097768 L8.82185773,18.3986641 C8.86108975,18.3912219 8.8772883,18.3936902 8.89018851,18.3961585 L8.90555969,18.3984577 C8.91649567,18.3991218 8.93053966,18.3971799 8.95807748,18.3874201 L8.95807748,18.3874201 L8.98606686,18.389492 C9.04020693,18.4064255 9.07751142,18.4924431 8.99352047,18.5097578 L8.99352047,18.5097578 L8.96354508,18.5197545 C8.93491965,18.529527 8.94882581,18.5261678 8.97123829,18.5228086 L8.97123829,18.5228086 L8.99582117,18.5199254 C9.02065651,18.5180848 9.04215685,18.5209361 9.02349065,18.5425552 L9.02349065,18.5425552 L9.04513068,18.5255105 C9.06126349,18.5101527 9.03868422,18.5204481 9.12343467,18.5105522 L9.12343467,18.5105522 L9.11996126,18.5237483 C9.10160596,18.5519109 9.03868422,18.6149364 9.05515479,18.6239245 L9.05515479,18.6239245 L9.11201974,18.6192921 C9.20758735,18.5897457 9.06865766,18.4374815 9.22702724,18.3398696 L9.22702724,18.3398696 L9.23975439,18.3306666 C9.24627168,18.3251661 9.23569253,18.3296559 9.22181504,18.3340818 L9.22181504,18.3340818 L9.20502444,18.338575 C9.18274956,18.3430926 9.16502806,18.3387347 9.20109652,18.2897089 L9.20109652,18.2897089 L9.20982488,18.2652169 C9.22989395,18.2418588 9.28003536,18.252826 9.31641655,18.2637207 L9.31641655,18.2637207 L9.3522515,18.2750783 C9.36290942,18.2780607 9.36009483,18.2749558 9.33218347,18.2565711 L9.33218347,18.2565711 L9.26042432,18.2333234 C9.03854667,18.1448863 9.55829292,18.1062635 9.36945073,17.9435773 L9.36945073,17.9435773 L9.31404968,17.9250911 C9.22143226,17.8764807 9.36640485,17.7924852 9.35055649,17.7349905 L9.35055649,17.7349905 L9.31215865,17.694133 C9.27375093,17.6184522 9.43972242,17.5726086 9.3429988,17.4419703 L9.3429988,17.4419703 L9.36698566,17.4124453 C9.42019734,17.3243879 9.39564206,17.1779268 9.49154663,17.3616224 L9.49154663,17.3616224 L9.50228896,17.3130395 C9.4991369,17.2472098 9.4011366,17.2491958 9.36475975,17.2005861 L9.36475975,17.2005861 L9.38487621,17.1775406 C9.41710259,17.143755 9.43699222,17.1312085 9.35707175,17.1117268 L9.35707175,17.1117268 L9.28430578,17.1420802 C8.9706024,17.237074 9.01545516,16.7014152 9.26598847,16.4813134 L9.26598847,16.4813134 L9.2162791,16.318073 C9.1709146,16.1501265 9.14096071,15.9715354 9.14780173,15.8135632 L9.14780173,15.8135632 L9.24042364,15.7635263 C9.46396216,15.5905048 9.51200453,15.1219684 9.67566776,14.8667515 L9.67566776,14.8667515 L9.7235085,14.6227808 C9.76065276,14.2940933 9.71019862,13.9545984 9.79984854,13.6374738 L9.79984854,13.6374738 L9.80889108,13.5283028 C9.89251425,12.8155229 10.4745342,11.1045016 9.92272627,10.6270372 L9.92272627,10.6270372 L9.84191698,10.5453541 C9.42000159,10.1832484 8.40888484,10.0719405 8.40766866,9.52486353 L8.40766866,9.52486353 L8.28281016,9.32994119 C7.91697085,8.72947364 7.61656022,8.00387069 7.02526166,7.58970442 L7.02526166,7.58970442 L6.99239748,7.47064887 C6.89605758,7.04046089 7.20648601,7.13433846 7.39689185,6.73186559 L7.39689185,6.73186559 L7.38961045,6.6894939 C7.37649548,6.63839116 7.35780032,6.67877317 7.32326946,6.71915519 L7.32326946,6.71915519 L7.30053725,6.74270716 C7.25915934,6.77949809 7.19965334,6.7977819 7.11191456,6.70462901 L7.11191456,6.70462901 L7.07413861,6.68111893 C7.02948993,6.61951701 7.15024288,6.47828978 7.07608065,6.39901187 L7.07608065,6.39901187 L7.07575736,6.37297466 C7.10437282,6.32653153 7.28495976,6.30934191 7.19270373,6.23979136 L7.19270373,6.23979136 L7.22594727,6.2040519 C7.3027633,6.08591588 7.29461682,5.80728453 7.43441973,5.89978803 L7.43441973,5.89978803 L7.44442781,5.87801556 C7.45718859,5.86504369 7.48090803,5.85486265 7.50827341,5.84570027 L7.59399463,5.81949686 C7.66235596,5.79725365 7.70779987,5.77030078 7.61606506,5.71094773 L7.61606506,5.71094773 L7.67273702,5.69671469 C7.82028334,5.64274373 7.58757563,5.52617229 7.97505566,5.42723334 L7.97505566,5.42723334 L8.0105068,5.38066983 C8.09807184,5.27006976 8.20678703,5.14822861 8.06848443,5.06600818 L8.06848443,5.06600818 L8.09173193,5.01348413 C8.11362319,4.89966817 8.00694319,4.74070937 8.11461245,4.67096427 L8.11461245,4.67096427 L8.08009848,4.60793659 C8.04096472,4.50407085 8.0769977,4.40622091 7.93648535,4.31609431 L7.93648535,4.31609431 L7.91305686,4.30733135 C7.82754596,4.25457284 7.68167961,3.98476749 7.88957551,4.05110507 L7.88957551,4.05110507 L7.91720645,4.05486372 C7.94310485,4.05491819 7.92757248,4.03666968 7.89869686,4.01842117 L7.89869686,4.01842117 L7.86717931,4.00118552 L7.86717931,4.00118552 L7.83302309,3.98778002 L7.80245025,3.98192132 L7.80245025,3.98192132 L7.78037982,3.98687213 L7.72694573,3.93165178 C7.5603935,3.79472259 7.34245038,3.91017846 7.20430089,4.11057161 L7.20430089,4.11057161 L7.25066449,4.14107442 C7.3559982,4.23600174 7.17137279,4.35391911 7.07086845,4.28477224 L7.07086845,4.28477224 L7.05236563,4.2231794 C7.01458682,4.10447707 7.00895723,4.15267482 6.91762963,4.19557244 L6.91762963,4.19557244 L6.87648519,4.14044515 C6.80812628,4.06249463 6.73730906,4.04983781 6.61102169,4.03725981 L6.61102169,4.03725981 L6.58467592,4.03311968 C6.56725365,4.03482617 6.55025607,4.04418244 6.53453258,4.05348827 L6.53453258,4.05348827 L6.5110573,4.06704805 C6.48886064,4.07842677 6.47087853,4.07995882 6.46051927,4.04191272 L6.46051927,4.04191272 L6.47780549,4.00220498 C6.54491761,3.81038615 6.43624777,3.54356651 6.74041467,3.88314615 L6.74041467,3.88314615 L6.84302791,3.88500448 C6.95023034,3.87957844 7.07031465,3.854491 7.19530984,3.82946739 L7.19530984,3.82946739 L7.29159308,3.81060275 C7.61486432,3.74988574 7.95704987,3.7216456 8.18745301,4.05065113 L8.18745301,4.05065113 L8.2203183,4.09923029 C8.29900722,4.20782663 8.2085885,4.00005918 8.22055051,3.95940858 L8.22055051,3.95940858 L8.33082536,3.90896909 C8.68052034,3.72317616 8.46113719,3.52996902 8.7296526,3.39254723 L8.7296526,3.39254723 L8.76639135,3.35499888 C8.82013127,3.32480985 8.89068367,3.36517446 8.95156222,3.36871522 L8.95156222,3.36871522 L8.9065292,3.38661375 C8.81915292,3.43010261 8.97791281,3.43467566 9.00941769,3.28053679 L9.00941769,3.28053679 L9.10856659,3.29353405 C9.30150326,3.29700612 9.46198598,3.17248214 9.58484509,3.04845842 C9.62002748,3.01361829 9.66550396,3 9.70889557,3 L9.70889557,3 Z M6.97848212,18.8432924 L7.01390272,18.8470377 C7.05436856,18.8547593 7.1109047,18.8751038 7.1919219,18.9143131 L7.1919219,18.9143131 L7.21480754,18.999912 C7.3168802,19.293944 7.6693717,19.6629644 8.04867806,19.7458475 L8.04867806,19.7458475 L8.09389393,19.7442974 L8.11684691,19.7915959 C8.16760387,20.0034171 7.29595425,19.8552673 7.19895838,19.8013677 L7.19895838,19.8013677 L7.154832,19.8209828 C7.07140053,19.8524764 6.94408157,19.8711671 6.85612561,19.7748758 L6.85612561,19.7748758 L6.8280454,19.7892575 C6.71624145,19.8320357 6.44311762,19.822556 6.63004623,19.7413382 L6.63004623,19.7413382 L6.56758325,19.7521468 C6.51398509,19.7574113 6.48429996,19.7477146 6.45439493,19.7380972 L6.45439493,19.7380972 L6.42198968,19.7286075 C6.3874181,19.7204037 6.34324467,19.7179465 6.26154336,19.7382381 L6.26154336,19.7382381 L6.23462954,19.7265803 C6.19560736,19.6937754 6.40500929,19.6497127 6.53739929,19.6539715 L6.53739929,19.6539715 L6.57689808,19.6353618 C6.6317402,19.611841 6.55534417,19.6651238 6.59421233,19.6982185 L6.59421233,19.6982185 L6.62043261,19.6816428 C6.64012316,19.6756409 6.66288312,19.6783027 6.68060462,19.681027 L6.68060462,19.681027 L6.69907355,19.6836796 C6.71918015,19.6857223 6.71847129,19.6788005 6.66405587,19.6270569 L6.66405587,19.6270569 L6.62329278,19.5896953 C6.55874274,19.5299296 6.59197852,19.5551907 6.64972231,19.5805552 L6.64972231,19.5805552 L6.68918643,19.5958268 C6.73056849,19.6094866 6.77559705,19.6158542 6.80530662,19.5928147 L6.80530662,19.5928147 L6.81463958,19.6124729 C6.83535923,19.6556049 6.86522836,19.7122697 6.84713456,19.6139519 L6.84713456,19.6139519 L6.85960841,19.595969 C6.88210845,19.5838526 6.92630795,19.6155301 6.97092442,19.6472076 L6.97092442,19.6472076 L7.00540234,19.6711828 C7.03917987,19.6936212 7.0696957,19.7091041 7.08650506,19.6965275 L7.08650506,19.6965275 L7.04672853,19.6578821 C6.85351951,19.4865047 6.57270329,19.4340984 6.98486707,19.2243243 L6.98486707,19.2243243 L6.97476601,19.1930655 C6.94858433,19.1550415 6.87890729,19.1829894 6.81429767,19.2109374 L6.81429767,19.2109374 L6.77452125,19.2279069 C6.72357925,19.2488884 6.68344527,19.2600037 6.68334103,19.2217878 L6.68334103,19.2217878 L6.69083409,19.1578928 C6.70548247,19.0760319 6.73744371,19.010783 6.77090607,19.001539 L6.77090607,19.001539 L6.74861982,18.9923576 C6.72969707,18.9858447 6.71982646,18.9832554 6.70966266,18.9478507 L6.70966266,18.9478507 L6.77791127,18.9596976 C6.85432219,18.9653522 6.87660958,18.933562 6.89547776,18.9017718 C6.91280834,18.8726026 6.92727221,18.8432924 6.97848212,18.8432924 L6.97848212,18.8432924 Z"/>
    <path fill="#FFF" fill-rule="nonzero" d="M12,0 C5.372583,0 0,5.372583 0,12 C0,18.627417 5.372583,24 12,24 C18.627417,24 24,18.627417 24,12 C24,5.372583 18.627417,0 12,0 Z M12,0.96 C18.0972236,0.96 23.04,5.90277636 23.04,12 C23.04,18.0972236 18.0972236,23.04 12,23.04 C5.90277636,23.04 0.96,18.0972236 0.96,12 C0.96,5.90277636 5.90277636,0.96 12,0.96 Z"/>
  </g>
</svg>
