<svg xmlns="http://www.w3.org/2000/svg" width="24" height="24"><g fill="none" fill-rule="evenodd"><g fill-rule="nonzero"><path fill="#FFDA44" d="M6.98 22.36a11.36 11.36 0 0 0 9.96 0l1-10.36-1-10.36a11.36 11.36 0 0 0-9.96 0L5.98 12l1 10.36Z"/><path fill="#D80027" d="M16.94 22.36a11.5 11.5 0 0 0 0-20.72v20.72Z"/><path fill="#0052B4" d="M6.98 22.36V1.64a11.5 11.5 0 0 0 0 20.72Z"/></g><path fill="#D80027" fill-rule="nonzero" d="M12 16.17V12h3.12v1.57c0 .27-.52 1.26-1.8 2.08-.49.31-1 .41-1.32.52Zm-3.12-7.3H12V12H8.88V8.87Z"/><path fill="#FF9811" fill-rule="nonzero" d="M13.56 7.83a1.05 1.05 0 0 0-1.56-.9c-.16-.1-.34-.15-.52-.15-.57 0-1.04.47-1.04 1.05h-2.6v5.22c0 1.94 1.54 3.06 2.75 3.64a1.04 1.04 0 0 0 .37 1.43c.32.18.72.18 1.04 0a1.03 1.03 0 0 0 1.42-.38c.18-.33.18-.73 0-1.05 1.2-.58 2.74-1.7 2.74-3.64V7.83h-2.6Zm1.04 5.22c0 .27 0 1.1-1.28 1.91-.42.26-.86.47-1.32.63a6.36 6.36 0 0 1-1.32-.63c-1.28-.82-1.28-1.64-1.28-1.92V9.4h5.2v3.66Z"/><circle cx="12" cy="12" r="11.5" stroke="#FFF"/></g></svg>