<?xml version="1.0" encoding="UTF-8"?>
<svg width="24px" height="24px" viewBox="0 0 24 24" version="1.1" xmlns="http://www.w3.org/2000/svg" xmlns:xlink="http://www.w3.org/1999/xlink">
    <!-- Generator: Sketch 55.1 (78136) - https://sketchapp.com -->
    <title>Flags/venezuela</title>
    <desc>Created with Sketch.</desc>
    <g id="Icons" stroke="none" stroke-width="1" fill="none" fill-rule="evenodd">
        <g id="Flags/venezuela">
            <g id="venezuela">
                <g id="Group" transform="translate(0.500000, 0.500000)" fill-rule="nonzero">
                    <path d="M21.8163743,16.4732941 C22.5471735,14.962378 22.9551657,13.2721245 22.9551657,11.4832357 C22.9551657,9.69434677 22.5471735,8.00409335 21.8163743,6.49317717 L11.4775828,5.49337211 L1.13879142,6.49317717 C0.407992203,8.00409335 0,9.69434677 0,11.4832357 C0,13.2721245 0.407992203,14.962378 1.13879142,16.4732941 L11.4775828,17.4730992 L21.8163743,16.4732941 Z" id="Path" fill="#0052B4"></path>
                    <path d="M11.4775828,22.9608188 C15.8833571,22.9618653 19.9008952,20.4408863 21.8163743,16.4732941 L1.13879142,16.4732941 C3.05427054,20.4408863 7.07180862,22.9618653 11.4775828,22.9608188 Z" id="Path" fill="#D80027"></path>
                    <path d="M21.8163743,6.49317717 C19.9025086,2.52338431 15.8846382,-7.14983628e-14 11.4775828,-7.14983628e-14 C7.07052745,-7.14983628e-14 3.0526571,2.52338431 1.13879142,6.49317717 L21.8163743,6.49317717 Z" id="Path" fill="#FFDA44"></path>
                </g>
                <path d="M20.7438596,14.3766082 L20.1076023,14.8678363 L20.3883041,15.6210526 L19.7192982,15.1719298 L19.0877193,15.6725146 L19.3076023,14.9005848 L18.6432749,14.451462 L19.4432749,14.4233918 L19.6631579,13.651462 L19.9438596,14.4046784 L20.7438596,14.3766082 Z M19.1204678,11.5695906 L18.6994152,12.2479532 L19.2140351,12.8654971 L18.4327485,12.6690058 L18.0116959,13.3520468 L17.9508772,12.5520468 L17.174269,12.3555556 L17.9181287,12.0561404 L17.8619883,11.2561404 L18.3766082,11.8690058 L19.1204678,11.5695906 Z M16.6409357,9.4877193 L16.4725146,10.2736842 L17.1695906,10.6666667 L16.374269,10.7508772 L16.205848,11.5368421 L15.8783626,10.8023392 L15.0830409,10.8865497 L15.677193,10.348538 L15.3497076,9.61871345 L16.0421053,10.0210526 L16.6409357,9.4877193 Z M13.6,8.37894737 L13.7076023,9.17426901 L14.502924,9.31461988 L13.7777778,9.66549708 L13.8900585,10.4608187 L13.328655,9.88070175 L12.6081871,10.2362573 L12.9824561,9.5251462 L12.4304094,8.9497076 L13.2210526,9.09005848 L13.6,8.37894737 Z M10.3578947,8.37894737 L10.7321637,9.08538012 L11.5274854,8.94502924 L10.9660819,9.5251462 L11.3403509,10.2362573 L10.619883,9.88070175 L10.0631579,10.4608187 L10.1754386,9.66549708 L9.45497076,9.31461988 L10.245614,9.17426901 L10.3578947,8.37894737 Z M7.31695906,9.4877193 L7.91111111,10.025731 L8.60350877,9.62339181 L8.27602339,10.3578947 L8.8748538,10.8912281 L8.07953216,10.8070175 L7.75204678,11.5415205 L7.57894737,10.7602339 L6.78362573,10.6760234 L7.47602339,10.2783626 L7.31695906,9.4877193 Z M4.83274854,11.5695906 L5.57660819,11.8690058 L6.09122807,11.2561404 L6.03508772,12.051462 L6.78362573,12.3555556 L6.00233918,12.5520468 L5.94619883,13.3473684 L5.52046784,12.6690058 L4.73918129,12.8654971 L5.25380117,12.2479532 L4.83274854,11.5695906 Z M3.20935673,14.3766082 L4.01403509,14.4 L4.29005848,13.651462 L4.50994152,14.4187135 L5.30994152,14.4467836 L4.64561404,14.8959064 L4.86549708,15.6725146 L4.23391813,15.1766082 L3.56959064,15.625731 L3.84561404,14.877193 L3.20935673,14.3766082 Z" id="Shape" fill="#EEEEEE" fill-rule="nonzero"></path>
                <circle id="Oval" stroke="#FFFFFF" cx="12" cy="12" r="11.5"></circle>
            </g>
        </g>
    </g>
</svg>