<?xml version="1.0" encoding="UTF-8"?>
<svg width="24px" height="24px" viewBox="0 0 24 24" version="1.1" xmlns="http://www.w3.org/2000/svg" xmlns:xlink="http://www.w3.org/1999/xlink">
    <!-- Generator: Sketch 55.1 (78136) - https://sketchapp.com -->
    <title>Flags/morocco</title>
    <desc>Created with Sketch.</desc>
    <g id="Icons" stroke="none" stroke-width="1" fill="none" fill-rule="evenodd">
        <g id="Flags/morocco">
            <g id="morocco">
                <path d="M12,23.5 C5.64872538,23.5 0.5,18.3512746 0.5,12 C0.5,5.64872538 5.64872538,0.5 12,0.5 C18.3512746,0.5 23.5,5.64872538 23.5,12 C23.5,18.3512746 18.3512746,23.5 12,23.5 Z" id="Combined-Shape" fill="#FF4B55" fill-rule="nonzero"></path>
                <path d="M14.1250781,13.1241094 L17.541,10.61775 L13.3107188,10.61775 L12,6.58354688 L10.6892813,10.61775 L6.459,10.61775 L9.87492188,13.1241094 L8.57432813,17.1270938 L11.9966719,14.6809219 L12,14.6833594 L12.0033281,14.6809219 L15.4256719,17.1270938 L14.1250781,13.1241094 Z M14.8103437,11.5120781 L13.8340781,12.2284219 L13.6012969,11.5120781 L14.8103437,11.5120781 L14.8103437,11.5120781 Z M10.92525,12.7855781 L11.3390625,11.5120781 L12.6609375,11.5120781 L13.07475,12.7855781 L12,13.5741563 L10.92525,12.7855781 Z M12,9.47798438 L12.3703594,10.61775 L11.6296875,10.61775 L12,9.47798438 Z M9.18965625,11.5120781 L10.3987031,11.5120781 L10.1659219,12.2284219 L9.18965625,11.5120781 Z M10.2643594,14.819625 L10.63425,13.6812656 L11.2375781,14.1239531 L10.2643594,14.819625 Z M13.36575,13.6812656 L13.7356406,14.819625 L12.7624219,14.1239531 L13.36575,13.6812656 Z" id="Shape" fill="#5A8250" fill-rule="nonzero"></path>
                <circle id="Oval" stroke="#FFFFFF" cx="12" cy="12" r="11.5"></circle>
            </g>
        </g>
    </g>
</svg>