<svg xmlns="http://www.w3.org/2000/svg" width="24" height="24"><g fill="none" fill-rule="evenodd"><path fill="#EEE" fill-rule="nonzero" d="M23.95 11.95c0-1.46-.26-2.86-.74-4.15L12 7.27.8 7.8c-1 2.68-1 5.63 0 8.3l11.2.53 11.2-.52c.5-1.3.75-2.7.75-4.16Z"/><path fill="#41479B" fill-rule="nonzero" d="M12 23.9c5 0 9.47-3.1 11.2-7.8H.8C2.52 20.8 7 23.9 12 23.9Z"/><path fill="#FF4B55" fill-rule="nonzero" d="M.9 7.8h22.2A11.84 11.84 0 0 0 12 .2C7.05.2 2.62 3.23.9 7.8Z"/><circle cx="12" cy="12" r="11.5" stroke="#FFF"/><g fill="#FF4B55" fill-rule="nonzero"><path d="M7.58 8.21h1.77v2.02H7.58zM11.12 8.21h1.77v2.02h-1.77zM9.35 10.23h1.77v2.02H9.35zM14.66 8.21h1.77v2.02h-1.77zM12.89 10.23h1.77v2.02h-1.77z"/></g><g fill="#F5F5F5" fill-rule="nonzero"><path d="M9.35 8.21h1.77v2.02H9.35zM12.89 8.21h1.77v2.02h-1.77zM7.58 10.23h1.77v2.02H7.58zM11.12 10.23h1.77v2.02h-1.77zM14.66 10.23h1.76v2.02h-1.76z"/></g><g fill="#FF4B55" fill-rule="nonzero"><path d="M11.12 12.25h1.77v2.02h-1.77zM9.35 14.27h1.77v2.02H9.35zM12.89 14.27h1.77v2.02h-1.77z"/></g><g fill="#F5F5F5" fill-rule="nonzero"><path d="M9.35 12.25h1.77v2.02H9.35zM12.89 12.25h1.77v2.02h-1.77zM11.12 14.27h1.77v2.02h-1.77z"/></g><g fill="#FF4B55" fill-rule="nonzero"><path d="M16.42 8.21v5.68a4.42 4.42 0 0 1-8.84 0V8.21h8.84Zm.32-.32H7.26v6a4.74 4.74 0 0 0 9.48 0v-6Z"/><path d="M9.35 14.27v-2.02H7.58v1.64c0 .13 0 .26.02.38h1.75Z"/></g><g fill="#F5F5F5" fill-rule="nonzero"><path d="M16.4 14.27h-1.75v2.02h1.06c.38-.59.63-1.28.7-2.02ZM8.29 16.3h1.06v-2.03H7.6c.06.74.3 1.43.69 2.02Z"/></g><g fill="#FF4B55" fill-rule="nonzero"><path d="M14.65 14.27h1.75l.02-.38v-1.64h-1.77v2.02ZM9.35 17.43v-1.14H8.29c.28.44.64.82 1.06 1.14ZM15.71 16.3h-1.06v1.13c.42-.32.78-.7 1.06-1.14Z"/></g><g fill="#F5F5F5" fill-rule="nonzero"><path d="M9.35 17.43a4.4 4.4 0 0 0 1.77.8v-1.94H9.35v1.14ZM12.88 18.23a4.4 4.4 0 0 0 1.77-.8v-1.14h-1.77v1.94Z"/></g><path fill="#FF4B55" fill-rule="nonzero" d="M12.88 16.3h-1.76v1.93a4.44 4.44 0 0 0 1.76 0v-1.94Z"/><g fill="#4173CD" fill-rule="nonzero"><path d="M8.8 4.87c-.38-.06-.78-.1-1.18-.13-.31.25-.6.52-.89.8l.85 2.04c.57-.24 1.15-.42 1.73-.56L8.8 4.87ZM13.07 4.53c-.34-.17-.7-.34-1.07-.48-.37.14-.73.3-1.07.48l.17 2.2c.6-.04 1.2-.04 1.8 0l.17-2.2ZM17.27 5.54c-.28-.28-.58-.55-.89-.8-.4.02-.8.07-1.18.13l-.51 2.15c.58.14 1.16.32 1.73.56l.85-2.04Z"/></g><g fill="#41479B" fill-rule="nonzero"><path d="M10.93 4.53c-.37-.12-.75-.22-1.14-.31-.34.2-.67.42-.99.65l.51 2.15c.6-.14 1.19-.24 1.79-.29l-.17-2.2ZM15.2 4.87c-.32-.23-.65-.45-.99-.65-.39.09-.77.2-1.14.31l-.17 2.2c.6.05 1.2.15 1.79.29l.51-2.15Z"/></g><g fill="#FF4B55" fill-rule="nonzero"><path d="M11 5.41c-.67.05-1.34.16-2 .32l-.1-.43c.68-.17 1.37-.27 2.06-.33l.04.44ZM11.06 6.3c-.62.05-1.24.15-1.85.3l-.1-.44c.63-.15 1.27-.26 1.92-.3l.03.44Z"/></g><path fill="#FFE15A" fill-rule="nonzero" d="m14.1 6.44-.47-.07c-.25-.04-.44-.25-.42-.5.02-.24.27-.41.54-.38l.5.08c.28.05.46.3.4.53-.05.24-.3.39-.55.34Z"/><path fill="#FF4B55" fill-rule="nonzero" d="M16.59 7.17a12 12 0 0 0-1.8-.58l.1-.43c.64.15 1.26.35 1.87.6l-.17.41Z"/><g fill="#FFE15A" fill-rule="nonzero"><path d="M16.43 5.9c-.06.19-.27.28-.47.2-.2-.07-.32-.28-.27-.47.05-.2.26-.3.47-.22.22.07.33.3.27.49ZM8.31 5.63c.05.2-.07.4-.27.48-.2.07-.41-.02-.47-.21-.07-.2.05-.42.27-.5.2-.07.42.03.47.23ZM12.04 5.42c0 .2-.16.38-.36.38a.37.37 0 0 1-.39-.35.38.38 0 0 1 .37-.4c.21 0 .38.16.38.37ZM12.85 5.45a.37.37 0 0 1-.38.35.38.38 0 0 1-.37-.38c0-.2.17-.37.39-.36.2 0 .37.18.36.39ZM12.46 6.1c0 .21-.17.38-.37.38a.38.38 0 0 1-.38-.37c0-.2.17-.38.38-.38s.38.17.37.38Z"/></g></g></svg>