<?xml version="1.0" encoding="UTF-8"?>
<svg width="24px" height="24px" viewBox="0 0 24 24" version="1.1" xmlns="http://www.w3.org/2000/svg" xmlns:xlink="http://www.w3.org/1999/xlink">
    <!-- Generator: Sketch 55.1 (78136) - https://sketchapp.com -->
    <title>Flags/kenya</title>
    <desc>Created with Sketch.</desc>
    <g id="Icons" stroke="none" stroke-width="1" fill="none" fill-rule="evenodd">
        <g id="Flags/kenya">
            <g id="kenya" transform="translate(-0.000000, 0.000000)">
                <g fill-rule="nonzero">
                    <circle id="Oval" fill="#F0F0F0" cx="12" cy="12" r="12"></circle>
                    <path d="M12,0 C7.24246875,0 3.13171875,2.76867187 1.19071875,6.782625 L22.8092344,6.782625 C20.8682813,2.76867187 16.7574844,0 12,0 Z" id="Path" fill="#000000"></path>
                    <path d="M12,24 C7.24246875,24 3.13171875,21.2313281 1.19071875,17.217375 L22.8092344,17.217375 C20.8682812,21.2313281 16.7574844,24 12,24 Z" id="Path" fill="#496E2D"></path>
                    <path d="M23.4333281,8.34782812 L0.566671875,8.34782812 C0.199078125,9.4995 0,10.7264531 0,12 C0,13.2735469 0.199078125,14.5005 0.566671875,15.6521719 L23.4332813,15.6521719 C23.8009219,14.5005 24,13.2735469 24,12 C24,10.7264531 23.8009219,9.4995 23.4333281,8.34782812 Z" id="Path" fill="#A2001D"></path>
                    <g id="Group" transform="translate(8.250000, 4.875000)" fill="#F0F0F0">
                        <polygon id="Path" points="7.48664062 0.670359375 6.06553125 0.0144375 3.75 5.25745312 1.43446875 0.0144375 0.013359375 0.670359375 2.88810937 7.125 0.013359375 13.5796406 1.43446875 14.2355625 3.75 8.99254688 6.06553125 14.2355625 7.48664062 13.5796406 4.61189063 7.125"></polygon>
                        <path d="M4.71520313,1.28854688 C4.16507813,0.68775 3.75,0.342375 3.75,0.342375 C3.75,0.342375 3.33492188,0.687703125 2.78479688,1.28854688 L2.78479688,12.9613594 C3.33492188,13.56225 3.75,13.907625 3.75,13.907625 C3.75,13.907625 4.16507813,13.5622969 4.71520313,12.9614062 L4.71520313,1.28854688 Z" id="Path"></path>
                    </g>
                    <g id="Group" transform="translate(9.375000, 5.953125)" fill="#A2001D">
                        <path d="M0.0163125,2.44889063 L0.0163125,9.64476562 C0.59765625,10.6748438 1.30917188,11.5191563 1.84242188,12.0789375 L1.84242188,0.014765625 C1.30917188,0.5745 0.597609375,1.41885938 0.0163125,2.44889063 Z" id="Path"></path>
                        <path d="M5.2336875,2.44889062 C4.65229687,1.4188125 3.94082812,0.5745 3.40757813,0.014765625 L3.40757813,12.0789375 C3.94078125,11.5191562 4.65229687,10.6748437 5.2336875,9.64476562 L5.2336875,2.44889062 Z" id="Path"></path>
                    </g>
                    <path d="M14.6086875,8.40201563 L14.6086875,15.5978906 C15.1972031,14.5549687 15.6521719,13.3217344 15.6521719,12 C15.6521719,10.6782656 15.1972031,9.44498438 14.6086875,8.40201563 Z" id="Path" fill="#000000"></path>
                    <path d="M9.3913125,8.40201563 L9.3913125,15.5978906 C8.80279688,14.5549687 8.34782813,13.3217344 8.34782813,12 C8.34782813,10.6782656 8.80279688,9.44498438 9.3913125,8.40201563 Z" id="Path" fill="#000000"></path>
                </g>
                <circle id="Oval" stroke="#FFFFFF" cx="12" cy="12" r="11.5"></circle>
            </g>
        </g>
    </g>
</svg>