<svg xmlns="http://www.w3.org/2000/svg" width="24" height="24"><g fill="none" fill-rule="evenodd"><path fill="#F5F5F5" fill-rule="nonzero" d="M12 24a12 12 0 1 1 0-24 12 12 0 0 1 0 24Z"/><circle cx="12" cy="12" r="11.5" stroke="#FFF"/><path fill="#FF4B55" fill-rule="nonzero" d="M14.3 8.56A4.14 4.14 0 0 0 8.56 9.7 2.07 2.07 0 1 0 12 12a2.07 2.07 0 0 1 3.44 2.3 4.14 4.14 0 0 0-1.14-5.74"/><path fill="#41479B" fill-rule="nonzero" d="M8.56 9.7A2.07 2.07 0 1 0 12 12a2.07 2.07 0 0 1 3.44 2.3 4.13 4.13 0 1 1-6.88-4.6"/><path fill="#464655" fill-rule="nonzero" d="m16.4 7 .75 1.12a.2.2 0 0 1-.05.29l-.2.13a.2.2 0 0 1-.28-.06l-.75-1.13a.2.2 0 0 1 .05-.29l.2-.12a.2.2 0 0 1 .28.05Zm1.16 1.74.76 1.12a.2.2 0 0 1-.06.3l-.2.12a.2.2 0 0 1-.28-.06l-.75-1.13a.2.2 0 0 1 .05-.28l.2-.13a.2.2 0 0 1 .28.06Zm-.35-2.28 1.91 2.87a.2.2 0 0 1-.06.29l-.19.12a.2.2 0 0 1-.29-.05L16.67 6.8a.2.2 0 0 1 .06-.28l.19-.13a.2.2 0 0 1 .29.06Zm.8-.54.75 1.13a.2.2 0 0 1-.06.29l-.19.13a.2.2 0 0 1-.28-.06l-.76-1.13a.2.2 0 0 1 .06-.29l.2-.13a.2.2 0 0 1 .28.06Zm1.16 1.75.75 1.13a.2.2 0 0 1-.05.28l-.2.13a.2.2 0 0 1-.28-.06l-.76-1.13a.2.2 0 0 1 .06-.28l.2-.13a.2.2 0 0 1 .28.06ZM6.22 13.78l1.91 2.87a.2.2 0 0 1-.05.29l-.2.12a.2.2 0 0 1-.28-.05l-1.91-2.87a.2.2 0 0 1 .05-.29l.2-.13a.2.2 0 0 1 .28.06Zm-.8.54.75 1.12a.2.2 0 0 1-.06.3l-.19.12a.2.2 0 0 1-.29-.06l-.75-1.13a.2.2 0 0 1 .06-.28l.2-.13a.2.2 0 0 1 .28.06Zm1.16 1.74.75 1.13a.2.2 0 0 1-.06.29l-.19.12a.2.2 0 0 1-.28-.05l-.76-1.13a.2.2 0 0 1 .06-.29l.2-.13a.2.2 0 0 1 .28.06Zm-1.97-1.2 1.92 2.86a.2.2 0 0 1-.06.29l-.2.13a.2.2 0 0 1-.28-.06l-1.91-2.87a.2.2 0 0 1 .06-.29l.19-.12a.2.2 0 0 1 .28.05Zm1.08-5L7.59 7a.2.2 0 0 1 .3-.05l.19.12c.1.07.12.2.05.3l-1.9 2.86a.2.2 0 0 1-.3.06l-.19-.13a.2.2 0 0 1-.05-.29Zm-.8-.53 1.9-2.87a.2.2 0 0 1 .3-.06l.18.13c.1.06.12.19.06.28L5.42 9.7a.2.2 0 0 1-.29.05l-.2-.12a.2.2 0 0 1-.05-.3Zm-.81-.54 1.91-2.87a.2.2 0 0 1 .29-.06l.19.13c.1.06.12.2.06.29L4.6 9.15a.2.2 0 0 1-.28.06l-.2-.13a.2.2 0 0 1-.05-.29Zm11.79 7.86.75-1.13a.2.2 0 0 1 .29-.05l.19.12c.1.07.12.2.05.29l-.75 1.13a.2.2 0 0 1-.28.05l-.2-.12a.2.2 0 0 1-.05-.3Zm1.16-1.74.75-1.13a.2.2 0 0 1 .29-.06l.19.13c.1.06.12.2.06.29l-.76 1.13a.2.2 0 0 1-.28.06l-.2-.13a.2.2 0 0 1-.05-.29Zm-.36 2.28.75-1.13a.2.2 0 0 1 .29-.06l.2.13c.09.06.11.2.05.29l-.75 1.13a.2.2 0 0 1-.29.05l-.2-.12a.2.2 0 0 1-.05-.3Zm1.16-1.75.75-1.12a.2.2 0 0 1 .3-.06l.18.13c.1.06.12.19.06.28l-.75 1.13a.2.2 0 0 1-.29.06l-.2-.13a.2.2 0 0 1-.05-.29Zm-.36 2.28.76-1.13a.2.2 0 0 1 .28-.05l.2.12c.09.07.12.2.05.3l-.75 1.12a.2.2 0 0 1-.29.06l-.19-.13a.2.2 0 0 1-.06-.29Zm1.17-1.74.75-1.13a.2.2 0 0 1 .28-.05l.2.12c.09.07.12.2.05.3l-.75 1.12a.2.2 0 0 1-.29.06l-.19-.13a.2.2 0 0 1-.05-.29Z"/></g></svg>