<svg xmlns="http://www.w3.org/2000/svg" width="24" height="24"><g fill="none" fill-rule="evenodd"><circle cx="11.98" cy="11.98" r="11.98" fill="#415B73" fill-rule="nonzero"/><path fill="#00F4BD" d="M17.9 19.14c.2-.02.43-.1.64-.16.04.19.17.28.17.47 0 .35-.42 1.18-.74 1.18-.47 0-.99-1.16-.99-1.5 0-.2.56-.07.78-.01-.23-.11-.64-.35-.65-.43-.36.03-.24.35-.63.35-.61 0-1.62-.4-1.62-1.05 0-.24-.2-.43-.22-.63l-.01-.08c-.11.06-.2.08-.32.11h-.18c.04-.1.1-.19.1-.34 0-.2-.09-.26-.15-.32l-.03.16c-.14.06-.16.34-.4.34-.07 0-.15-.08-.15-.15.4-.08.47-.9.45-1.13-.28.28-.67 1.1-1 1.1-.19 0-.13-.29-.13-.29-.1 0-.45-.77-.58-.94-.25-.31-1.18-.47-1.7-.47-.56 0-.67.25-1.01.36-.8.27-1.8-.01-1.92.79-.33.03-.6.1-.94.1-.25-.12-.25 0-.44 0-.55 0-.78.52-1.5.52-.26 0-1.01-.33-1.01-.55 0-.23.36-.34.36-.7 0-.46-.23-.7-.31-1-.2-.68-.24-.9-.44-1.51-.08-.24-.4-.32-.32-.55.03-.07.05-.13.1-.2.03.07.1.15.14.2.04-.07 0-.13 0-.2 0-.24-.19-.43-.19-.82v-.91c0-.13.1-.16.17-.2.02.06.02.12.02.16.3-.03.66-.42.83-.6.19-.18.75-.21 1.05-.26.57-.1 1.85-.53 1.85-1.07v-.26c0-.16.05-.32.2-.4.09.15.18.2.24.32.18-.11.1-.35.18-.52.12.06.2.13.33.13 0-.44.3-.5.34-.87.42 0 .5-.31.83-.31.28 0 .44.31.47.6.08-.11.2-.18.35-.18.08 0 .2.11.23.13.1-.14.05-.25.05-.4 0-.21.24-.32.24-.54 0-.22.62-.36.9-.36.1 0 .23-.1.27-.11-.1-.14-.25-.2-.28-.37.54.23.85.44 1.41.44.2 0 .27-.12.44-.12.1 0 .32.16.32.28 0 .2-.24.22-.36.32l-.2.78c0 .13.23.1.32.16.1.06.1.3.16.31.42.16.66.24 1.05.4.22.07.3.42.6.42.48 0 .58-.93.66-1.29V6.06c.25-.2.17-.4.44-.54.04.43.25.7.34 1 .06.23-.01.51.16.64l.52.17c.19.12.19.63.26.88.14.42.27.63.4 1.02.12.37.8.52 1.06.78.2.2.22.49.29.7.06.21.31.21.51.21 0 .63.6.9.9 1.2l-.02.04c.25.33.41 1.18.41 1.65 0 .35-.1.83-.23.98v.44c-.08.12-.04.18-.11.3-.29.45-.57.6-.73 1.1-.12.38-.45.87-.45 1.42v-.03c-.17.71-1.43.4-1.58 1.12Zm1.33-12.67c-.13-.16-.41-.11-.46-.32h.47c.03.02.18-.04.18-.04.23-.08.47-.07.6-.13.23-.1.13-.45.35-.45.1 0 .14.14.14.23 0 .33-.33.27-.33.55-.28.06-.42.24-.75.24-.06 0-.27-.11-.28-.16l.08.08ZM15.73 2c.23.09.5.15.72.15.19 0 .28.22.47.22 0 .13.13.14.2.16.5.15.49.58.87.77.15.07.48-.1.48.25 0 .17-.3.1-.3.25 0 .08.27.34.3.37.16.16.13.27.25.46.05.08.24.16.35.16.05 0 .1.1.13.17.03.08.12.01.18.03.1.03.13.13.16.19.03.08.27.05.32.06-.1.06-.21.14-.21.25h-.1c-.02 0-.26-.15-.3-.19h-.4c-.23-.04-.6-.22-.6-.39 0-.06-.12-.1-.15-.12-.32-.32-.6-.76-1.12-.76-.39 0-.36.29-.58.4.06.2-.08.26-.08.37h-.6c-.27 0-.4-.22-.59-.36l.6-2.44Z"/><circle cx="12" cy="12" r="11.5" stroke="#FFF"/></g></svg>