<svg xmlns="http://www.w3.org/2000/svg" width="24" height="24"><g fill="none" fill-rule="evenodd"><g fill-rule="nonzero"><path fill="#73AF00" d="M8.17 1.15v21.7a11.5 11.5 0 0 1 0-21.7Z"/><path fill="#F5F5F5" d="M15.83 1.15v21.7a11.48 11.48 0 0 1-7.66 0V1.15a11.48 11.48 0 0 1 7.66 0Z"/><path fill="#FF4B55" d="M15.83 22.85V1.15a11.5 11.5 0 0 1 0 21.7Z"/></g><path fill="#FFD250" fill-rule="nonzero" d="m12.71 12.37-.71.36v.35h.36z"/><g fill="#00C3A0" fill-rule="nonzero"><path d="M12.07 13.98c-.14 0-.25-.08-.25-.18v-.72c0-.1.11-.17.25-.17s.25.08.25.17v.72c0 .1-.11.18-.25.18Z"/><path d="M12 13.26a2.8 2.8 0 0 1-1.9-.76.18.18 0 0 1 .24-.26c.46.43 1.05.67 1.66.67.61 0 1.2-.24 1.66-.67a.18.18 0 0 1 .25.26c-.53.5-1.2.76-1.91.76Z"/></g><path fill="#00AADC" fill-rule="nonzero" d="M12 13.98c-.46 0-.9-.14-1.28-.4l.2-.29c.64.43 1.52.43 2.16 0l.2.3a2.3 2.3 0 0 1-1.28.39Z"/><path fill="#732D37" fill-rule="nonzero" d="m11.72 11.57-.4.61-.06.2 1.02-.24z"/><path fill="#AAD264" fill-rule="nonzero" d="M10.9 12.57c-.46 0-1.03-.4-1.18-1.28l.35-.06c.13.74.58.99.85.99.08 0 .17-.03.18-.1 0-.06 0-.08-.18-.14-.1-.04-.22-.08-.3-.17-.32-.37.12-.77.33-.96.04-.03.05-.06.05-.07-.01-.03-.08-.08-.16-.08-.23 0-.4-.12-.45-.33a.48.48 0 0 1 .23-.53l.17.31c-.05.03-.06.1-.05.14 0 .02.01.06.1.06.22 0 .43.13.5.3.02.08.07.28-.15.47-.23.21-.37.37-.3.46.02.02.1.04.15.06.16.05.46.15.41.53-.02.23-.23.4-.52.4h-.02Z"/><path fill="#874150" fill-rule="nonzero" d="M12.36 10.59s.35-.72-.36-1.07c0 0 2.5-.36 2.14 2.85a2.76 2.76 0 0 1-.7-.8l-1.08-.63v-.35Z"/><path fill="#732D37" fill-rule="nonzero" d="m12 11.3 1.78 1.07-.7.36L12 11.66v-.36Z"/><path fill="#783C46" fill-rule="nonzero" d="M11.29 10.23c.2 0 .35.16.35.36a.7.7 0 0 0-.13.8l.08.16a.7.7 0 0 0 .13.19l1 .99v-.5c0-.61-.15-1.22-.42-1.77-.19-.36-.56-.59-.96-.59h-.05v.36Z"/><path fill="#FFD250" fill-rule="nonzero" d="m11.29 9.87-.36.36v.36l.57-.29c.1-.05.08-.16.02-.21l-.23-.22Z"/><path fill="#AAD264" fill-rule="nonzero" d="M12 14.69a3.04 3.04 0 0 1-3.03-3.03h.35a2.68 2.68 0 0 0 5.36 0h.35A3.04 3.04 0 0 1 12 14.69Z"/><path fill="#FFB478" fill-rule="nonzero" d="M12.18 14.15h-.36a.36.36 0 0 1 0-.71h.36c.2 0 .36.16.36.36 0 .2-.16.35-.36.35Z"/><path fill="#9B4B5A" fill-rule="nonzero" d="M13.43 11.57c.12.35.38.67.71.8C14.5 9.16 12 9.52 12 9.52c1.78 0 1.43 2.05 1.43 2.05Z"/><circle cx="12" cy="12" r="11.5" stroke="#FFF"/><g fill="#FFE15A" fill-rule="nonzero" transform="translate(9.1 12.47)"><circle cx=".25" cy=".25" r="1"/><circle cx=".78" cy="1.1" r="1"/><circle cx="1.65" cy="1.75" r="1"/><circle cx="5.59" cy=".25" r="1"/><circle cx="5.05" cy="1.1" r="1"/><circle cx="4.18" cy="1.75" r="1"/></g></g></svg>