<?xml version="1.0" encoding="UTF-8"?>
<svg width="24px" height="24px" viewBox="0 0 24 24" version="1.1" xmlns="http://www.w3.org/2000/svg" xmlns:xlink="http://www.w3.org/1999/xlink">
    <!-- Generator: Sketch 63.1 (92452) - https://sketch.com -->
    <title>efootball</title>
    <desc>Created with Sketch.</desc>
    <g id="Classifier" stroke="none" stroke-width="1" fill="none" fill-rule="evenodd">
        <g id="efootball">
            <g>
                <circle id="Oval" fill="#503F32" cx="12" cy="12" r="12"></circle>
                <path d="M9.4888,17.2695 C9.1458,16.9095 8.9748,15.6745 8.9748,15.6745 L11.0558,14.6925 L13.6208,15.5015 L14.0578,17.0935 C13.0928,17.9845 11.9318,18.1025 11.9318,18.1025 C10.7958,17.9835 9.4888,17.2695 9.4888,17.2695 L9.4888,17.2695 Z M7.9998,17.0395 C7.2358,16.3945 6.6238,15.5755 6.2288,14.6405 L6.2288,13.6355 L7.1278,13.6095 C7.1278,13.6095 7.3308,14.7275 8.7588,15.5615 L8.7568,15.5655 C8.8678,16.7175 9.2178,17.2345 9.2178,17.2345 C8.5428,17.3475 8.1518,17.1465 7.9998,17.0395 L7.9998,17.0395 Z M5.7528,12.6075 C5.7428,12.4605 5.7298,12.3145 5.7298,12.1655 C5.7298,11.0675 6.0088,10.0355 6.4958,9.1335 L7.6278,9.0615 C7.6248,9.0995 7.5498,10.1015 7.9348,11.4025 C7.9348,11.4025 7.2208,12.2655 7.1088,13.4055 L6.1838,13.4315 C6.1838,13.4315 5.8098,12.8875 5.7528,12.6075 L5.7528,12.6075 Z M7.8378,9.0495 C7.8378,9.0495 8.5718,7.7215 9.9258,7.2315 C9.9258,7.2315 11.1238,7.3175 12.0708,7.8635 L12.4118,9.9785 L10.3708,11.8515 L8.1348,11.3495 C8.1348,11.3495 7.7358,9.8745 7.8378,9.0495 L7.8378,9.0495 Z M12.1088,5.7875 C12.9468,5.7875 13.7448,5.9535 14.4778,6.2475 L14.3678,7.0865 L14.3668,7.0865 C14.3668,7.0865 13.1408,7.0095 12.1238,7.6555 C12.1238,7.6555 11.3698,7.1505 9.9818,7.0305 L9.9568,6.1665 C10.6298,5.9255 11.3518,5.7875 12.1088,5.7875 L12.1088,5.7875 Z M14.6728,6.3275 C16.0688,6.9415 17.1988,8.0425 17.8568,9.4155 L17.7438,9.6015 L17.7428,9.5995 C17.7428,9.5995 17.1178,9.1525 16.2078,8.9865 C16.2078,8.9865 15.8898,8.1175 14.5628,7.1635 L14.6728,6.3275 Z M18.2028,12.4355 C17.4138,14.0005 17.1588,14.2205 17.1588,14.2205 L15.8378,13.6065 L15.2318,10.8615 L15.2278,10.8545 L16.2788,9.2145 C16.2788,9.2145 17.0888,9.4015 17.6988,9.8175 C17.6988,9.8175 17.9438,10.1755 18.1048,11.0105 C18.2648,11.8455 18.2028,12.4355 18.2028,12.4355 L18.2028,12.4355 Z M18.4508,12.8365 C18.2998,14.2845 17.6478,15.5725 16.6928,16.5655 L16.6338,16.4905 C16.6388,16.4825 17.2068,15.7945 17.2898,14.3865 C17.8848,13.6345 18.3268,12.6515 18.3268,12.6515 L18.4508,12.8365 Z M13.7298,15.3235 L11.1558,14.5085 C11.1558,14.5085 10.9358,13.9395 10.5928,11.9245 L12.5628,10.1165 L12.5638,10.1135 L15.0498,10.9825 L15.6258,13.5995 L13.7298,15.3235 Z M12.3598,18.5305 C12.1898,18.4305 12.1088,18.2865 12.1088,18.2865 C13.4128,18.0815 14.2708,17.1735 14.2708,17.1735 C14.2708,17.1735 15.7198,17.0725 16.4918,16.6445 L16.5538,16.7195 C15.4608,17.7845 13.9928,18.4665 12.3598,18.5305 L12.3598,18.5305 Z M12.1094,3.9996 C15.8814,3.9996 19.0554,6.5756 19.9874,10.0586 L19.9874,10.0586 L20.4634,10.0586 C20.8784,10.0586 21.2144,10.3946 21.2144,10.8086 L21.2144,10.8086 L21.2144,13.7246 C21.2144,14.1396 20.8784,14.4756 20.4634,14.4756 L20.4634,14.4756 L19.9354,14.4756 C19.0204,17.5696 16.3204,19.9016 13.0314,20.2736 C12.9234,20.5046 12.6354,20.6736 12.2874,20.6736 C11.8484,20.6736 11.4914,20.4076 11.4914,20.0796 C11.4914,19.7506 11.8484,19.4856 12.2874,19.4856 C12.5774,19.4856 12.8194,19.6066 12.9584,19.7796 C16.7794,19.3546 19.7634,16.1126 19.7724,12.1816 L19.7724,12.1816 L19.7724,12.1486 C19.7634,7.9296 16.3284,4.4996 12.1094,4.4996 C7.8824,4.4996 4.4434,7.9386 4.4434,12.1646 C4.4434,12.8406 4.5314,13.5106 4.7044,14.1566 C4.7404,14.2886 4.6614,14.4266 4.5274,14.4616 C4.4974,14.4706 4.4714,14.4546 4.4424,14.4516 L4.4424,14.4516 L4.4424,14.4756 L3.7504,14.4756 C3.3364,14.4756 2.9994,14.1396 2.9994,13.7246 L2.9994,13.7246 L2.9994,10.8086 C2.9994,10.3946 3.3364,10.0586 3.7504,10.0586 L3.7504,10.0586 L4.2294,10.0586 C5.1624,6.5756 8.3364,3.9996 12.1094,3.9996 Z M12.1088,5.1585 C15.9778,5.1585 19.1158,8.2945 19.1158,12.1655 C19.1158,16.0355 15.9778,19.1715 12.1088,19.1715 C8.2388,19.1715 5.1008,16.0355 5.1008,12.1655 C5.1008,11.0265 5.3738,9.9515 5.8548,8.9995 C7.0108,6.7205 9.3778,5.1585 12.1088,5.1585 Z" id="Fill-1" fill="#DEBB69"></path>
                <circle id="Oval" stroke="#FFFFFF" cx="12" cy="12" r="11.5"></circle>
            </g>
        </g>
    </g>
</svg>