<svg xmlns="http://www.w3.org/2000/svg" width="24" height="24"><g fill="none" fill-rule="evenodd"><path fill="#C8414B" fill-rule="nonzero" d="M12 23.5C5.649 23.5.5 18.351.5 12S5.649.5 12 .5 23.5 5.649 23.5 12 18.351 23.5 12 23.5Z"/><path fill="#E6B432" fill-rule="nonzero" d="M12 23c6.075 0 11-4.925 11-11S18.075 1 12 1 1 5.925 1 12s4.925 11 11 11Zm0 1C5.373 24 0 18.627 0 12S5.373 0 12 0s12 5.373 12 12-5.373 12-12 12Z"/><circle cx="17.182" cy="15.961" r="1" fill="#41479B" fill-rule="nonzero"/><g fill="#E6B432" fill-rule="nonzero"><path d="M18.869 10.443c-.708.595-1.183.62-1.183.62 1.258-.513 1.126-1.49 1.126-1.49-.594.783-1.201 1.002-1.201 1.002 1.264-.858 1.064-2.01 1.064-2.01-.413.914-.936 1.271-.936 1.271 1.051-1.399.535-2.3.535-2.3-.413 1.296-.76 1.671-.76 1.671.807-2.16.115-2.782.115-2.782 0 1.158-.432 1.821-.432 1.821.451-1.527-.256-2.403-.256-2.403s-.007 1.245-.247 1.897c-.057-.087-.091-.076-.091-.076a3.19 3.19 0 0 1-.738 1.575c-.04-.2-.165-.26-.165-.26s-.022.195-.198.484c-.115.189-.658.63-.746 1.018-.07.311.238.57.338.632.1.063.207.175.163.357-.044.181-.37.163-.6.156-.233-.006-.264.376-.52.363l-.044.285-.1.022s-1.052 2.096-1.142 2.809l-.774.102-.774-.102c-.09-.713-1.141-2.809-1.141-2.809l-.1-.022-.044-.285c-.257.013-.288-.369-.52-.363-.231.007-.557.025-.6-.156-.044-.182.062-.294.162-.357s.408-.321.338-.632c-.087-.388-.63-.83-.746-1.018-.175-.289-.198-.485-.198-.485s-.124.062-.165.26a3.19 3.19 0 0 1-.737-1.574s-.034-.011-.092.076c-.24-.652-.246-1.897-.246-1.897s-.708.876-.257 2.403c0 0-.432-.663-.432-1.821 0 0-.692.623.116 2.782 0 0-.347-.375-.76-1.671 0 0-.517.901.535 2.3 0 0-.523-.357-.936-1.27 0 0-.2 1.151 1.064 2.009 0 0-.607-.22-1.202-1.002 0 0-.131.977 1.127 1.49 0 0-.476-.025-1.183-.62 0 0-.125.864 1.515 1.309 0 0-.67-.013-1.353-.47 0 0-.018.851 1.384 1.02 0 0-.463.07-.983-.119 0 0 .019.689 1.24.777 0 0-.483.037-.796-.038 0 0 .032.707.996.588 0 0-.326.107-.432.138 0 0 .019.578 1.023.371 0 0-.178.111-.422.149 0 0 .206.482 1.045.269l-.172.188s.648.375 1.145-.141l-.178.319s.423.16.685-.254c0 0-.072.62-.948.733 0 0 .031.131.069.181 0 0-.056.107-.563.194 0 0 .106.163.219.213 0 0-.22.188-.338.226 0 0 .187.093.306.112 0 0-.262.257-.588.263-.326.006-.908-.031-.908-.031s-.006-.313-.156-.582c-.15-.27-.2-.29-.2-.29s.032-.216-.061-.305c-.094-.09-.146-.131-.146-.131s.05-.432-.088-.702c-.137-.269-.626-.857-.65-1.295-.026-.438-.007-.601-.007-.601l-.15.037-.1-.206.169-.019-.07-.313-.23.088-.032-.27-.275.113.137.244-.244.07.144.287.188-.119.05.25s-.113.026-.175.126c0 0 .31.205.4.45.144.388.1 1.265.307 1.528.207.263.37.444.37.444s-.059.179.007.277c.066.099.16.127.16.127s-.057.399.089.662.23.328.23.328-.53.324-.155.7c0 0-.05.341.307.423 0 0 .019.269.325.237 0 0 .15-.043.188.032.038.075 0 .507 0 .507s.138-.013.225-.075l.276.137.006-.306.344-.138s-.15.025-.457-.263c0 0 .05-.031.088-.275 0 0 .244-.194.294-.351.05-.156.395-.5.795-.613l.055.244s.573-.507.812-.535l.197.26s.739-1.096 1.064-1.29c-.025.088.157.1-.247.55-.404.451-.153.808-.153.808-.25.207-.2.395-.232.607-.031.213-.864.764-.864.764.263.332.557.257.557.257-.162.106-.112.463-.112.463.238.062.475-.044.475-.044a.41.41 0 0 0 .044.382c.15-.094.495-.15.495-.15a.69.69 0 0 0 .206.594l.22-.238c.037.439.425.689.425.689s.388-.25.426-.689l.219.238s.25-.206.206-.594c0 0 .345.056.495.15 0 0 .125-.157.044-.382 0 0 .238.106.475.044 0 0 .05-.357-.112-.463 0 0 .294.075.557-.257 0 0-.833-.55-.864-.764-.031-.212.019-.4-.232-.607 0 0 .25-.357-.153-.807-.404-.451-.222-.463-.247-.551.325.194 1.064 1.29 1.064 1.29l.197-.26c.24.028.812.535.812.535l.055-.244.01-.012c.299.161.792.379.992.531.212.163.388.175.9 0 .514-.175 1.47-.445 1.328-.764-.008-.017-.016-.029-.025-.042a.325.325 0 0 0-.119-.352s.002.035 0 .08l-.489-.182a.27.27 0 0 0-.087-.123s0 .037-.006.088l-.125-.047.25-.704c-.019-.011-.04-.017-.06-.026a2.18 2.18 0 0 1 .036-.245.527.527 0 0 1 .157.081l.071-.258s-.076-.005-.176-.023a.65.65 0 0 1 .09-.193l-.33-.1s.008.1.002.226a.63.63 0 0 1-.173-.1l-.077.286c.026.001.117.01.222.028a.496.496 0 0 1-.1.215c-.012-.002-.023-.006-.035-.007l-.243.684-.66-.246a.924.924 0 0 0-.07.142c.003-.007.006-.018.01-.023 0 0-.256.134-.252.33a.188.188 0 0 0-.111.114c-.076.197.384.639.272.695-.11.055-.689-.42-.781-.5.119-.024.293-.11.293-.11-.12-.038-.338-.226-.338-.226.112-.05.219-.213.219-.213-.507-.087-.564-.194-.564-.194.038-.05.07-.181.07-.181-.877-.113-.95-.733-.95-.733.264.414.686.254.686.254l-.178-.32c.497.517 1.145.142 1.145.142l-.172-.188c.839.213 1.046-.27 1.046-.27a1.236 1.236 0 0 1-.423-.148c1.005.207 1.023-.37 1.023-.37a26.556 26.556 0 0 1-.432-.139c.964.12.996-.588.996-.588-.313.075-.795.038-.795.038 1.22-.088 1.24-.777 1.24-.777-.52.188-.984.12-.984.12 1.403-.17 1.384-1.02 1.384-1.02a2.77 2.77 0 0 1-1.352.469c1.64-.445 1.515-1.309 1.515-1.309Zm-1.423 6.192c-.067-.108.093-.205.165-.309l.277.104c-.094.112-.373.317-.442.205Zm-.185-.439c-.09.14-.153.296-.43.303-.347.01-.404-.3-.479-.47a.248.248 0 0 0-.103-.111c0-.03.002-.064.004-.097l1.008.375Z"/><path d="M11.974 9.583s-.446-.38-.578-.587c0 0 .15-.061.226-.155 0 0-.404-.216-.62-.437 0 0 .14-.023.249-.112 0 0-.363-.066-.547-.363.42-.143.28-.534.28-.534-.085.113-.433.253-.808.094-.376-.16-.789-.047-.789.16 0 0-.845-.245-.634.572 0 0 .137-.305.437-.192.3.112.606.497.606.497s-.188.104-.536-.009c0 0 .141.54.775.268 0 0 .25.134.263.528 0 0 .106-.056.175-.181 0 0 .1.382-.031.695 0 0 .175-.032.232-.088 0 0 .05.332-.17.601 0 0 .963.459 1.573-.044 0 0-.23-.263-.305-.507 0 0 .127-.051.202-.206Z"/><path d="M14.767 7.648c0-.206-.413-.319-.788-.16-.376.16-.723.02-.808-.093 0 0-.14.391.279.534-.184.297-.547.363-.547.363.108.089.25.112.25.112-.217.221-.62.437-.62.437.075.094.225.155.225.155-.132.206-.578.587-.578.587a.433.433 0 0 0 .202.206c-.075.244-.305.507-.305.507.61.503 1.573.044 1.573.044-.22-.27-.17-.6-.17-.6.057.056.233.087.233.087-.132-.313-.032-.695-.032-.695a.482.482 0 0 0 .176.182c.012-.395.262-.53.262-.53.634.273.775-.267.775-.267-.347.113-.535.01-.535.01s.305-.386.605-.498c.3-.113.437.192.437.192.211-.817-.634-.573-.634-.573Z"/><path d="M14.385 12.636c-.083-.48-.154-.895.053-1.37l.039-.088-.82-.941-.097.032c-.008.003-.865.283-1.414.008l-.069-.034-.068.034c-.547.274-1.406-.005-1.415-.008l-.097-.032-.82.941.04.089c.206.474.135.889.053 1.369-.078.453-.166.966-.011 1.592.168.68.735.922 1.234 1.135.385.165.749.32.955.646l.13.205.129-.205c.205-.326.57-.481.954-.646.5-.213 1.066-.455 1.234-1.135.155-.626.067-1.14-.01-1.592Zm-4.351-1.401.563-.646c.254.07.943.222 1.48-.006.537.228 1.226.076 1.48.006l.563.646c-.197.52-.12.974-.037 1.452.061.359.122.728.07 1.154H10c-.05-.426.01-.795.072-1.154.082-.478.16-.932-.038-1.452Zm3.007 3.847c-.348.148-.707.301-.964.591-.257-.29-.615-.443-.964-.591-.488-.209-.91-.391-1.049-.903h4.026c-.14.512-.56.694-1.05.903Z"/></g><circle cx="12" cy="12" r="11.5" stroke="#FFF"/><path fill="#41479B" fill-rule="nonzero" d="m10.034 11.235.563-.646c.254.07.943.222 1.48-.006.537.228 1.226.076 1.48.006l.563.646c-.197.52-.12.974-.037 1.452.061.359.122.728.07 1.154H10c-.05-.426.01-.795.072-1.154.082-.478.16-.932-.038-1.452Z"/><path fill="#73AF00" fill-rule="nonzero" d="m10.043 14.09.013.065c.132.532.56.715 1.058.927.348.148.706.301.963.591.258-.29.616-.443.964-.591.497-.212.925-.395 1.057-.927.006-.022.009-.044.014-.065h-4.07Z"/><g fill="#E6B432" fill-rule="nonzero"><path d="M13.915 12.314c0-.277-.263-.32-.503-.316-.239.005-.59-.039-.598-.225-.005-.116.19-.126.316-.086.074.024.531.105.675-.2 0 0-.168.005-.344-.035-.136-.03-.695.039-.795.254-.1.216.223.43.597.43.373 0 .424.075.421.166-.004.12-.3.154-.47.152-.267-.097-.892-.02-.895-.033a7.321 7.321 0 0 0-.144-.256s.255-.018.288-.064c.032-.047-.194-.227-.194-.227s.19-.076.197-.13c.008-.06-.154-.2-.154-.2s.063-.062.11-.168c.034-.075-.235-.096-.235-.096.015-.057.01-.113-.062-.138-.055-.02-.258.057-.397.057s-.191.1-.191.1-.245.03-.278.058c-.034.029.01.215.01.215-.125-.019-.182-.129-.182-.129-.063.283.23.311.23.311l.047.153.12.015c.12.014.062.129-.125.129-.186 0-.265.223-.265.223-.13.003-.202-.101-.231-.235a1.601 1.601 0 0 1 .01-.515c.03-.173-.057-.223-.057-.223l-.058.144c-.003-.148-.133-.162-.133-.162l-.021.18c-.065-.12-.177-.065-.177-.065s.108.39.104.41c-.003.022-.04.04-.09-.014-.05-.054-.086-.018-.086-.018.054.39.263.332.263.332s.009.122.072.37c.067.264.344.214.344.214 0 .086.067.21.086.498.02.287-.244.488-.244.488-.24-.005-.215.23-.215.23h.66c0-.61.263-.716.263-.716.389.018.763-.144.763-.144-.057.234.044.332.044.332.158-.022.079.292.032.292h-.202c-.057 0-.223.18-.223.18h.685s.104-.152.14-.227c.036-.076-.08-.18-.086-.26-.008-.079.118-.13.118-.13.134.188.44.199.44.199l-.007-.14s.158.053.194.1c.036.047.03.263-.162.288-.19.026-.205.163-.205.163h.522c.087 0 .155-.163.155-.224v-.548c0-.086-.072-.075-.241-.093-.154-.017-.14-.185-.203-.38.223-.008.567-.056.567-.286ZM13.874 5.766c-.043-.378-.344-.859-1.491-1.084a.299.299 0 0 0-.186-.269v-.21h.188v-.226h-.188V3.79h-.225v.188h-.188v.226h.188v.21a.299.299 0 0 0-.186.269c-1.148.225-1.449.706-1.492 1.084-.053.471.284.918.588 1.09v.238h2.404v-.239c.304-.17.642-.618.588-1.089Zm-1.258.728h-.336V5.108c.277.125.448.317.498.581.063.329-.069.664-.162.805Zm-1.226-.805c.05-.264.222-.456.499-.581v1.386h-.336a1.198 1.198 0 0 1-.163-.805Zm-.278-.38c-.055.11-.09.22-.108.322-.055.308.008.621.11.863h-.078c-.169-.117-.385-.402-.354-.684.023-.197.172-.366.43-.502Zm2.02 1.185h-.078c.103-.242.165-.555.11-.862a1.196 1.196 0 0 0-.108-.324c.258.136.408.305.43.502.032.282-.185.567-.353.684Z"/></g></g></svg>