<svg xmlns="http://www.w3.org/2000/svg" width="24" height="24"><g fill="none" fill-rule="evenodd"><path fill="#41479B" fill-rule="nonzero" d="M23.32 8H.68a12 12 0 0 1 22.64 0ZM.68 16h22.64A12 12 0 0 1 .68 16Z"/><path fill="#F5F5F5" fill-rule="nonzero" d="M.68 8h22.64a11.98 11.98 0 0 1 .68 4c0 1.4-.24 2.75-.68 4H.68A11.98 11.98 0 0 1 0 12c0-1.4.24-2.75.68-4Z"/><g fill="#50AF69" fill-rule="nonzero"><path d="M11.98 14.69a2.77 2.77 0 0 1-2.1-4.55l.11.1a2.6 2.6 0 0 0 2 4.29v.16Z"/><path d="M10.97 13.87a.55.55 0 0 0-.06.22.69.69 0 0 0-.1-.06s-.05.2 0 .33c0 0-.15.02-.28.15l.12.07a.56.56 0 0 0-.17.2c.77.39 1.15-.15 1.16-.18-.19-.54-.67-.73-.67-.73Zm.67.77.03.06v-.1l-.03.04Zm-1.38-1.29a.5.5 0 0 0-.13.17.63.63 0 0 0-.07-.09s-.11.14-.13.28c0 0-.12-.04-.28.02l.08.1a.51.51 0 0 0-.22.11c.51.61 1.02.3 1.04.28.04-.53-.3-.87-.3-.87Zm.3.89v.06l.03-.09-.04.03Zm-.75-1.56a.46.46 0 0 0-.17.09.56.56 0 0 0-.01-.1s-.15.07-.21.18c0 0-.1-.08-.25-.09 0 0 0 .05.03.11-.13-.02-.22.01-.22.01.2.7.73.62.76.62.22-.42.07-.82.07-.82Zm-.05.82-.02.05.06-.05h-.04Zm-.12-1.59a.48.48 0 0 0-.17.06.5.5 0 0 0 0-.09s-.15.05-.23.13c0 0-.06-.08-.2-.1v.1c-.11-.04-.2-.02-.2-.02.02.64.52.64.54.64.3-.34.26-.72.26-.72Zm-.23.7-.03.04.07-.04H9.4Zm.32-1.32a.42.42 0 0 0-.17 0 .47.47 0 0 0 .03-.07s-.14 0-.23.05c0 0-.04-.1-.15-.16l-.03.1a.38.38 0 0 0-.17-.08c-.15.58.28.73.3.73a.94.94 0 0 0 .42-.57Z"/><path d="m9.34 11.8-.04.02.06-.02h-.02Zm.04-1.3s-.2.47.1.74c0 0 .4-.1.59-.48l-.16-.03-.09-.24-.28.12-.16-.11Z"/><path d="M9.8 9.9s-.29.42-.07.75c0 0 .4-.03.67-.36l-.15-.06-.02-.25-.3.06-.12-.14Zm2.21 4.79v-.16a2.6 2.6 0 0 0 2-4.28l.12-.1A2.77 2.77 0 0 1 12 14.68Z"/><path d="M13.03 13.87c.03.06.05.14.06.22a.69.69 0 0 1 .1-.06s.05.2 0 .33c0 0 .15.02.28.15l-.12.07a.56.56 0 0 1 .17.2c-.77.39-1.15-.15-1.16-.18.19-.54.67-.73.67-.73Z"/><path d="m12.38 14.64-.02.06v-.1l.02.04Zm1.36-1.29c.05.04.1.1.13.17a.63.63 0 0 1 .07-.09s.11.14.13.28c0 0 .12-.04.28.02l-.08.1a.51.51 0 0 1 .22.11c-.51.61-1.02.3-1.04.28-.04-.53.3-.87.3-.87Z"/><path d="M13.48 14.24v.06l-.04-.09.04.03Zm.7-1.56a.46.46 0 0 1 .18.09.56.56 0 0 1 .01-.1s.15.07.21.18c0 0 .1-.08.25-.09 0 0 0 .05-.03.11.13-.02.22.01.22.01-.2.7-.73.62-.76.62-.22-.42-.07-.82-.07-.82Zm.12.82.02.05-.06-.05h.04Zm.06-1.59a.48.48 0 0 1 .17.06.5.5 0 0 1 0-.09s.15.05.23.13c0 0 .06-.08.2-.1v.1c.11-.04.2-.02.2-.02-.02.64-.52.64-.54.64-.3-.34-.26-.72-.26-.72Z"/><path d="m14.65 12.61.03.04-.06-.04h.03Zm-.35-1.32a.42.42 0 0 1 .17 0 .47.47 0 0 1-.03-.07s.14 0 .23.05c0 0 .04-.1.15-.16l.03.1a.39.39 0 0 1 .17-.08c.15.58-.28.73-.3.73a.94.94 0 0 1-.42-.57Z"/><path d="m14.73 11.8.04.02-.07-.02h.03Zm.08-1.3s.2.47-.1.74c0 0-.4-.1-.59-.48l.17-.03.08-.24.28.12.16-.11Z"/><path d="M14.37 9.9s.3.42.08.75c0 0-.4-.03-.67-.36l.15-.06.02-.25.3.06.12-.14Z"/></g><path fill="#41479B" fill-rule="nonzero" d="m12.1 13.03-.33.36c-.06.06-.05.15.02.2l.31.23.31-.23c.08-.05.1-.14.03-.2l-.34-.36Z"/><path fill="#F5F5F5" fill-rule="nonzero" d="m12.6 13.4-.34-.37-.34.36c-.06.06-.04.15.03.2l.3.23.32-.23c.07-.05.09-.14.03-.2Z"/><path fill="#41479B" fill-rule="nonzero" d="M12.43 9.75v-.99s-.87.54-.74 1.33m-1.37-.34a2.46 2.46 0 0 0 .13 2.33l.77-1.24-.9-1.09"/><path fill="#F5F5F5" fill-rule="nonzero" d="M11.14 11.38a1.07 1.07 0 0 1 .01-.94l-.51-.4c-.42.74-.24 1.3.17 1.69l.33-.35Z"/><path fill="#FFE15A" fill-rule="nonzero" d="M11.21 10.9a.08.08 0 0 1-.06-.03l-1-1.27a.08.08 0 1 1 .13-.1l1 1.28a.08.08 0 0 1-.07.12Z"/><path fill="#41479B" fill-rule="nonzero" d="M9.63 10.98c-.31 3.15 2.21 2.36 2.37 2.05l-1.58-.79.32-.63-1.1-.63"/><path fill="#F5F5F5" fill-rule="nonzero" d="m10.4 11.34-.45-.26c-.1 1.87.9 2.19 1.65 2.1-.6-.09-1.2-.53-1.2-1.84Z"/><path fill="#FFE15A" fill-rule="nonzero" d="M10.74 11.69a.08.08 0 0 1-.05-.02l-1.26-.79a.08.08 0 1 1 .09-.13l1.26.8a.08.08 0 0 1-.04.14Z"/><path fill="#41479B" fill-rule="nonzero" d="M13.68 9.75a2.46 2.46 0 0 1-.13 2.33 136.6 136.6 0 0 1-.77-1.24l.9-1.09"/><path fill="#F5F5F5" fill-rule="nonzero" d="M13.11 11.38c.13-.27.15-.58 0-.94l.5-.4c.42.74.25 1.29-.17 1.68l-.33-.35Z"/><path fill="#FFE15A" fill-rule="nonzero" d="M12.79 10.9a.08.08 0 0 1-.06-.13l.99-1.27a.08.08 0 0 1 .12.1l-.99 1.27a.08.08 0 0 1-.06.03Z"/><path fill="#41479B" fill-rule="nonzero" d="M14.37 10.97c.31 3.16-2.21 2.37-2.37 2.06l1.58-.8-.32-.62 1.1-.64"/><path fill="#F5F5F5" fill-rule="nonzero" d="m13.6 11.34.45-.27c.1 1.88-.9 2.2-1.65 2.1.6-.08 1.2-.52 1.2-1.83Z"/><path fill="#FFE15A" fill-rule="nonzero" d="M13.26 11.68a.08.08 0 0 1-.04-.14l1.26-.8a.08.08 0 1 1 .09.14l-1.27.8a.08.08 0 0 1-.04 0Z"/><circle cx="12.12" cy="11.25" r="1" fill="#FFE6E6" fill-rule="nonzero"/><circle cx="12.43" cy="11.57" r="1" fill="#F5F5F5" fill-rule="nonzero"/><path fill="#FFE15A" fill-rule="nonzero" d="M12.3 12.16c-.21 0-.38-.04-.38-.08v-.95c0-.04.17-.08.38-.08s.37.04.37.08v.95c0 .04-.17.08-.37.08Z"/><path fill="#5AA0E6" fill-rule="nonzero" d="M14.16 13.01H9.93l.5-.94h3.16z"/><path fill="#FFB750" fill-rule="nonzero" d="M12.13 12.57h1.1l-.34-.6a.17.17 0 0 0-.06-.06l-.12-.07c-.04-.03-.09-.02-.13.03l-.38.45-.07.26Z"/><path fill="#FFC455" fill-rule="nonzero" d="M11.75 12.55h1.32l-.41-.6a.18.18 0 0 0-.07-.06l-.14-.08c-.05-.02-.1 0-.15.03l-.46.45-.09.26Z"/><path fill="#FFCD55" fill-rule="nonzero" d="M11.3 12.51h1.58l-.49-.6a.21.21 0 0 0-.08-.06l-.17-.07a.18.18 0 0 0-.19.03l-.55.44-.1.26Z"/><path fill="#FFD25A" fill-rule="nonzero" d="M10.85 12.48h1.81l-.56-.6a.24.24 0 0 0-.1-.06l-.2-.07a.23.23 0 0 0-.2.03l-.63.44-.12.26Z"/><path fill="#FFE15A" fill-rule="nonzero" d="M10.1 12.55h2.37l-.73-.73a.32.32 0 0 0-.13-.08l-.25-.09a.32.32 0 0 0-.28.04l-.82.55-.16.31Z"/><g fill="#FF4B55" fill-rule="nonzero"><path d="M12.62 11.71h-.75l.17-.75h.26c.09 0 .16.06.18.15l.14.6Z"/><path d="M12.48 12.2h-.57c-.05 0-.1-.14-.1-.32v-.1c0-.18.05-.33.1-.33h.57c.05 0 .09.15.09.32v.11c0 .18-.04.32-.09.32Z"/><path d="m12.64 11.71-.56-.1c-.17-.03-.24-.16-.14-.26l.4-.39.3.75Z"/></g><path fill="#41479B" fill-rule="nonzero" d="M11.6 10.62v.35c.12-.3.25-.48.4-.48.15 0 .28.18.4.48v-.35c-.13-.25-.26-.4-.4-.4s-.27.15-.4.4Z"/><path fill="#5AA0E6" fill-rule="nonzero" d="m11.61 10.58-.01.35c.12-.3.26-.47.4-.48.15 0 .28.18.4.48l-.01-.35c-.12-.25-.25-.4-.39-.4s-.27.15-.39.4Z"/><path fill="#9BC800" fill-rule="nonzero" d="m11.62 10.55-.02.35c.12-.3.26-.48.4-.48s.28.18.4.48l-.02-.35c-.12-.26-.24-.4-.38-.4s-.27.14-.38.4Z"/><path fill="#FFE14E" fill-rule="nonzero" d="m11.62 10.51-.01.35c.12-.3.25-.48.39-.48s.27.18.39.48l-.01-.35c-.12-.26-.24-.4-.38-.4s-.26.14-.38.4Z"/><path fill="#FFB14E" fill-rule="nonzero" d="m11.63 10.47-.02.35c.12-.3.25-.48.39-.48s.27.18.39.48l-.02-.35c-.11-.26-.24-.4-.37-.4s-.26.14-.37.4Z"/><path fill="#FF4B55" fill-rule="nonzero" d="m11.63 10.52-.01.28c.12-.35.24-.56.38-.56s.26.21.38.56v-.28c-.12-.3-.25-.47-.38-.47s-.26.17-.37.47Z"/><g fill="#FFE15A" fill-rule="nonzero"><path d="M14.21 13.1H9.79a.08.08 0 0 1-.07-.12l2.21-3.31c.03-.05.1-.05.14 0l2.2 3.31a.08.08 0 0 1-.06.13Zm-4.27-.15h4.12L12 9.85l-2.06 3.1Zm2.36-3.67c-.21 0-.38-.06-.38-.13v-.5c0-.07.17-.12.38-.12s.37.05.37.12v.5c0 .07-.17.13-.37.13Z"/><path d="M12.39 9.6h-.5c-.07 0-.13-.18-.13-.38s.06-.38.13-.38h.5c.07 0 .12.17.12.38s-.05.37-.12.37Z"/></g><g fill="#41479B" fill-rule="nonzero"><path d="M12.15 14.86h-.03c-.1-.03-.43-.1-.53-.2a.32.32 0 0 1 .23-.55c.08 0 .16.03.22.09.1.1.18.43.2.53a.1.1 0 0 1-.1.13Zm-.33-.55c-.03.01-.06.01-.08.03a.12.12 0 0 0 0 .17.97.97 0 0 0 .26.1.98.98 0 0 0-.1-.27l.07-.07-.07.07a.11.11 0 0 0-.08-.03Z"/><path d="M12.02 14.86a.1.1 0 0 1-.1-.13c.03-.1.1-.43.2-.53a.32.32 0 0 1 .46 0 .32.32 0 0 1 0 .45c-.1.1-.43.18-.53.2a.1.1 0 0 1-.03 0Zm.18-.59.07.07a.98.98 0 0 0-.1.27.99.99 0 0 0 .26-.1.12.12 0 0 0-.08-.2.12.12 0 0 0-.08.03l-.07-.07Zm0 0Z"/><path d="M11.73 15.28c-.07 0-.13-.05-.13-.1 0-.43.55-.63.58-.64.06-.03.13 0 .16.04s0 .1-.05.12c0 0-.43.17-.43.48 0 .05-.06.1-.13.1Z"/><path d="M12.55 15.28c-.07 0-.13-.05-.13-.1 0-.3-.43-.47-.43-.48-.06-.02-.09-.08-.06-.12.04-.05.11-.07.17-.04.03 0 .57.21.57.64 0 .05-.05.1-.12.1Z"/></g><circle cx="12" cy="12" r="11.5" stroke="#FFF"/></g></svg>