<?xml version="1.0" encoding="UTF-8"?>
<svg width="24px" height="24px" viewBox="0 0 24 24" version="1.1" xmlns="http://www.w3.org/2000/svg" xmlns:xlink="http://www.w3.org/1999/xlink">
    <!-- Generator: Sketch 55.1 (78136) - https://sketchapp.com -->
    <title>Flags/bosnia_and_herzegovina</title>
    <desc>Created with Sketch.</desc>
    <g id="Icons" stroke="none" stroke-width="1" fill="none" fill-rule="evenodd">
        <g id="Flags/bosnia_and_herzegovina">
            <g id="bosnia_and_herzegovina" transform="translate(0.000000, -0.000000)">
                <circle id="Oval" fill="#EEEEEE" fill-rule="nonzero" cx="12" cy="11.9533074" r="11.9533074"></circle>
                <path d="M12,-2.66384987e-06 C7.91287992,-0.002724491 4.10814778,2.08459383 1.91439689,5.53307393 L18.12607,22.2163424 C22.7428987,19.4596866 24.9507654,13.9595512 23.5213711,8.77581791 C22.0919768,3.59208465 17.377198,0.000841869354 12,-2.66384987e-06 Z" id="Path" fill="#FFDA44" fill-rule="nonzero"></path>
                <path d="M23.9533178,11.9533074 C23.9572386,8.97433226 22.8443326,6.10210174 20.8342412,3.90350195 L20.8342412,20.0031128 C22.8443326,17.804513 23.9572386,14.9322825 23.9533178,11.9533074 Z M14.9789883,22.5011673 L16.2303502,22.5011673 L16.6178988,21.3058366 L17.0054475,22.4964981 L17.6311284,22.4964981 C18.0167669,22.2914756 18.3908697,22.0654551 18.751751,21.8194553 L2.12918288,5.20622568 C1.85509859,5.60625158 1.6056103,6.02258518 1.38210117,6.45291829 L1.53151751,6.90583658 L2.78287938,6.90583658 L1.77431907,7.64357977 L2.1618677,8.83424125 L1.14863813,8.09649805 L0.541634241,8.54007782 C-0.745021417,12.85019 0.496870952,17.5177072 3.75535279,20.6184887 C7.01383462,23.7192703 11.7371709,24.7282835 15.9782101,23.229572 L14.9789883,22.5011673 Z M2.70817121,11.4350195 L3.09571984,10.244358 L2.08249027,9.50661479 L3.33385214,9.50661479 L3.72140078,8.31595331 L4.10894942,9.50661479 L5.36031128,9.50661479 L4.34708171,10.2396887 L4.73463035,11.4303502 L3.72140078,10.6972763 L2.70817121,11.4350195 Z M5.28560311,14.0311284 L5.67315175,12.8404669 L4.65992218,12.107393 L5.91128405,12.107393 L6.29883268,10.9120623 L6.68638132,12.1027237 L7.93774319,12.1027237 L6.92918288,12.8404669 L7.31673152,14.0311284 L6.30350195,13.2933852 L5.29027237,14.0311284 L5.28560311,14.0311284 Z M7.86303502,16.6319066 L8.25058366,15.4412451 L7.23735409,14.7035019 L8.49805447,14.7035019 L8.88560311,13.5128405 L9.27315175,14.7035019 L10.5245136,14.7035019 L9.51128405,15.4365759 L9.89883268,16.6272374 L8.88560311,15.8941634 L7.87237354,16.6319066 L7.86303502,16.6319066 Z M11.4583658,18.4949416 L10.4451362,19.2280156 L10.8280156,18.0373541 L9.81478599,17.3042802 L11.0708171,17.3042802 L11.4536965,16.1089494 L11.8412451,17.2996109 L13.092607,17.2996109 L12.0933852,18.0373541 L12.4809339,19.2280156 L11.4677043,18.4949416 L11.4583658,18.4949416 Z M13.0225681,21.8287938 L13.4101167,20.6381323 L12.3968872,19.9003891 L13.648249,19.9003891 L14.0357977,18.7097276 L14.4233463,19.9003891 L15.6747082,19.9003891 L14.6614786,20.6381323 L15.0490272,21.8287938 L14.0357977,21.0910506 L13.0225681,21.8287938 L13.0225681,21.8287938 Z" id="Shape" fill="#0052B4" fill-rule="nonzero"></path>
                <circle id="Oval" stroke="#FFFFFF" cx="12" cy="12" r="11.5"></circle>
            </g>
        </g>
    </g>
</svg>