<?xml version="1.0" encoding="UTF-8"?>
<svg width="24px" height="24px" viewBox="0 0 24 24" version="1.1" xmlns="http://www.w3.org/2000/svg" xmlns:xlink="http://www.w3.org/1999/xlink">
    <!-- Generator: Sketch 55.1 (78136) - https://sketchapp.com -->
    <title>Flags/australia</title>
    <desc>Created with Sketch.</desc>
    <g id="Icons" stroke="none" stroke-width="1" fill="none" fill-rule="evenodd">
        <g id="Flags/australia">
            <g id="australia">
                <path d="M23.9,12 C23.9,18.5721885 18.5721885,23.9 12,23.9 C5.42781148,23.9 0.1,18.5721885 0.1,12 L12,0.1 C18.5721885,0.1 23.9,5.42781148 23.9,12 Z" id="Path" fill="#41479B" fill-rule="nonzero"></path>
                <g id="Group" fill="#EEEEEE" fill-rule="nonzero">
                    <polygon id="Path" points="12.235156 12.585156 12.585156 12.585156 12.585156 12.235156"></polygon>
                    <path d="M12.6,6.67125 L12.6,0.2 C5.7516691,0.2 0.2,5.7516691 0.2,12.6 L6.67125,12.6 L6.67125,8.9575 L10.31375,12.6 L12.5660938,12.6 L12.6,12.5660937 L12.6,10.31375 L8.9575,6.67125 L12.6,6.67125 Z" id="Path"></path>
                </g>
                <g id="Group" transform="translate(1.546875, 1.546875)" fill="#D80027" fill-rule="nonzero">
                    <path d="M4.89612393,0.21875 C2.94582448,1.33029762 1.33029762,2.94582448 0.21875,4.89612393 L0.21875,11.053125 L3.47003594,11.053125 L3.47003594,3.47003594 L11.053125,3.47003594 L11.053125,0.21875 L4.89612393,0.21875 Z" id="Path"></path>
                    <polygon id="Path" points="11.053125 9.47370523 6.49011438 4.910937 4.915625 4.910937 11.053125 11.053125"></polygon>
                </g>
                <path d="M7.2375,14.0859375 L7.89375,15.4640625 L9.384375,15.121875 L8.71875,16.4953125 L9.9140625,17.4421875 L8.4234375,17.7796875 L8.428125,19.303125 L7.2375,18.3515625 L6.046875,19.303125 L6.046875,17.7796875 L4.565625,17.4375 L5.7609375,16.490625 L5.0953125,15.1171875 L6.58125,15.459375 L7.2375,14.0859375 Z M17.9671875,16.696875 L18.2953125,17.3859375 L19.040625,17.2125 L18.7078125,17.896875 L19.303125,18.375 L18.5578125,18.5390625 L18.5578125,19.303125 L17.9671875,18.825 L17.371875,19.303125 L17.371875,18.5390625 L16.6265625,18.375 L17.2265625,17.896875 L16.89375,17.2125 L17.6390625,17.3859375 L17.9671875,16.696875 Z M14.9015625,9.3890625 L15.2296875,10.078125 L15.9796875,9.909375 L15.6421875,10.59375 L16.2421875,11.0671875 L15.4921875,11.2359375 L15.496875,12 L14.9015625,11.521875 L14.30625,12 L14.30625,11.2359375 L13.565625,11.0671875 L14.1609375,10.5984375 L13.8328125,9.909375 L14.5734375,10.078125 L14.9015625,9.3890625 Z M17.9671875,5.2171875 L18.2953125,5.90625 L19.040625,5.7328125 L18.703125,6.421875 L19.2984375,6.890625 L18.553125,7.0640625 L18.553125,7.828125 L17.9625,7.35 L17.3671875,7.828125 L17.3671875,7.0640625 L16.621875,6.8953125 L17.221875,6.421875 L16.8890625,5.7328125 L17.634375,5.90625 L17.9671875,5.2171875 Z M20.6390625,8.3484375 L20.9671875,9.0375 L21.7171875,8.8640625 L21.384375,9.553125 L21.9796875,10.021875 L21.234375,10.1953125 L21.234375,10.9546875 L20.64375,10.48125 L20.0484375,10.9546875 L20.0484375,10.1953125 L19.303125,10.0265625 L19.903125,9.553125 L19.5703125,8.8640625 L20.3109375,9.0375 L20.6390625,8.3484375 Z M18.73125,12 L18.99375,12.796875 L19.828125,12.796875 L19.1484375,13.2890625 L19.40625,14.0859375 L18.7265625,13.59375 L18.0515625,14.0859375 L18.309375,13.2890625 L17.6296875,12.796875 L18.4734375,12.796875 L18.73125,12 Z" id="Shape" fill="#EEEEEE" fill-rule="nonzero"></path>
                <circle id="Oval" stroke="#FFFFFF" cx="12" cy="12" r="11.5"></circle>
            </g>
        </g>
    </g>
</svg>