<svg xmlns="http://www.w3.org/2000/svg" width="24" height="24"><g fill="none" fill-rule="evenodd"><g fill-rule="nonzero" transform="translate(.5 .5)"><circle cx="11.455" cy="11.455" r="11.455" fill="#EEE"/><path fill="#D80027" d="M22.195 7.473H.716a11.433 11.433 0 0 0 0 7.965h21.479c.955-2.57.955-5.396 0-7.965Z"/><ellipse cx="5.212" cy="11.5" fill="#F5F5F5" rx="2.831" ry="3.026"/><path fill="#3CC8FF" d="M3.748 10.328h2.928v1.465H3.748z"/><path fill="#FFE15A" d="m4.138 11.161.034.323.131-.297-.068.318.217-.242-.163.281.281-.163-.241.217.317-.068-.297.132.323.033-.323.034.297.131-.317-.068.241.217-.281-.163.163.281-.217-.241.068.317-.131-.297-.034.323-.033-.323-.132.297.068-.317-.217.241.163-.281-.281.163.242-.217-.318.068.297-.131-.323-.034.323-.033-.297-.132.318.068-.242-.217.281.163-.163-.281.217.242-.068-.318.132.297z"/><path fill="#41479B" d="M5.798 13.843H4.626l-1.073-.879v-1.269h3.416v1.269z"/><path fill="#73AF00" d="M6.384 11.305a.049.049 0 0 0-.098 0c0 .17-.098.404-.219.571a1.324 1.324 0 0 1-.255-.613.11.11 0 0 0-.217.002c-.075.478-.3.682-.447.765-.219-.211-.29-.553-.315-.756a.114.114 0 0 0-.221-.02 1.47 1.47 0 0 1-1.157 1.027v.293h3.417v-.488c-.39-.098-.488-.781-.488-.781Z"/><g fill="#F0AA00"><path d="M6.872 10.426c-.39-.195-.39-.39-.39-.39s-.489-.196-.88-.196c0 0 .098-.195-.097-.195h-.586c-.195 0-.097.195-.097.195-.39 0-.879.196-.879.196s0 .195-.39.39c-.391.195-.391.635-.391.635a.146.146 0 1 0 .284-.048l.009-.001.976-.683h1.562l.976.683.009.001a.146.146 0 1 0 .284.047s0-.439-.39-.634Z"/><path d="M7.165 11.598c-.098 0-.39 0-.39-.293s.39-.293.39-.293l-.586-.195c-.195.683.195.683.195 1.562 0 .787-.878 1.269-1.171 1.269-.293 0-.39.195-.39.195s-.098-.195-.391-.195c-.293 0-1.172-.482-1.172-1.27 0-.878.39-.878.195-1.561l-.585.195s.39 0 .39.293-.293.293-.39.293c-.098 0-.488 0-.488.488s.488 1.074 1.171 1.464c.683.39.39.781 1.27.781.878 0 .585-.39 1.268-.78.684-.391 1.172-.977 1.172-1.465 0-.488-.39-.488-.488-.488Z"/></g><g fill="#73AF00"><path d="m5.017 10.104-.236-.132a.16.16 0 0 0-.125-.015c-.152.044-.53.188-.81.59l.292.122.879-.565ZM5.407 10.104l.237-.132a.16.16 0 0 1 .124-.015c.152.044.53.188.81.59l-.292.122-.879-.565Z"/><path d="m5.408 10.275.292-.291a.04.04 0 0 0-.057-.057l-.291.292-.291-.292a.04.04 0 0 0-.057.057l.291.291-.29.291a.04.04 0 0 0 .056.057l.29-.291.292.29a.04.04 0 0 0 .057 0 .04.04 0 0 0 0-.056l-.292-.29Z"/></g><path fill="#F5F5F5" d="M7.165 11.012c0-.166-.157-.238-.293-.27v-.076c-.184-.018-.287-.087-.465-.208a5.25 5.25 0 0 0-.24-.157c-.343-.209-.607-.239-.76-.231v.16h-.39v-.16c-.152-.008-.416.022-.76.231a5.25 5.25 0 0 0-.24.157c-.178.121-.28.19-.464.208v.077c-.136.031-.293.103-.293.269l.293-.098v.045c.277-.02.435-.127.629-.259.066-.045.14-.096.228-.149.223-.135.396-.177.51-.187v.16h.585v-.16c.114.01.287.052.51.187.087.053.162.104.227.149.194.132.353.238.63.259v-.045l.293.098Z"/><path fill="#3CC8FF" d="M6.384 9.473v-.12h-.272c.047-.041.076-.09.076-.147 0-.27-.613-.342-.976-.342-.362 0-.976.072-.976.342 0 .057.03.106.077.146H4.04v.121a1.474 1.474 0 0 0-.445.189l.108.162c.003-.002.272-.179.532-.179v-.097h1.952v.097c.26 0 .53.177.532.179l.108-.162a1.472 1.472 0 0 0-.444-.189Zm-.781-.148v-.074a.073.073 0 0 0-.092-.071l-.299.075-.299-.075a.073.073 0 0 0-.091.071v.074c-.22-.032-.35-.086-.385-.12.053-.05.312-.146.775-.146.464 0 .722.097.775.147-.035.033-.165.087-.384.12Z"/><g fill="#F5F5F5"><path d="m5.48 10.581.072.227.227.001c.03 0 .042.04.018.058l-.183.142.069.227c.009.03-.023.054-.047.036l-.186-.139-.185.139c-.024.018-.056-.006-.047-.036l.069-.227-.184-.142c-.023-.018-.011-.057.018-.058l.228-.001.072-.227a.03.03 0 0 1 .058 0Z"/><path d="m5.08 10.607.095.212.228-.023c.03-.003.045.034.024.055l-.17.156.092.213c.012.028-.017.055-.043.04l-.2-.114-.17.154c-.023.02-.057 0-.051-.03l.046-.227-.198-.118c-.025-.015-.017-.055.012-.058l.228-.026.049-.227c.006-.03.046-.034.058-.007Z"/><path d="m4.652 10.723.143.182.227-.07c.029-.01.053.022.036.046l-.137.187.14.184c.019.024-.006.056-.035.047l-.227-.066-.14.184c-.018.024-.057.012-.058-.018l-.004-.227-.226-.07a.03.03 0 0 1 0-.058l.224-.074v-.228c0-.03.039-.042.057-.019Z"/><path d="m4.217 10.911.162.164.208-.1c.027-.013.055.016.041.043l-.106.204.16.166c.02.021.002.057-.028.052l-.228-.038-.11.202c-.013.027-.053.02-.057-.01l-.035-.227-.227-.041a.03.03 0 0 1-.008-.058l.206-.103-.03-.228c-.005-.03.031-.047.052-.026ZM5.822 10.607l-.095.212-.228-.023c-.03-.003-.045.034-.024.055l.17.156-.092.213c-.012.028.017.055.043.04l.2-.114.17.154c.023.02.057 0 .051-.03l-.046-.227.198-.118c.025-.015.017-.055-.012-.058l-.228-.026-.049-.227c-.006-.03-.046-.034-.058-.007Z"/><path d="m6.259 10.723-.143.182-.226-.07c-.03-.01-.054.022-.037.046l.137.187-.14.184c-.018.024.006.056.035.047l.227-.066.14.184c.018.024.057.012.058-.018l.004-.227.226-.07a.03.03 0 0 0 0-.058l-.224-.074v-.228c0-.03-.039-.042-.057-.019Z"/><path d="m6.687 10.911-.162.164-.208-.1c-.027-.013-.055.016-.041.043l.106.204-.16.166c-.02.021-.001.057.028.052l.228-.038.11.202c.013.027.053.02.057-.01l.035-.227.227-.041a.03.03 0 0 0 .008-.058l-.206-.103.03-.228c.005-.03-.031-.047-.052-.026Z"/></g><path fill="#8C5A28" d="m4.538 12.903.497.719h.601l.278-.514-.214.184h-.707z"/><path fill="#F5F5F5" d="m5.329 12.474-.13.719-.589-.124s.271-.346.719-.595Z"/><g fill="#8C5A28"><path d="M5.33 12.283h.516v.824H5.33z"/><path d="M5.648 12.352h.517v.755h-.517zM5.012 12.352h.517v.755h-.517z"/></g><g fill="#F5F5F5"><path d="M5.849 13.573h-.602c-.033 0-.059-.04-.059-.09v-.537c0-.05.026-.091.059-.091h.602c.032 0 .058.04.058.09v.537c0 .05-.026.091-.058.091Z"/><path d="M5.849 13.341h-.602c-.033 0-.059-.04-.059-.09v-.537c0-.05.026-.091.059-.091h.602c.032 0 .058.04.058.09v.537c0 .05-.026.091-.058.091Z"/><path d="M5.849 13.128h-.602c-.033 0-.059-.041-.059-.091V12.5c0-.05.026-.09.059-.09h.602c.032 0 .058.04.058.09v.537c0 .05-.026.09-.058.09Z"/><path d="M6.156 13.573h-.583c-.038 0-.068-.04-.068-.09v-.537c0-.05.03-.091.068-.091h.583c.038 0 .068.04.068.09v.537c0 .05-.03.091-.068.091Z"/><path d="M6.156 13.387h-.583c-.038 0-.068-.048-.068-.108v-.503c0-.06.03-.108.068-.108h.583c.038 0 .068.049.068.108v.503c0 .06-.03.108-.068.108Z"/><path d="M6.156 13.199h-.583c-.038 0-.068-.058-.068-.129v-.46c0-.072.03-.13.068-.13h.583c.038 0 .068.058.068.13v.46c0 .072-.03.129-.068.129Z"/><path d="M5.56 13.573h-.584c-.037 0-.067-.04-.067-.09v-.537c0-.05.03-.091.067-.091h.584c.037 0 .067.04.067.09v.537c0 .05-.03.091-.067.091Z"/><path d="M5.56 13.387h-.584c-.037 0-.067-.048-.067-.108v-.503c0-.06.03-.108.067-.108h.584c.037 0 .067.049.067.108v.503c0 .06-.03.108-.067.108Z"/><path d="M5.56 13.199h-.584c-.037 0-.067-.058-.067-.129v-.46c0-.072.03-.13.067-.13h.584c.037 0 .067.058.067.13v.46c0 .072-.03.129-.067.129Z"/><path d="M5.043 12.353v.718l.718-.366z"/><path d="M5.639 12.353v.718l.718-.366z"/><path d="M5.34 12.283V13l.719-.366z"/></g><path fill="#8C5A28" d="m4.958 11.623.26.719h.314l.145-.514-.111.184h-.37z"/><path fill="#F5F5F5" d="m5.702 11.474-.13.72-.588-.125s.27-.346.718-.595Z"/><g fill="#8C5A28"><path d="M5.4 11.45h.18v.72H5.4zM5.677 11.5h.18v.718h-.18zM5.123 11.5h.18v.718h-.18z"/></g><g fill="#F5F5F5"><path d="M5.845 12.325h-.602c-.032 0-.059-.04-.059-.091v-.536c0-.05.026-.092.059-.092h.602c.032 0 .058.041.058.092v.536c0 .05-.026.091-.058.091Z"/><path d="M5.845 12.245h-.602c-.032 0-.059-.04-.059-.092v-.536c0-.05.026-.091.059-.091h.602c.032 0 .058.04.058.091v.536c0 .051-.026.092-.058.092Z"/><path d="M5.845 12.17h-.602c-.032 0-.059-.04-.059-.09v-.537c0-.05.026-.091.059-.091h.602c.032 0 .058.04.058.091v.536c0 .05-.026.091-.058.091Z"/><path d="M5.946 12.325h-.584c-.037 0-.068-.04-.068-.091v-.536c0-.05.03-.092.068-.092h.584c.037 0 .067.041.067.092v.536c0 .05-.03.091-.067.091Z"/><path d="M5.946 12.26h-.584c-.037 0-.068-.048-.068-.108v-.502c0-.06.03-.108.068-.108h.584c.037 0 .067.048.067.108v.502c0 .06-.03.109-.067.109Z"/><path d="M5.946 12.161h-.584c-.037 0-.068-.054-.068-.123V11.6c0-.067.03-.123.068-.123h.584c.037 0 .067.055.067.123v.44c0 .068-.03.122-.067.122Z"/><path d="M5.738 12.325h-.583c-.037 0-.068-.04-.068-.091v-.536c0-.05.03-.092.068-.092h.583c.037 0 .068.041.068.092v.536c0 .05-.03.091-.068.091Z"/><path d="M5.738 12.26h-.583c-.037 0-.068-.048-.068-.108v-.502c0-.06.03-.108.068-.108h.583c.037 0 .068.048.068.108v.502c0 .06-.03.109-.068.109Z"/><path d="M5.738 12.161h-.583c-.037 0-.068-.054-.068-.123V11.6c0-.067.03-.123.068-.123h.583c.037 0 .068.055.068.123v.44c0 .068-.03.122-.068.122Z"/><path d="M5.133 11.432v.542l.72-.276z"/><path d="M5.34 11.432v.542l.72-.276z"/><path d="M5.237 11.408v.542l.718-.276z"/><path d="M5.224 11.662h-.476c-.067 0-.122-.096-.122-.213v-.292c0-.118.055-.214.122-.214h.476c.067 0 .121.096.121.214v.292c0 .117-.054.213-.12.213ZM6.21 11.662h-.435c-.078 0-.142-.096-.142-.213v-.292c0-.118.064-.214.142-.214h.435c.078 0 .142.096.142.214v.292c0 .118-.064.213-.142.213Z"/><path d="M6.87 11.85h-.477c-.067 0-.12-.088-.12-.197v-.324c0-.11.053-.197.12-.197h.478c.066 0 .12.088.12.197v.324c0 .109-.054.197-.12.197Z"/></g><path fill="#0052B4" d="M11.455 0a11.428 11.428 0 0 0-8.68 3.983h17.361A11.41 11.41 0 0 0 11.456 0Zm8.681 18.928H2.774a11.42 11.42 0 0 0 8.681 3.983 11.42 11.42 0 0 0 8.681-3.983Z"/></g><circle cx="12" cy="12" r="11.5" stroke="#FFF"/></g></svg>