<svg xmlns="http://www.w3.org/2000/svg" width="24" height="24"><g fill="none" fill-rule="evenodd"><path fill="#FF4B55" fill-rule="nonzero" d="M1.802 17.993h20.496c-1.956 3.265-5.544 5.508-9.689 5.694h-1.118c-4.145-.186-7.733-2.429-9.69-5.694Z"/><path fill="#FFE15A" fill-rule="nonzero" d="M11.437.213h1.126C18.873.504 23.9 5.67 23.9 12H.1C.1 5.67 5.126.504 11.437.213Z"/><path fill="#41479B" fill-rule="nonzero" d="M23.8 12a12.1 12.1 0 0 1-1.575 5.993H1.775A12.1 12.1 0 0 1 .2 12h23.6Z"/><path fill="#FFE15A" fill-rule="nonzero" d="m11.568 14.307 3.023-2.59v3.75a1.144 1.144 0 0 1-1.91.85l-1.113-1.002v-1.008Z"/><path fill="#FF4B55" fill-rule="nonzero" d="m13.163 15.782-.875-.788v-1.303l1.583-1.358v3.133a.425.425 0 0 1-.708.316Z"/><path fill="#41479B" fill-rule="nonzero" d="M12.72 13.32v1.483l.72.65v-2.75l.431-.37v3.133a.425.425 0 0 1-.709.316l-.874-.788v-1.303l.432-.37Z"/><path fill="#FFE15A" fill-rule="nonzero" d="m12.432 14.307-3.023-2.59v3.75a1.144 1.144 0 0 0 1.91.85l1.113-1.002v-1.008Z"/><path fill="#FF4B55" fill-rule="nonzero" d="m10.837 15.782.875-.788v-1.303l-1.583-1.358v3.133a.425.425 0 0 0 .708.316Z"/><g fill="#41479B" fill-rule="nonzero"><path d="M11.28 13.32v1.483l-.72.65v-2.75l-.431-.37v3.133a.425.425 0 0 0 .709.316l.874-.788v-1.303l-.432-.37ZM14.486 11.73h.75v1.24h-.75zM9.305 11.73h.75v1.24h-.75z"/></g><g fill="#5A4646" fill-rule="nonzero"><path d="M11.568 11.141s.288-1.367-.72-1.187c-1.007.18-1.007.467-2.158 1.043 0 0 1.295.288 1.87.144 0 0 .433.576.864.72h.432l-.288-.72ZM12.432 11.141s-.288-1.367.72-1.187c1.007.18 1.007.467 2.158 1.043 0 0-1.295.288-1.87.144 0 0-.433.576-.864.72h-.432l.288-.72Z"/><path d="M12.432 11.86h-.864v-.724c0-.236.191-.427.427-.427h.01c.236 0 .427.191.427.427v.725Z"/></g><circle cx="12.462" cy="11.603" r="1" fill="#E6E1CD" fill-rule="nonzero"/><path fill="#FFD0AF" fill-rule="nonzero" d="m11.382 11.045.57.395c.047.033.106.022.144-.028a.195.195 0 0 0 0-.226l-.367-.477h-.088c-.143 0-.259.15-.259.336Z"/><path fill="#FFAF94" fill-rule="nonzero" d="M11.701 11.46h-.565l.248-.58c.046-.108.114-.17.185-.17h.317v.379c0 .204-.083.37-.185.37Z"/><g fill="#8CB400" fill-rule="nonzero"><path d="M13.227 11.861a.407.407 0 0 1-.07-.4.401.401 0 0 1 .466.478c.029.049.064.111.103.186.002-.011.001-.021.004-.032a.335.335 0 0 1 .241-.232.33.33 0 0 1-.113.539c.036.082.071.172.105.266l.004-.016a.334.334 0 0 1 .265-.205.33.33 0 0 1-.177.525c.05.197.083.407.083.618h-.144c0-.184-.028-.368-.07-.544a.327.327 0 0 1-.432-.322.331.331 0 0 1 .331.008l.01.008a3.907 3.907 0 0 0-.097-.252.327.327 0 0 1-.47-.269.331.331 0 0 1 .33-.029 4.255 4.255 0 0 0-.104-.188.4.4 0 0 1-.265-.139ZM10.773 11.861a.407.407 0 0 0 .07-.4.401.401 0 0 0-.466.478 4.23 4.23 0 0 0-.103.186c-.002-.011-.001-.021-.004-.032a.335.335 0 0 0-.241-.232.33.33 0 0 0 .113.539 4.026 4.026 0 0 0-.105.266l-.004-.016a.334.334 0 0 0-.265-.205.33.33 0 0 0 .177.525 2.53 2.53 0 0 0-.083.618h.144c0-.184.028-.368.07-.544a.327.327 0 0 0 .432-.322.331.331 0 0 0-.331.008l-.01.008c.03-.089.063-.173.097-.252a.327.327 0 0 0 .47-.269.331.331 0 0 0-.33-.029c.04-.076.076-.14.104-.188a.4.4 0 0 0 .265-.139Z"/></g><path fill="#FFE15A" fill-rule="nonzero" d="m12 15.027-3.023-2.59v3.749a1.144 1.144 0 0 0 1.91.85L12 16.035v-1.008Z"/><path fill="#FF4B55" fill-rule="nonzero" d="m10.406 16.501.874-.787V14.41l-1.583-1.357v3.133a.425.425 0 0 0 .709.315Z"/><path fill="#41479B" fill-rule="nonzero" d="M10.849 14.04v1.482l-.72.65v-2.749l-.432-.37v3.133a.425.425 0 0 0 .709.315l.874-.787V14.41l-.431-.37Z"/><path fill="#FFE15A" fill-rule="nonzero" d="m12 15.027 3.023-2.59v3.749a1.144 1.144 0 0 1-1.91.85L12 16.035v-1.008Z"/><path fill="#FF4B55" fill-rule="nonzero" d="m13.594 16.501-.874-.787V14.41l1.583-1.357v3.133a.425.425 0 0 1-.709.315Z"/><path fill="#41479B" fill-rule="nonzero" d="M13.151 14.04v1.482l.72.65v-2.749l.432-.37v3.133a.425.425 0 0 1-.709.315l-.874-.787V14.41l.431-.37Z"/><ellipse cx="12" cy="14.019" fill="#69C3FF" fill-rule="nonzero" rx="1.439" ry="2.159"/><path fill="#009B64" fill-rule="nonzero" d="M10.705 14.595h2.59l.144-.575-.656.109a.45.45 0 0 1-.367-.103l-.745-.638a.367.367 0 0 0-.499.02l-.467.468v.72Z"/><path fill="#F5F5F5" fill-rule="nonzero" d="m11.863 13.95.248-.165-.44-.393a.358.358 0 0 0-.239-.092.36.36 0 0 0-.26.112l-.467.488v.15l.72-.15.127.066c.1.052.218.046.311-.017Z"/><path fill="#5AA0E6" fill-rule="nonzero" d="m10.705 14.595.144.864.719.719H12l.576-.143.575-.576.144-.864z"/><path fill="#FFC88C" fill-rule="nonzero" d="M12 16.322c-.873 0-1.583-1.033-1.583-2.302 0-1.27.71-2.303 1.583-2.303s1.583 1.033 1.583 2.303-.71 2.302-1.583 2.302Zm0-4.317c-.714 0-1.295.903-1.295 2.014 0 1.112.58 2.015 1.295 2.015.714 0 1.295-.903 1.295-2.015 0-1.11-.58-2.014-1.295-2.014Z"/><g fill="#E1E1E1" fill-rule="nonzero"><path d="M10.985 16.166a.625.625 0 0 0-.504-.275.625.625 0 0 0-.504.275.695.695 0 0 1 .454.444c.032.089.05.186.05.288 0-.356.215-.652.504-.732Z"/><path d="M11.122 16.625s-.038.505-.368.741l-.014-.009c-.33-.236-.368-.74-.368-.74l.75.008Z"/></g><path fill="#966446" fill-rule="nonzero" d="M13.8 17.288h-3.6c-.04 0-.071-.166-.071-.37v-.01c0-.204.032-.37.071-.37h3.6c.04 0 .071.166.071.37v.01c0 .204-.032.37-.071.37Z"/><path fill="#BE915A" fill-rule="nonzero" d="M12.723 17.072h-1.446c-.157 0-.284-.165-.284-.37v-.01c0-.204.127-.37.284-.37h1.446c.157 0 .284.166.284.37v.01c0 .205-.127.37-.284.37Z"/><path fill="#B9B9B9" fill-rule="nonzero" d="M10.879 16.538h-.656c-.052 0-.094.168-.094.375s.042.375.094.375h.656v-.75Z"/><path fill="#FF4B55" fill-rule="nonzero" d="M12.174 16.898v1.315l-.75-.163.375-1.152z"/><path fill="#41479B" fill-rule="nonzero" d="m11.856 16.898-.288 1.008-.575-.144.431-.864z"/><path fill="#FFE15A" fill-rule="nonzero" d="m11.299 16.898-.45.6.45.15.3-.75z"/><path fill="#FF4B55" fill-rule="nonzero" d="M12 16.898v1.315l.75-.163-.375-1.152z"/><path fill="#41479B" fill-rule="nonzero" d="m12.144 16.898.288 1.008.575-.144-.431-.864z"/><path fill="#FFE15A" fill-rule="nonzero" d="m12.732 16.898.45.6-.45.15-.3-.75z"/><g fill="#41479B" fill-rule="nonzero"><path d="m9.624 13.676-.75-.208v-1.032h.75zM15.667 13.468l-.75.208v-1.24h.75z"/></g><circle cx="12" cy="12" r="11.5" stroke="#FFF"/></g></svg>