<svg xmlns="http://www.w3.org/2000/svg" width="24" height="24"><g fill="none" fill-rule="evenodd"><g fill-rule="nonzero"><path fill="#82C3D2" d="M12 23.5a11.5 11.5 0 1 1 0-23 11.5 11.5 0 0 1 0 23Z"/><path fill="#FFE15A" d="m.85 7.54.18-.42v.01c0 .21.12.4.3.45a.44.44 0 0 0 .4-.07.43.43 0 0 0 .17-.34c0-.18-.11-.23-.16-.25-.08-.03-.15-.01-.17.02-.02.02-.02.09.05.2a.14.14 0 1 1-.24.15c-.18-.29-.09-.47-.04-.53.1-.13.3-.18.5-.11a.51.51 0 0 1 .06.02v-.36a.14.14 0 0 1-.15.14.15.15 0 0 1-.14-.15c0-.1.06-.26.29-.3v-.28a.14.14 0 1 1 .29 0V6c.22.05.28.22.28.31a.14.14 0 0 1-.29 0v.37a.51.51 0 0 1 .07-.02c.19-.07.38-.02.49.1.05.07.15.25-.04.54a.14.14 0 1 1-.24-.15c.07-.11.07-.18.05-.2-.02-.03-.1-.05-.17-.02-.04.02-.16.07-.16.25 0 .13.07.26.18.34a.44.44 0 0 0 .4.07c.17-.06.29-.24.29-.44 0-.15-.03-.3-.1-.44l-.73-1.66.2-.26.8 1.8c.08.18.12.36.12.55a.77.77 0 0 1-.29.61.77.77 0 0 1 .29.6c0 .2-.04.39-.12.56l-.94 2.12c-.06.14-.1.29-.1.44 0 .2.12.39.3.44a.44.44 0 0 0 .4-.06.43.43 0 0 0 .17-.35c0-.17-.11-.23-.16-.25-.07-.02-.14 0-.17.02-.02.02-.01.1.06.2a.14.14 0 1 1-.25.15c-.18-.28-.08-.46-.03-.53.1-.13.29-.17.48-.11-.07-.26-.12-.5.11-.74a.14.14 0 1 1 .2.2c-.11.12-.1.22-.03.48.03.15.08.34.08.58a.72.72 0 0 1-.15.43.14.14 0 1 1 0 .29.72.72 0 0 1 .15.43c0 .24-.05.43-.08.59-.06.25-.08.35.04.46a.14.14 0 1 1-.2.2c-.24-.23-.19-.47-.13-.73-.18.06-.37.02-.47-.11-.05-.06-.15-.25.03-.53a.14.14 0 1 1 .25.15c-.07.1-.08.18-.06.2.03.03.1.05.17.02.05-.02.16-.07.16-.25a.43.43 0 0 0-.18-.35.44.44 0 0 0-.4-.06c-.16.05-.28.24-.28.44 0 .15.03.3.09.44l.94 2.12c.08.17.12.36.12.55a.77.77 0 0 1-.29.6.77.77 0 0 1 .29.62c0 .19-.04.37-.12.55l-.77 1.72a12.04 12.04 0 0 1-.2-.26l.7-1.58c.07-.14.1-.29.1-.43 0-.21-.12-.4-.3-.45a.44.44 0 0 0-.39.07.43.43 0 0 0-.17.34c0 .18.1.23.15.25.08.03.15.01.17-.02.02-.02.02-.09-.05-.2a.14.14 0 1 1 .24-.15c.19.29.09.47.04.53-.1.13-.3.18-.5.11a.51.51 0 0 1-.05-.02v.36c0-.08.06-.14.14-.14.08 0 .14.07.14.15 0 .1-.06.26-.28.3v.28a.14.14 0 1 1-.3 0v-.27c-.22-.05-.28-.22-.28-.31a.14.14 0 0 1 .29 0v-.37a.51.51 0 0 1-.07.02c-.18.07-.38.02-.49-.1-.05-.07-.15-.25.04-.54a.14.14 0 1 1 .24.15c-.07.11-.07.18-.05.2.02.03.1.05.17.02.05-.02.16-.07.16-.25a.43.43 0 0 0-.18-.34.44.44 0 0 0-.4-.07.43.43 0 0 0-.28.35 11.93 11.93 0 0 1-.15-.36.72.72 0 0 1 .14-.15.77.77 0 0 1-.29-.6c0-.2.04-.39.12-.56l.95-2.12c.06-.14.09-.29.09-.44 0-.2-.12-.39-.3-.44a.44.44 0 0 0-.4.06.43.43 0 0 0-.17.35c0 .17.11.23.16.25.08.02.15 0 .17-.02.02-.02.02-.1-.05-.2a.14.14 0 1 1 .24-.15c.18.28.09.47.04.53-.1.13-.3.17-.48.11.06.26.11.5-.12.74a.14.14 0 0 1-.2 0 .14.14 0 0 1 0-.2c.11-.12.1-.22.04-.48a2.42 2.42 0 0 1-.09-.58.72.72 0 0 1 .15-.43.14.14 0 1 1 0-.29.72.72 0 0 1-.15-.43c0-.24.05-.43.09-.59.06-.25.07-.35-.04-.46a.14.14 0 1 1 .2-.2c.23.23.18.47.12.73.18-.06.37-.02.47.11.05.06.15.25-.03.53a.14.14 0 1 1-.24-.15c.07-.1.07-.18.05-.2-.02-.03-.1-.05-.17-.02-.05.02-.16.07-.16.25 0 .14.07.26.18.35a.44.44 0 0 0 .4.06c.17-.05.29-.24.29-.44 0-.15-.03-.3-.1-.44L.86 8.9a1.35 1.35 0 0 1-.12-.55.77.77 0 0 1 .3-.6.73.73 0 0 1-.18-.2ZM3.33 20.3a12.07 12.07 0 0 1-.6-.7.5.5 0 0 1 .25.02c-.06-.25-.11-.5.12-.73a.14.14 0 1 1 .2.2c-.11.12-.1.21-.03.47.03.16.08.35.08.58a.71.71 0 0 1-.02.16ZM3.05 4l.24-.27c.03.08.05.17.05.25 0 .24-.05.43-.08.59-.06.26-.08.35.04.47a.14.14 0 1 1-.2.2c-.24-.23-.19-.48-.13-.73a.48.48 0 0 1-.34-.02l.2-.25a.24.24 0 0 0 .06 0c.05-.02.15-.08.16-.24Zm-1 3.58a.71.71 0 0 1-.15.15.71.71 0 0 1 .14.15.71.71 0 0 1 .15-.15.71.71 0 0 1-.15-.15Zm0 8.65a.71.71 0 0 1-.15.15.71.71 0 0 1 .14.15.71.71 0 0 1 .15-.15.71.71 0 0 1-.15-.15Zm.9-.9-.9-2.05-.93 2.06c-.06.13-.09.28-.09.43 0 .2.12.39.3.44a.44.44 0 0 0 .4-.06.43.43 0 0 0 .17-.35c0-.17-.11-.23-.16-.25-.08-.02-.15 0-.17.02-.02.03-.02.1.05.2a.14.14 0 1 1-.24.16c-.19-.3-.09-.47-.04-.54.1-.13.3-.17.5-.1a.51.51 0 0 1 .06.02v-.36a.14.14 0 0 1-.15.14.15.15 0 0 1-.14-.15c0-.1.06-.26.29-.31v-.27a.14.14 0 1 1 .28 0v.27c.23.05.3.21.3.3a.14.14 0 0 1-.3.02v.36a.51.51 0 0 1 .07-.03c.19-.06.38-.02.49.11.05.07.15.25-.04.54a.14.14 0 1 1-.24-.16c.07-.1.07-.17.05-.2-.02-.03-.1-.04-.17-.02-.04.02-.16.08-.16.25 0 .14.07.27.18.35a.44.44 0 0 0 .4.06c.17-.05.29-.23.29-.44 0-.15-.03-.3-.1-.43Zm-.77-3.27a.71.71 0 0 1-.14-.15.71.71 0 0 1-.14.15.71.71 0 0 1 .14.15.71.71 0 0 1 .14-.15Zm.78-3.29c.06-.13.09-.28.09-.43 0-.2-.12-.39-.3-.44a.44.44 0 0 0-.39.06.43.43 0 0 0-.17.35c0 .17.1.23.15.25.08.02.15 0 .17-.02.02-.03.02-.1-.05-.2a.14.14 0 1 1 .24-.16c.19.3.09.47.04.54-.1.13-.3.17-.5.1a.51.51 0 0 1-.06-.02v.36c0-.08.07-.14.15-.14.08 0 .14.07.14.15 0 .1-.06.26-.28.31v.27a.14.14 0 1 1-.3 0v-.27c-.22-.05-.28-.21-.28-.3a.14.14 0 0 1 .29-.01V8.8a.51.51 0 0 1-.07.03c-.19.06-.38.02-.49-.11-.05-.07-.15-.25.04-.54a.14.14 0 1 1 .24.16c-.07.1-.07.17-.05.2.02.03.1.04.17.02.05-.02.16-.08.16-.25a.43.43 0 0 0-.18-.35.44.44 0 0 0-.4-.06c-.17.05-.29.23-.29.44 0 .15.03.3.1.43l.91 2.07.92-2.07Z"/><circle cx="12.67" cy="10.68" r="2.74" fill="#FFE15A"/><path fill="#FFE15A" d="M13.21 7.2c0 .1-.16.2-.37.2s-.38-.1-.38-.2c0-.12.38-.62.38-.62s.38.5.38.61Zm-.75 6.97c0-.11.17-.2.38-.2s.38.09.38.2c0 .11-.38.61-.38.61s-.38-.5-.38-.61Zm3.7-2.94c-.11 0-.2-.17-.2-.38s.09-.37.2-.37c.11 0 .61.37.61.37s-.5.38-.61.38Zm-6.98-.75c.12 0 .2.16.2.37s-.09.38-.2.38c-.11 0-.61-.38-.61-.38s.5-.37.61-.37Zm6.16-2.02a.24.24 0 0 1-.34-.34c.1-.1.68-.34.68-.34s-.24.58-.34.68ZM10.11 13a.24.24 0 0 1 .34.34c-.1.1-.68.34-.68.34s.24-.58.34-.68Zm4.9.34a.24.24 0 0 1 .33-.34c.1.1.34.68.34.68s-.58-.24-.68-.34Zm-4.56-5.23a.24.24 0 0 1-.34.34c-.1-.1-.34-.68-.34-.68s.58.24.68.34Zm1.37-.74c.08.1 0 .22-.19.27-.17.04-.38 0-.45-.11-.08-.1-.08-.65-.08-.65s.65.39.72.49Zm2 6.6c-.07-.1.02-.22.2-.27.17-.04.38.01.45.11.07.11.08.65.08.65s-.65-.38-.72-.49Zm2.15-4.15c-.1.08-.22 0-.27-.19-.04-.17.01-.38.11-.45s.65-.08.65-.08-.38.65-.49.72Zm-6.6 2c.1-.07.22.02.27.2.04.17 0 .38-.11.45-.1.08-.65.08-.65.08s.38-.65.49-.72Zm5.1-4.3c-.07.11-.28.16-.46.12-.17-.05-.26-.17-.18-.27.07-.1.72-.49.72-.49s0 .54-.08.65Zm-3.3 6.3c.08-.11.29-.16.46-.12.18.05.27.17.2.27-.08.1-.73.5-.73.5s0-.55.08-.66Zm4.64-1.35c-.1-.07-.15-.28-.1-.45.04-.18.16-.27.26-.2.1.08.5.73.5.73s-.55 0-.66-.08Zm-6.28-3.3c.1.08.15.29.1.47-.04.17-.16.26-.26.18-.1-.07-.5-.72-.5-.72s.55 0 .66.08Z"/><path fill="#FFE15A" d="M12.53 7.22c.04.11-.1.22-.3.24-.2.02-.4-.05-.44-.16-.04-.11.15-.64.15-.64s.55.45.59.56Zm.62 6.92c-.04-.1.1-.22.3-.24.2-.02.4.05.44.16.04.11-.15.65-.15.65s-.55-.46-.59-.57Zm2.98-3.6c-.1.04-.22-.1-.24-.3-.02-.2.05-.4.16-.44.11-.04.65.15.65.15s-.46.55-.57.59Zm-6.92.62c.11-.04.22.1.24.3.02.2-.05.4-.16.44-.11.04-.64-.15-.64-.15s.45-.55.56-.59Zm5.7-3.24c-.08.1-.25.13-.38.06-.13-.06-.17-.2-.08-.3.09-.1.7-.41.7-.41s-.15.55-.23.65Zm-4.29 5.55c.1-.1.27-.12.4-.06.13.07.16.2.07.3-.08.1-.7.42-.7.42s.15-.56.23-.66Zm4.84-.54c-.1-.09-.12-.26-.06-.4.07-.12.2-.15.3-.07.1.09.42.7.42.7s-.56-.14-.66-.23Zm-5.55-4.3c.1.1.13.27.06.4-.06.13-.2.16-.3.07-.1-.08-.41-.7-.41-.7s.55.15.65.24Zm1.18-.95c.09.1.05.24-.07.3-.13.07-.3.04-.4-.06-.08-.1-.23-.65-.23-.65s.62.32.7.41Zm3.36 6.03c-.09-.1-.05-.23.08-.3.13-.06.3-.04.39.06.08.1.23.66.23.66s-.61-.32-.7-.42Zm1.25-4.6c-.1.08-.23.05-.3-.08-.06-.13-.04-.3.06-.4.1-.08.65-.23.65-.23s-.31.62-.41.7Zm-6.03 3.35c.1-.09.24-.05.3.08.07.13.04.3-.06.39-.1.09-.65.23-.65.23s.32-.61.41-.7ZM13.9 7.3c-.04.11-.24.18-.44.16-.2-.02-.34-.13-.3-.24.04-.11.6-.56.6-.56s.18.53.14.64Zm-2.1 6.76c.04-.1.24-.18.44-.16.2.02.34.13.3.24-.04.11-.59.57-.59.57s-.19-.54-.15-.65Zm4.26-2.16c-.1-.04-.18-.24-.16-.44.02-.2.13-.34.24-.3.11.04.57.6.57.6s-.54.18-.65.14ZM9.3 9.8c.11.04.18.24.16.44-.02.2-.13.34-.24.3-.11-.04-.57-.59-.57-.59s.54-.19.65-.15Z"/><path fill="#FFE15A" d="M19.1 11.4c.08.03.12.13.09.2v.02c-.05.1-.37.85-.79 1.61l.39-.43.03-.05a.16.16 0 0 1 .25.2l-.03.04c-.12.14-.53.65-.95 1.11a4.3 4.3 0 0 0 .37-.25.16.16 0 0 1 .2.25 20.1 20.1 0 0 1-1 .74.63.63 0 0 0 .1-.03.16.16 0 0 1 .15.27c-.01 0-.24.2-.78.37a.16.16 0 0 1 .03.26c-.03.01-.55.44-2.23.6a.16.16 0 0 1-.18-.14.16.16 0 0 1 .14-.17 6.32 6.32 0 0 0 1.74-.37l-.14-.07a.16.16 0 0 1 .05-.29l.31-.07a.16.16 0 0 1 .05-.28.99.99 0 0 0 .19-.09.16.16 0 0 1 .04-.18c.09-.07.2-.17.32-.3a.16.16 0 0 1 0-.2l.2-.3a.16.16 0 0 1-.1-.23c.05-.07.1-.19.16-.34a.16.16 0 0 1-.26-.16l.04-.16c-.91 1.88-2.85 2.7-2.88 2.7a.16.16 0 0 1-.04.01s-.7.07-1.3.27a2.98 2.98 0 0 0-.65.32 4.73 4.73 0 0 1-.34.2c.04.02.07.05.08.1a.16.16 0 0 1-.07.17l-.24.16a3.9 3.9 0 0 0 1.47-.1.16.16 0 0 1 .21.15c.23-.03.44-.1.57-.22.1-.1.13-.21.13-.21a.15.15 0 0 1 .16-.12l1.82.1a.16.16 0 0 1 .15.18c0 .05-.07.43-.76.43a.38.38 0 0 1-.09.21c-.1.13-.28.17-.53.14a.36.36 0 0 1-.26.14.28.28 0 0 1-.15-.04.62.62 0 0 1-.54.17.46.46 0 0 1-.27.08.38.38 0 0 1-.18-.05.52.52 0 0 1-.3.11.38.38 0 0 1-.21-.06.5.5 0 0 1-.29.05.39.39 0 0 1-.17-.07c-.08.06-.19.1-.3.07a.27.27 0 0 1-.14-.1l-.26.01a.16.16 0 0 1-.13-.26l.25-.29-.5-.04-.35-.02c-.08 0-.11.03-.12.04a.16.16 0 0 1-.16.16.16.16 0 0 1-.1-.03c-.1-.08-.16-.23-.08-.37.07-.14.26-.34.7-.55a.15.15 0 0 1 .07-.03l.15-.06c.26-.1.42-.2.57-.28a4.7 4.7 0 0 1-3.91-2.3 6.85 6.85 0 0 1-.14-.23l-.05-.01a2.33 2.33 0 0 1-.3-.28.15.15 0 0 1-.22.06c-.06-.03-.11-.08-.17-.12l.3.4a.16.16 0 0 1-.07.24c.18.16.3.25.31.25a.16.16 0 0 1 .01.24l.14.04a.16.16 0 0 1 .1.23.33.33 0 0 1-.13.13l.24.06a.16.16 0 0 1 .08.27l-.14.08c.22.1.47.19.65.2a.16.16 0 0 1 .06.3.77.77 0 0 1-.1.02c.44.23 1.2.52 1.98.46a.16.16 0 1 1 .02.31l-.24.01a4.64 4.64 0 0 1-2.36-.75.16.16 0 0 1-.04-.22 4.7 4.7 0 0 1-.52-.25.16.16 0 0 1 .02-.28 8.36 8.36 0 0 1-.34-.13.16.16 0 0 1 .07-.3h.16a8.9 8.9 0 0 1-1.08-.69.16.16 0 0 1 .16-.27l.31.14a9.5 9.5 0 0 1-.75-.8.16.16 0 0 1 .24-.2l.02.02c.05.06.25.29.52.5a6.91 6.91 0 0 1-.9-1.67v-.12l.02-.02.02-.03.03-.01.02-.02h.1l.02.01.03.02.02.02.02.03.01.01c.1.26.38.7.71 1.07a6.73 6.73 0 0 1-.54-1.61v-.07l.01-.03.02-.03.02-.02s0-.02.02-.02l.03-.02h.12l.02.02.03.02.01.02.02.03v.02c.1.38.37 1.12.76 1.73a7.24 7.24 0 0 1-.4-1.27.16.16 0 0 1 .3-.06 7.55 7.55 0 0 0 1 2.4c1.01 1.55 2.42 2.27 4.17 2.14a.16.16 0 0 1 .07.01l.17-.06a6.45 6.45 0 0 1 1.34-.29c.26-.11 2.92-1.35 3.12-4.11.01-.09.09-.14.17-.15a.16.16 0 0 1 .15.16c0 .03-.01.48-.05.96.2-.43.42-.94.53-1.33a.16.16 0 0 1 .3.09c0 .05-.22.85-.45 1.59.25-.38.5-.79.61-1.06l.01-.03a.16.16 0 0 1 .2-.08Zm-7.35 5.29a2.32 2.32 0 0 0-.28.15l.2.02a.74.74 0 0 1 .13-.17h-.05Z"/></g><circle cx="12" cy="12" r="11.5" stroke="#FFF"/></g></svg>