<svg xmlns="http://www.w3.org/2000/svg" xmlns:xlink="http://www.w3.org/1999/xlink" width="24" height="24"><defs><circle id="a" cx="12" cy="12" r="12"/><path id="b" d="m6.98 2 1.04.84 2.18.44-.36 1.33-1.1.44-1.09 2.2-1.82 1.33-2.54.44v1.33l.73.88v.95L5.1 11l.77 1.66h2.66l1.15 2.06h1.52l-.38 2.07-1.52 1.66v1.24l-1.53 1.24V23l-1.14-.41-.76-2.07v-4.14l-1.9-.41-.77-1.66v-1.24l.38-.42-.66-.53-1.09-.89-.63-2.3C2.29 5.76 4.37 3.27 6.98 2Zm9.55 4 .74 1.28 2.23.43 2.22-.85.11-.08c2.02 4.17 1.24 9.14-1.14 13.04l-.45-.98v-1.7l-.74-1.72-.74-1.71v-1.72l-1.12-.85-1.48.43-2.59-1.29-.37-3L14.31 6h2.22Zm.53-3c1.17.56 2.24 1.32 3.14 2.25L19.03 6l-1.94-.38-1.17-.37-1.55.37-1.17-.37.78-1.51h1.55L17.06 3Z"/></defs><g fill="none" fill-rule="evenodd"><use xlink:href="#a" fill="#0089E9" fill-rule="nonzero"/><use xlink:href="#b" fill="#A8EF84" fill-rule="nonzero"/><circle cx="12" cy="12" r="11.5" stroke="#FFF"/><path fill="#78D2F5" fill-rule="nonzero" d="M17.42 12.67a19.71 19.71 0 0 0 2.76-6.28c-.13-.19-.27-.37-.42-.55a.31.31 0 0 0-.15.2 19.09 19.09 0 0 1-2.54 6.03 14.64 14.64 0 0 0-4.5-5.85c1.5-1.01 3.18-1.73 4.98-2.1.1-.02.17-.07.21-.15-.2-.14-.4-.28-.61-.4a14.36 14.36 0 0 0-5.1 2.25 14.36 14.36 0 0 0-5.11-2.25c-.21.12-.42.26-.62.4.04.08.12.13.21.15 1.8.37 3.5 1.09 4.98 2.1a14.47 14.47 0 0 0-3.32 3.62 19.65 19.65 0 0 0-5.96.64l-.08.55c.07.05.17.07.26.05 1.78-.47 3.6-.68 5.4-.62a14.44 14.44 0 0 0-1.7 9.73c.2.15.4.29.61.42a19.67 19.67 0 0 0 10.18-7.19c.72 2.22.87 4.6.4 6.94 0 .1.02.18.07.25.2-.13.41-.27.61-.42.4-2.26.25-4.53-.39-6.67a19.1 19.1 0 0 1 3.48 2.87l.25-.6a19.72 19.72 0 0 0-3.9-3.12ZM12.04 6.6a13.83 13.83 0 0 1 4.35 5.49 19.65 19.65 0 0 0-7.47-2.2 13.81 13.81 0 0 1 3.12-3.3ZM6.7 19.96c-.54-3.3.1-6.62 1.83-9.47a18.81 18.81 0 0 1 7.99 2.38 19.05 19.05 0 0 1-9.82 7.1Z"/><path fill="#F8FF20" fill-rule="nonzero" d="M6.9 19.5a.91.91 0 0 1 0 1.83.91.91 0 0 1 0-1.82Zm10.8-.5a.91.91 0 0 1 0 1.82.91.91 0 0 1 0-1.82Zm3-4a.91.91 0 0 1 0 1.82.91.91 0 0 1 0-1.82Zm-3.64-3a.91.91 0 1 1-.9.91c0-.5.4-.91.9-.91ZM2.91 9.49c.5 0 .9.4.9.9a.91.91 0 1 1-.9-.9Zm5.3-.29c.5 0 .9.4.9.91a.91.91 0 1 1-.9-.91Zm4.13-4.19a.91.91 0 1 1-.9.91c0-.5.4-.9.9-.9Zm7.47-.04a.91.91 0 0 1 0 1.82.91.91 0 0 1 0-1.82Zm-2.1-2.15a.91.91 0 0 1 0 1.83.91.91 0 0 1 0-1.83Zm-10.67 0a.91.91 0 0 1 0 1.83.91.91 0 0 1 0-1.83Z"/><path fill="#FFF" fill-rule="nonzero" d="M12 0a12 12 0 1 0 0 24 12 12 0 0 0 0-24Zm0 .96a11.04 11.04 0 1 1 0 22.08A11.04 11.04 0 0 1 12 .96Z"/></g></svg>