<svg xmlns="http://www.w3.org/2000/svg" width="24" height="24"><g fill="none" fill-rule="evenodd"><circle cx="12" cy="12" r="11.8" fill="#0089E9"/><path fill="#A8EF84" d="M12.54 8.13c.9.1.1.2.6.6.1-.2.7.4.4.5.1 0 .4 0 .2.1.2 0 .1.4.2.2 0-.3.4 0 .2.1.1.5.6-.3.4-.3 0-.4.9.2.4.2.3.9-.8.2-.5.5-1.5.4 1 0-.8.6-.9 1 .1 1.6 1.2 1.7.3.3.2.8.5.8.5-.4-.1-2.3.6-2.2.6-.1 1.1.4.9.7-.2.1.5-.1.1.2.1 0 .2-.2.1 0 .1-.1.1-.1.1 0 .4-.2.2-.2.4-.4-.3-.5.4.1.3.2.2-.1.1.1.1.1.1-.1.3.4.1.3.2.2 1.1.5.2.6.2.1.6-.2.5 0 .8.5-1.5.7-1.9.9 0 0 .2 0 .1.1-.4.5.5-.5.8-.2-.5.4.8.6.3.8-1.4.6.6-.6-1 .2-.3.5 0 .3-.6.5.1.2-.3.4-.2.2 0-.1-.1.7-.1.3-.2-.5 0 .2-.2-.1 0 .2.4.3.1.5.2 0 .2.1 0 .1-1 .6-.2 1.8-.7 1.3-.5-1.1-1.1-.3-1.9-.4-1.5 2.9 1.4.8 1.1 1.5-.6 1 .9.2.5 1.1.5 1.1-3.8-1.6-4.2-2.8-.4 0 1.4 2.1.3.9-.2-.4-1.4-1.5-1.3-1.9-.7.2-.4-2.4-.2-1.6-.1-.3-.5-.8-.8-.7.1 0 .1 0 0 0 .1-.1-.3 0 0 0-.3 0 .2-.2-.1-.2.1 0-.2-.3 0-.2-.1 0-.3-.2-.2-.2-.1 0 .2-.3 0-.1-.1 0-.4-.4-.7-.9.2.5-.2-.1-.2.1.5.4-.9-.4-.6-.4 0-.1-.3.1-.3 0-1-.4-2 .6-1.2-.2-.4 0-1.1 1.3-1.8 1.2.2-.1 1.2-.6.7-.8-.2.2-.2-.2-.5.1-.2-.2.1-.5-.2-.2-.7-.2.4-.2-.2-.2-.5-.3.7-.4.6-.7-.6.1-1.6-.8-.3-.5.4 0-.1-.2.1-.2.3.1.3 0 0 0-1-.2-.5-.8.2-.8.2-.8 3.1.3 3.4.2.8-.2 1-.3 2.9.2.3.1-.4.2.3.2.7-.2 1 .7.7-.1.2 0 .4-.3.2-.1-.6 0 .2-.2.5.1.9.3.6-.2 1 0-.1.2.2.4.1 0 .1-.1.5-.4.2-.2-.2-.1.2-.1-.1-.1-.3 0-1.9-.8-.8-.7.1-.1-.4-.3 0-.2-.3-.3.1-.2 0-.3Zm3.8 10.2c.9.3.8.4.3 1-1.1-.8 0 .3-.3-1Zm-1.2-.6c.6.1 1.3.9.6.5-.4-.5-1.7-.2-.6-.5Zm-.4-3.7c-.8.1-.5 1.5-.2.2.4-.3.4.7.6 0-.1-.1 0 .1.1.1.4-.1-.4-.3-.5-.3Zm-.6-.5c-.1 0-.1.1-.1.1-1.2.5 1.7.5.1-.1Zm-3.1-2.7s-.1.1 0 0c-.3.3-.9-.2-.5.2-1.2.8 1.1-.4.5-.2Zm2.1-3.6c1.2.1.3.7 1.5.5 1-.3.6.4.6.7.1-.1-.1.1 0 .1s.3-.2.2 0c.1-.1.1 0 .1 0-.3-.3.8-.2.3 0 .1-.1.5-.1.2.1.1 0 .7-.1.4.2.3-.2.1 0 .1 0s.7-.1.2.1c-.1 0 .4-.1.1.1.3-.2.5 0 .1.1.4 0 .4.1 0 .1.3.1-.3.1.1.1-.1 0 .4.1.1.1-.1 0 .1 0 0 .1 0-.1.2 0 .1.1.1-.1.5.1.3.1-.1 0 .2-.1.2 0-.2.1.5.1.2.2.1.1-.3.1-.1.2-.5.4-.4-.1-.8-.2.1.1-.1 0 0 0 .2.2-.2 0 0 .2.2 0 .7.7.4.4.3.6-1.2-.4-.1.4-.7 0-1-.6-1.1-.5-.6.3-.6-.5-.2-.1.1-.4 1.1-.2.6-.5-.5-.1-.7-.9-1.7-.7-.1.3-1.4 0-.8-.9-.7.5-.3-.6-.8-.6-.2.1-.6-.4-.2-.4Zm-3.6 2.7c-.9.3-.2 0-.1.2-.4.4.1.2.6.1.2-.3-.1 0-.3-.1 0-.2.2-.3-.2-.2Zm1.9-1.6c.2.1 1.1 1.1.8.9-.4.1-.1 0 0 .1-.3.3-3.2 0-1.4-.2-1.5.1-1-1.3 0-.5.1 0 .3 0 .2-.1-.1-.4.5.4.4.1-.1-.1-.1-.3 0-.3Zm4.4-3c1.1-.1 3.3.4 1 .5.6.1 0 0-.1.2 1.4-.5-.1.4-.3.3.5 0-.2.1-.4.1.5.1-.3.2-.4.1.4.1.5.1-.1.1.3 0 .1 0 0 .1.2-.1.7.1.2.1-.2 0 .2 0 .1.1 0 .1-.8.3-.8.3.9.1.1.5-.4.2-.3.1-1 0-.3-.3-.4-.2.2-.1.3 0 .2.1.4-.3.3-.2-.4.4-.3-.1-.2-.1 0-.1-.6.3-.4-.1.2-.2.7.1.6-.1.6 0-.6-.1-.1-.1-.9-.7.2-.3.5-.2-.6-.2-.1-.2.3-.3-.4 0 .1-.1.2-.1-.1 0-.5 0-.1-.2-.1 0-.9.6-.7.2.2-.1-.3.1-.1 0-.5.3-.6-.1.1-.1-.1 0-1.2.3-.7 0 .1 0 .6-.1.2-.1-.5.2-.7-.1-.2-.1-1 .1 0-.4.8-.1.7.1-.6-.2-.1-.2.4-.3.2 0 .5.1.6.2 0 0 .3-.1Zm-2.4.6c1.8.5.7 1.3-.1.8-.1-.1.8-.1.3-.1.1 0-1.1-.1-.4-.3-.5 0-.2-.1-.1-.2-.2 0-.1-.1 0-.1.5 0 0-.1.3-.1Z"/><path fill="#FFF" fill-rule="nonzero" d="M12 0a12 12 0 1 0 0 24 12 12 0 0 0 0-24Zm0 .96a11.04 11.04 0 1 1 0 22.08A11.04 11.04 0 0 1 12 .96Z"/></g></svg>