<?xml version="1.0" encoding="UTF-8"?>
<svg width="24px" height="24px" viewBox="0 0 24 24" version="1.1" xmlns="http://www.w3.org/2000/svg" xmlns:xlink="http://www.w3.org/1999/xlink">
    <!-- Generator: Sketch 55.1 (78136) - https://sketchapp.com -->
    <title>Flags/tunisia</title>
    <desc>Created with Sketch.</desc>
    <g id="Icons" stroke="none" stroke-width="1" fill="none" fill-rule="evenodd">
        <g id="Flags/tunisia">
            <g id="tunisia">
                <path d="M11.5,23.5 C5.41336182,23.5 0.479166667,18.3512746 0.479166667,12 C0.479166667,5.64872538 5.41336182,0.5 11.5,0.5 C17.5866382,0.5 22.5208333,5.64872538 22.5208333,12 C22.5208333,18.3512746 17.5866382,23.5 11.5,23.5 Z" id="Combined-Shape" fill="#FF4B55" fill-rule="nonzero"></path>
                <ellipse id="Oval" stroke="#FFFFFF" cx="11.5" cy="12" rx="11" ry="11.5"></ellipse>
                <path d="M11.5686855,5.68420312 C14.9090313,5.68420312 17.6164727,8.517 17.6164727,12 C17.6164727,15.4930781 14.9090313,18.3157969 11.5686855,18.3157969 C8.22115234,18.3157969 5.51124023,15.4930781 5.51124023,12 C5.51124023,8.517 8.22115234,5.68420312 11.5686855,5.68420312" id="Shape" fill="#F5F5F5" fill-rule="nonzero"></path>
                <path d="M12.6685078,15.5391563 C10.7948164,15.5391563 9.27501953,13.9533281 9.27501953,12.0004219 C9.27501953,10.05225 10.7948164,8.46642188 12.6685078,8.46642188 C13.3058145,8.46642188 13.9013437,8.65275 14.4103984,8.9745 C14.4866758,9.0226875 14.5668613,8.91848438 14.5033418,8.8531875 C13.7396699,8.06807813 12.6939785,7.58170313 11.5388574,7.58170313 C9.19389062,7.58170313 7.29522266,9.56292188 7.29522266,12.0004219 C7.29522266,14.4426094 9.19389062,16.4237813 11.5388574,16.4237813 C12.6933496,16.4237813 13.7385918,15.937875 14.5021289,15.1529063 C14.5656484,15.0876094 14.4854629,14.9834063 14.4091855,15.0315938 C13.9004453,15.3531094 13.3053652,15.5391563 12.6685078,15.5391563 Z" id="Shape" fill="#FF4B55" fill-rule="nonzero"></path>
                <path d="M12.358457,9.52354688 L13.2939551,10.8489844 L14.7986133,10.3544531 C14.9933945,10.2904219 15.1542148,10.5219844 15.0352617,10.6952344 L14.1162949,12.0331875 L15.0319824,13.3735781 C15.1505313,13.5471094 14.9891719,13.77825 14.7945254,13.7137031 L13.2910801,13.2151875 L12.3523477,14.5381406 C12.230834,14.7094219 11.9702871,14.6206875 11.9689395,14.4075938 L11.9587422,12.7615313 L10.4628887,12.2387344 C10.2692305,12.1710469 10.2695898,11.8850625 10.4633828,11.8179375 L11.9604941,11.299125 L11.9747344,9.6530625 C11.9765762,9.43996875 12.2373477,9.35198438 12.358457,9.52354688 Z" id="Shape" fill="#FF4B55" fill-rule="nonzero"></path>
            </g>
        </g>
    </g>
</svg>