<svg xmlns="http://www.w3.org/2000/svg" width="24" height="24"><g fill="none" fill-rule="evenodd"><g fill-rule="nonzero"><path fill="#F5F5F5" d="M1.16 15.84h21.68a11.5 11.5 0 0 1-21.68 0Z"/><path fill="#FF4B55" d="M22.84 8.16H1.16a11.5 11.5 0 0 1 21.68 0Z"/><path fill="#41479B" d="M1.16 8.16h21.68a11.48 11.48 0 0 1 0 7.68H1.16a11.48 11.48 0 0 1 0-7.68Z"/></g><path fill="#FFE15A" fill-rule="nonzero" d="M10.43 8H5.88l-.19-1.14h4.93z"/><path fill="#FFD350" fill-rule="nonzero" d="m5.83 7.71.05.75h4.55l.04-.75z"/><g fill="#FFE15A" fill-rule="nonzero"><path d="M8.05 4.2h.75v.76h-.75z"/><path d="M7.86 4.4h.75v.74h-.75z"/><path d="M10.44 7.24a.19.19 0 0 1-.18-.25l.4-1.12a.2.2 0 0 0 0-.16.18.18 0 0 0-.12-.09c-.5-.1-1.44-.28-2.3-.28h-.18c-.85 0-1.8.18-2.3.28a.17.17 0 0 0-.1.09.2.2 0 0 0-.02.16l.4 1.11a.19.19 0 1 1-.36.13l-.4-1.1a.58.58 0 0 1 .04-.49.55.55 0 0 1 .37-.27c.5-.1 1.48-.29 2.37-.29h.18c.9 0 1.87.18 2.37.29.16.03.3.13.37.27.08.15.1.33.04.48l-.4 1.11a.19.19 0 0 1-.18.13Z"/><path d="M8.34 7.07c-.21 0-.38-.08-.38-.19V5.34c0-.1.17-.19.38-.19.2 0 .37.09.37.2v1.53c0 .1-.17.2-.37.2Z"/><path d="M9.46 7.24A.19.19 0 0 1 9.27 7l.24-1.1c.03-.15-.02-.28-.05-.3-.26-.1-.79-.27-1.26-.27h-.1c-.47 0-1 .17-1.27.27a.43.43 0 0 0-.03.3L7.03 7a.19.19 0 1 1-.38.08l-.23-1.11c-.05-.28.04-.63.28-.72.36-.14.9-.3 1.4-.3h.1c.5 0 1.04.16 1.4.3.25.09.34.44.28.72l-.23 1.1a.19.19 0 0 1-.19.16Z"/></g><path fill="#FFD350" fill-rule="nonzero" d="M5.73 7.61h4.84l.05-.75H5.69z"/><path fill="#FF4B55" fill-rule="nonzero" d="M4.55 8c-.1 0-.2.08-.2.19v6.62a3.8 3.8 0 1 0 7.6 0V8.19c0-.1-.1-.2-.2-.2h-7.2Z"/><path fill="#F5F5F5" fill-rule="nonzero" d="m8.53 14.25.38-.95-.76.2-.76-.2.38.95-.95 3.23s.57.37 1.33.37c.76 0 1.33-.37 1.33-.37l-.95-3.23Z"/><path fill="#FFE15A" fill-rule="nonzero" d="m6.78 15.02-.34.08.74-1.32-.33-.19-.9 1.61h-.83v.38h.41L5 16l.24.3.44-.36-.17.53.36.12.34-1.04.66-.17z"/><path fill="#F5F5F5" fill-rule="nonzero" d="m6.82 9.9-.86-.44a.38.38 0 0 1-.2-.43l.05-.2a.22.22 0 0 0-.38-.18c-.45.56-.7 1.25-.7 1.97v4.01s.8-.16 1.52-1.2c.13-.19.34-.3.57-.31l-.37 1.13.75.2.67-.8L6.82 9.9Z"/><path fill="#FFE15A" fill-rule="nonzero" d="m9.52 15.02.34.08-.74-1.32.33-.19.9 1.61h.84v.38h-.41l.52.42-.23.3-.45-.36.18.53-.36.12-.35-1.04-.66-.17z"/><path fill="#F5F5F5" fill-rule="nonzero" d="m9.48 9.9.86-.44a.38.38 0 0 0 .2-.43l-.05-.2a.22.22 0 0 1 .38-.18c.45.56.7 1.25.7 1.97v4.01s-.8-.16-1.51-1.2a.74.74 0 0 0-.58-.31l.38 1.13-.76.2-.66-.8L9.48 9.9Z"/><g fill="#FFE15A" fill-rule="nonzero"><path d="M7.02 8.56h-.95l.28.38.67.2-.38.18h.57zM9.29 8.56h.95l-.28.38-.67.2.38.18H9.1z"/></g><path fill="#F5F5F5" fill-rule="nonzero" d="m9.42 8.42-.89.14-.38.76-.38-.76-.89-.14a.13.13 0 0 0-.13.18l.45.91-.38.38h2.66l-.38-.38.46-.91a.13.13 0 0 0-.14-.18Z"/><circle cx="8.62" cy="7.41" r="1" fill="#FFBE50" fill-rule="nonzero"/><circle cx="8.67" cy="8.21" r="1" fill="#41479B" fill-rule="nonzero"/><circle cx="7.55" cy="8.21" r="1" fill="#FF4B55" fill-rule="nonzero"/><g fill="#41479B" fill-rule="nonzero" transform="translate(5.67 7.45)"><circle cx=".76" cy=".77" r="1"/><circle cx="5.24" cy=".77" r="1"/></g><circle cx="9.79" cy="8.21" r="1" fill="#FF4B55" fill-rule="nonzero"/><g fill="#FFBE50" fill-rule="nonzero" transform="translate(5.48 6.66)"><circle cx="4.45" cy=".75" r="1"/><circle cx="5.49" cy=".75" r="1"/><circle cx="1.82" cy=".75" r="1"/><circle cx=".78" cy=".75" r="1"/></g><path fill="#41479B" fill-rule="nonzero" d="M8.48 5.52a.62.62 0 0 0 .05-.25c0-.27-.17-.5-.38-.5-.2 0-.38.23-.38.5 0 .1.02.18.05.25h.66Z"/><path fill="#FF4B55" fill-rule="nonzero" d="M8.15 13.78c-.78 0-1.42-.64-1.42-1.42V9.8h2.84v2.56c0 .78-.63 1.42-1.42 1.42Z"/><path fill="#A54B50" fill-rule="nonzero" d="M9.48 9.9v2.46a1.33 1.33 0 1 1-2.66 0V9.89h2.66Zm.19-.2H6.63v2.66a1.52 1.52 0 0 0 3.04 0V9.7Z"/><g fill="#F5F5F5" fill-rule="nonzero"><path d="M7.87 13.65a2.29 2.29 0 0 0 .75 0V9.9h-.75v3.76Z"/><path d="M6.83 11.46h2.65v.75H6.83z"/></g><circle cx="12" cy="12" r="11.5" stroke="#FFF"/></g></svg>