<?xml version="1.0" encoding="UTF-8"?>
<svg width="24px" height="24px" viewBox="0 0 24 24" version="1.1" xmlns="http://www.w3.org/2000/svg" xmlns:xlink="http://www.w3.org/1999/xlink">
    <!-- Generator: Sketch 55.1 (78136) - https://sketchapp.com -->
    <title>Flags/great_britain</title>
    <desc>Created with Sketch.</desc>
    <g id="Icons" stroke="none" stroke-width="1" fill="none" fill-rule="evenodd">
        <g id="Flags/great_britain">
            <g id="great_britain">
                <g id="Group-2" fill-rule="nonzero">
                    <circle id="Oval" fill="#EEEEEE" cx="12" cy="12" r="11.8"></circle>
                    <path d="M2.64861448,4.6921875 C1.70708244,5.93488768 1.01521949,7.35406565 0.6125,8.86875 L6.74848301,8.86875 L2.64861448,4.696875 L2.64861448,4.6921875 Z M23.3875,8.86875 C22.9856111,7.35607006 22.2953495,5.9385589 21.3559921,4.696875 L17.2561236,8.86875 L23.3828934,8.86875 L23.3875,8.86875 Z M0.6125,15.13125 C1.01438891,16.6439299 1.7046505,18.0614411 2.64400789,19.303125 L6.74387642,15.13125 L0.621713188,15.13125 L0.6125,15.13125 Z M19.1770732,2.4796875 C17.9564463,1.52549792 16.5634254,0.824717987 15.0772047,0.4171875 L15.0772047,6.65625 L19.1770732,2.484375 L19.1770732,2.4796875 Z M4.82292678,21.5203125 C6.04492781,22.4750489 7.43956258,23.1758533 8.9274019,23.5828125 L8.9274019,17.34375 L4.82753337,21.515625 L4.82292678,21.5203125 Z M8.92279531,0.4125 C7.43622419,0.821447328 6.04317925,1.52383207 4.82292678,2.4796875 L8.92279531,6.65625 L8.92279531,0.4125 L8.92279531,0.4125 Z M15.0772047,23.5875 C16.5637758,23.1785527 17.9568208,22.4761679 19.1770732,21.5203125 L15.0772047,17.3484375 L15.0772047,23.5828125 L15.0772047,23.5875 Z M17.251517,15.13125 L21.3513855,19.303125 C22.2923802,18.0618226 22.984219,16.6442869 23.3875,15.13125 L17.251517,15.13125 Z" id="Shape" fill="#0052B4"></path>
                    <g id="Group" fill="#D80027">
                        <path d="M23.6985938,10.4604577 L13.5395313,10.4604577 L13.5395313,0.301406141 C13.0290826,0.234392729 12.5148285,0.200519744 12,0.2 C11.4791406,0.2 10.9628906,0.23226559 10.4604688,0.301406141 L10.4604688,10.4604577 L0.30140625,10.4604577 C0.234392766,10.9709058 0.200519744,11.4851593 0.2,11.9999873 C0.2,12.5208461 0.232265625,13.0370956 0.30140625,13.5395169 L10.4604688,13.5395169 L10.4604688,23.6985684 C11.4824998,23.8317905 12.5175002,23.8317905 13.5395313,23.6985684 L13.5395313,13.5395169 L23.6985938,13.5395169 C23.7656201,13.02907 23.7994932,12.5148157 23.8,11.9999873 C23.8,11.4791285 23.7677344,10.962879 23.6985938,10.4604577 Z" id="Path"></path>
                        <path d="M15.1301276,15.1301276 L20.3958546,20.3958546 C20.6372162,20.1538956 20.8679811,19.9015927 21.0875,19.6396556 L16.5825829,15.1301276 L15.1301276,15.1301276 L15.1301276,15.1301276 Z M8.96987245,15.1301276 L3.70414541,20.3958546 C3.94610436,20.6372162 4.19840729,20.8679811 4.46034439,21.0875 L8.96987245,16.5825829 L8.96987245,15.1301276 L8.96987245,15.1301276 Z M8.96987245,8.96987245 L3.70414541,3.70414541 C3.46278375,3.94610436 3.23201888,4.19840729 3.0125,4.46034439 L7.51741709,8.96987245 L8.96987245,8.96987245 L8.96987245,8.96987245 Z M15.1301276,8.96987245 L20.3958546,3.70414541 C20.1539076,3.46277121 19.9016041,3.23200583 19.6396556,3.0125 L15.1301276,7.51741709 L15.1301276,8.96987245 L15.1301276,8.96987245 Z" id="Shape"></path>
                    </g>
                </g>
                <circle id="Oval" stroke="#FFFFFF" cx="12" cy="12" r="11.5"></circle>
            </g>
        </g>
    </g>
</svg>