<?xml version="1.0" encoding="UTF-8"?>
<svg width="24px" height="24px" viewBox="0 0 24 24" version="1.1" xmlns="http://www.w3.org/2000/svg" xmlns:xlink="http://www.w3.org/1999/xlink">
    <!-- Generator: Sketch 55.1 (78136) - https://sketchapp.com -->
    <title>Flags/south_africa</title>
    <desc>Created with Sketch.</desc>
    <g id="Icons" stroke="none" stroke-width="1" fill="none" fill-rule="evenodd">
        <g id="Flags/south_africa">
            <g id="south_africa">
                <g id="Group" transform="translate(0.500000, 0.500000)" fill-rule="nonzero">
                    <circle id="Oval" fill="#EEEEEE" cx="11.4775828" cy="11.4775828" r="11.4775828"></circle>
                    <path d="M3.3625731,19.5925926 C-1.11854605,15.1105161 -1.11854605,7.84464962 3.3625731,3.3625731 L9.98011696,11.4775828 L3.3625731,19.5925926 Z" id="Path" fill="#333333"></path>
                    <path d="M9.98011696,11.4775828 L1.52436647,5.76120858 C1.26000935,6.2197985 1.02780723,6.69618735 0.829434698,7.18693957 L5.11111111,11.4775828 L0.829434698,15.7682261 C1.02776763,16.258996 1.25997107,16.7353875 1.52436647,17.1939571 L9.98011696,11.4775828 Z" id="Path" fill="#FFDA44"></path>
                    <path d="M22.8565302,9.98011696 L9.98011696,9.98011696 L3.3625731,3.3625731 C2.64719127,4.07795122 2.02914148,4.88443083 1.52436647,5.76120858 L7.22729045,11.4775828 L1.51988304,17.1939571 C2.02604526,18.0709991 2.6456122,18.8774913 3.3625731,19.5925926 L9.98460039,12.9750487 L22.8610136,12.9750487 C22.9247095,12.4784511 22.9561594,11.9782478 22.9551885,11.4775828 C22.9551885,10.9709552 22.9237817,10.4688109 22.8565302,9.98011696 Z" id="Path" fill="#6DA544"></path>
                    <path d="M4.48791423,20.5789474 C7.52558914,22.9103412 11.5258588,23.5732901 15.153223,22.3464669 C18.7805871,21.1196437 21.5572218,18.164655 22.5561404,14.4680312 L10.6033138,14.4680312 L4.48791423,20.5879142 L4.48791423,20.5789474 Z" id="Path" fill="#0052B4"></path>
                    <path d="M22.5606238,8.48265107 C21.5605859,4.78680335 18.7834934,1.83297862 15.1562891,0.607109563 C11.5290848,-0.618759492 7.52945296,0.0447678612 4.49239766,2.37621832 L10.5988304,8.4871345 L22.5606238,8.4871345 L22.5606238,8.48265107 Z" id="Path" fill="#D80027"></path>
                </g>
                <circle id="Oval" stroke="#FFFFFF" cx="12" cy="12" r="11.5"></circle>
            </g>
        </g>
    </g>
</svg>