<?xml version="1.0" encoding="UTF-8"?>
<svg width="24px" height="24px" viewBox="0 0 24 24" version="1.1" xmlns="http://www.w3.org/2000/svg" xmlns:xlink="http://www.w3.org/1999/xlink">
    <!-- Generator: Sketch 55.1 (78136) - https://sketchapp.com -->
    <title>Flags/singapore</title>
    <desc>Created with Sketch.</desc>
    <g id="Icons" stroke="none" stroke-width="1" fill="none" fill-rule="evenodd">
        <g id="Flags/singapore">
            <g id="singapore">
                <g id="Group-2" transform="translate(0.500000, 0.500000)" fill-rule="nonzero">
                    <circle id="Oval" fill="#EEEEEE" cx="11.5" cy="11.5" r="11.5"></circle>
                    <path d="M0,11.5 C0,5.14872538 5.14872538,0 11.5,0 C17.8512746,0 23,5.14872538 23,11.5" id="Path" fill="#D80027"></path>
                </g>
                <g id="Group" transform="translate(5.671875, 2.578125)" fill="#EEEEEE" fill-rule="nonzero">
                    <path d="M1.63125,3.684375 C1.63277321,1.96974405 2.82561183,0.486492097 4.5,0.1171875 C4.24284855,0.0610391645 3.98039749,0.032751027 3.7171875,0.0328125 C2.30710863,0.0177932483 1.01408165,0.815017606 0.394197554,2.08162398 C-0.225686539,3.34823036 -0.0619194705,4.8584177 0.815067598,5.96270104 C1.69205467,7.06698437 3.12591908,7.56850038 4.5,7.2515625 C2.82561183,6.8822579 1.63277321,5.39900595 1.63125,3.684375 L1.63125,3.684375 Z M6.328125,0.290625 L6.5859375,1.0875 L7.4296875,1.0875 L6.7453125,1.5796875 L7.0078125,2.3765625 L6.328125,1.884375 L5.6484375,2.3765625 L5.9109375,1.5796875 L5.23125,1.0875 L6.0703125,1.0875 L6.328125,0.290625 Z" id="Shape"></path>
                    <path d="M4.29375,1.85625 L4.55625,2.653125 L5.390625,2.653125 L4.715625,3.1453125 L4.9734375,3.9421875 L4.29375,3.45 L3.61875,3.9421875 L3.8765625,3.1453125 L3.196875,2.653125 L4.0359375,2.653125 L4.29375,1.85625 Z M8.3625,1.85625 L8.6203125,2.653125 L9.459375,2.653125 L8.7796875,3.1453125 L9.0375,3.9421875 L8.3625,3.45 L7.6828125,3.9421875 L7.940625,3.1453125 L7.265625,2.653125 L8.1,2.653125 L8.3625,1.85625 Z M7.5796875,4.2046875 L7.8375,5.0015625 L8.6765625,5.0015625 L7.996875,5.49375 L8.2546875,6.290625 L7.5796875,5.7984375 L6.9,6.290625 L7.1578125,5.49375 L6.4828125,5.0015625 L7.321875,5.0015625 L7.5796875,4.2046875 Z M5.0765625,4.2046875 L5.334375,5.0015625 L6.178125,5.0015625 L5.4984375,5.49375 L5.75625,6.290625 L5.0765625,5.7984375 L4.4015625,6.290625 L4.659375,5.49375 L3.9796875,5.0015625 L4.81875,5.0015625 L5.0765625,4.2046875 Z" id="Shape"></path>
                </g>
                <circle id="Oval" stroke="#FFFFFF" cx="12" cy="12" r="11.5"></circle>
            </g>
        </g>
    </g>
</svg>