<svg xmlns="http://www.w3.org/2000/svg" width="24" height="24"><g fill="none" fill-rule="evenodd"><path fill="#73AF00" fill-rule="nonzero" d="M12 23.5a11.5 11.5 0 1 1 0-23 11.5 11.5 0 0 1 0 23Z"/><g fill="#F5F5F5" fill-rule="nonzero"><path d="M3.6 8.99c.05.31.24.4.4.4.2-.02.37-.2.37-.38V7.94a.1.1 0 0 1 .2 0V9a.39.39 0 0 0 .53.36l.1-.04c0 .9-.05 1.7-.05 1.7a.2.2 0 0 0 .39.03c0-.06.06-.92.04-1.88l.06-.03a.2.2 0 0 1 .16.01.56.56 0 0 0 .64-.1l.04-.04a.58.58 0 0 0 .14-.6l-.17-.5a.2.2 0 0 0 .15-.35l-.4-.2a.2.2 0 0 0-.26.24l.3.94a.2.2 0 0 1-.04.2l-.03.03a.17.17 0 0 1-.2.03.58.58 0 0 0-.4-.04 6.76 6.76 0 0 0-.24-1.68.2.2 0 1 0-.37.13c.14.42.2 1.06.22 1.7L4.95 9V7.93a.49.49 0 0 0-.97 0v.95l-.2-.98a.2.2 0 0 0-.38.07L3.6 9Z"/><path d="M4.16 7.52c.2 0 .37-.11.37-.25v-.25c0-.14-.16-.25-.37-.25s-.38.1-.38.25v.25c0 .14.17.25.38.25Zm1.82 0h.25c.14 0 .25-.17.25-.38 0-.2-.11-.37-.25-.37h-.25c-.14 0-.25.16-.25.37 0 .2.11.38.25.38Zm-1.32 2.2-.98.58a.2.2 0 1 0 .2.33l.98-.58a.2.2 0 1 0-.2-.34Z"/><path d="M7.28 10.06c.02.06.05.13.1.18.07.1.2.14.33.13.19-.01.32-.1.4-.21a.37.37 0 0 0 .39 0c.3-.14.35-.5.34-.68 0-.1-.1-.18-.2-.18a.2.2 0 0 0-.18.2s0 .24-.14.32a.47.47 0 0 1-.06-.16.2.2 0 0 0-.39.03c0 .03 0 .28-.2.3-.02-.03-.02-.16 0-.26a.2.2 0 0 0-.3-.2l-.1.07a62.51 62.51 0 0 0-.18-2.46.2.2 0 1 0-.39.03c0 .02.14 1.54.19 2.7l-.03.04a.5.5 0 0 0-.43-.34.71.71 0 0 0-.69.44c-.09.23-.03.46.15.58.14.08.33.11.58.02a1.63 1.63 0 0 1-.31.6c-.13.15-.35.33-.62.32a.51.51 0 0 1-.38-.16c-.23-.25-.2-.7-.2-.7a.2.2 0 0 0-.2-.2.19.19 0 0 0-.2.18c0 .03-.03.61.3.98a.9.9 0 0 0 .7.29c.32 0 .64-.16.9-.45a2 2 0 0 0 .44-1c0 .66-.4 1.42-.94 1.75a.97.97 0 0 1-.97.07c-.5-.24-.43-.8-.43-.83a.2.2 0 1 0-.39-.04c0 .03-.1.85.65 1.22.19.1.39.14.59.14.25 0 .51-.08.76-.23a2.59 2.59 0 0 0 1.12-2.08v-.41Zm-1.17.2c-.04-.02-.01-.1 0-.11a.33.33 0 0 1 .27-.2h.01c.03.01.1.02.12.16a.66.66 0 0 1 .01.05c-.22.13-.36.13-.41.1Zm-2.03 1.8a.2.2 0 0 0-.27.06.4.4 0 0 1-.03.05.34.34 0 0 1-.01-.02 1.32 1.32 0 0 1 0-.66.2.2 0 0 0-.37-.1c-.01.05-.13.52 0 .9.1.24.23.3.33.3a.31.31 0 0 0 .03 0c.2 0 .35-.2.39-.27a.2.2 0 0 0-.07-.27Z"/><path d="M7.67 8.52a.2.2 0 0 0 .12-.04l.98-.77.03-.04a.48.48 0 0 0-.25-.9.48.48 0 0 0-.3.86l-.7.54a.2.2 0 0 0 .12.35Zm.88-1.36a.1.1 0 1 1 0 .2.1.1 0 0 1 0-.2Zm-.23 1.18a.2.2 0 0 0-.24.12c-.02.06-.12.38.07.57a.4.4 0 0 0 .3.11c.07 0 .16-.01.26-.05a.2.2 0 1 0-.12-.37c-.1.04-.16.03-.16.04a.37.37 0 0 1 .02-.18.2.2 0 0 0-.13-.24Zm2.3-.81a.42.42 0 0 0 .08 0c.13 0 .24-.05.28-.13l.17-.4c.04-.1-.04-.2-.2-.23-.15-.03-.31.03-.36.13l-.17.39c-.04.1.05.2.2.24Zm-1.15-.02a.28.28 0 0 0 .11.02.25.25 0 0 0 .2-.1c.08-.09.04-.2-.07-.26-.05-.02-.05-.09-.05-.1.01-.05.05-.11.11-.13.13-.03.2-.14.16-.24-.04-.1-.17-.16-.3-.13a.57.57 0 0 0-.43.46.46.46 0 0 0 .27.48Zm-1.54 3.15c-.14 0-.25.09-.25.2 0 .1.08.17.2.19.01.01.05.06.05.2 0 .1.1.19.25.19s.25-.09.25-.2c0-.57-.48-.58-.5-.58Zm3.25-.62a.34.34 0 0 0 .07 0c.15 0 .3-.1.46-.3a.32.32 0 0 0 0-.37c-.08-.1-.2-.1-.28 0-.11.16-.17.16-.2.16s-.06-.07-.07-.1c-.05-.12-.16-.17-.26-.1-.1.06-.13.22-.09.34.02.04.13.32.37.37Zm3.3-1.5v-.02c-.03-.13-.14-.2-.24-.16-.1.04-.16.2-.13.33.02.06.1.36.32.4a.24.24 0 0 0 .04 0c.14 0 .26-.11.38-.34.06-.12.04-.28-.05-.36-.1-.08-.21-.05-.27.07a.8.8 0 0 1-.04.07Z"/><path d="M14.1 12.02c0-.83-.03-1.6-.08-2.29.27.48.52.97.68 1.39a.2.2 0 0 0 .36-.14c-.24-.66-.69-1.44-1.12-2.13a25.06 25.06 0 0 0-.23-1.73.2.2 0 0 0-.38.07s.06.35.13.93l-.4-.59a.2.2 0 1 0 .13-.36l-.58-.2a.2.2 0 0 0-.25.13c-.12-.08-.27-.15-.4-.1-.1.04-.2.13-.2.35 0 .17.07.36.14.55.12.33.19.57.07.68-.07.06-.14.09-.2.07-.12-.03-.24-.19-.32-.43l-.02-.03a3.31 3.31 0 0 0-.06-1.07.2.2 0 1 0-.38.07c.13.64.1 1.16-.1 1.4a.35.35 0 0 1-.3.12.11.11 0 0 1-.08-.04c-.16-.18-.16-.75-.1-1.1a.2.2 0 0 0-.2-.22c-.34 0-.46.38-.58.72-.04.15-.14.42-.2.45-.12 0-.2-.35-.2-.59a.2.2 0 0 0-.38 0c0 .45.15.98.58.98.32 0 .45-.35.56-.68.02.26.08.53.22.7a.5.5 0 0 0 .39.17.74.74 0 0 0 .66-.38c.12.16.26.27.41.3a.56.56 0 0 0 .14.02c.15 0 .3-.06.42-.18l.07-.08a.53.53 0 0 0 .14.03c.16 0 .31-.07.4-.13a.2.2 0 0 0-.2-.33s-.14.08-.22.06a2 2 0 0 0-.15-.64l-.1-.32a.83.83 0 0 1 .04.04c.08.07.2.07.28 0l.03-.04c.2.27.61.86 1.04 1.53.08.83.15 1.89.15 3.04a.2.2 0 1 0 .4 0Zm.25-4.28c0 .1.12.2.25.2s.25-.1.25-.2c0-.23-.23-.6-.27-.67-.07-.1-.22-.14-.34-.09-.12.05-.17.17-.11.26.09.14.22.4.22.5Z"/><path d="M13.41 12.05a.2.2 0 0 0-.26.08.56.56 0 0 1-.08.12 1.09 1.09 0 0 1 .05-.36.2.2 0 0 0-.32-.2l-.4.4a.2.2 0 1 0 .28.27l.01-.01c.02.08.05.15.1.2a.36.36 0 0 0 .31.1c.22-.03.36-.27.4-.34a.2.2 0 0 0-.09-.26Z"/><path d="M13.34 10.48h-1.38l.04-.14c.55-.11.87-.29.97-.53.03-.08.07-.24-.07-.43-.13-.17-.3-.25-.5-.21-.27.05-.52.35-.7.83-.55.1-.9.29-1.12.49a3.04 3.04 0 0 0-.4-1.3.2.2 0 1 0-.33.22s.36.54.36 1.45c0 .89-.71 1.55-1.17 1.55-.22 0-.31-.26-.36-.48.45-.31.85-.68.94-1.03.12-.47-.03-.82-.13-1.05a2.47 2.47 0 0 1-.01-.04v.01a.2.2 0 1 0 .28-.27c-.11-.11-.33-.3-.53-.2-.09.03-.19.11-.19.34 0 .1.04.2.1.31.08.2.19.46.1.8-.05.21-.3.46-.64.71a.2.2 0 0 0-.14-.07.2.2 0 0 0-.2.2v.1c-.41.28-.88.53-1.25.7a.2.2 0 0 0 .16.35c.11-.05.63-.3 1.17-.63.1.34.3.64.7.64.47 0 1-.38 1.3-.95l.13.19c.5.56 1.45.57 1.5.57a.2.2 0 0 0 0-.4s-.15 0-.24-.1c-.05-.07-.07-.15-.06-.26.02-.24.8-.42 1.47-.43a.2.2 0 0 0 .18-.13l.2-.55a.2.2 0 0 0-.18-.26Zm-.86-.93h.02c.01 0 .04 0 .08.06l.03.06c-.02.05-.16.14-.44.23.13-.24.25-.34.31-.35Zm-1.17 2.56a1.2 1.2 0 0 1-.54-.33c-.16-.18-.21-.4-.18-.68a.57.57 0 0 1 .04-.09c.28-.02 1.01.09 1.06.3-.22.11-.39.27-.41.5a.82.82 0 0 0 .03.3Zm4.15-4.43-.2-.58a.2.2 0 0 0-.38.08c.14 1.34.4 3.96.4 4.26 0 .27-.49.8-1.26 1.19a.2.2 0 1 0 .17.35c.7-.36 1.47-.99 1.47-1.54 0-.29-.2-2.36-.31-3.52a.2.2 0 0 0 .1-.24Zm1.62 1.76a.2.2 0 0 0 .33-.19.98.98 0 0 1-.03-.38.2.2 0 0 0 .2-.16.2.2 0 0 0-.16-.23.35.35 0 0 0-.32.11.45.45 0 0 0-.1.21l-.23-.22a.2.2 0 1 0-.27.27l.58.59Zm.44.2-.73.52a.2.2 0 1 0 .23.32l.73-.53a.2.2 0 1 0-.23-.31Zm-.04.73c-.1.08-.08.2.02.26.02.01.07.09.06.28 0 .1.13.2.3.2.16 0 .3-.08.3-.19.02-.4-.18-.54-.26-.58-.13-.07-.32-.05-.42.03Z"/><path d="M19.15 11.8a.2.2 0 0 0 .2-.19c0-.29-.02-.6-.04-.94.2.31.35.6.46.85a.2.2 0 1 0 .35-.16c-.17-.41-.5-.96-.89-1.53a42.77 42.77 0 0 0-.25-1.92.2.2 0 0 0 .2-.2l.03.05a.7.7 0 0 1 .07.48.2.2 0 0 0 .38.07 1.1 1.1 0 0 0-.12-.76.2.2 0 0 0-.27-.06.2.2 0 0 0-.09.18.19.19 0 0 0-.02-.06l-.33-.51a.2.2 0 0 0-.35.14c0 .01.15.87.28 1.9a41.48 41.48 0 0 0-.45-.62 74.65 74.65 0 0 0-.06-.79.2.2 0 0 0 .12-.27l-.2-.4a.2.2 0 0 0-.37.12l.07.76a54.48 54.48 0 0 0-.33-.44.2.2 0 0 0-.04-.32l-.39-.2a.2.2 0 0 0-.24.3c.01.01.5.61 1.06 1.39.1 1.28.17 2.62.08 2.9-.02.05-.05.11-.08.12-.12.01-.4-.25-.54-.53-.08-.16-.2-.18-.26-.18-.2.01-.29.24-.44.66-.1.3-.24.67-.39.83-.08-.1-.18-.43-.24-.77a.2.2 0 0 0 .38-.07c0-.29-.2-2.5-.32-3.7a.2.2 0 0 0 .11-.25l-.19-.59a.2.2 0 0 0-.38.08c.13 1.4.38 4.08.39 4.45v-.01a.2.2 0 0 0-.39.05c.06.4.2 1.08.54 1.2a.33.33 0 0 0 .1.01.38.38 0 0 0 .28-.12c.2-.22.35-.62.48-.98l.1-.25c.17.26.48.58.8.56.11-.01.31-.07.42-.38.1-.31.06-1.4-.01-2.43.16.23.33.46.48.7.06.58.1 1.16.1 1.64 0 .1.1.2.2.2Z"/><path d="M20.63 10.78c-.14-1.03-.33-2.22-.45-2.95a.2.2 0 0 0 .2-.3l-.35-.47a.2.2 0 0 0-.35.15c0 .02.35 2.02.57 3.62.08.61-.04 1.16-.32 1.46a.86.86 0 0 1-.72.27.2.2 0 0 0-.02.39h.1c.36 0 .68-.13.92-.39.37-.4.52-1.04.42-1.78Z"/><path d="M18.52 12.06c-.11.08-.1.2.02.28l.03.04-.04.04c-.12.08-.12.2 0 .28.06.04.13.05.21.05a.41.41 0 0 0 .22-.05c.2-.13.23-.25.23-.34-.01-.18-.2-.29-.25-.31a.44.44 0 0 0-.42.01Zm-.72 4.28h-1.36v-.2a.2.2 0 1 0-.39 0v.2H5.73c.39.39 1.17.58 1.75.58h8.57v.39c0 .1.09.2.2.2h1.55a.58.58 0 0 0 0-1.18Zm0 .78h-1.36v-.2H18l-.04-.1a.19.19 0 0 1 .04.1.2.2 0 0 1-.2.2Z"/></g><circle cx="12" cy="12" r="11.5" stroke="#FFF"/></g></svg>