<svg xmlns="http://www.w3.org/2000/svg" width="24" height="24"><g fill="none" fill-rule="evenodd"><circle cx="12" cy="12" r="11.9" fill="#D80027" fill-rule="nonzero"/><path fill="#000" fill-rule="nonzero" d="M18.78 8.9h-4.34a1.56 1.56 0 0 0-1.14-2.64c-.52 0-1.01.26-1.3.7a1.57 1.57 0 1 0-2.44 1.95H5.22c.03 1.16.99 2.09 2.15 2.08H7.3c0 1.16.94 2.1 2.09 2.1 0 .37.1.71.27 1.01l-1.73 1.74 1.33 1.33 1.88-1.89.23.07-1.14 2.57 1.77 1.9 1.77-1.9-1.14-2.57.23-.07 1.88 1.89 1.33-1.33-1.74-1.74c.18-.3.28-.66.28-1.02A2.1 2.1 0 0 0 16.7 11h-.07c1.15 0 2.15-.93 2.15-2.08Z"/><circle cx="12" cy="12" r="11.5" stroke="#FFF"/></g></svg>