<svg xmlns="http://www.w3.org/2000/svg" width="24" height="24"><g fill="none" fill-rule="evenodd"><circle cx="12" cy="12" r="11.8" fill="#0089E9"/><path fill="#A8EF84" d="M12.9 10.8c.2 0 0 .1-.1.1 0 .1-.1.5.1.4 0-.2-.1-.3.2-.4-.1-.2.8.4 1.1.2-.2 0 .5-.1.3 0-.2 0 .1.1.1.1.2 0 .3.2.1.2.3-.1.6.2.8.4.1 0 .6-.1.5.1.1-.1.4.1.4.2.1-.1.2.4.3.4-.1.1-.7.6-.2.3.1.2.3.2.4.1 0-.2.3-.1.4 0h.2s.1 0 .1.1c.1 0-.1.1 0 .1v.2c.4-.3 1.8.1 1.8.7-.1.3-.5.5-.6.8-.2-.1-.1.6-.1.8-.2.3-.3 1-.7.8-.3.1-.8.3-1 .5.1.3-.3.9-.6 1 .1 0 .4-.3.1-.3 0 .5-1.1 1.3-1.3.5-.1.4.7.7 0 1-.9-.1-.5.5-.9.4-.4-.2-.2.4.1.2 0 .1-.4 0-.1.1-1.4 1.2.5.4-.7 1.4l-.2.2c.1 0 .1.1 0 .1h.1s.1.1 0 .1c-.2 0-.6.6-.6.2-.1.1.1 0 0 .1.1-.1.2-.2 0-.1 0 0-.1 0 0 .1h-.1s-.1-.1 0 0v-.1c-.1 0 0 0 0-.1-.1.1-.1-.2 0-.1 0 0-.1-.1 0 0 0 0-.1-.1 0-.1-.1-.1-.1-.1 0-.1 0-.1 0 0-.1 0v-.1h-.1c-.1 0 0-.1 0 0-.1 0-.1-.1 0 0-.1 0-.1-.1 0-.1v-.1s-.1.1-.1-.1c0-.1.1 0-.1-.2 0 0 .1 0 .1.1-.1-.1.2.1.1-.1H12.3c0-.1.1 0 0-.1.1 0 .1-.1 0-.1 0 .1-.2-.1-.2 0-.1-.1.1-.1.1-.1.1 0-.1 0 .1-.1.1 0 .1.1 0 .1 0 0 .1 0 0 0h.1v.1c.1 0 0-.1.1-.2-.1 0 0-.1.1 0-.2-.1 0 0 0-.2-.1 0 0-.5.1-.4 0-.2-.5-.1-.2-.5-.1-.4.1-.6.2-.9.1-.8.5-1.9.3-2.7-.3-.4-1-.4-1.1-.9-.1-.5-1.2-1.1-.6-1.5 0 0 .1-.2 0-.1-.4 0 .2-.6.2-.6.3-.2.4-.6.2-.9-.2-.2.2-.1-.1-.2-.3-.2-.3.4-.4.2-.1-.1-.2-.1-.4-.1 0-.4.1 0 .4-.1.3-.1.6-.1.7.2v-.1c.3-.1.2-.4.5-.4 0-.1.4-.3.5-.4Zm-1.7 9.9c.3.2.3.8.7.9.1.3-1.1 0-.9 0h-.2c-.1 0 .3-.2.2 0 .2 0 0-.1 0-.1s.1.1.1 0c0 .1 0-.1.2.1-.2-.2-.2-.3-.1-.5-.2-.1-.2-.1-.1-.3v-.1c.1.1 0 0 .1 0Zm-1-17.4c.6.4 1.6 0 1.3.7.1-.1-.1.1 0 .1s.2-.1.1 0c-.1-.1.4-.1.3 0 .1-.1.2-.1.1 0 .1 0 .4-.1.2.1.2-.1.1 0 .1 0s.4-.1.1.1c.1 0 .2 0 0 .1.2-.1.3 0 .1.1.2 0 .2.1 0 .1.1.1-.1.1.1.1.2.1.1 0 .1.1 0 0 .1 0 0 .1.1 0 .5.1.4.2.1-.1-.1-.1 0 0-.3.3-.4-.2-.5-.1.1.1-.1 0 0 .1.1 0 .4.4.2.2.2.4-.7-.2-.1.2-.4 0-.6-.4-.7-.3-.4.2-.4-.3-.1-.1.9-.2-.1-.9-.8-.7.1.1.3.2.1.2.3.7-.4.2-.2.4-1.5 1.2-.4.8.6 1.9.3-.2-.1-1.4.4-1.4.6-.1.7.5.6.6.1 0 .1-.1.1 0 .1-.1.1-.1.1 0 .2-.1 0-.6.3-.1.1-.1.1.1.1.1.1-.1.2.2.1.2.1.1.7.3.1.4 1.2 0-.4.5-.9.6.1.2.1-.3.5-.2-.3.2.5.4.2.5-.4.2-.4.1-.3 0 .1-.3-.8.6-.9.6 0 .1-.1.3-.1.2-.1-.3 0 .1-.1-.1 0 .1.2.2.1.3-.9 1.7.2.2-1.6.6-.9 1.8.9.5.7.9-.4.6.6.1.3.7-1.4 0-2.8-1.6-3.2-2.4-.3.2-.3-1-.1-1-.1-.2-.3-.4-.5-.3h-.1s.1-.1 0-.1c.1 0-.1-.1 0-.1l-.1-.1v-.1l-.4-.6c.1.3-.1-.1-.1 0 .3.2-.6-.2-.4-.2-.4-.2-1.6.3-.9-.1-.2 0-.7.8-1.1.7.4-.1.9-.7.1-.4-.2-.2 0-.3-.2-.2-.4-.1.3-.1-.1-.1-.3-.2.4-.2.4-.4-.4.1-1-.5-.2-.3.2 0 0-.1.1-.1-1.2-1.1 3.1-.4 4-.2.2.1-.2.1.2.1.4-.1.6.4.4-.1.3-.1.9.1 1.1 0 0 .3 0 0 .2-.1.4 0-1.4-.5-.6-.5.1-.1-.2-.2 0-.1-.2-.2.1-.1 0-.2.6.1.1.1.4.4.1-.1.4.2.2.3.1 0 .2 0 .1.1.1 0 .1.2.1.1 0-.2.2 0 .1.1.1.3.4-.2.2-.2s-.5-.2-.3-.6c-.4.3-.2-.4-.5-.4.1-.1-.2-.4.1-.4Zm2 6.9c.8.1.2.8-.1.4 0 0 .2 0 .1-.4Zm-1-2.7c-.5.1-.3.9-.1.1.3-.2.3.4.4 0 .3.2-.2-.1-.3-.1Zm-.4-.3c-.1 0-.1 0 0 0-.8.4 1 .4 0 0ZM9.1 3.9c1.8 1.2-1.6.6-.4.5-1.1-.1-.3-.5.2-.3-.1-.3.3.2.2 0v-.2Zm2.6-1.8c.2-.2 2.5.1.8.2.4.1 0 0-.1.1.8-.3.1.1-.1.2.2 0-.2.1-.3.1.3.1 0 .1-.1.1.3.1 0 0-.2 0 .2 0 .1 0 0 .1.1 0 .4.1.1.1.2 0-.3.3-.4.2 1 .2-1.2.3-.4-.1-.3-.2.5.1.4-.1-.3.3-.3 0-.2 0 0-.1-.3.1-.3 0 0-.2.5 0 .4-.1.4 0-.4-.1-.1-.1-.5-.4.1-.2.3-.1-.3-.1-.1-.1.2-.2-.2 0 .1-.1.1-.1-.1 0-.3 0-.1-.1-.1 0-.6.4-.4.1.1-.1-.1 0-.1 0-.1.1-.3.1-.2 0-.1 0-.4.1-.2-.1.1 0 .4-.1.1-.1-.3.1-.4 0-.2-.1-.5 0 .1-.2.6-.1.4.1-.4-.1-.1-.1.4 0 .3.2.5.2Zm-1.3.4c1.6.5-.6.7.2.4h-.1c.1 0-.7-.1-.2-.2-.3 0-.1-.1-.1-.1-.3-.1.2-.1.2-.1-.1 0-.1 0 0 0Z"/><path fill="#FFF" fill-rule="nonzero" d="M12 0a12 12 0 1 0 0 24 12 12 0 0 0 0-24Zm0 .96a11.04 11.04 0 1 1 0 22.08A11.04 11.04 0 0 1 12 .96Z"/></g></svg>