<?xml version="1.0" encoding="UTF-8"?>
<svg width="24px" height="24px" viewBox="0 0 24 24" version="1.1" xmlns="http://www.w3.org/2000/svg" xmlns:xlink="http://www.w3.org/1999/xlink">
    <!-- Generator: Sketch 55.1 (78136) - https://sketchapp.com -->
    <title>Flags/slovakia</title>
    <desc>Created with Sketch.</desc>
    <g id="Icons" stroke="none" stroke-width="1" fill="none" fill-rule="evenodd">
        <g id="Flags/slovakia">
            <g id="slovakia">
                <g id="Group" transform="translate(0.500000, 0.500000)" fill-rule="nonzero">
                    <path d="M10.9563604,-2.70894418e-14 L12.0436396,-2.70894418e-14 C16.8152505,0.222060107 20.8270106,3.35208549 22.347125,7.65828125 L0.652875031,7.65828125 C2.1729894,3.35208549 6.18474947,0.222060107 10.9563604,-1.1059903e-13 Z" id="Combined-Shape" fill="#F5F5F5"></path>
                    <path d="M0.652890889,15.3165176 L22.3471091,15.3165176 C20.8268801,19.6229808 16.8146924,22.7531171 12.0426735,22.9747988 L10.9573265,22.9747988 C6.1853076,22.7531171 2.1731199,19.6229808 0.652890889,15.3165176 Z" id="Combined-Shape" fill="#FF4B55"></path>
                    <path d="M0.652890889,7.65823633 L22.3471091,7.65823633 C22.769946,8.85603719 23,10.1448411 23,11.487377 C23,12.8299128 22.769946,14.1187167 22.3471091,15.3165176 L0.652890889,15.3165176 C0.230053976,14.1187167 0,12.8299128 0,11.487377 C0,10.1448411 0.230053976,8.85603719 0.652890889,7.65823633 Z" id="Combined-Shape" fill="#41479B"></path>
                </g>
                <path d="M7.68201562,17.5980937 C7.51045312,17.4995625 3.47742188,15.1537969 3.47742188,11.5482187 L3.47742188,6.62001562 L12.1742812,6.62001562 L12.1742812,11.5482188 C12.1742812,15.1537969 8.14125,17.4995625 7.9696875,17.5980938 L7.825875,17.6801719 L7.68201562,17.5980937 Z" id="Shape" fill="#FF4B55" fill-rule="nonzero"></path>
                <polygon id="Shape" fill="#F5F5F5" fill-rule="nonzero" points="10.1035781 10.6785469 8.7369375 10.8585469 8.28135937 10.8585469 8.28135937 10.0429688 8.55464062 10.0429688 9.648 10.2230156 9.49992188 9.58739063 9.648 8.95190625 8.55464062 9.13185937 8.28135937 9.13185937 8.28135937 8.856375 8.46135937 7.48973438 7.82582812 7.67479688 7.19025 7.48973438 7.37025 8.856375 7.37025 9.13185937 7.096875 9.13185937 6.00360937 8.95190625 6.15164062 9.58739063 6.00360937 10.2230156 7.096875 10.0429688 7.37025 10.0429688 7.37025 10.8585469 6.91471875 10.8585469 5.54807812 10.6785469 5.73314062 11.314125 5.54807812 11.9496563 6.91471875 11.7696563 7.37025 11.7696563 7.37025 13.8674063 8.28135937 13.8674063 8.28135937 11.7696563 8.7369375 11.7696563 10.1035781 11.9496563 9.91851563 11.314125"></polygon>
                <path d="M7.82582812,12.9977344 C7.227,12.9977344 6.71334375,13.3610156 6.492375,13.8790781 C6.45346875,13.8758906 6.41610937,13.8674063 6.37635937,13.8674063 C5.6045625,13.8674063 4.979625,14.4723281 4.93532812,15.2329219 C6.10935937,16.6781719 7.57982812,17.5393594 7.68201562,17.5980938 L7.82582812,17.6801719 L7.96964062,17.5980938 C8.07182812,17.5393594 9.54229687,16.6781719 10.7163281,15.2329219 C10.6720781,14.4722813 10.0470938,13.8674063 9.27529688,13.8674063 C9.23554688,13.8674063 9.19823438,13.8758906 9.15928125,13.8790781 C8.9383125,13.3610156 8.42465625,12.9977344 7.82582812,12.9977344 Z" id="Shape" fill="#41479B" fill-rule="nonzero"></path>
                <path d="M11.8843594,6.9099375 C11.8843594,6.9099375 11.8843594,10.3886719 11.8843594,11.5482656 C11.8843594,15.027 7.82582812,17.3461406 7.82582812,17.3461406 C7.82582812,17.3461406 3.76729687,15.027 3.76729687,11.5482656 C3.76729687,10.3886719 3.76729687,6.9099375 3.76729687,6.9099375 L11.8843594,6.9099375 L11.8843594,6.9099375 Z M12.4641562,6.33014062 L11.8843594,6.33014062 L3.76729687,6.33014062 L3.1875,6.33014062 L3.1875,6.9099375 L3.1875,11.5482656 C3.1875,15.3200625 7.36054687,17.7480469 7.53815625,17.8495781 L7.82582812,18.0139219 L8.1135,17.8495781 C8.29110937,17.748 12.4641562,15.3200625 12.4641562,11.5482656 L12.4641562,6.9099375 L12.4641562,6.33014062 L12.4641562,6.33014062 Z" id="Shape" fill="#F5F5F5" fill-rule="nonzero"></path>
                <circle id="Oval" stroke="#FFFFFF" cx="12" cy="12" r="11.5"></circle>
            </g>
        </g>
    </g>
</svg>