<?xml version="1.0" encoding="UTF-8"?>
<svg width="24px" height="24px" viewBox="0 0 24 24" version="1.1" xmlns="http://www.w3.org/2000/svg" xmlns:xlink="http://www.w3.org/1999/xlink">
    <!-- Generator: Sketch 55.1 (78136) - https://sketchapp.com -->
    <title>Flags/israel</title>
    <desc>Created with Sketch.</desc>
    <g id="Icons" stroke="none" stroke-width="1" fill="none" fill-rule="evenodd">
        <g id="Flags/israel">
            <g id="israel">
                <g id="Group" transform="translate(0.500000, 0.500000)" fill-rule="nonzero">
                    <circle id="Oval" fill="#EEEEEE" cx="11.5" cy="11.5" r="11.5"></circle>
                    <path d="M15.8304687,8.99785156 L12.9375,8.99785156 L11.5,6.50019531 L10.0580078,8.99785156 L7.16953125,8.99785156 L8.61152344,11.5 L7.17402344,14.0021484 L10.0580078,14.0021484 L11.5,16.4998047 L12.9419922,14.0021484 L15.8304687,14.0021484 L14.3884766,11.5 L15.8259766,8.99785156 L15.8304687,8.99785156 Z M13.2699219,11.5 L12.3849609,13.0363281 L10.6150391,13.0363281 L9.72558594,11.5 L10.6150391,9.96367188 L12.3849609,9.96367188 L13.2744141,11.5 L13.2699219,11.5 Z M11.5,8.42734375 L11.8279297,8.99785156 L11.1720703,8.99785156 L11.5,8.42734375 Z M8.840625,9.96367188 L9.50097656,9.96367188 L9.16855469,10.5341797 L8.840625,9.96367188 L8.840625,9.96367188 Z M8.840625,13.0363281 L9.16855469,12.4658203 L9.50097656,13.0363281 L8.840625,13.0363281 L8.840625,13.0363281 Z M11.5,14.5726563 L11.1720703,14.0021484 L11.8279297,14.0021484 L11.5,14.5726563 Z M14.159375,13.0363281 L13.4990234,13.0363281 L13.8314453,12.4658203 L14.159375,13.0363281 Z M13.4990234,9.96367188 L14.159375,9.96367188 L13.8314453,10.5341797 L13.4990234,9.96367188 Z M18.6605469,2.50214844 L4.33945312,2.50214844 C3.28855792,3.33927773 2.39166478,4.35322302 1.6890625,5.4984375 L21.3109375,5.4984375 C20.6083352,4.35322302 19.7114421,3.33927773 18.6605469,2.50214844 Z M4.33945312,20.4978516 L18.6605469,20.4978516 C19.7114421,19.6607223 20.6083352,18.646777 21.3109375,17.5015625 L1.6890625,17.5015625 C2.39166478,18.646777 3.28855792,19.6607223 4.33945312,20.4978516 Z" id="Shape" fill="#0052B4"></path>
                </g>
                <circle id="Oval" stroke="#FFFFFF" cx="12" cy="12" r="11.5"></circle>
            </g>
        </g>
    </g>
</svg>