<?xml version="1.0" encoding="UTF-8"?>
<svg width="24px" height="24px" viewBox="0 0 24 24" version="1.1" xmlns="http://www.w3.org/2000/svg" xmlns:xlink="http://www.w3.org/1999/xlink">
    <!-- Generator: Sketch 55.1 (78136) - https://sketchapp.com -->
    <title>Flags/greece</title>
    <desc>Created with Sketch.</desc>
    <g id="Icons" stroke="none" stroke-width="1" fill="none" fill-rule="evenodd">
        <g id="Flags/greece">
            <g id="greece">
                <circle id="Oval" fill="#EEEEEE" fill-rule="nonzero" cx="12.0233918" cy="11.9766082" r="11.9766082"></circle>
                <path d="M12.0233803,8.90999769 L23.4917412,8.90999769 C23.1970008,7.81431695 22.7470358,6.76679176 22.1556215,5.799491 L12.0233803,5.799491 L12.0233803,8.90999769 Z M4.62832877,21.347368 L19.4184318,21.347368 C20.5037433,20.4796286 21.4300093,19.4286077 22.1556215,18.2415178 L1.89113907,18.2415178 C2.61675126,19.4286077 3.54301724,20.4796286 4.62832877,21.347368 Z M4.27574163,2.98699693 C3.34045899,3.79657551 2.53601881,4.74693475 1.89113907,5.80414745 L4.27574163,5.80414745 L4.27574163,2.98699693 Z M12.0233803,12.0205044 L12.0233803,8.90999769 L7.37479709,8.90999769 L7.37479709,12.0205044 L4.27574163,12.0205044 L4.27574163,8.90999769 L0.555019352,8.90999769 C0.00707488261,10.9472038 0.00707488261,13.093805 0.555019352,15.1310111 L23.4917412,15.1310111 C23.7561816,14.1391878 23.9,13.0961437 23.9,12.0205044 L12.0233803,12.0205044 L12.0233803,12.0205044 Z M12.0233803,0.09999 C10.3764271,0.09999 8.8037029,0.439920342 7.37479709,1.04525847 L7.37479709,5.799491 L12.0233803,5.799491 L12.0233803,2.69364076 L19.4184318,2.69364076 C17.3183994,1.01127421 14.7103265,0.0965537733 12.0233803,0.09999 L12.0233803,0.09999 Z" id="Shape" fill="#338AF3" fill-rule="nonzero"></path>
                <circle id="Oval" stroke="#FFFFFF" cx="12" cy="12" r="11.5"></circle>
            </g>
        </g>
    </g>
</svg>