<?xml version="1.0" encoding="UTF-8"?>
<svg width="24px" height="24px" viewBox="0 0 24 24" version="1.1" xmlns="http://www.w3.org/2000/svg" xmlns:xlink="http://www.w3.org/1999/xlink">
    <!-- Generator: Sketch 55.1 (78136) - https://sketchapp.com -->
    <title>Flags/uzbekistan</title>
    <desc>Created with Sketch.</desc>
    <g id="Icons" stroke="none" stroke-width="1" fill="none" fill-rule="evenodd">
        <g id="Flags/uzbekistan">
            <g id="uzbekistan">
                <g id="Group" transform="translate(0.500000, 0.500000)" fill-rule="nonzero">
                    <path d="M0.545117208,7.96498316 C-0.181705736,10.2350731 -0.181705736,12.6754379 0.545117208,14.9455279 L11.4634051,15.4377458 L22.3816931,14.9455279 C23.108516,12.6754379 23.108516,10.2350731 22.3816931,7.96498316 L11.4634051,7.47276526 L0.545117208,7.96498316 Z" id="Path" fill="#EEEEEE"></path>
                    <path d="M22.3816931,7.96498316 L11.4634051,7.47276526 L0.545117208,7.96498316 C0.440629366,8.29338665 0.351043722,8.62634663 0.276634718,8.96284308 L22.6501756,8.96284308 C22.5756951,8.62783843 22.4861095,8.29637173 22.3816931,7.96945787 L22.3816931,7.96498316 Z M0.276634718,13.9521427 C0.351127043,14.2871444 0.440712495,14.6186106 0.545117208,14.9455279 L0.549591916,14.9455279 L11.4634051,15.4377458 L22.3816931,14.9455279 C22.4862044,14.6171313 22.5757903,14.2841703 22.6501756,13.947668 L0.276634718,13.947668 L0.276634718,13.9521427 Z" id="Shape" fill="#D80027"></path>
                    <path d="M11.4634051,22.9105093 C16.5735219,22.9105093 20.9050394,19.5634267 22.3816931,14.9455279 L0.545117208,14.9455279 C2.06512571,19.6924087 6.47909985,22.912439 11.4634051,22.9105093 L11.4634051,22.9105093 Z" id="Path" fill="#6DA544"></path>
                    <path d="M11.4634051,1.15463195e-14 C6.35328841,1.15463195e-14 2.0217709,3.34708433 0.545117208,7.96498316 L22.3816931,7.96498316 C20.8628972,3.21722719 16.4481736,-0.00334990323 11.4634051,1.15463195e-14 Z" id="Path" fill="#338AF3"></path>
                </g>
                <path d="M5.50972763,4.93540856 C5.50844728,3.83752564 6.2722972,2.88708644 7.34474708,2.65214008 C7.18053027,2.61717537 7.01303203,2.59995592 6.84513619,2.6007501 C5.95975545,2.61459445 5.15839586,3.12811502 4.77593421,3.92674699 C4.39347255,4.72537896 4.49574582,5.6716457 5.04001548,6.3701158 C5.58428514,7.0685859 6.47686053,7.39902461 7.34474708,7.2233463 C6.29416342,6.98988327 5.50972763,6.05603113 5.50972763,4.93540856 L5.50972763,4.93540856 Z M8.73151751,6 L8.88560311,6.48560311 L9.39922179,6.48560311 L8.98365759,6.78910506 L9.14241245,7.27470817 L8.72684825,6.97587549 L8.31595331,7.27470817 L8.47470817,6.78910506 L8.05447471,6.48560311 L8.56809339,6.48560311 L8.73151751,6 Z M10.3657588,6 L10.5245136,6.48560311 L11.0381323,6.48560311 L10.6178988,6.78910506 L10.7766537,7.27470817 L10.3657588,6.97587549 L9.94552529,7.27470817 L10.1089494,6.78910506 L9.69338521,6.48560311 L10.2070039,6.48560311 L10.3657588,6 Z M12,6 L12.1587549,6.48560311 L12.6723735,6.48560311 L12.2521401,6.78910506 L12.4155642,7.27470817 L11.9953307,6.97587549 L11.5844358,7.27470817 L11.7431907,6.78910506 L11.3276265,6.48560311 L11.8412451,6.48560311 L12,6 Z M13.6342412,6 L13.7929961,6.48560311 L14.3066148,6.48560311 L13.8863813,6.78910506 L14.0498054,7.27470817 L13.6342412,6.97587549 L13.218677,7.27470817 L13.3774319,6.78910506 L12.9618677,6.48560311 L13.4754864,6.48560311 L13.6342412,6 Z M15.2684825,6 L15.4272374,6.48560311 L15.940856,6.48560311 L15.5252918,6.78910506 L15.6840467,7.27470817 L15.2684825,6.97587549 L14.8529183,7.27470817 L15.0116732,6.78910506 L14.6007782,6.48560311 L15.1143969,6.48560311 L15.2684825,6 Z M10.3657588,4.30038911 L10.5245136,4.78599222 L11.0381323,4.78599222 L10.6178988,5.08949416 L10.7766537,5.57509728 L10.3657588,5.27159533 L9.94552529,5.57509728 L10.1089494,5.08949416 L9.69338521,4.78599222 L10.2070039,4.78599222 L10.3657588,4.30038911 Z M12,4.30038911 L12.1587549,4.78599222 L12.6723735,4.78599222 L12.2521401,5.08949416 L12.4155642,5.57509728 L11.9953307,5.27159533 L11.5844358,5.57509728 L11.7431907,5.08949416 L11.3276265,4.78599222 L11.8412451,4.78599222 L12,4.30038911 Z M13.6342412,4.30038911 L13.7929961,4.78599222 L14.3066148,4.78599222 L13.8863813,5.08949416 L14.0498054,5.57509728 L13.6342412,5.27159533 L13.218677,5.57509728 L13.3774319,5.08949416 L12.9618677,4.78599222 L13.4754864,4.78599222 L13.6342412,4.30038911 Z M15.2684825,4.30038911 L15.4272374,4.78599222 L15.940856,4.78599222 L15.5252918,5.08949416 L15.6840467,5.57509728 L15.2684825,5.27159533 L14.8529183,5.57509728 L15.0116732,5.08949416 L14.6007782,4.78599222 L15.1143969,4.78599222 L15.2684825,4.30038911 Z M12,2.60077821 L12.1587549,3.08638132 L12.6723735,3.08638132 L12.2521401,3.38521401 L12.4202335,3.87548638 L12,3.57198444 L11.5891051,3.87548638 L11.7478599,3.38521401 L11.3322957,3.08638132 L11.8459144,3.08638132 L12,2.60077821 Z M13.6342412,2.60077821 L13.7929961,3.08638132 L14.3066148,3.08638132 L13.8863813,3.38521401 L14.0544747,3.87548638 L13.6389105,3.57198444 L13.2233463,3.87548638 L13.3821012,3.38521401 L12.966537,3.08638132 L13.4801556,3.08638132 L13.6342412,2.60077821 Z M15.2684825,2.60077821 L15.4272374,3.08638132 L15.940856,3.08638132 L15.5252918,3.38521401 L15.688716,3.87548638 L15.2731518,3.57198444 L14.8575875,3.87548638 L15.0163424,3.38521401 L14.6054475,3.08638132 L15.1190661,3.08638132 L15.2684825,2.60077821 Z" id="Shape" fill="#EEEEEE" fill-rule="nonzero"></path>
                <circle id="Oval" stroke="#FFFFFF" cx="12" cy="12" r="11.5"></circle>
            </g>
        </g>
    </g>
</svg>