<?xml version="1.0" encoding="UTF-8"?>
<svg width="24px" height="24px" viewBox="0 0 24 24" version="1.1" xmlns="http://www.w3.org/2000/svg" xmlns:xlink="http://www.w3.org/1999/xlink">
    <!-- Generator: Sketch 55.1 (78136) - https://sketchapp.com -->
    <title>Flags/algeria</title>
    <desc>Created with Sketch.</desc>
    <g id="Icons" stroke="none" stroke-width="1" fill="none" fill-rule="evenodd">
        <g id="Flags/algeria">
            <g id="algeria">
                <path d="M12,0 C18.627417,0 24,5.372583 24,12 C24,18.627417 18.627417,24 12,24 C12,23.4796875 10.434375,12 10.434375,12 L12,0 Z" id="Path" fill="#EEEEEE" fill-rule="nonzero"></path>
                <path d="M11.9,23.9 C5.38303995,23.9 0.1,18.5721885 0.1,12 C0.1,5.42781148 5.38303995,0.1 11.9,0.1" id="Path" fill="#496E2D" fill-rule="nonzero"></path>
                <circle id="Oval" stroke="#FFFFFF" cx="12" cy="12" r="11.5"></circle>
                <g id="Group" transform="translate(7.500000, 7.781250)" fill="#D80027" fill-rule="nonzero">
                    <polygon id="Path" points="7.078125 1.9171875 6.09375 3.2765625 4.5 2.7609375 5.484375 4.1109375 4.5 5.4703125 6.09375 4.95 7.078125 6.309375 7.078125 4.63125 8.671875 4.1109375 7.078125 3.5953125"></polygon>
                    <path d="M5.49375,7.6078125 C4.0835133,7.60192656 2.82430425,6.72335296 2.33202185,5.40181588 C1.83973945,4.08027881 2.21727978,2.59200387 3.27998193,1.66492979 C4.34268407,0.737855709 5.86842369,0.565758054 7.1109375,1.2328125 C5.47204448,-0.368918514 2.84799456,-0.348858057 1.23378164,1.27774245 C-0.380431292,2.90434295 -0.380431292,5.52846955 1.23378164,7.15507005 C2.84799456,8.78167056 5.47204448,8.80173101 7.1109375,7.2 C6.6144805,7.46908784 6.0584407,7.60930657 5.49375,7.6078125 L5.49375,7.6078125 Z" id="Path"></path>
                </g>
            </g>
        </g>
    </g>
</svg>