<?xml version="1.0" encoding="UTF-8"?>
<svg width="24px" height="24px" viewBox="0 0 24 24" version="1.1" xmlns="http://www.w3.org/2000/svg" xmlns:xlink="http://www.w3.org/1999/xlink">
    <!-- Generator: Sketch 55.1 (78136) - https://sketchapp.com -->
    <title>Flags/england</title>
    <desc>Created with Sketch.</desc>
    <g id="Icons" stroke="none" stroke-width="1" fill="none" fill-rule="evenodd">
        <g id="Flags/england">
            <g id="england">
                <path d="M12,24 C5.372583,24 0,18.627417 0,12 C0,5.372583 5.372583,0 12,0 C18.627417,0 24,5.372583 24,12 C24,18.627417 18.627417,24 12,24 Z" id="Combined-Shape" fill="#FFFFFF"></path>
                <path d="M22.8456281,8.16666667 C23.2694088,9.36565255 23.5,10.6558975 23.5,12 C23.5,13.3441025 23.2694088,14.6343475 22.8456281,15.8333333 L15.8333333,15.8333333 L15.8333333,22.8456281 C14.6343475,23.2694088 13.3441025,23.5 12,23.5 C10.6558975,23.5 9.36565255,23.2694088 8.16666667,22.8456281 L8.16666667,15.8333333 L1.15437188,15.8333333 C0.730591181,14.6343475 0.5,13.3441025 0.5,12 C0.5,10.6558975 0.730591181,9.36565255 1.15437188,8.16666667 L8.16666667,8.16666667 L8.16666667,1.15437188 C9.36565255,0.730591181 10.6558975,0.5 12,0.5 C13.3441025,0.5 14.6343475,0.730591181 15.8333333,1.15437188 L15.8333333,8.16666667 L22.8456281,8.16666667 Z" id="Combined-Shape" fill="#E62E43"></path>
                <circle id="Oval" stroke="#FFFFFF" cx="12" cy="12" r="11.5"></circle>
            </g>
        </g>
    </g>
</svg>