<?xml version="1.0" encoding="UTF-8"?>
<svg width="24px" height="24px" viewBox="0 0 24 24" version="1.1" xmlns="http://www.w3.org/2000/svg" xmlns:xlink="http://www.w3.org/1999/xlink">
    <!-- Generator: Sketch 55.1 (78136) - https://sketchapp.com -->
    <title>Flags/egypt</title>
    <desc>Created with Sketch.</desc>
    <g id="Icons" stroke="none" stroke-width="1" fill="none" fill-rule="evenodd">
        <g id="Flags/egypt">
            <g id="egypt">
                <ellipse id="Oval" fill="#EEEEEE" fill-rule="nonzero" cx="12" cy="12" rx="11.8" ry="12"></ellipse>
                <path d="M13.7714063,10.901625 C13.7714063,10.6265156 13.501875,10.4322656 13.240875,10.5192656 L12.7504688,10.6827187 L12.6314063,9.9635625 C12.5602031,9.5345625 12.1926094,9.22317187 11.7575156,9.22317187 L11.2987969,9.22317187 L10.8190313,9.81365625 L11.4542813,9.81365625 L11.2764844,10.6917656 L10.7590781,10.5192656 C10.4980781,10.4322656 10.2285469,10.6265156 10.2285469,10.901625 L10.2285469,13.8852187 L10.9426406,13.171125 L10.606125,14.1804844 L10.2285,14.1804844 L10.2285,14.7709687 L13.7713125,14.7709687 L13.7713125,14.1804844 L13.3936875,14.1804844 L13.0571719,13.171125 L13.7712656,13.8852187 L13.7712656,10.901625 L13.7714063,10.901625 L13.7714063,10.901625 Z M11.7047813,14.1804375 L11.2287656,14.1804375 L11.5560938,13.3063125 L11.7047813,13.4962031 L11.7047813,14.1804375 Z M12.2952188,14.1804375 L12.2952188,13.4962031 L12.4439063,13.3063125 L12.7712344,14.1804375 L12.2952188,14.1804375 L12.2952188,14.1804375 Z M12,13.1102344 C12,13.1102344 11.0866406,12.4920937 11.1235313,11.3388281 C11.1235313,11.3388281 11.6863125,11.2465781 12,10.7483437 C12.3136875,11.2465312 12.8764688,11.3388281 12.8764688,11.3388281 C12.9133594,12.4920937 12,13.1102344 12,13.1102344 Z" id="Shape" fill="#F0C727" fill-rule="nonzero"></path>
                <path d="M12.05,0.2 C7.09905323,0.200596856 2.67122757,3.24348042 0.95,7.828125 L23.15,7.828125 C21.4287724,3.24348042 17.0009468,0.200596856 12.05,0.2 Z" id="Path" fill="#FF4B55" fill-rule="nonzero"></path>
                <path d="M12.05,23.8 C17.0009468,23.7994031 21.4287724,20.7565196 23.15,16.171875 L0.95,16.171875 C2.67122757,20.7565196 7.09905323,23.7994031 12.05,23.8 Z" id="Path" fill="#464655" fill-rule="nonzero"></path>
                <circle id="Oval" stroke="#FFFFFF" cx="12" cy="12" r="11.5"></circle>
            </g>
        </g>
    </g>
</svg>