<?xml version="1.0" encoding="UTF-8"?>
<svg width="24px" height="24px" viewBox="0 0 24 24" version="1.1" xmlns="http://www.w3.org/2000/svg" xmlns:xlink="http://www.w3.org/1999/xlink">
    <!-- Generator: Sketch 55.1 (78136) - https://sketchapp.com -->
    <title>Flags/portugal</title>
    <desc>Created with Sketch.</desc>
    <g id="Icons" stroke="none" stroke-width="1" fill="none" fill-rule="evenodd">
        <g id="Flags/portugal">
            <g id="portugal">
                <g id="Group-2" transform="translate(0.500000, 0.500000)" fill-rule="nonzero">
                    <path d="M11.5,23 C5.14872538,23 0,17.8512746 0,11.5 C0,5.14872538 5.14872538,0 11.5,0 C17.8512746,0 23,5.14872538 23,11.5 C23,17.8512746 17.8512746,23 11.5,23 Z" id="Combined-Shape" fill="#FF4B55"></path>
                    <path d="M8.32761719,0.443137506 L8.32761719,22.5568625 C3.51917816,21.1798013 0,16.7508747 0,11.5 C0,6.24912531 3.51917816,1.82019872 8.32761719,0.443137506 Z" id="Combined-Shape" fill="#73AF00"></path>
                </g>
                <circle id="Oval" fill="#FFE15A" fill-rule="nonzero" cx="8.69296875" cy="12" r="5.2678125"></circle>
                <path d="M10.4503594,10.2425625 L10.4503594,12.5858438 C10.4503594,13.5548906 9.66196875,14.3432813 8.69292188,14.3432813 C7.723875,14.3432813 6.93548438,13.5548906 6.93548438,12.5858438 L6.93548438,10.2425625 L10.4503594,10.2425625 L10.4503594,10.2425625 Z M11.0361563,9.07092188 L6.34959375,9.07092188 C6.0260625,9.07092188 5.76379687,9.3331875 5.76379687,9.65671875 L5.76379687,12.5857969 C5.76379687,14.2035 7.07521875,15.514875 8.692875,15.514875 C10.3105313,15.514875 11.6219531,14.2034531 11.6219531,12.5857969 L11.6219531,9.65671875 C11.6219531,9.3331875 11.3596875,9.07092188 11.0361563,9.07092188 L11.0361563,9.07092188 Z" id="Shape" fill="#FF4B55" fill-rule="nonzero"></path>
                <path d="M9.93426562,10.7586094 L9.93426562,12.4137656 C9.93426562,13.0982813 9.37739062,13.6551563 8.692875,13.6551563 C8.00835937,13.6551563 7.45148437,13.0982813 7.45148437,12.4137656 L7.45148437,10.7586094 L9.93426562,10.7586094" id="Shape" fill="#F5F5F5" fill-rule="nonzero"></path>
                <g id="Group" transform="translate(6.046875, 9.328125)" fill="#FFE15A" fill-rule="nonzero">
                    <circle id="Oval" cx="0.755203125" cy="0.785671875" r="1"></circle>
                    <circle id="Oval" cx="5.44176562" cy="0.785671875" r="1"></circle>
                    <circle id="Oval" cx="0.755203125" cy="3.12895312" r="1"></circle>
                    <circle id="Oval" cx="5.44176562" cy="3.12895312" r="1"></circle>
                    <circle id="Oval" cx="3.09848437" cy="0.785671875" r="1"></circle>
                    <circle id="Oval" cx="4.85723437" cy="5.28895312" r="1"></circle>
                    <circle id="Oval" cx="1.37442187" cy="5.28895312" r="1"></circle>
                </g>
                <g id="Group" transform="translate(7.265625, 10.640625)" fill="#41479B" fill-rule="nonzero">
                    <path d="M1.805625,1.210875 L1.805625,1.71534375 C1.805625,1.92398438 1.63589063,2.09367188 1.42729688,2.09367188 C1.21865625,2.09367188 1.04896875,1.9239375 1.04896875,1.71534375 L1.04896875,1.210875 L1.805625,1.210875" id="Shape"></path>
                    <path d="M1.805625,0.014859375 L1.805625,0.519328125 C1.805625,0.72796875 1.63589063,0.89765625 1.42729688,0.89765625 C1.21865625,0.89765625 1.04896875,0.727921875 1.04896875,0.519328125 L1.04896875,0.014859375 L1.805625,0.014859375" id="Shape"></path>
                    <path d="M1.805625,2.419125 L1.805625,2.92359375 C1.805625,3.13223438 1.63589063,3.30192188 1.42729688,3.30192188 C1.21865625,3.30192188 1.04896875,3.1321875 1.04896875,2.92359375 L1.04896875,2.419125 L1.805625,2.419125" id="Shape"></path>
                    <path d="M2.8246875,1.210875 L2.8246875,1.71534375 C2.8246875,1.92398438 2.65495312,2.09367188 2.44635938,2.09367188 C2.23771875,2.09367188 2.06803125,1.9239375 2.06803125,1.71534375 L2.06803125,1.210875 L2.8246875,1.210875" id="Shape"></path>
                    <path d="M0.786515625,1.210875 L0.786515625,1.71534375 C0.786515625,1.92398438 0.61678125,2.09367188 0.4081875,2.09367188 C0.199546875,2.09367188 0.029859375,1.9239375 0.029859375,1.71534375 L0.029859375,1.210875 L0.786515625,1.210875" id="Shape"></path>
                </g>
                <circle id="Oval" stroke="#FFFFFF" cx="12" cy="12" r="11.5"></circle>
            </g>
        </g>
    </g>
</svg>