<svg xmlns="http://www.w3.org/2000/svg" width="24" height="24"><g fill="none" fill-rule="evenodd"><path fill="#FF4B55" fill-rule="nonzero" d="M12 23.8A11.8 11.8 0 1 1 12 .2a11.8 11.8 0 0 1 0 23.6Z"/><path fill="#F5F5F5" fill-rule="nonzero" d="M10.35 12.68c.4 0 .76-.1 1.05-.2-2.88 2.24-5.7-.88-4.76-3.4.02-.06.1-.06.11 0 .07.3.31.85 1.06.74.76-.11 1.24-.13 1.77.55.54.68.18 1.25.98 1.78.2.13.5.15.74.14-.65.23-1.74.4-2.61-.57a.1.1 0 0 0-.15 0 .1.1 0 0 0-.01.14c.57.64 1.23.82 1.82.82Zm-2.1-.86.12-.35.37.01c.05 0 .07-.06.03-.09l-.3-.23.13-.35a.05.05 0 0 0-.08-.05l-.3.2-.3-.22a.05.05 0 0 0-.08.05l.1.36-.3.21a.05.05 0 0 0 .03.1h.37l.1.36c.02.05.09.05.1 0ZM12.4 11c-.32.25-.55.54-.72.8.96-3.53 5.08-2.71 5.85-.13.01.05-.05.1-.1.06-.23-.2-.75-.5-1.29.04-.53.55-.9.85-1.74.62-.84-.22-.89-.9-1.86-.83-.23.01-.48.18-.66.33.38-.58 1.14-1.36 2.42-1.12a.1.1 0 0 0 .13-.08.1.1 0 0 0-.09-.12 2.34 2.34 0 0 0-1.94.43Zm2.2-.57.1.35-.3.22a.05.05 0 0 0 .03.09h.37l.12.36c.01.04.08.04.1 0l.11-.35h.37c.05 0 .07-.06.03-.09l-.3-.22.13-.35a.05.05 0 0 0-.08-.06l-.3.21-.3-.22a.05.05 0 0 0-.08.06Zm-3.74.82c.15.37.38.67.59.9-3.18-1.82-1.36-5.6 1.33-5.7.06 0 .08.07.04.1-.26.19-.67.62-.28 1.27s.59 1.09.16 1.84c-.43.76-1.09.64-1.27 1.59-.05.22.05.51.15.73-.46-.51-1.03-1.45-.47-2.63a.1.1 0 0 0-.05-.14.1.1 0 0 0-.14.05c-.37.77-.3 1.45-.06 1.99Zm-.01-2.28.37-.01.13.34c.02.05.08.05.1 0l.1-.36.37-.02c.04 0 .06-.06.02-.09l-.3-.2.09-.36a.05.05 0 0 0-.08-.05l-.3.23-.3-.2a.05.05 0 0 0-.08.05l.13.35-.29.24a.05.05 0 0 0 .04.08Zm2.1 3.5a3.17 3.17 0 0 0-.98-.44c3.65-.2 4.17 3.97 1.96 5.51-.05.03-.1-.01-.09-.07.12-.29.24-.88-.44-1.21-.7-.34-1.1-.6-1.14-1.46-.05-.87.57-1.13.2-2.03-.08-.21-.31-.4-.52-.53.67.18 1.66.67 1.83 1.96 0 .05.05.1.1.09h.01a.1.1 0 0 0 .1-.12 2.34 2.34 0 0 0-1.03-1.7Zm1.24 1.9-.3.21-.3-.21a.05.05 0 0 0-.08.05l.1.36-.3.21a.05.05 0 0 0 .04.1h.37l.11.35c.02.05.08.05.1 0l.12-.35h.37c.04 0 .06-.06.03-.09l-.3-.22.11-.35a.05.05 0 0 0-.07-.06Zm-2.45-.86c.12-.38.13-.76.12-1.06 1.3 3.41-2.52 5.18-4.65 3.54-.05-.03-.02-.1.03-.1.32.02.91-.05 1.03-.8.1-.76.23-1.22 1.04-1.53.81-.31 1.25.2 2-.41.17-.15.28-.43.34-.66.03.68-.13 1.77-1.3 2.33a.1.1 0 0 0-.06.13.1.1 0 0 0 .14.06 2.34 2.34 0 0 0 1.31-1.5Zm-1.43 1.76-.3-.22.12-.35a.05.05 0 0 0-.08-.06l-.3.21-.3-.22a.05.05 0 0 0-.08.06l.1.35-.3.22a.05.05 0 0 0 .04.09h.37l.1.36c.02.04.09.04.1 0l.12-.35h.37c.05 0 .07-.06.04-.09Z"/><circle cx="12" cy="12" r="11.5" stroke="#FFF"/></g></svg>