<?xml version="1.0" encoding="UTF-8"?>
<svg width="24px" height="24px" viewBox="0 0 24 24" version="1.1" xmlns="http://www.w3.org/2000/svg" xmlns:xlink="http://www.w3.org/1999/xlink">
    <!-- Generator: Sketch 55.1 (78136) - https://sketchapp.com -->
    <title>Flags/paraguay</title>
    <desc>Created with Sketch.</desc>
    <g id="Icons" stroke="none" stroke-width="1" fill="none" fill-rule="evenodd">
        <g id="Flags/paraguay">
            <g id="paraguay">
                <g id="Group" transform="translate(0.500000, 0.500000)" fill-rule="nonzero">
                    <circle id="Oval" fill="#EEEEEE" cx="11.5" cy="11.5000003" r="11.5"></circle>
                    <path d="M11.5,-1.05693232e-13 C7.08562075,-0.00104850478 3.06023591,2.5248543 1.14101562,6.50019564 L21.8589844,6.50019564 C19.9397641,2.5248543 15.9143793,-0.00104850478 11.5,-1.05693232e-13 Z" id="Path" fill="#D80027"></path>
                    <path d="M11.5,23.0000007 C15.9143793,23.0010492 19.9397641,20.4751464 21.8589844,16.499805 L1.14101562,16.499805 C3.06023591,20.4751464 7.08562075,23.0010492 11.5,23.0000007 Z" id="Path" fill="#0052B4"></path>
                </g>
                <path d="M14.953125,8.53125 L13.846875,9.6328125 C14.6005255,10.3766194 14.8281647,11.5029943 14.4225101,12.4810956 C14.0168554,13.4591969 13.0588557,14.0938437 12,14.0859375 C10.9464713,14.0826985 9.99811416,13.446605 9.59538418,12.4730847 C9.1926542,11.4995643 9.41447047,10.3793886 10.1578125,9.6328125 L9.046875,8.53125 C7.42022893,10.1613909 7.42211748,12.8012481 9.05109428,14.4290599 C10.6800711,16.0568718 13.3199289,16.0568718 14.9489057,14.4290599 C16.5778825,12.8012481 16.5797711,10.1613909 14.953125,8.53125 L14.953125,8.53125 Z" id="Path" fill="#6DA544" fill-rule="nonzero"></path>
                <polygon id="Path" fill="#FFDA44" fill-rule="nonzero" points="12 9.9140625 12.3890625 11.109375 13.640625 11.109375 12.6234375 11.85 13.0125 13.0453125 11.9953125 12.3046875 10.978125 13.0453125 11.3671875 11.85 10.35 11.109375 11.60625 11.109375"></polygon>
                <circle id="Oval" stroke="#FFFFFF" cx="12" cy="12" r="11.5"></circle>
            </g>
        </g>
    </g>
</svg>