<?xml version="1.0" encoding="UTF-8"?>
<svg width="24px" height="24px" viewBox="0 0 24 24" version="1.1" xmlns="http://www.w3.org/2000/svg" xmlns:xlink="http://www.w3.org/1999/xlink">
    <!-- Generator: Sketch 55.1 (78136) - https://sketchapp.com -->
    <title>Flags/azerbaijan</title>
    <desc>Created with Sketch.</desc>
    <g id="Icons" stroke="none" stroke-width="1" fill="none" fill-rule="evenodd">
        <g id="Flags/azerbaijan">
            <g id="azerbaijan">
                <path d="M23.9533074,11.9533074 C23.9533074,10.4918288 23.6918288,9.09105058 23.2062257,7.79766537 L12,7.27470817 L0.793774319,7.79766537 C-0.202464603,10.4785321 -0.202464603,13.4280827 0.793774319,16.1089494 L12,16.6319066 L23.2062257,16.1089494 C23.6918288,14.8155642 23.9533074,13.414786 23.9533074,11.9533074 Z" id="Path" fill="#FF4B55" fill-rule="nonzero"></path>
                <path d="M12,23.9066148 C16.9983267,23.9060047 21.4685262,20.7954909 23.2062257,16.1089494 L0.793774319,16.1089494 C2.53147383,20.7954909 7.00167325,23.9060047 12,23.9066148 Z" id="Path" fill="#73AF00" fill-rule="nonzero"></path>
                <path d="M0.793774319,7.79766537 L23.2062257,7.79766537 C21.4672301,3.11267303 16.9973252,0.0039329092 12,0.0039329092 C7.00267484,0.0039329092 2.53276988,3.11267303 0.793774319,7.79766537 Z" id="Path" fill="#82AFFF" fill-rule="nonzero"></path>
                <g id="Group" transform="translate(6.770428, 7.750973)" fill="#EEEEEE" fill-rule="nonzero">
                    <path d="M5.49105058,7.57821012 C4.0857171,7.5743011 2.82980218,6.70018726 2.33801621,5.38370557 C1.84623024,4.06722387 2.22145416,2.58378048 3.28003377,1.65945009 C4.33861339,0.735119688 5.85909532,0.563270928 7.09727626,1.22801556 C5.46476026,-0.367483033 2.85092065,-0.347500633 1.24298871,1.27277069 C-0.364943233,2.89304201 -0.364943233,5.50695799 1.24298871,7.12722931 C2.85092065,8.74750063 5.46476026,8.76748303 7.09727626,7.17198444 C6.60414001,7.43926876 6.05196393,7.57891794 5.49105058,7.57821012 L5.49105058,7.57821012 Z" id="Path"></path>
                    <polygon id="Path" points="8.08715953 1.86770428 8.53540856 3.12373541 9.74007782 2.54941634 9.17042802 3.7540856 10.4264591 4.20233463 9.16575875 4.65058366 9.74007782 5.85525292 8.53540856 5.28093385 8.08715953 6.54163424 7.63891051 5.28093385 6.43424125 5.85525292 7.00856031 4.65058366 5.74785992 4.20233463 7.00856031 3.7540856 6.43424125 2.54941634 7.63891051 3.12373541"></polygon>
                </g>
                <circle id="Oval" stroke="#FFFFFF" cx="12" cy="12" r="11.5"></circle>
            </g>
        </g>
    </g>
</svg>