<?xml version="1.0" encoding="UTF-8"?>
<svg width="24px" height="24px" viewBox="0 0 24 24" version="1.1" xmlns="http://www.w3.org/2000/svg" xmlns:xlink="http://www.w3.org/1999/xlink">
    <!-- Generator: Sketch 55.1 (78136) - https://sketchapp.com -->
    <title>Flags/malaysia</title>
    <desc>Created with Sketch.</desc>
    <g id="Icons" stroke="none" stroke-width="1" fill="none" fill-rule="evenodd">
        <g id="Flags/malaysia">
            <g id="malaysia">
                <g id="Group-2" transform="translate(0.500000, 0.500000)" fill-rule="nonzero">
                    <circle id="Oval" fill="#EEEEEE" cx="11.5" cy="11.5" r="11.5"></circle>
                    <path d="M11.0013672,11.5 L23,11.5 C23,10.4623047 22.8652344,9.45605469 22.6046875,8.49921875 L11.0013672,8.49921875 L11.0013672,11.5 Z M11.0013672,5.4984375 L21.3109375,5.4984375 C20.6083352,4.35322302 19.7114421,3.33927773 18.6605469,2.50214844 L11.0013672,2.50214844 L11.0013672,5.4984375 Z M11.5,23.0000094 C14.1017405,23.0033244 16.6271086,22.1208714 18.6605469,20.4978516 L4.33945313,20.4978516 C6.37289138,22.1208714 8.89825954,23.0033244 11.5,23.0000094 Z M1.6890625,17.5015625 L21.3109375,17.5015625 C21.8836528,16.5684127 22.3193524,15.5578315 22.6046875,14.5007812 L0.3953125,14.5007812 C0.680647565,15.5578315 1.11634722,16.5684127 1.6890625,17.5015625 Z" id="Shape" fill="#D80027"></path>
                    <path d="M11.5,11.5 L11.5,0 C5.14872538,0 0,5.14872538 0,11.5 L11.5,11.5 Z" id="Path" fill="#0052B4"></path>
                </g>
                <g id="Group" transform="translate(3.140625, 3.609375)" fill="#FFDA44" fill-rule="nonzero">
                    <path d="M4.8375,6.6609375 C3.60058631,6.66041447 2.49375269,5.89264159 2.05999472,4.73427645 C1.62623676,3.57591132 1.95655924,2.26998524 2.88891102,1.45716551 C3.8212628,0.644345785 5.16003141,0.49516641 6.2484375,1.0828125 C4.81321081,-0.32415298 2.51144672,-0.308894934 1.09499846,1.11697387 C-0.321449801,2.54284267 -0.321449801,4.84465733 1.09499846,6.27052613 C2.51144672,7.69639493 4.81321081,7.71165298 6.2484375,6.3046875 C5.81659944,6.53851404 5.33326689,6.66095829 4.8421875,6.6609375 L4.8375,6.6609375 Z" id="Path"></path>
                    <polygon id="Path" points="5.671875 1.6078125 6.2015625 2.709375 7.3921875 2.4328125 6.8578125 3.534375 7.8140625 4.29375 6.6234375 4.5609375 6.628125 5.7796875 5.6765625 5.0203125 4.7203125 5.7796875 4.725 4.5609375 3.534375 4.29375 4.490625 3.534375 3.95625 2.4328125 5.146875 2.7140625"></polygon>
                </g>
                <circle id="Oval" stroke="#FFFFFF" cx="12" cy="12" r="11.5"></circle>
            </g>
        </g>
    </g>
</svg>