<?xml version="1.0" encoding="UTF-8"?>
<svg width="24px" height="24px" viewBox="0 0 24 24" version="1.1" xmlns="http://www.w3.org/2000/svg" xmlns:xlink="http://www.w3.org/1999/xlink">
    <!-- Generator: Sketch 55.1 (78136) - https://sketchapp.com -->
    <title>Flags/turkey</title>
    <desc>Created with Sketch.</desc>
    <g id="Icons" stroke="none" stroke-width="1" fill="none" fill-rule="evenodd">
        <g id="Flags/turkey">
            <g id="turkey">
                <path d="M12,22.5208333 C5.64872538,22.5208333 0.5,17.5866382 0.5,11.5 C0.5,5.41336182 5.64872538,0.479166667 12,0.479166667 C18.3512746,0.479166667 23.5,5.41336182 23.5,11.5 C23.5,17.5866382 18.3512746,22.5208333 12,22.5208333 Z" id="Combined-Shape" fill="#FF4B55" fill-rule="nonzero"></path>
                <ellipse id="Oval" stroke="#FFFFFF" cx="12" cy="11.5" rx="11.5" ry="11"></ellipse>
                <g id="Group" transform="translate(3.093750, 6.558594)" fill="#F5F5F5" fill-rule="nonzero">
                    <path d="M9.937125,2.95064844 L10.6713281,3.87105273 L11.8177031,3.50332227 C11.8818281,3.48274805 11.9363438,3.55224219 11.8979531,3.60556445 L11.211375,4.55912109 L11.9305781,5.49035156 C11.9707969,5.54241602 11.9187188,5.61357227 11.8539375,5.59506445 L10.6954219,5.26399023 L9.99351563,6.20725977 C9.95428125,6.25999805 9.8675625,6.23452734 9.86592188,6.16975 L9.83648438,5.01157422 L8.6835,4.66333984 C8.61904688,4.64388867 8.6175,4.55696484 8.68129688,4.53544727 L9.82157813,4.15073633 L9.81089063,2.99224609 C9.81028125,2.92742383 9.8960625,2.89921289 9.937125,2.95064844 Z" id="Shape"></path>
                    <path d="M5.87714063,8.08171484 C3.808125,8.08171484 2.12971875,6.47324219 2.12971875,4.48863867 C2.12971875,2.50767383 3.808125,0.895607422 5.87714063,0.895607422 C6.64692188,0.895607422 7.35684375,1.12250781 7.94840625,1.5065 C8.03901563,1.56530273 8.14242188,1.45120117 8.06653125,1.37564258 C7.182375,0.494679688 5.93095313,-0.0427207031 4.5435,0.00265039063 C2.15976563,0.0805898438 0.186375,1.91214453 0.034078125,4.19323242 C-0.140390625,6.80602344 2.01839063,8.97736719 4.70620313,8.97736719 C6.0301875,8.97736719 7.2200625,8.44692969 8.0698125,7.59880469 C8.14490625,7.523875 8.04126563,7.41152539 7.95154688,7.46978906 C7.35932813,7.85454492 6.64828125,8.08171484 5.87714063,8.08171484 Z" id="Shape"></path>
                </g>
            </g>
        </g>
    </g>
</svg>