<svg xmlns="http://www.w3.org/2000/svg" xmlns:xlink="http://www.w3.org/1999/xlink" viewBox="0 0 32 32" width="24" height="24" style="border-color: rgba(0,0,0,0);border-width: bpx;border-style: undefined" filter="none">
    <defs><linearGradient id="1,1,rs,1,f0skf0d1,f005f0dr,f000,00rskh00rs,rsrsmsi7rs" x1="0" x2="100%" y1="0" y2="0" gradientTransform="matrix(-1.0230000000000001, 0.026000000000000096, -0.026000000000000096, -1.0230000000000001, 32.896, 15.008)" gradientUnits="userSpaceOnUse"><stop stop-color="#ffbc00" stop-opacity="1" offset="0"></stop><stop stop-color="#ffd1a7" stop-opacity="1" offset="1"></stop></linearGradient></defs>
    <g>
    <path d="M3.733 6.933l5.6 3.733 5.581-7.813c0.245-0.34 0.639-0.559 1.085-0.559s0.841 0.219 1.083 0.555l0.003 0.004 5.581 7.813 5.6-3.733c0.208-0.14 0.463-0.223 0.739-0.223 0.736 0 1.333 0.597 1.333 1.333 0 0.055-0.003 0.11-0.010 0.163l0.001-0.006-2.191 18.623c-0.081 0.666-0.643 1.177-1.324 1.177h-21.629c-0.681-0-1.243-0.511-1.323-1.171l-0.001-0.006-2.191-18.624c-0.006-0.047-0.009-0.1-0.009-0.155 0-0.736 0.597-1.333 1.333-1.333 0.275 0 0.531 0.083 0.743 0.226l-0.005-0.003zM16 20c1.473 0 2.667-1.194 2.667-2.667s-1.194-2.667-2.667-2.667v0c-1.473 0-2.667 1.194-2.667 2.667s1.194 2.667 2.667 2.667v0z" fill="url(#1,1,rs,1,f0skf0d1,f005f0dr,f000,00rskh00rs,rsrsmsi7rs)"></path>
    </g>
  </svg>