<svg xmlns="http://www.w3.org/2000/svg" xmlns:xlink="http://www.w3.org/1999/xlink" viewBox="0 0 32 32" width="55" height="55" style="border-color: rgba(0,0,0,0);border-width: bpx;border-style: undefined" filter="none">
    
    <g>
    <path d="M21.6 16.352c0.192-0.192 0.192-0.512 0-0.736l-4.16-4.128c-0.089-0.096-0.144-0.226-0.144-0.368s0.055-0.272 0.144-0.368l-0 0 1.216-1.216c0.091-0.089 0.215-0.144 0.352-0.144s0.261 0.055 0.352 0.144l6.080 6.080c0.224 0.224 0.224 0.544 0 0.736l-6.080 6.080c-0.091 0.089-0.215 0.144-0.352 0.144s-0.261-0.055-0.352-0.144l-1.216-1.216c-0.089-0.091-0.144-0.215-0.144-0.352s0.055-0.261 0.144-0.352l4.16-4.16zM19.36 16c0 1.472-1.216 2.656-2.688 2.656s-2.656-1.184-2.656-2.656c0-1.472 1.216-2.656 2.656-2.656s2.688 1.184 2.688 2.656zM13.504 16c0 1.056-0.864 1.92-1.92 1.92s-1.92-0.864-1.92-1.92 0.864-1.92 1.92-1.92 1.92 0.832 1.92 1.92zM9.184 16c0 0.768-0.64 1.376-1.408 1.376s-1.376-0.608-1.376-1.376 0.608-1.408 1.376-1.408 1.408 0.64 1.408 1.408z" fill="rgba(73.94999999999999,121.125,255,1)"></path>
    </g>
  </svg>