<svg id="Layer_1" data-name="Layer 1" xmlns="http://www.w3.org/2000/svg" viewBox="0 0 120 120">
  <title>_</title>
  <g>
    <path d="M85.81,120H34.19a8.39,8.39,0,0,1-8.38-8.39V8.39A8.39,8.39,0,0,1,34.19,0H85.81a8.39,8.39,0,0,1,8.38,8.39V111.61A8.39,8.39,0,0,1,85.81,120ZM34.19,3.87a4.52,4.52,0,0,0-4.51,4.52V111.61a4.52,4.52,0,0,0,4.51,4.52H85.81a4.52,4.52,0,0,0,4.51-4.52V8.39a4.52,4.52,0,0,0-4.51-4.52Z"/>
    <polygon points="73.7 10.32 46.3 10.32 39.28 3.3 42.01 0.57 47.9 6.45 72.1 6.45 77.99 0.57 80.72 3.3 73.7 10.32"/>
    <rect x="47.1" y="103.23" width="25.81" height="3.87"/>
  </g>
</svg>
