<svg width="24" height="24" viewBox="0 0 24 24" fill="none" xmlns="http://www.w3.org/2000/svg">
<path d="M15.6874 21.94C16.9166 21.94 17.9165 20.9401 17.9165 19.7113V4.28641C17.9165 3.05719 16.9165 2.0573 15.6874 2.0573L8.34911 2.05714C7.11989 2.05714 6.12 3.05719 6.12 4.28626V19.7112C6.12 20.9402 7.12004 21.9399 8.34911 21.9399L15.6874 21.94ZM12.0179 21.1983C11.7913 21.1983 11.6066 21.0134 11.6066 20.7864C11.6066 20.5593 11.7911 20.3745 12.0179 20.3745C12.2449 20.3745 12.4301 20.5593 12.4301 20.7864C12.4301 21.0134 12.2449 21.1983 12.0179 21.1983ZM11.2573 3.03867V2.86627H12.7792V3.21106H11.2573V3.03867ZM7.39923 18.6827V4.96949C7.39923 4.44616 7.82542 4.02024 8.34923 4.02024H15.6871C16.211 4.02024 16.6372 4.44616 16.6372 4.96949L16.6373 18.6827C16.6373 19.2063 16.2111 19.6322 15.6873 19.6322H8.34899C7.82518 19.6322 7.39898 19.2063 7.39898 18.6827H7.39923Z" fill="#7782AA"/>
</svg>
