<svg xmlns="http://www.w3.org/2000/svg" xmlns:xlink="http://www.w3.org/1999/xlink" width="112" height="111"><defs><path id="a" d="M0 .2h85.2v85.2H0z"/></defs><g fill="none" fill-rule="evenodd"><path fill="none" d="M78.5 21.7a11.2 11.2 0 1 1 0 22.3 11.2 11.2 0 0 1 0-22.3m-24 16a24.5 24.5 0 0 0 3.6 8.8l-2.9 2.9a2.6 2.6 0 0 0 0 3.7l3.1 3a2.6 2.6 0 0 0 3.7 0l2.9-2.8a24.3 24.3 0 0 0 8.8 3.7v4a2.6 2.6 0 0 0 2.6 2.6h4.5a2.6 2.6 0 0 0 2.6-2.6v-4a24.5 24.5 0 0 0 8.8-3.7l2.9 2.9a2.6 2.6 0 0 0 3.7 0l3-3.1a2.6 2.6 0 0 0 0-3.7l-2.8-3a24.3 24.3 0 0 0 3.7-8.7h4a2.6 2.6 0 0 0 2.6-2.7v-4.3a2.6 2.6 0 0 0-2.6-2.7h-4a24.5 24.5 0 0 0-3.7-8.8l2.9-2.9a2.6 2.6 0 0 0 0-3.7l-3.2-3a2.6 2.6 0 0 0-3.7 0l-2.8 2.8a24.3 24.3 0 0 0-8.9-3.7v-4A2.6 2.6 0 0 0 80.7 2h-4.4a2.6 2.6 0 0 0-2.6 2.6v4a24.5 24.5 0 0 0-8.8 3.7L62 9.5a2.6 2.6 0 0 0-3.7 0l-3 3.1a2.6 2.6 0 0 0 0 3.7l2.8 2.9a24.3 24.3 0 0 0-3.7 8.8h-4a2.6 2.6 0 0 0-2.6 2.7V35a2.6 2.6 0 0 0 2.6 2.6h4z"/><g transform="translate(0 25)"><mask id="b" fill="#fff"><use xlink:href="#a"/></mask><path fill="#ACA190" d="M78.7 61a1.5 1.5 0 0 1-2 .8l-5.2-2a2 2 0 0 0-2.5.7 31.4 31.4 0 0 1-8.7 8.7 2 2 0 0 0-.8 2.5l2.2 5.1a1.5 1.5 0 0 1-.9 2l-5.6 2.4a1.5 1.5 0 0 1-2-.9l-2.1-5a2 2 0 0 0-2.3-1.3c-4 .8-8.2.8-12.4 0a2 2 0 0 0-2.3 1.2l-2 5.1a1.5 1.5 0 0 1-2 .9l-5.7-2.3a1.5 1.5 0 0 1-.8-.9 1.5 1.5 0 0 1 0-1.2l2.1-5a2 2 0 0 0-.7-2.6 31.4 31.4 0 0 1-8.8-8.7 2 2 0 0 0-2.5-.8L8.6 62c-.8.3-1.7 0-2-.9l-2.3-5.6a1.5 1.5 0 0 1 .8-2l5.1-2.1a2 2 0 0 0 1.3-2.3 31.4 31.4 0 0 1 0-12.4c.2-1-.3-1.9-1.3-2.3l-5-2.1a1.5 1.5 0 0 1-1-.8 1.5 1.5 0 0 1 0-1.2l2.4-5.6c.1-.4.4-.7.8-.9h1.2l5.1 2.2a2 2 0 0 0 2.5-.8 31.4 31.4 0 0 1 8.8-8.7 2 2 0 0 0 .7-2.5l-2.1-5.2a1.5 1.5 0 0 1 0-1.1c.2-.4.5-.7.8-.9L30 4.4a1.5 1.5 0 0 1 2 .8l2.2 5.2a2 2 0 0 0 2.6 1.1A2 2 0 0 0 38 8.8l-2.2-5.1a5.7 5.7 0 0 0-7.4-3L23 2.8A5.6 5.6 0 0 0 19.8 6a5.7 5.7 0 0 0 0 4.3l1.5 3.7a35.8 35.8 0 0 0-7.5 7.5L10.2 20a5.7 5.7 0 0 0-4.4 0 5.6 5.6 0 0 0-3 3L.3 28.6a5.7 5.7 0 0 0 0 4.4 5.6 5.6 0 0 0 3 3l3.7 1.5a34.8 34.8 0 0 0 0 10.7l-3.6 1.5a5.7 5.7 0 0 0-3 7.4l2.2 5.5a5.7 5.7 0 0 0 7.4 3l3.6-1.5a35.8 35.8 0 0 0 7.6 7.6l-1.5 3.6a5.7 5.7 0 0 0 0 4.3 5.6 5.6 0 0 0 3 3l5.6 2.4a5.7 5.7 0 0 0 7.4-3l1.5-3.7c3.5.6 7.1.6 10.6 0l1.5 3.6a5.7 5.7 0 0 0 5.3 3.5c.7 0 1.4-.1 2.1-.4l5.6-2.3a5.7 5.7 0 0 0 3-7.4L64 71.7a35.8 35.8 0 0 0 7.5-7.5l3.6 1.5a5.6 5.6 0 0 0 7.4-3.1l2.3-5.6a5.7 5.7 0 0 0 0-4.3 5.6 5.6 0 0 0-3-3.1l-5.2-2.1a2 2 0 0 0-2.7 1 2 2 0 0 0 1.1 2.8l5.2 2.1c.4.2.7.5.8.8.2.4.2.8 0 1.2L78.7 61z" mask="url(#b)"/></g><path fill="#ACA190" d="M42.5 53.7a2 2 0 1 0 0-4.1c-4.9 0-9.4 2-12.9 5.4A18 18 0 0 0 24.4 68c0 4.9 2 9.4 5.4 12.8A18 18 0 0 0 42.6 86h.1c4.9 0 9.4-2 12.8-5.4a18 18 0 0 0 5.3-12.9c0-1-1-2-2.1-2a2 2 0 0 0-2 2 14 14 0 0 1-4.1 10 14 14 0 0 1-10 4.2 14 14 0 0 1-10-4 14 14 0 0 1-4-10 14 14 0 0 1 4-9.9c2.6-2.7 6.2-4.2 10-4.2"/><path fill="#BDBCBC" d="M100.7 37.3a22.1 22.1 0 0 1-3.4 8 2 2 0 0 0 .2 2.7l3 2.8a.6.6 0 0 1 0 .8l-3.2 3.1a.5.5 0 0 1-.4.2.5.5 0 0 1-.4-.2L93.7 52a2 2 0 0 0-2.6-.3A22.5 22.5 0 0 1 83 55a2 2 0 0 0-1.7 2v4c0 .4-.3.6-.5.6h-4.5a.6.6 0 0 1-.5-.5v-4a2 2 0 0 0-1.7-2.1 22.1 22.1 0 0 1-8-3.4 2 2 0 0 0-1.2-.3 2 2 0 0 0-1.5.6l-2.8 2.9a.5.5 0 0 1-.4.1.5.5 0 0 1-.4-.1l-3.1-3.2a.6.6 0 0 1 0-.7l2.8-3a2 2 0 0 0 .3-2.5 22.5 22.5 0 0 1-3.4-8.1 2 2 0 0 0-2-1.7h-4a.6.6 0 0 1-.6-.5v-4.4c0-.3.3-.6.6-.6h4a2 2 0 0 0 2-1.7 22.1 22.1 0 0 1 3.4-8 2 2 0 0 0-.3-2.7L56.8 15a.5.5 0 0 1-.2-.4.5.5 0 0 1 .2-.4l3-3.1a.5.5 0 0 1 .5-.2.5.5 0 0 1 .4.2l2.8 2.8a2 2 0 0 0 2.6.3 22.5 22.5 0 0 1 8.1-3.4 2 2 0 0 0 1.7-2v-4c0-.3.2-.6.5-.6h4.4c.3 0 .6.3.6.6v4a2 2 0 0 0 1.6 2 22.1 22.1 0 0 1 8.1 3.4 2 2 0 0 0 2.6-.2l2.9-2.9a.5.5 0 0 1 .4-.2.5.5 0 0 1 .4.2l3 3.1a.6.6 0 0 1 0 .8l-2.8 2.9a2 2 0 0 0-.2 2.6 22.5 22.5 0 0 1 3.3 8 2 2 0 0 0 2 1.7h4.1c.3 0 .5.3.5.6V35c0 .3-.2.5-.5.5h-4a2 2 0 0 0-2 1.7zm6 2.4c2.6 0 4.7-2 4.7-4.7v-4.3c0-2.6-2.1-4.7-4.7-4.7h-2.4a26.5 26.5 0 0 0-2.7-6.5l1.7-1.7a4.7 4.7 0 0 0 0-6.6l-3-3.1a4.6 4.6 0 0 0-3.4-1.4c-1.2 0-2.4.5-3.3 1.4L92 9.8A26 26 0 0 0 85.5 7V4.7C85.5 2 83.4 0 80.8 0h-4.4a4.7 4.7 0 0 0-4.7 4.7V7a26.5 26.5 0 0 0-6.5 2.7L63.5 8a4.6 4.6 0 0 0-3.3-1.4c-1.2 0-2.4.5-3.3 1.4l-3.1 3a4.7 4.7 0 0 0 0 6.7l1.7 1.7a26 26 0 0 0-2.7 6.5h-2.4a4.7 4.7 0 0 0-4.7 4.7V35c0 2.5 2.1 4.6 4.7 4.6h2.4a26.5 26.5 0 0 0 2.7 6.5L53.8 48a4.7 4.7 0 0 0 0 6.6l3.1 3.1a4.6 4.6 0 0 0 3.3 1.4c1.3 0 2.4-.5 3.3-1.4l1.7-1.7a26 26 0 0 0 6.5 2.7V61c0 2.6 2 4.7 4.7 4.7h4.4a4.7 4.7 0 0 0 4.7-4.7v-2.4a26.5 26.5 0 0 0 6.4-2.7l1.7 1.7A4.6 4.6 0 0 0 97 59c1.3 0 2.5-.5 3.3-1.4l3.1-3a4.7 4.7 0 0 0 0-6.7l-1.7-1.7a26 26 0 0 0 2.7-6.5h2.4z"/><path fill="#BDBCBC" d="M78.5 42a9 9 0 0 1-9-9.2 9 9 0 0 1 9-9 9 9 0 0 1 9.1 9c0 5-4 9.1-9 9.1m0-22.3a13.2 13.2 0 1 0 0 26.5 13.2 13.2 0 0 0 0-26.5"/></g></svg>